<svg xmlns="http://www.w3.org/2000/svg" xmlns:xlink="http://www.w3.org/1999/xlink" viewBox="0 0 165.12 155.34"><defs><style>.cls-1{fill:none;}.cls-2{fill:#f2fedc;}.cls-3{clip-path:url(#clip-path);}.cls-4{font-size:78.54px;fill:#e0512b;font-family:DegularDisplay-Bold, Degular Display;font-weight:700;letter-spacing:-0.06em;}.cls-5{letter-spacing:-0.06em;}</style><clipPath id="clip-path" transform="translate(-0.21 -0.27)"><path class="cls-1" d="M117.69,153.66C89,164.14,70.48,131.37,70.48,131.37s-22.88,29.79-51.95,5.24,6.92-49.13,6.92-49.13S-10.81,76.23,3.23,42.09,54.72,34,54.72,34c.7-5.26,3.07-17.85,12.55-26.57a29,29,0,0,1,7.67-5.17C82.6-1.12,89.73.12,92.94.74c33.25,6.33,24.9,44.14,24.9,44.14s45.56-6.52,45.84,24.81S127.58,105,127.58,105,146.39,143.18,117.69,153.66Z"/></clipPath></defs><g id="Layer_2" data-name="Layer 2"><g id="Layer_2-2" data-name="Layer 2"><path class="cls-2" d="M117.61,153.55C89,164,70.51,131.31,70.51,131.31S47.69,161,18.69,136.53s6.91-49,6.91-49S-10.57,76.31,3.44,42.26s51.36-8,51.36-8C55.49,29,57.86,16.39,67.31,7.7A28.75,28.75,0,0,1,75,2.54C82.61-.86,89.72.39,92.92,1c33.17,6.32,24.84,44,24.84,44s45.45-6.5,45.73,24.75-36,35.26-36,35.26S146.24,143.09,117.61,153.55Z" transform="translate(-0.21 -0.27)"/><g class="cls-3"><text class="cls-4" transform="translate(3.32 86.56)">about<tspan class="cls-5"><tspan x="0" y="37.03">me</tspan></tspan></text></g></g></g></svg>