<?xml version="1.0" encoding="utf-8"?>
<!-- Generator: Adobe Illustrator 26.0.3, SVG Export Plug-In . SVG Version: 6.00 Build 0)  -->
<svg version="1.1" id="Layer_1" xmlns="http://www.w3.org/2000/svg" xmlns:xlink="http://www.w3.org/1999/xlink" x="0px" y="0px"
	 viewBox="0 0 165.1 155.3" style="enable-background:new 0 0 165.1 155.3;" xml:space="preserve">
<style type="text/css">
	.st0{fill:#F2FEDC;}
	.st1{clip-path:url(#SVGID_00000108301464980906392260000000124238389743858051_);}
	.st2{enable-background:new    ;}
	.st3{fill:#E0512B;}
</style>
<g id="Layer_2_00000168820056477210781230000015349878568619840190_">
	<g id="Layer_2-2">
		<path class="st0" d="M117.4,153.3C88.8,163.7,70.3,131,70.3,131s-22.8,29.7-51.8,5.2s6.9-49,6.9-49S-10.8,76,3.2,42s51.4-8,51.4-8
			c0.7-5.3,3.1-17.9,12.5-26.6c2.3-2.1,4.9-3.9,7.7-5.2c7.6-3.4,14.7-2.2,17.9-1.5c33.2,6.3,24.8,44,24.8,44s45.4-6.5,45.7,24.8
			s-36,35.3-36,35.3S146,142.8,117.4,153.3z"/>
		<g>
			<defs>
				<path id="SVGID_1_" d="M117.5,153.4c-28.7,10.5-47.2-22.3-47.2-22.3s-22.9,29.8-52,5.2s6.9-49.1,6.9-49.1S-11,76,3,41.8
					s51.5-8.1,51.5-8.1c0.7-5.3,3.1-17.9,12.6-26.6C69.3,5,71.9,3.3,74.7,2c7.7-3.4,14.8-2.1,18-1.5c33.2,6.3,24.9,44.1,24.9,44.1
					s45.6-6.5,45.8,24.8s-36.1,35.3-36.1,35.3S146.2,142.9,117.5,153.4z"/>
			</defs>
			<clipPath id="SVGID_00000146460505535769821780000011857351595823710350_">
				<use xlink:href="#SVGID_1_"  style="overflow:visible;"/>
			</clipPath>
			<g style="clip-path:url(#SVGID_00000146460505535769821780000011857351595823710350_);">
				<g class="st2">
					<path class="st3" d="M27.8,77.4h-0.2c-1.6,6.4-5.7,9.9-12,9.9c-6.4,0-11.3-3.5-11.3-10.8c0-6.8,4-11.4,13.8-11.4h9.7v-1.6
						c0-4-1.7-6.2-5.8-6.2c-3.5,0-5.8,1.6-6.5,5.9L5.4,61.8c0.9-7.8,5.5-13.4,17-13.4c11.3,0,16,5.5,16,15v23.1H27.8V77.4z
						 M27.8,72.3v-1.1h-8c-3.1,0-5,1.4-5,3.5c0,2.3,1.4,4.1,5.5,4.1C24.8,78.7,27.8,76,27.8,72.3z"/>
					<path class="st3" d="M48.8,59.4H49c1.8-7.9,6-11.1,12.5-11.1c9,0,13.6,7.3,13.6,19.4c0,12.6-4.8,19.9-13.8,19.9
						c-6.4,0-10.4-3.3-12.3-11.2h-0.2v10.1H38V38.4h10.8V59.4z M64.4,67.8c0-6.2-2.4-9.8-7.8-9.8c-4.9,0-7.9,3.4-7.9,9.5v0.7
						c0,6,2.9,9.8,7.9,9.8C62,78,64.4,74.2,64.4,67.8z"/>
					<path class="st3" d="M71.9,67.9c0-12.4,7.5-19.6,19.3-19.6c11.7,0,19.2,7.2,19.2,19.6c0,12.3-7.3,19.7-19.2,19.7
						C79.2,87.7,71.9,80.2,71.9,67.9z M82.6,67.9c0,6,3,10,8.5,10c5.6,0,8.6-3.9,8.6-10c0-6-3.1-9.8-8.6-9.8
						C85.7,58.1,82.6,61.9,82.6,67.9z"/>
					<path class="st3" d="M132.2,76.2H132c-1.7,8.5-6.1,11.5-12.1,11.5c-8.1,0-11.5-5.3-11.5-13.4V49.3h10.8v21.8
						c0,3.8,1.7,6.8,6.2,6.8c4.3,0,6.8-2.5,6.8-6.8V49.3h10.7v37.2h-10.7V76.2z"/>
					<path class="st3" d="M145,58.3h-4.3v-9h4.3V40h10.7v9.3h9.8v9h-9.8v14.5c0,3,1.1,4.4,4.3,4.4c1.6,0,3.5-0.5,4.9-0.9l1.2,9.9
						c-2.8,0.9-4.7,1.4-8.8,1.4c-8.6,0-12.3-5.7-12.3-12.8V58.3z"/>
				</g>
				<g class="st2">
					<path class="st3" d="M16.2,123.6H5.4V86.4h10.8v10.4h0.1c1.7-8.6,6.2-11.5,12.2-11.5c7.5,0,11,4.6,11.4,11.7H40
						c1.6-8.7,5.8-11.7,12.2-11.7c8.1,0,11.5,5.3,11.5,13.4v24.9H53v-21.8c0-3.8-1.8-6.8-6.3-6.8c-4.3,0-6.8,2.5-6.8,6.8v21.8H29.2
						v-21.8c0-3.8-1.7-6.8-6.2-6.8c-4.3,0-6.8,2.5-6.8,6.8V123.6z"/>
					<path class="st3" d="M61.7,105.8c0-12.9,7.1-20.4,19.2-20.4c11.5,0,17,7.3,17,17.4c0,1.6,0,2.9-0.2,4.9H72.4
						c0.7,5.3,3.5,7.7,8.6,7.7c4.9,0,6.6-2.4,7.5-5.3l9.3,2.6c-1.8,6.8-6.7,11.9-16.9,11.9C69.5,124.6,61.7,118.2,61.7,105.8z
						 M72.4,101.7h15.7c-0.3-4.9-2.7-7.5-7.5-7.5C75.9,94.2,73.1,96.4,72.4,101.7z"/>
				</g>
			</g>
		</g>
	</g>
</g>
</svg>
