<svg xmlns="http://www.w3.org/2000/svg" xmlns:xlink="http://www.w3.org/1999/xlink" viewBox="0 0 268.25 122.27"><defs><style>.cls-1{fill:none;}.cls-2{clip-path:url(#clip-path);}.cls-3{fill:#1b3d2f;}.cls-4{fill:#f2fedc;}</style><clipPath id="clip-path" transform="translate(15.37 3.57)"><path class="cls-1" d="M212.45,107.82c-8.54,0-15.47-2.72-20-7.75v7H172.61V78c0-4.17-2.37-4.65-4.15-4.65-2.89,0-4.35,1.56-4.35,4.65v29H144.27V78c0-4.17-2.37-4.65-4.15-4.65-2.89,0-4.35,1.56-4.35,4.65v29H115.93V65.2C105,64.75,97,59.68,93.35,50.94,90.31,62.57,83,65.23,76.94,65.23c-5,0-9.72-.54-13-5.64l0,4.16H28.54V57.93c-2.82,4.52-7.19,6.81-13.07,6.81C6.07,64.74,0,58.59,0,49.07c0-6.39,2.76-13.88,15.12-15.32L1.24,31.83l.16-1.45c1.31-12.07,9.38-18.19,24-18.19,8.68,0,15,2.28,18.74,6.79V0H64l.21,17.65c3.15-5.24,7.79-5.76,13.27-5.76,8.12,0,13.69,5.07,16.06,14.44,3.88-9.26,12.36-14.44,24-14.44,9,0,16.22,3.12,20.79,8.9V13.38h19.84V42.43c0,4.16,2.37,4.64,4.15,4.64,2.89,0,4.35-1.56,4.35-4.64v-29h21.2V2.28h19.85v11.1h10.8V30.25h-10.8v13c0,2,.36,2.56,2.76,2.56a19.35,19.35,0,0,0,4.4-.83c.29-.09.56-.16.78-.21l1.67-.42L218.53,55C229.62,57.07,236,65.49,236,78.27c0,.62,0,1.17,0,1.69,0,1.47,0,2.73-.11,4.77l-.11,1.39H221.66l14.12,4-.38,1.43C233.41,99,227.81,107.82,212.45,107.82Zm-23-18.29,2.81,5.13c3.6,6.55,10.77,10.16,20.19,10.16,10.24,0,16.84-4.25,19.63-12.63l-11.6-3.29c-1.12,2.45-3.08,4.45-7.83,4.45-5.81,0-8.75-2.63-9.52-8.54l-.22-1.69h30c.05-1.16,0-2.06,0-3.13,0-.52,0-1.08,0-1.72,0-6.79-2.08-18.49-16-20.5l-1.15-.16-1.08-9.52a18.31,18.31,0,0,1-4.26.69c-3.93,0-5.76-1.77-5.76-5.56v-16h10.8V16.38h-10.8V5.28H190.86v11.1h-21.2V42.43c0,4.71-2.82,7.64-7.35,7.64s-7.15-2.86-7.15-7.64v-26H141.32V33l-2.86-6.23C135,19.1,127.52,14.89,117.53,14.89c-12.43,0-20.76,6.57-22.85,18l-.22,1.21-2.78,0-.13-1.38c-.79-8.16-3.87-17.89-14.12-17.89-6.48,0-10.58.49-12.93,10.2l-.28,1.14h-3L61,3H47.12V33.28l-2.91-8.13c-2.4-6.7-8.56-10-18.83-10C13,15.19,6.18,19.8,4.58,29.26l12.91,1.79c1-3.36,3.33-5,7.1-5,4.48,0,7,2.43,7,6.85V36.5H19.63C8.44,36.5,3,40.61,3,49.07c0,9.34,6.44,12.67,12.47,12.67,6.8,0,11-3.65,12.81-11.14l.18-.74a8.63,8.63,0,0,1-5.06,1.5c-6,0-6.95-3.36-6.95-5.37,0-2.94,2.61-5.16,6.06-5.16h9v2.79A7.5,7.5,0,0,1,29,49.45h2.55v11.3H61l0-10h2.89l.28,1.14c2.34,9.65,6.6,10.37,12.85,10.37,8.44,0,13.33-6.06,14.55-18l-.1-1.33.24,0V42.8l1.27-.06,1.36-.11v.06h.15l.07,1.38c1.94,11.51,10.3,18.13,22.94,18.17h1.5v41.84h13.84V78c0-4.72,2.82-7.65,7.35-7.65s7.15,2.86,7.15,7.65v26h13.84V78c0-4.72,2.82-7.65,7.35-7.65s7.15,2.86,7.15,7.65v26h13.84Zm17-3.41c.78,3.13,2.52,4.23,6.23,4.23,3.92,0,4.75-1.55,5.51-3.75l.17-.48ZM22.51,43.83c-1.77,0-3.06.91-3.06,2.16,0,.83,0,2.37,3.95,2.37,3.05,0,5-1.77,5.14-4.53ZM20,33.5h8.51v-.59c0-2.73-1.14-3.85-3.95-3.85-2.35,0-3.92.65-4.47,3.91ZM220.62,78.88H203l.18-1.66c.66-6.13,3.47-8.87,9.12-8.87,5.42,0,8.23,3,8.34,9Zm-14.25-3h11.12c-.41-3.19-2-4.53-5.24-4.53C209.19,71.35,207.19,72.14,206.37,75.88Zm-16.46-2-.75-5c-.63-4.22-2.3-7.23-5-8.93l-.69-.44V27.25h7.36V46.89c0,6,2.16,10.61,6.09,13.09l1.74,1.1-1.58,1.32a19.79,19.79,0,0,0-5,6.84l-.29.63-.13,0Zm0-4h0Zm-3.38-12a13.61,13.61,0,0,1,4.74,6.79,21.6,21.6,0,0,1,2.56-3.25c-3.85-3.2-5.94-8.27-5.94-14.5V30.25H186.5Zm-50.91,13.5h-2.82V57.61l.54-.45a19.48,19.48,0,0,0,5.3-7.14l2.25-5.09.52,4.69.07,0,.09.81a16.64,16.64,0,0,0,2,7l.84,1.36-1.42.75c-3.24,1.7-5.65,3.47-7.15,10.61ZM135.77,59v2.89a12.91,12.91,0,0,1,4.51-4.26,17.67,17.67,0,0,1-1-2.69A21.82,21.82,0,0,1,135.77,59Zm28.16,11.86h-2.76l-.06-1.44a9,9,0,0,0-1.76-5.64L158,61.65l1.41-.74c3.27-1.75,5.71-3.53,7.19-10.6l.25-1.19h2.73l.09,1.51-.05,10-1,.93c-2.1,2-3.48,3.26-4.49,8.09Zm-1.68-8.09c.25.4.47.78.67,1.18a15.27,15.27,0,0,1,3.69-4.55l0,0v-.7A13.08,13.08,0,0,1,162.25,62.77Zm-44.82-12.9c-5.88,0-9.53-4.33-9.53-11.31s3.65-11.41,9.53-11.41S127,31.52,127,38.56,123.3,49.87,117.43,49.87Zm0-19.72c-5.89,0-6.53,5.88-6.53,8.41,0,3.1.85,8.31,6.53,8.31S124,41.66,124,38.56C124,36,123.31,30.15,117.43,30.15ZM71.84,49.87c-5.28,0-8.44-4.19-8.44-11.21v-1c0-6.77,3.16-10.82,8.44-10.82,4,0,8.73,1.95,8.73,11.22C80.57,45.9,77.63,49.87,71.84,49.87Zm0-20c-4.49,0-5.44,4.25-5.44,7.82v1c0,3.07.71,8.21,5.44,8.21,2.67,0,5.73-1,5.73-8.8C77.57,30.83,74.67,29.85,71.84,29.85Z"/></clipPath></defs><g id="Layer_2" data-name="Layer 2"><g id="Layer_1-2" data-name="Layer 1"><g class="cls-2"><rect class="cls-3" width="268.25" height="61.71"/><rect class="cls-4" y="60.56" width="268.25" height="61.71"/></g></g></g></svg>