<svg xmlns="http://www.w3.org/2000/svg" viewBox="0 0 1392.25 4200"><defs><style>.cls-1{fill:#1b3d2f;}</style></defs><g id="Layer_2" data-name="Layer 2"><g id="Layer_1-2" data-name="Layer 1"><path class="cls-1" d="M76,2233.1,55.68,2119.69a.09.09,0,0,0,0-.05l-3.11-17.37a7.36,7.36,0,0,0-8.55-5.94L.34,2104.19s-.16,5.93-.15,6.06h0l44.88-8.07a1.06,1.06,0,0,1,.5,0,1.41,1.41,0,0,1,1.15,1.14l2.82,15.75L.34,2163.43s0,7.92,0,8L50.78,2126l19.43,108.21a1.39,1.39,0,0,1-.24,1.05,1.33,1.33,0,0,1-.91.59L.34,2248.16s-.33,6-.34,6.11l70.1-12.61a7.44,7.44,0,0,0,4.75-3A7.28,7.28,0,0,0,76,2233.1Z"/><path class="cls-1" d="M379.7,225.69a7.38,7.38,0,0,0,.2-5.63l-40.17-108s0,0,0,0l-6.14-16.53a7.36,7.36,0,0,0-9.46-4.33L118.55,167.77a7.36,7.36,0,0,0-4.33,9.47l6.09,16.36a1.85,1.85,0,0,0,.12.33l40.12,107.88a7.3,7.3,0,0,0,3.83,4.13,7.44,7.44,0,0,0,3.06.67,7.17,7.17,0,0,0,2.57-.47l205.56-76.61A7.35,7.35,0,0,0,379.7,225.69ZM120.61,173.34,326.18,96.73a1.23,1.23,0,0,1,.49-.1,1.43,1.43,0,0,1,1.33.93l5.58,15-76.75,99.19a8.63,8.63,0,0,1-8.61,3.21l-122.86-24.8-5.58-15A1.41,1.41,0,0,1,120.61,173.34ZM373.5,224,167.94,300.57a1.37,1.37,0,0,1-1.09,0,1.36,1.36,0,0,1-.74-.8l-38.32-103,119.26,24.07a15.45,15.45,0,0,0,2.94.31,14.54,14.54,0,0,0,11.53-5.7L336,119.11l38.32,103a1.42,1.42,0,0,1-.84,1.83Z"/><path class="cls-1" d="M788.09,1311.73a7.33,7.33,0,0,0,.2-5.63l-40.17-108s0,0,0,0L742,1181.53a7.36,7.36,0,0,0-9.46-4.33l-205.56,76.61a7.36,7.36,0,0,0-4.33,9.47l6.09,16.36a1.85,1.85,0,0,0,.12.33l40.12,107.88a7.33,7.33,0,0,0,3.83,4.13,7.44,7.44,0,0,0,3.06.67,7.17,7.17,0,0,0,2.57-.47L784,1315.57A7.35,7.35,0,0,0,788.09,1311.73ZM529,1259.38l205.57-76.61a1.24,1.24,0,0,1,.5-.1,1.43,1.43,0,0,1,1.32.93l5.58,15-76.75,99.19a8.64,8.64,0,0,1-8.61,3.21l-122.86-24.8-5.58-15A1.41,1.41,0,0,1,529,1259.38ZM781.89,1310l-205.56,76.61a1.37,1.37,0,0,1-1.09,0,1.36,1.36,0,0,1-.74-.8l-38.31-103,119.25,24.07a15.54,15.54,0,0,0,2.94.31,14.54,14.54,0,0,0,11.53-5.7l74.5-96.28,38.32,103a1.42,1.42,0,0,1-.84,1.83Z"/><path class="cls-1" d="M245.92,2506.5,63.86,2384a7.35,7.35,0,0,0-10.21,2l-9.72,14.49a1.49,1.49,0,0,0-.2.29L.34,2465.45v10.65l45.43-67.67,50,111a15.84,15.84,0,0,0,1.47,2.57,14.55,14.55,0,0,0,11.34,6.06l121.59,4.42-61.25,91.25a1.39,1.39,0,0,1-.91.6,1.35,1.35,0,0,1-1.06-.22L.34,2512v7.15l163.31,109.86a7.3,7.3,0,0,0,5.52,1.12,7.23,7.23,0,0,0,4.68-3.13l64.21-95.64s0,0,0,0l9.83-14.64A7.36,7.36,0,0,0,245.92,2506.5Zm-2.93,6.9-8.91,13.28-125.26-4.55a8.62,8.62,0,0,1-7.62-5.13L49.67,2402.63l8.91-13.28a1.4,1.4,0,0,1,2-.39l182.07,122.48a1.29,1.29,0,0,1,.36.34A1.41,1.41,0,0,1,243,2513.4Z"/><path class="cls-1" d="M921.56,1892.54a7.3,7.3,0,0,0,4.31-3.62l53.18-102.21a.05.05,0,0,0,0,0l8.14-15.64a7.37,7.37,0,0,0-3.12-9.94L789.55,1659.66a7.35,7.35,0,0,0-9.92,3.13l-8.06,15.48a3,3,0,0,0-.16.31l-53.13,102.1a7.34,7.34,0,0,0-.49,5.61,7.5,7.5,0,0,0,1.55,2.72,7.23,7.23,0,0,0,2.07,1.6L916,1892A7.31,7.31,0,0,0,921.56,1892.54ZM786.8,1664.93l194.55,101.44a1.17,1.17,0,0,1,.4.3,1.44,1.44,0,0,1,.2,1.61l-7.38,14.19-125,9.42a8.62,8.62,0,0,1-8.14-4.25l-63.93-107.92,7.38-14.19A1.4,1.4,0,0,1,786.8,1664.93Zm131.9,221.84L724.16,1785.34a1.41,1.41,0,0,1-.61-1.92l50.74-97.5,62,104.75a15,15,0,0,0,1.75,2.39,14.52,14.52,0,0,0,11.94,4.76l121.32-9.14-50.73,97.5a1.41,1.41,0,0,1-1.91.59Z"/><path class="cls-1" d="M171.58,1594a7.3,7.3,0,0,0,1.09,5.53l63.81,95.91a.13.13,0,0,0,0,0l9.76,14.68a7.35,7.35,0,0,0,10.2,2L439,1590.49a7.37,7.37,0,0,0,2-10.21l-9.67-14.52a1.89,1.89,0,0,0-.19-.3l-63.74-95.81a7.34,7.34,0,0,0-4.68-3.15,7.5,7.5,0,0,0-3.13.06,7.13,7.13,0,0,0-2.39,1L174.72,1589.31A7.3,7.3,0,0,0,171.58,1594Zm264.17-8.45L253.18,1707.26a1.18,1.18,0,0,1-.46.2,1.42,1.42,0,0,1-1.51-.59l-8.85-13.32,52-114.16a8.63,8.63,0,0,1,7.65-5.09l125.27-4,8.86,13.32A1.41,1.41,0,0,1,435.75,1585.54ZM178,1594.26l182.57-121.71a1.36,1.36,0,0,1,1.07-.21,1.34,1.34,0,0,1,.9.61l60.87,91.5-121.59,3.9a15.77,15.77,0,0,0-2.93.39,14.54,14.54,0,0,0-9.92,8.18l-50.49,110.81-60.88-91.5a1.42,1.42,0,0,1,.4-2Z"/><path class="cls-1" d="M1305.88,1202.68a7.27,7.27,0,0,0-4.87-2.83l-114.09-15.32h-.05l-17.47-2.35a7.36,7.36,0,0,0-8.27,6.32L1132,1406.11a7.37,7.37,0,0,0,6.31,8.28l17.29,2.32a2.11,2.11,0,0,0,.35,0l114,15.31a7.35,7.35,0,0,0,8.27-6.32l29.17-217.62A7.34,7.34,0,0,0,1305.88,1202.68Zm-168,204.23L1167,1189.27a1.29,1.29,0,0,1,.15-.47,1.42,1.42,0,0,1,1.44-.74l15.84,2.13,51.34,114.46a8.64,8.64,0,0,1-1.23,9.11l-79.66,96.87-15.84-2.13A1.4,1.4,0,0,1,1137.85,1406.91Zm163.59-199.58L1272.26,1425a1.36,1.36,0,0,1-.54.94,1.38,1.38,0,0,1-1.06.28l-108.84-14.62,77.33-94a16.43,16.43,0,0,0,1.65-2.45,14.61,14.61,0,0,0,.4-12.87l-49.82-111.11,108.84,14.62a1.43,1.43,0,0,1,1.22,1.6Z"/><path class="cls-1" d="M555.78,736.78a7.26,7.26,0,0,0-2.75,4.91L539.42,856.12a.09.09,0,0,0,0,0l-2.08,17.51a7.37,7.37,0,0,0,6.43,8.19l217.81,26a7.36,7.36,0,0,0,8.17-6.44l2.06-17.34a2.11,2.11,0,0,0,.05-.35l13.59-114.3a7.32,7.32,0,0,0-1.52-5.43,7.59,7.59,0,0,0-2.41-2,7.34,7.34,0,0,0-2.5-.76l-217.81-26A7.3,7.3,0,0,0,555.78,736.78Zm206.5,165.15L544.46,876a1.34,1.34,0,0,1-.48-.15,1.43,1.43,0,0,1-.76-1.43l1.89-15.89,113.57-53.08a8.62,8.62,0,0,1,9.12,1.08l97.94,78.3-1.89,15.89A1.42,1.42,0,0,1,762.28,901.93ZM560.49,741.15l217.81,26a1.44,1.44,0,0,1,1,.54,1.37,1.37,0,0,1,.29,1.05l-13,109.16-95-76a16.16,16.16,0,0,0-2.48-1.61,14.56,14.56,0,0,0-12.86-.22L545.93,851.55l13-109.16a1.44,1.44,0,0,1,1.58-1.24Z"/><path class="cls-1" d="M165.93,1000.06.34,956.7v6.14l164.09,43a1.28,1.28,0,0,1,.46.21,1.41,1.41,0,0,1,.56,1.52l-4,15.48L41.64,1060a8.63,8.63,0,0,1-8.88-2.32L.34,1023.54v8.63l28.12,29.64a16.24,16.24,0,0,0,2.22,1.94,14.59,14.59,0,0,0,12.71,2l116.24-35.94-27.78,106.36a1.39,1.39,0,0,1-.65.85,1.41,1.41,0,0,1-1.09.15l-129.77-34v6.13L128.6,1142.9a7.34,7.34,0,0,0,9-5.26l29.12-111.47a.06.06,0,0,0,0-.05l4.46-17.07A7.36,7.36,0,0,0,165.93,1000.06Z"/><path class="cls-1" d="M1078.85,861.37a7.26,7.26,0,0,0,5.62.2l107.88-40.21h.05l16.51-6.15a7.37,7.37,0,0,0,4.33-9.47L1136.71,600a7.35,7.35,0,0,0-9.46-4.33l-16.34,6.09a1.61,1.61,0,0,0-.33.12L1002.81,642a7.35,7.35,0,0,0-4.13,3.84,7.6,7.6,0,0,0-.67,3.06,7.39,7.39,0,0,0,.47,2.57L1075,857.24A7.35,7.35,0,0,0,1078.85,861.37ZM1131.14,602l76.54,205.78a1.41,1.41,0,0,1-.83,1.82l-15,5.59-99.09-76.83a8.64,8.64,0,0,1-3.2-8.62l24.77-123,15-5.59A1.41,1.41,0,0,1,1131.14,602Zm-50.56,253.15-76.53-205.78a1.4,1.4,0,0,1,.83-1.83l102.92-38.35-24,119.37a15.62,15.62,0,0,0-.3,2.95,14.54,14.54,0,0,0,5.68,11.54l96.19,74.58L1082.4,856a1.41,1.41,0,0,1-1.82-.84Z"/><path class="cls-1" d="M1252,375.48a7.4,7.4,0,0,0,.2-5.64l-40.17-108s0,0,0-.05l-6.14-16.53a7.36,7.36,0,0,0-9.46-4.33L990.82,317.55a7.37,7.37,0,0,0-4.33,9.47l6.08,16.36a3.21,3.21,0,0,0,.12.33l40.13,107.88a7.32,7.32,0,0,0,3.83,4.14,7.59,7.59,0,0,0,3.06.66,7.28,7.28,0,0,0,2.56-.46l205.57-76.62A7.36,7.36,0,0,0,1252,375.48ZM992.88,323.13l205.57-76.62a1.37,1.37,0,0,1,.49-.09,1.41,1.41,0,0,1,1.33.92l5.58,15-76.75,99.19a8.61,8.61,0,0,1-8.61,3.21l-122.86-24.8-5.58-15A1.41,1.41,0,0,1,992.88,323.13Zm252.89,50.61-205.56,76.61a1.4,1.4,0,0,1-1.83-.83l-38.32-103,119.26,24.08a16.29,16.29,0,0,0,2.94.3,14.56,14.56,0,0,0,11.53-5.69l74.5-96.29,38.32,103a1.41,1.41,0,0,1-.84,1.82Z"/><path class="cls-1" d="M140.88,637.74a7.3,7.3,0,0,0,2.63,5L232,716.41l0,0,13.55,11.28a7.35,7.35,0,0,0,10.36-1L396.21,557.94a7.38,7.38,0,0,0-.95-10.37l-13.41-11.16-.27-.22-88.41-73.61a7.36,7.36,0,0,0-5.38-1.68,7.55,7.55,0,0,0-3,1,7.42,7.42,0,0,0-2,1.68L142.55,632.36A7.35,7.35,0,0,0,140.88,637.74Zm250.77-83.6L251.39,723a1.33,1.33,0,0,1-.38.33,1.42,1.42,0,0,1-1.61-.14l-12.29-10.24,17.28-124.26a8.65,8.65,0,0,1,5.88-7.07l118.91-39.68,12.28,10.24A1.4,1.4,0,0,1,391.65,554.14Zm-244.53,82L287.37,467.34a1.42,1.42,0,0,1,2-.19l84.44,70.3L258.39,576a14.89,14.89,0,0,0-2.7,1.2,14.59,14.59,0,0,0-7.18,10.68L231.73,708.45l-84.44-70.28a1.43,1.43,0,0,1-.17-2Z"/><path class="cls-1" d="M764.37,453.39a7.26,7.26,0,0,0,4.9-2.77l71-90.7s0,0,0,0L851.18,346a7.37,7.37,0,0,0-1.25-10.34L677.29,200.22A7.35,7.35,0,0,0,667,201.47l-10.75,13.74a1.42,1.42,0,0,0-.22.28l-70.94,90.6a7.36,7.36,0,0,0-1.52,5.43,7.69,7.69,0,0,0,1,3,7.33,7.33,0,0,0,1.74,1.95L759,451.87A7.25,7.25,0,0,0,764.37,453.39Zm-90.75-248.5L846.27,340.34a1.48,1.48,0,0,1,.34.37,1.44,1.44,0,0,1-.1,1.62l-9.86,12.6-124.59-13.7a8.64,8.64,0,0,1-7.23-5.67L661.77,217.73l9.86-12.6A1.43,1.43,0,0,1,673.62,204.89Zm89,242.31L590,311.75a1.42,1.42,0,0,1-.25-2l67.75-86.52L699.26,337.6a15.62,15.62,0,0,0,1.28,2.67,14.56,14.56,0,0,0,10.87,6.87l120.93,13.3L764.61,447a1.4,1.4,0,0,1-1,.52A1.38,1.38,0,0,1,762.61,447.2Z"/><path class="cls-1" d="M1220.81,2140.28l171-31.26v-6l-172.08,31.46a7.36,7.36,0,0,0-5.91,8.57l3.13,17.19,0,.24,20.67,113.33a7.38,7.38,0,0,0,6,5.93,7.33,7.33,0,0,0,2.6,0l145.59-26.61v-6l-146.65,26.81a1.47,1.47,0,0,1-1.07-.23,1.42,1.42,0,0,1-.58-.92l-19.73-108.15L1337,2209.13a14.83,14.83,0,0,0,2.85.81,14.53,14.53,0,0,0,12.35-3.58l39.62-35.92v-8l-43.6,39.54a8.67,8.67,0,0,1-9,1.65l-116.65-45.94-2.87-15.74A1.43,1.43,0,0,1,1220.81,2140.28Z"/><path class="cls-1" d="M393.3,2186.67a7.26,7.26,0,0,0,5.62.2l107.88-40.21h.05l16.51-6.15a7.36,7.36,0,0,0,4.33-9.47l-76.53-205.78a7.36,7.36,0,0,0-9.46-4.33L425.36,1927a2,2,0,0,0-.34.12l-107.76,40.16a7.35,7.35,0,0,0-4.13,3.84,7.44,7.44,0,0,0-.67,3.06,7.35,7.35,0,0,0,.47,2.57l76.53,205.78A7.32,7.32,0,0,0,393.3,2186.67Zm52.29-259.35,76.54,205.78a1.41,1.41,0,0,1-.83,1.82l-15,5.59-99.09-76.83a8.64,8.64,0,0,1-3.2-8.62l24.77-123,15-5.59A1.41,1.41,0,0,1,445.59,1927.32ZM395,2180.47l-76.54-205.78a1.42,1.42,0,0,1,0-1.09,1.39,1.39,0,0,1,.8-.74l102.92-38.35L398.2,2053.88a15.62,15.62,0,0,0-.3,2.95,14.54,14.54,0,0,0,5.68,11.54L499.77,2143l-102.92,38.36a1.41,1.41,0,0,1-1.82-.84Z"/><path class="cls-1" d="M316.28,3019a7.29,7.29,0,0,0-4.87-2.82l-114.09-15.32h0l-17.46-2.35a7.35,7.35,0,0,0-8.27,6.32l-29.17,217.62a7.36,7.36,0,0,0,6.31,8.28L166,3233a2.11,2.11,0,0,0,.35.05l114,15.31a7.35,7.35,0,0,0,5.45-1.44,7.29,7.29,0,0,0,2.82-4.88l29.17-217.62A7.37,7.37,0,0,0,316.28,3019Zm-168,204.24,29.17-217.64a1.34,1.34,0,0,1,.15-.48,1.44,1.44,0,0,1,1.44-.73l15.84,2.13L246.19,3121a8.64,8.64,0,0,1-1.22,9.11l-79.66,96.87-15.85-2.13A1.41,1.41,0,0,1,148.25,3223.22Zm163.59-199.58-29.17,217.63a1.39,1.39,0,0,1-.55.94,1.36,1.36,0,0,1-1.05.28l-108.85-14.63,77.33-94a15.32,15.32,0,0,0,1.65-2.46,14.56,14.56,0,0,0,.41-12.86l-49.83-111.11L310.63,3022a1.42,1.42,0,0,1,.93.55A1.36,1.36,0,0,1,311.84,3023.64Z"/><path class="cls-1" d="M746.78,2465.17a7.28,7.28,0,0,0,2.62,5l88.51,73.68a.08.08,0,0,0,0,0l13.54,11.28a7.37,7.37,0,0,0,10.36-1l140.25-168.83a7.36,7.36,0,0,0-1-10.37l-13.41-11.16a1.49,1.49,0,0,0-.27-.23L899.06,2290a7.29,7.29,0,0,0-5.38-1.68,7.71,7.71,0,0,0-3,.94,7.35,7.35,0,0,0-2,1.69L748.45,2459.78A7.33,7.33,0,0,0,746.78,2465.17Zm250.76-83.61L857.29,2550.4a1.44,1.44,0,0,1-.38.32,1.42,1.42,0,0,1-1.62-.14L843,2540.35l17.29-124.27a8.62,8.62,0,0,1,5.87-7.07l118.91-39.67,12.29,10.23A1.4,1.4,0,0,1,997.54,2381.56Zm-244.53,82,140.25-168.83a1.43,1.43,0,0,1,1-.51,1.38,1.38,0,0,1,1,.33l84.43,70.29-115.41,38.5a16.41,16.41,0,0,0-2.7,1.2,14.58,14.58,0,0,0-7.18,10.69l-16.78,120.62-84.44-70.29a1.43,1.43,0,0,1-.5-1A1.35,1.35,0,0,1,753,2463.59Z"/><path class="cls-1" d="M347.73,2618.15a7.32,7.32,0,0,0-2.75,4.92l-13.61,114.42a0,0,0,0,0,0,.05l-2.09,17.52a7.36,7.36,0,0,0,6.43,8.18l217.81,26a7.36,7.36,0,0,0,8.18-6.44l2.06-17.34c0-.12,0-.23,0-.35l13.6-114.3a7.36,7.36,0,0,0-1.52-5.43,7.63,7.63,0,0,0-2.42-2,7.33,7.33,0,0,0-2.5-.75l-217.8-26A7.3,7.3,0,0,0,347.73,2618.15Zm206.5,165.15-217.82-26a1.56,1.56,0,0,1-.48-.14,1.44,1.44,0,0,1-.76-1.44l1.9-15.88,113.56-53.09a8.62,8.62,0,0,1,9.12,1.09l97.94,78.29-1.89,15.89A1.4,1.4,0,0,1,554.23,2783.3ZM352.45,2622.53l217.81,26a1.37,1.37,0,0,1,1,.53,1.35,1.35,0,0,1,.29,1.05l-13,109.16-95.05-76a16.16,16.16,0,0,0-2.48-1.61,14.56,14.56,0,0,0-12.86-.22l-110.23,51.53,13-109.17a1.41,1.41,0,0,1,.53-.94A1.38,1.38,0,0,1,352.45,2622.53Z"/><path class="cls-1" d="M1294,2650.7a7.32,7.32,0,0,0-4.87-2.82l-114.09-15.32h0l-17.47-2.35a7.36,7.36,0,0,0-8.27,6.32l-29.17,217.62a7.37,7.37,0,0,0,6.31,8.28l17.29,2.32a2.11,2.11,0,0,0,.35.05l114,15.31a7.32,7.32,0,0,0,5.44-1.44,7.51,7.51,0,0,0,2-2.39,7.35,7.35,0,0,0,.8-2.49l29.17-217.62A7.37,7.37,0,0,0,1294,2650.7Zm-168,204.24,29.17-217.64a1.34,1.34,0,0,1,.15-.48,1.42,1.42,0,0,1,1.44-.73l15.84,2.13,51.34,114.46a8.64,8.64,0,0,1-1.23,9.11L1143,2858.66l-15.84-2.13A1.4,1.4,0,0,1,1126,2854.94Zm163.58-199.58L1260.39,2873a1.41,1.41,0,0,1-1.6,1.22L1150,2859.58l77.33-94a16,16,0,0,0,1.65-2.46,14.59,14.59,0,0,0,.4-12.86l-49.82-111.11,108.84,14.62a1.43,1.43,0,0,1,.94.55A1.38,1.38,0,0,1,1289.56,2655.36Z"/><path class="cls-1" d="M968.3,3247.44a7.31,7.31,0,0,0,3.39-4.5l29.13-111.48,0-.05,4.46-17.06a7.38,7.38,0,0,0-5.26-9l-212.2-55.57a7.36,7.36,0,0,0-9,5.26l-4.41,16.89a2.14,2.14,0,0,0-.09.34l-29.11,111.37a7.36,7.36,0,0,0,.77,5.58,7.56,7.56,0,0,0,2.12,2.31,7.12,7.12,0,0,0,2.37,1.09l212.2,55.57A7.33,7.33,0,0,0,968.3,3247.44Zm-182-191.9,212.22,55.57a1.32,1.32,0,0,1,.45.21,1.43,1.43,0,0,1,.56,1.52l-4,15.48-119.76,37a8.61,8.61,0,0,1-8.88-2.33l-86.31-91,4-15.48A1.41,1.41,0,0,1,786.33,3055.54Zm177.89,186.91L752,3186.89a1.44,1.44,0,0,1-.87-.66,1.38,1.38,0,0,1-.14-1.08l27.79-106.36,83.77,88.31a15.66,15.66,0,0,0,2.23,1.94,14.55,14.55,0,0,0,12.71,2l116.25-35.93L966,3241.45a1.45,1.45,0,0,1-.66.86A1.38,1.38,0,0,1,964.22,3242.45Z"/><path class="cls-1" d="M347.52,4119.22a7.36,7.36,0,0,0,3.33-4.55l27.3-112a.09.09,0,0,0,0,0l4.18-17.13a7.36,7.36,0,0,0-5.4-8.9l-213.09-52.08A7.36,7.36,0,0,0,155,3930l-4.13,17c0,.12-.06.23-.09.34l-27.27,111.83a7.33,7.33,0,0,0,.85,5.58,7.56,7.56,0,0,0,2.16,2.27,7.23,7.23,0,0,0,2.39,1L342,4120.07A7.27,7.27,0,0,0,347.52,4119.22ZM162.44,3930.33l213.1,52.08a1.46,1.46,0,0,1,.46.2,1.44,1.44,0,0,1,.58,1.51l-3.8,15.55-119.13,39a8.62,8.62,0,0,1-8.92-2.18l-87.79-89.56,3.79-15.54A1.41,1.41,0,0,1,162.44,3930.33Zm180.93,184-213.09-52.08a1.36,1.36,0,0,1-.88-.64,1.4,1.4,0,0,1-.17-1.08l26.06-106.8,85.2,86.93a15.59,15.59,0,0,0,2.26,1.9,14.56,14.56,0,0,0,12.74,1.77l115.64-37.83-26,106.79a1.41,1.41,0,0,1-1.72,1Z"/><path class="cls-1" d="M1065.82,3638.4a7.38,7.38,0,0,0,2.63,5l88.51,73.68s0,0,0,0l13.54,11.28a7.35,7.35,0,0,0,10.36-1l140.25-168.83a7.36,7.36,0,0,0-1-10.37l-13.41-11.16a2,2,0,0,0-.27-.22l-88.41-73.61a7.34,7.34,0,0,0-5.38-1.68,7.66,7.66,0,0,0-3,1,7.42,7.42,0,0,0-2,1.68L1067.5,3633A7.31,7.31,0,0,0,1065.82,3638.4Zm250.77-83.6-140.26,168.83a1.21,1.21,0,0,1-.38.33,1.43,1.43,0,0,1-1.61-.14l-12.29-10.24,17.29-124.26a8.62,8.62,0,0,1,5.87-7.07l118.91-39.68,12.29,10.24A1.4,1.4,0,0,1,1316.59,3554.8Zm-244.53,82L1212.31,3468a1.39,1.39,0,0,1,1-.51,1.37,1.37,0,0,1,1,.32l84.43,70.3-115.41,38.5a15,15,0,0,0-2.71,1.2,14.58,14.58,0,0,0-7.17,10.68l-16.78,120.62-84.44-70.28a1.39,1.39,0,0,1-.5-1A1.38,1.38,0,0,1,1072.06,3636.82Z"/><path class="cls-1" d="M564.45,3585.73a7.38,7.38,0,0,0,.2-5.63l-40.17-108s0,0,0-.05l-6.14-16.53a7.35,7.35,0,0,0-9.46-4.33L303.3,3527.81a7.36,7.36,0,0,0-4.33,9.47l6.08,16.36a3.21,3.21,0,0,0,.12.33l40.13,107.88a7.3,7.3,0,0,0,3.83,4.13,7.44,7.44,0,0,0,3.06.67,7.33,7.33,0,0,0,2.56-.47l205.57-76.61A7.35,7.35,0,0,0,564.45,3585.73Zm-259.09-52.35,205.57-76.62a1.37,1.37,0,0,1,.49-.09,1.42,1.42,0,0,1,1.33.93l5.58,15-76.75,99.2A8.65,8.65,0,0,1,433,3575l-122.86-24.8-5.58-15A1.41,1.41,0,0,1,305.36,3533.38ZM558.25,3584l-205.56,76.61a1.37,1.37,0,0,1-1.09,0,1.36,1.36,0,0,1-.74-.8l-38.32-103,119.26,24.08a15.44,15.44,0,0,0,2.94.3,14.53,14.53,0,0,0,11.53-5.69l74.5-96.28,38.32,103a1.43,1.43,0,0,1-.84,1.83Z"/><path class="cls-1" d="M1256.05,105.87l-17.34,2.63-.08,0-113.86,17.27a7.34,7.34,0,0,1-8.37-6.18L1098.29,0h6l18,118.72a1.42,1.42,0,0,0,1.62,1.19l108.58-16.46-78.91-92.7A14.63,14.63,0,0,1,1150.1,0h6a8.71,8.71,0,0,0,2,6.9l81.3,95.5,15.8-2.4a1.4,1.4,0,0,0,1.17-1.11,1.44,1.44,0,0,0,0-.51L1241.47,0h6l14.76,97.5A7.36,7.36,0,0,1,1256.05,105.87Z"/><path class="cls-1" d="M1247.22,4200h-6l-18-118.72a1.42,1.42,0,0,0-1.62-1.19l-15.8,2.4-49.39,115.32a8.36,8.36,0,0,0-.62,2.19h-6a12.73,12.73,0,0,1,.25-1.72,16.39,16.39,0,0,1,.88-2.82l48-111.93L1090.35,4100a1.47,1.47,0,0,0-.94.56,1.4,1.4,0,0,0-.26,1.06L1104,4200h-6l-14.75-97.5a7.09,7.09,0,0,1,.07-2.6,7.33,7.33,0,0,1,6.1-5.77l113.81-17.27h.11l17.37-2.63a7.36,7.36,0,0,1,8.37,6.17Z"/><path class="cls-1" d="M563.29,3587.5a7.29,7.29,0,0,0,.2-5.63l-40.16-108s0,0,0-.05l-6.14-16.53a7.36,7.36,0,0,0-9.46-4.33l-205.57,76.61a7.37,7.37,0,0,0-4.32,9.47l6.08,16.36a3.21,3.21,0,0,0,.12.33l40.12,107.88a7.38,7.38,0,0,0,6.9,4.8,7.11,7.11,0,0,0,2.56-.47l205.57-76.61A7.3,7.3,0,0,0,563.29,3587.5Zm-259.08-52.35,205.57-76.61a1.19,1.19,0,0,1,.49-.1,1.43,1.43,0,0,1,1.33.93l5.58,15-76.75,99.19a8.63,8.63,0,0,1-8.61,3.21L309,3552l-5.57-15A1.41,1.41,0,0,1,304.21,3535.15Zm252.89,50.62-205.56,76.61a1.37,1.37,0,0,1-1.09,0,1.33,1.33,0,0,1-.74-.8l-38.32-103,119.25,24.07a15.64,15.64,0,0,0,2.95.31,14.54,14.54,0,0,0,11.53-5.7l74.5-96.28,38.32,103a1.42,1.42,0,0,1-.84,1.83Z"/><path class="cls-1" d="M689.72,3811.18a7.35,7.35,0,0,0-2.15,5.21l.08,115.24s0,0,0,0v17.64a7.37,7.37,0,0,0,7.36,7.36l219.35-.16a7.36,7.36,0,0,0,7.35-7.36l0-17.46a1.37,1.37,0,0,0,0-.35l-.07-115.12a7.4,7.4,0,0,0-2.16-5.21,7.33,7.33,0,0,0-5.2-2.15l-219.35.16A7.29,7.29,0,0,0,689.72,3811.18Zm224.65,139.4-219.36.15a1.18,1.18,0,0,1-.49-.08,1.42,1.42,0,0,1-.92-1.33v-16L800,3867.09a8.62,8.62,0,0,1,9.18,0l106.55,66.08v16A1.4,1.4,0,0,1,914.37,3950.58ZM694.92,3815l219.35-.15a1.4,1.4,0,0,1,1,.41,1.38,1.38,0,0,1,.41,1l.07,109.94L812.35,3862a15.53,15.53,0,0,0-2.65-1.31,14.53,14.53,0,0,0-12.79,1.32l-103.33,64.28-.08-109.93a1.42,1.42,0,0,1,1.42-1.42Z"/><path class="cls-1" d="M1377.33,2498.46a1.67,1.67,0,0,0-.21,1.17,1.49,1.49,0,0,0,.58,1l14,10.5V2519l-17.41-13a7.71,7.71,0,0,1-1.86-2,8.58,8.58,0,0,1,0-9.13l19.31-30.58v11.41Z"/><path class="cls-1" d="M1344.38,951.73l-4.05,15.48,51.92,54.72v8.64L1338.57,974l-27.79,106.37a1.4,1.4,0,0,0,.13,1.07,1.41,1.41,0,0,0,.88.67l80.46,21.06v6.15l-82-21.47a7.12,7.12,0,0,1-2.37-1.09,7.42,7.42,0,0,1-2.11-2.31,7.3,7.3,0,0,1-.77-5.59l29.1-111.36a1.89,1.89,0,0,1,.09-.34l4.41-16.9a7.36,7.36,0,0,1,9-5.25l44.64,11.69v6.14l-46.14-12.08A1.4,1.4,0,0,0,1344.38,951.73Z"/></g></g></svg>