<svg xmlns="http://www.w3.org/2000/svg" xmlns:xlink="http://www.w3.org/1999/xlink" viewBox="0 0 122.46 119.71"><defs><style>.cls-1{fill:none;}.cls-2{fill:#f2fedc;}.cls-3{clip-path:url(#clip-path);}.cls-4{font-size:75.86px;fill:#e0512b;font-family:DegularDisplay-Bold, Degular Display;font-weight:700;letter-spacing:-0.05em;}.cls-5{letter-spacing:-0.05em;}.cls-6{letter-spacing:-0.06em;}</style><clipPath id="clip-path" transform="translate(-0.27 1.8)"><path class="cls-1" d="M109.38,103.29c-17.88,14.59-39.21-4.2-39.21-4.2S61.24,126,34.41,115.71,27.16,79,27.16,79s-28.65,1-27.1-26.87S34.79,33.56,34.79,33.56c-.81-3.93-2.24-13.5,2.36-22.07A21.8,21.8,0,0,1,41.34,5.9,22.37,22.37,0,0,1,53.8.33C79.09-3.4,82.51,25.65,82.51,25.65S113.39,9.7,121.36,32s-17,34.17-17,34.17S127.26,88.69,109.38,103.29Z"/></clipPath></defs><g id="Layer_2" data-name="Layer 2"><g id="Layer_2-2" data-name="Layer 2"><path class="cls-2" d="M109.23,103.18C91.42,117.72,70.17,99,70.17,99s-8.9,26.83-35.62,16.56-7.22-36.62-7.22-36.62-28.55,1-27-26.76,34.6-18.46,34.6-18.46c-.81-3.91-2.23-13.45,2.35-22a21.38,21.38,0,0,1,4.17-5.57A22.31,22.31,0,0,1,53.86.62c25.19-3.71,28.6,25.22,28.6,25.22s30.76-15.89,38.7,6.31-16.92,34-16.92,34S127,88.64,109.23,103.18Z" transform="translate(-0.27 1.8)"/><g class="cls-3"><text class="cls-4" transform="translate(10.99 60.69)">con<tspan class="cls-5"><tspan x="0" y="38.98">ta</tspan><tspan class="cls-6" x="52.72" y="38.98">c</tspan><tspan x="85.87" y="38.98">t</tspan></tspan></text></g></g></g></svg>