<?xml version="1.0" encoding="utf-8"?>
<!-- Generator: Adobe Illustrator 26.0.3, SVG Export Plug-In . SVG Version: 6.00 Build 0)  -->
<svg version="1.1" id="Layer_1" xmlns="http://www.w3.org/2000/svg" xmlns:xlink="http://www.w3.org/1999/xlink" x="0px" y="0px"
	 viewBox="0 0 122.5 119.7" style="enable-background:new 0 0 122.5 119.7;" xml:space="preserve">
<style type="text/css">
	.st0{fill:#F2FEDC;}
	.st1{clip-path:url(#SVGID_00000065058372126463196970000001424140673422917802_);}
	.st2{enable-background:new    ;}
	.st3{fill:#E0512B;}
</style>
<g id="Layer_2_00000048485974473751884750000001804729413849350066_">
	<g id="Layer_2-2">
		<path class="st0" d="M109,105c-17.8,14.5-39.1-4.2-39.1-4.2s-8.9,26.8-35.6,16.6s-7.2-36.6-7.2-36.6s-28.5,1-27-26.8
			s34.6-18.5,34.6-18.5c-0.8-3.9-2.2-13.5,2.3-22c1.1-2.1,2.5-4,4.2-5.6c3.5-3.1,7.8-5,12.4-5.5c25.2-3.7,28.6,25.2,28.6,25.2
			S113,11.8,120.9,34S104,68,104,68S126.7,90.4,109,105z"/>
		<g>
			<defs>
				<path id="SVGID_1_" d="M109.1,105.1c-17.9,14.6-39.2-4.2-39.2-4.2s-8.9,26.9-35.8,16.6s-7.2-36.7-7.2-36.7s-28.6,1-27.1-26.9
					s34.7-18.6,34.7-18.6c-0.8-3.9-2.2-13.5,2.4-22.1c1.1-2.1,2.5-4,4.2-5.6c3.5-3.1,7.8-5.1,12.5-5.6c25.3-3.7,28.7,25.3,28.7,25.3
					s30.9-15.9,38.8,6.4s-17,34.2-17,34.2S127,90.5,109.1,105.1z"/>
			</defs>
			<clipPath id="SVGID_00000013886092640178489750000016301153120323908796_">
				<use xlink:href="#SVGID_1_"  style="overflow:visible;"/>
			</clipPath>
			<g style="clip-path:url(#SVGID_00000013886092640178489750000016301153120323908796_);">
				<g class="st2">
					<path class="st3" d="M30.3,33.1c-4.6,0-8,2.9-8,9.5c0,6.4,3.2,9.6,8,9.6c4.8,0,6.6-3.3,7.5-7.8l9.9,1.9
						c-1.2,9.4-6.4,15.4-17.2,15.4c-11.4,0-18.9-6.4-18.9-18.8c0-12.1,7.4-19.2,18.7-19.2c11.3,0,16,5.5,17.4,15.2l-10,1.4
						C36.9,36.2,34.9,33.1,30.3,33.1z"/>
					<path class="st3" d="M45.4,42.7c0-12,7.3-19,18.7-19c11.3,0,18.6,7,18.6,19c0,11.8-7.1,19-18.6,19
						C52.5,61.8,45.4,54.5,45.4,42.7z M55.8,42.6c0,5.8,2.9,9.6,8.2,9.6c5.4,0,8.3-3.8,8.3-9.6c0-5.8-3-9.5-8.3-9.5
						C58.8,33.1,55.8,36.9,55.8,42.6z"/>
					<path class="st3" d="M92,60.7H81.6v-36H92v10.1h0.1c1.7-8.3,6-11.1,11.8-11.1c7.8,0,11.1,5.2,11.1,12.9v24h-10.3V39.6
						c0-3.7-1.7-6.5-6-6.5c-4.2,0-6.6,2.4-6.6,6.5V60.7z"/>
				</g>
				<g class="st2">
					<path class="st3" d="M15.4,72.4h-4.2v-8.6h4.2v-9h10.3v9h9.5v8.6h-9.5v14c0,2.9,1.1,4.2,4.2,4.2c1.6,0,3.4-0.5,4.7-0.8l1.1,9.6
						c-2.7,0.8-4.6,1.4-8.5,1.4c-8.3,0-11.8-5.5-11.8-12.4V72.4z"/>
					<path class="st3" d="M55.8,90.9h-0.2c-1.6,6.1-5.5,9.6-11.6,9.6c-6.2,0-10.9-3.4-10.9-10.5c0-6.5,3.9-11,13.4-11h9.3v-1.5
						c0-3.9-1.7-6-5.6-6c-3.4,0-5.6,1.5-6.3,5.7l-9.7-1.4c0.9-7.5,5.3-12.9,16.5-12.9c10.9,0,15.5,5.3,15.5,14.5v22.3H55.8V90.9z
						 M55.8,85.9v-1.1h-7.7c-3,0-4.9,1.4-4.9,3.3c0,2.2,1.4,3.9,5.3,3.9C52.9,92.1,55.8,89.5,55.8,85.9z"/>
				</g>
				<g class="st2">
					<path class="st3" d="M83,72.1c-4.6,0-8,2.9-8,9.5c0,6.4,3.2,9.6,8,9.6c4.8,0,6.6-3.3,7.5-7.8l9.9,1.9
						c-1.2,9.4-6.4,15.4-17.2,15.4c-11.4,0-18.9-6.4-18.9-18.8c0-12.1,7.4-19.2,18.7-19.2c11.3,0,16,5.5,17.4,15.2l-10,1.4
						C89.7,75.2,87.6,72.1,83,72.1z"/>
				</g>
				<g class="st2">
					<path class="st3" d="M101.3,72.4h-4.2v-8.6h4.2v-9h10.3v9h9.5v8.6h-9.5v14c0,2.9,1.1,4.2,4.2,4.2c1.6,0,3.4-0.5,4.7-0.8
						l1.1,9.6c-2.7,0.8-4.6,1.4-8.5,1.4c-8.3,0-11.8-5.5-11.8-12.4V72.4z"/>
				</g>
			</g>
		</g>
	</g>
</g>
</svg>
