<svg xmlns="http://www.w3.org/2000/svg" viewBox="0 0 254.3 245.15"><defs><style>.cls-1{fill:#f2fedc;}.cls-2{fill:none;stroke:#e0512b;stroke-linejoin:round;stroke-width:23px;}</style></defs><g id="Layer_2" data-name="Layer 2"><g id="Layer_1-2" data-name="Layer 1"><path class="cls-1" d="M217.33,205.81c-33.63,27.46-73.78-7.87-73.78-7.87s-16.79,50.67-67.27,31.29-13.66-69.17-13.66-69.17-53.91,1.85-51-50.53S77,74.65,77,74.65c-1.53-7.39-4.22-25.4,4.43-41.52A41.53,41.53,0,0,1,89.26,22.6c8.69-8.14,18.85-9.8,23.44-10.48,47.57-7,54,47.62,54,47.62s58.1-30,73.11,11.89-31.94,64.31-31.94,64.31S251,178.34,217.33,205.81Z"/><path class="cls-2" d="M217.33,205.81c-33.63,27.46-73.78-7.87-73.78-7.87s-16.79,50.67-67.27,31.29-13.66-69.17-13.66-69.17-53.91,1.85-51-50.53S77,74.65,77,74.65c-1.53-7.39-4.22-25.4,4.43-41.52A41.53,41.53,0,0,1,89.26,22.6c8.69-8.14,18.85-9.8,23.44-10.48,47.57-7,54,47.62,54,47.62s58.1-30,73.11,11.89-31.94,64.31-31.94,64.31S251,178.34,217.33,205.81Z"/></g></g></svg>