<svg xmlns="http://www.w3.org/2000/svg" viewBox="0 0 235.3 226.15"><defs><style>.cls-1{fill:none;stroke:#e0512b;stroke-linejoin:round;stroke-width:4px;}</style></defs><g id="Layer_2" data-name="Layer 2"><g id="Layer_1-2" data-name="Layer 1"><path class="cls-1" d="M207.83,196.31c-33.63,27.46-73.78-7.87-73.78-7.87s-16.79,50.67-67.27,31.29-13.66-69.17-13.66-69.17S-.79,152.41,2.11,100,67.45,65.15,67.45,65.15c-1.53-7.39-4.22-25.4,4.43-41.52A41.53,41.53,0,0,1,79.76,13.1C88.45,5,98.61,3.3,103.2,2.62c47.57-7,54,47.62,54,47.62s58.1-30,73.11,11.89-31.94,64.31-31.94,64.31S241.46,168.84,207.83,196.31Z" transform="translate(0 0)"/><path class="cls-1" d="M187.72,177.74c-26.13,21.34-57.33-6.11-57.33-6.11s-13,39.37-52.26,24.31S67.52,142.2,67.52,142.2s-41.9,1.43-39.64-39.26,50.77-27.1,50.77-27.1c-1.19-5.74-3.28-19.73,3.44-32.26a32.12,32.12,0,0,1,6.12-8.18c6.75-6.33,14.64-7.61,18.21-8.14,37-5.46,42,37,42,37s45.14-23.33,56.8,9.24-24.81,50-24.81,50S213.85,156.4,187.72,177.74Z" transform="translate(0 0)"/><path class="cls-1" d="M167.6,159.18c-18.63,15.21-40.86-4.36-40.86-4.36s-9.3,28.07-37.27,17.34-7.56-38.32-7.56-38.32-29.87,1-28.26-28S89.84,86.53,89.84,86.53c-.84-4.09-2.34-14.07,2.45-23a22.65,22.65,0,0,1,4.37-5.83,23.39,23.39,0,0,1,13-5.81C136,48,139.58,78.27,139.58,78.27s32.18-16.63,40.49,6.58-17.69,35.63-17.69,35.63S186.23,144,167.6,159.18Z" transform="translate(0 0)"/><path class="cls-1" d="M147.49,140.62c-11.13,9.08-24.41-2.61-24.41-2.61s-5.56,16.77-22.26,10.36-4.52-22.89-4.52-22.89-17.84.61-16.88-16.72S101,97.22,101,97.22c-.51-2.45-1.4-8.41,1.46-13.74a12.8,12.8,0,0,1,10.37-7c15.74-2.33,17.88,15.75,17.88,15.75s19.22-9.93,24.19,3.94-10.57,21.28-10.57,21.28S158.62,131.53,147.49,140.62Z" transform="translate(0 0)"/><path class="cls-1" d="M127.37,122.05c-3.62,3-8-.85-8-.85s-1.81,5.47-7.26,3.38-1.47-7.46-1.47-7.46-5.82.2-5.5-5.45,7-3.76,7-3.76a6.86,6.86,0,0,1,.48-4.48,4.64,4.64,0,0,1,.85-1.14,4.5,4.5,0,0,1,2.53-1.13c5.13-.76,5.83,5.14,5.83,5.14s6.26-3.24,7.88,1.28-3.44,6.94-3.44,6.94S131,119.09,127.37,122.05Z" transform="translate(0 0)"/></g></g></svg>