<svg xmlns="http://www.w3.org/2000/svg" xmlns:xlink="http://www.w3.org/1999/xlink" viewBox="0 0 102.83 264.97"><defs><style>.cls-1{fill:none;}.cls-2{clip-path:url(#clip-path);}.cls-3{fill:#f2fedc;}.cls-4{fill:#1b3d2f;}</style><clipPath id="clip-path" transform="translate(17.52 0.46)"><path class="cls-1" d="M18.19,256.65a43.85,43.85,0,0,1-7.43-.61l-1.93-.28L11,240.49l1.55.3a31.39,31.39,0,0,0,5.73.63c3.14,0,4.5-.23,5.37-1L7.22,195h9.49c-4.16-3.2-7.64-9.59-7.64-22,0-16.62,6.22-25.78,17.51-25.78,5.83,0,9.91,2.15,12.66,6.8V142.31H36.45l-2.71-19.7-2.19,19.7H10.94L0,94.34H13.93C10.11,90,8.05,84,8.05,76.86c0-6.44,1.65-12,4.8-16.19H10.29V0H29.77V14.85l.19-.2c3.33-3.36,8.67-3.36,13-3.36,9.42,0,14.6,6,14.6,16.93V60.67H54.94c3.16,4.24,4.81,9.76,4.81,16.19,0,7.14-2.07,13.12-5.9,17.48H67.77l-9,43.27V195l0,.07h0L42.89,240.78C38.54,252.21,31.62,256.65,18.19,256.65Zm-6-3.43a38.35,38.35,0,0,0,6,.43c12.1,0,18-3.76,21.88-13.9L54.5,198H41.69L38,214c-.42,2.05-.89,4-1.39,6.15l-.82,3.48H33.23l-.3-1.13c-.77-3-1.55-5.92-2.32-8.72L26.17,198H11.5L27,240.88l-.44.63c-1.85,2.7-4.62,2.91-8.31,2.91a31.23,31.23,0,0,1-4.75-.41Zm17-55.4L33.5,213c.3,1.1.61,2.21.91,3.34.22-1,.44-2,.64-2.95l4.19-18V191A13.15,13.15,0,0,1,29.23,197.82Zm13-2.78H55.53l.2-.57V137.29l8.35-39.95H53.15l-3.09,22.18c-.45,3.09-.88,6-1.31,9.08l-.19,1.29H45.9l-.21-1.35c-.53-5.26-1-10-1.77-14.59L41.48,98.4,42.71,98c9-2.85,14-10.36,14-21.15,0-7-2.13-12.73-6.17-16.61l-2.69-2.58h6.63V28.22c0-9.24-3.9-13.93-11.6-13.93-3.93,0-8.38,0-10.83,2.47-1.52,1.54-2.25,4-2.22,7.44v1.51H26.77V3H13.29V57.67h6.62l-2.7,2.58c-4,3.85-6.16,9.6-6.16,16.61,0,11.37,5.48,19,15.42,21.53l1.32.33-2.38,15.22c-.74,4.6-1.24,9.34-1.77,14.6l-.13,1.35H20.82l-.24-1.32c-.65-5.31-1.33-9.81-2.19-14.59L15.46,97.34H3.76l9.58,42H28.87l2-17.77c.62-5.16,1.07-9.57,1.35-13.49l.11-1.39h3l.08,1.42c.24,4.56.66,9.08,1.26,13.43l2.45,17.8h3.17V163H39.38l-.28-1.13c-2.58-10.26-7.54-11.67-12.52-11.67-12,0-14.51,12.39-14.51,22.78,0,17.91,7.39,21.9,13.72,22h.66c6.86-.12,10.51-3.52,12.55-11.66l.28-1.14h3Zm2.6-94.59,2,13c.19,1.14.36,2.3.52,3.46l.5-3.44,2.17-15.77A23.12,23.12,0,0,1,44.84,100.45ZM18.69,98.36l2.65,15.09q.32,1.74.6,3.45c.16-1.15.33-2.29.51-3.43l2-12.54A24.6,24.6,0,0,1,18.69,98.36ZM34,183.64c-3.91,0-8.58-1.86-8.58-10.72,0-7.48,2.89-11.28,8.58-11.28,5.19,0,8.29,4,8.29,10.72v.94C42.24,179.77,39.14,183.64,34,183.64Zm0-19c-2.76,0-5.58,1-5.58,8.28,0,6.8,2.82,7.72,5.58,7.72,4.37,0,5.29-4,5.29-7.34v-.94C39.24,168.84,38.32,164.64,34,164.64Zm-.05-77c-5.77,0-9.36-4.14-9.36-10.81S28.13,66,33.9,66s9.36,4.18,9.36,10.91S39.67,87.67,33.9,87.67ZM33.9,69c-5.53,0-6.36,5-6.36,7.91s.83,7.81,6.36,7.81,6.36-4.89,6.36-7.81S39.44,69,33.9,69ZM26.77,55.21V38.51c0-4.53,2.77-7.34,7.23-7.34s7,2.74,7,7.34V55.19l-1.75-.3a33.15,33.15,0,0,0-10.75,0Zm7.23-21c-2.81,0-4.23,1.46-4.23,4.34V51.7a37.4,37.4,0,0,1,8.26,0V38.51C38,34.62,35.73,34.17,34,34.17Z"/></clipPath></defs><g id="Layer_2" data-name="Layer 2"><g id="Layer_1-2" data-name="Layer 1"><g class="cls-2"><rect class="cls-3" x="51.42" width="51.42" height="264.97"/><rect class="cls-4" width="51.42" height="264.97"/></g></g></g></svg>