<svg xmlns="http://www.w3.org/2000/svg" xmlns:xlink="http://www.w3.org/1999/xlink" viewBox="0 0 102.83 264.97"><defs><style>.cls-1{fill:none;}.cls-2{fill:#f2fedc;}.cls-3{clip-path:url(#clip-path);}.cls-4{fill:#1b3d2f;}</style><clipPath id="clip-path" transform="translate(17.52 0.45)"><path class="cls-1" d="M18.19,256.66a44.91,44.91,0,0,1-7.43-.61l-1.93-.28L11,240.5l1.55.3a31.39,31.39,0,0,0,5.73.63c3.14,0,4.5-.23,5.37-1.06L7.22,195h9.49c-4.16-3.19-7.64-9.59-7.64-22,0-16.63,6.22-25.78,17.51-25.78,5.83,0,9.91,2.14,12.66,6.8V142.32H36.45l-2.71-19.71-2.19,19.71H10.94L0,94.35H13.93C10.11,90,8.05,84,8.05,76.87c0-6.45,1.65-12,4.8-16.19H10.29V0H29.77V14.85l.19-.2c3.33-3.35,8.67-3.35,13-3.35,9.42,0,14.6,6,14.6,16.93V60.68H54.94c3.16,4.23,4.81,9.76,4.81,16.19,0,7.13-2.07,13.12-5.9,17.48H67.77l-9,43.26V195l0,.06h0L42.89,240.78C38.54,252.22,31.62,256.66,18.19,256.66Zm-6-3.43a39.62,39.62,0,0,0,6,.43c12.1,0,18-3.77,21.88-13.9L54.5,198.05H41.69L38,214c-.42,2-.89,4-1.39,6.15l-.82,3.47H33.23l-.3-1.12c-.77-3-1.55-5.93-2.32-8.73l-4.44-15.73H11.5L27,240.88l-.44.64c-1.85,2.7-4.62,2.91-8.31,2.91a30.09,30.09,0,0,1-4.75-.42Zm17-55.4L33.5,213c.3,1.09.61,2.2.91,3.33.22-1,.44-2,.64-2.95l4.19-18V191A13.17,13.17,0,0,1,29.23,197.83Zm13-2.79H55.53l.2-.57V137.3l8.35-40H53.15l-3.09,22.17c-.45,3.1-.88,6-1.31,9.09l-.19,1.29H45.9l-.21-1.35c-.53-5.27-1-10-1.77-14.6L41.48,98.4,42.71,98c9-2.86,14-10.37,14-21.15,0-7-2.13-12.74-6.17-16.61l-2.69-2.58h6.63V28.23c0-9.25-3.9-13.93-11.6-13.93-3.93,0-8.38,0-10.83,2.46-1.52,1.54-2.25,4-2.22,7.44v1.52H26.77V3H13.29V57.68h6.62l-2.7,2.58c-4,3.85-6.16,9.59-6.16,16.61,0,11.37,5.48,19,15.42,21.52l1.32.34L25.41,114c-.74,4.6-1.24,9.33-1.77,14.6l-.13,1.35H20.82l-.24-1.32c-.65-5.31-1.33-9.81-2.19-14.6L15.46,97.35H3.76l9.58,42H28.87l2-17.77c.62-5.17,1.07-9.58,1.35-13.49l.11-1.39h3l.08,1.42c.24,4.55.66,9.07,1.26,13.42l2.45,17.81h3.17v23.73H39.38l-.28-1.14c-2.58-10.25-7.54-11.66-12.52-11.66-12,0-14.51,12.38-14.51,22.78,0,17.91,7.39,21.89,13.72,22h.66c6.86-.11,10.51-3.51,12.55-11.66l.28-1.13h3Zm2.6-94.58,2,13c.19,1.15.36,2.3.52,3.47l.5-3.45,2.17-15.76A23.54,23.54,0,0,1,44.84,100.46Zm-26.15-2.1,2.65,15.1c.21,1.16.41,2.3.6,3.45.16-1.15.33-2.3.51-3.43l2-12.55A24.19,24.19,0,0,1,18.69,98.36ZM34,183.65c-3.91,0-8.58-1.86-8.58-10.72,0-7.49,2.89-11.28,8.58-11.28,5.19,0,8.29,4,8.29,10.72v.94C42.24,179.78,39.14,183.65,34,183.65Zm0-19c-2.76,0-5.58,1-5.58,8.28,0,6.8,2.82,7.72,5.58,7.72,4.37,0,5.29-4,5.29-7.34v-.94C39.24,168.84,38.32,164.65,34,164.65Zm-.05-77c-5.77,0-9.36-4.15-9.36-10.81S28.13,66,33.9,66s9.36,4.18,9.36,10.91S39.67,87.68,33.9,87.68ZM33.9,69c-5.53,0-6.36,5-6.36,7.91s.83,7.81,6.36,7.81,6.36-4.9,6.36-7.81S39.44,69,33.9,69ZM26.77,55.22V38.51c0-4.52,2.77-7.34,7.23-7.34s7,2.75,7,7.34V55.2l-1.75-.31a33.71,33.71,0,0,0-10.75,0Zm7.23-21c-2.81,0-4.23,1.46-4.23,4.34v13.2a36.8,36.8,0,0,1,8.26,0V38.51C38,34.62,35.73,34.17,34,34.17Z"/></clipPath></defs><g id="Layer_2" data-name="Layer 2"><g id="Layer_1-2" data-name="Layer 1"><path class="cls-2" d="M33.81,148.83v15.82c-2.73,0-5.53,1-5.53,8.28,0,6.76,2.8,7.71,5.53,7.72v15.7a14.54,14.54,0,0,1-4.67,1.48L33.42,213l.39,1.44V253c-3.94,2.52-9,3.62-15.71,3.62a43.63,43.63,0,0,1-7.42-.61l-1.94-.27,2.18-15.28,1.55.3a31.39,31.39,0,0,0,5.73.63c3.15,0,4.5-.23,5.38-1.05L7.13,195.05h9.49C12.46,191.85,9,185.46,9,173c0-16.62,6.22-25.78,17.51-25.78A15.65,15.65,0,0,1,33.81,148.83Z" transform="translate(17.52 0.45)"/><path class="cls-2" d="M30,14.65l-.2.2V0H10.29V60.67h2.56c-3.15,4.22-4.8,9.75-4.8,16.19C8.05,84,10.11,90,13.93,94.34H0l11,48H31.56l2.18-19.7.16,1.16V84.67c-5.53,0-6.36-4.89-6.36-7.81S28.37,69,33.9,69V51.46a35,35,0,0,0-4.13.24V38.51c0-2.84,1.4-4.3,4.13-4.34V12.27A10,10,0,0,0,30,14.65ZM18.69,98.36a24.09,24.09,0,0,0,5.73,2.57l-2,12.54c-.18,1.14-.35,2.28-.51,3.44-.19-1.15-.39-2.3-.6-3.46Z" transform="translate(17.52 0.45)"/><g class="cls-3"><rect class="cls-2" x="51.42" width="51.42" height="264.97"/><rect class="cls-4" width="51.42" height="264.97"/></g></g></g></svg>