<?xml version="1.0" encoding="UTF-8"?><svg xmlns="http://www.w3.org/2000/svg" viewBox="0 0 880 1754"><defs><style>.e{stroke-width:.61px;}.e,.f{fill:#ff1d25;}.e,.g{stroke:#ff1d25;}.e,.g,.h,.i{stroke-miterlimit:10;}.j,.h,.k,.l{fill:#fff;}.m{fill:red;}.n{fill:#666;}.o{fill:#333;}.p{fill:#1a1a1a;}.g{stroke-width:.63px;}.g,.i{fill:none;}.h{stroke-width:4px;}.h,.i{stroke:#fff;}.i{opacity:.99;stroke-width:1.89px;}.k{opacity:.5;}.l{opacity:.75;}</style></defs><g id="a"/><g id="b"><g id="c"><g><path class="o" d="M746.55,0H133.44C59.74,0,0,59.75,0,133.45V1620.56c0,73.7,59.74,133.44,133.44,133.44H746.55c73.7,0,133.45-59.74,133.45-133.44V133.45C880,59.75,820.25,0,746.55,0Zm108.45,1594.19c0,74.45-60.36,134.81-134.82,134.81H159.81c-74.46,0-134.81-60.36-134.81-134.81V159.82C25,85.36,85.35,25,159.81,25H720.18c74.46,0,134.82,60.36,134.82,134.82V1594.19Z"/><path d="M720.18,25H159.81C85.35,25,25,85.36,25,159.82V1594.19c0,74.45,60.35,134.81,134.81,134.81H720.18c74.46,0,134.82-60.36,134.82-134.81V159.82c0-74.46-60.36-134.82-134.82-134.82Zm94.82,1562.99c0,55.79-45.23,101.01-101.02,101.01H166.01c-55.79,0-101.01-45.22-101.01-101.01V166.02c0-55.79,45.22-101.02,101.01-101.02l162.63-2.13v33.58c0,11.32,9.18,20.5,20.49,20.5l217.09,2.05c11.32,0,20.49-9.18,20.49-20.5v-33.58l127.27,.08c55.79,0,101.02,45.23,101.02,101.02V1587.99Z"/><path class="p" d="M815,166.02V1587.99c0,55.79-45.23,101.01-101.02,101.01H166.01c-55.79,0-101.01-45.22-101.01-101.01V166.02c0-55.79,45.22-101.02,101.01-101.02l163.46-2.13v33.58c0,11.32,9.18,20.5,20.49,20.5l216.26,2.05c11.32,0,20.49-9.18,20.49-20.5v-33.58l127.27,.08c55.79,0,101.02,45.23,101.02,101.02Z"/><rect class="j" x="261.97" y="1658.37" width="356.06" height="12" rx="6" ry="6"/><g><circle class="j" cx="138.03" cy="232.59" r="41.88"/><path class="j" d="M138.03,193.02c21.82,0,39.57,17.75,39.57,39.57s-17.75,39.57-39.57,39.57-39.57-17.75-39.57-39.57,17.75-39.57,39.57-39.57m0-4.61c-24.4,0-44.18,19.78-44.18,44.18s19.78,44.18,44.18,44.18,44.18-19.78,44.18-44.18-19.78-44.18-44.18-44.18h0Z"/></g><g><path class="j" d="M181,108.44c0-2.89,1.73-4.94,4.55-6.14l-.04-.11c-2.54-1.2-3.63-3.18-3.63-5.15,0-3.63,3.07-6.11,7.09-6.11,4.45,0,6.67,2.79,6.67,5.65,0,1.94-.95,4.02-3.78,5.36v.11c2.86,1.13,4.62,3.14,4.62,5.93,0,3.99-3.42,6.67-7.8,6.67-4.8,0-7.69-2.86-7.69-6.21Zm12.35-.14c0-2.79-1.94-4.13-5.05-5.01-2.68,.78-4.13,2.54-4.13,4.73-.11,2.33,1.66,4.38,4.59,4.38s4.59-1.73,4.59-4.09Zm-8.54-11.47c0,2.29,1.73,3.53,4.38,4.23,1.98-.67,3.49-2.08,3.49-4.16,0-1.84-1.09-3.74-3.88-3.74-2.58,0-3.99,1.69-3.99,3.67Z"/><path class="j" d="M199.63,100.01c0-1.31,.88-2.22,2.12-2.22s2.05,.92,2.08,2.22c0,1.24-.81,2.19-2.12,2.19-1.24,0-2.08-.95-2.08-2.19Zm0,12.46c0-1.31,.88-2.22,2.12-2.22s2.05,.92,2.08,2.22c0,1.24-.81,2.19-2.12,2.19-1.24,0-2.08-.95-2.08-2.19Z"/><path class="j" d="M220.39,93.94h-8.75l-.88,5.89c.53-.07,1.02-.14,1.87-.14,1.76,0,3.53,.39,4.94,1.24,1.8,1.02,3.28,3,3.28,5.89,0,4.48-3.56,7.84-8.54,7.84-2.51,0-4.62-.71-5.72-1.41l.78-2.36c.95,.56,2.82,1.27,4.91,1.27,2.93,0,5.43-1.91,5.43-4.98-.04-2.96-2.01-5.08-6.6-5.08-1.31,0-2.33,.14-3.18,.25l1.48-11.01h10.98v2.61Z"/><path class="j" d="M234.4,114.27v-6.25h-10.66v-2.05l10.24-14.65h3.35v14.26h3.21v2.44h-3.21v6.25h-2.93Zm0-8.68v-7.66c0-1.2,.04-2.4,.11-3.6h-.11c-.71,1.34-1.27,2.33-1.91,3.39l-5.61,7.8v.07h7.52Z"/></g><g><rect class="j" x="613.58" y="98.11" width="8.16" height="14.36" rx="2.78" ry="2.78"/><rect class="j" x="623.27" y="91.96" width="8.16" height="20.51" rx="2.68" ry="2.68"/><rect class="n" x="632.97" y="85.81" width="8.16" height="26.67" rx="2.47" ry="2.47"/><rect class="n" x="642.67" y="79.65" width="8.16" height="32.82" rx="2.57" ry="2.57"/></g><g><path class="j" d="M666.58,90.77c3.72-3.56,8.07-5.96,13.15-6.86,8.58-1.52,16.13,.69,22.6,6.55,.12,.11,.25,.2,.33,.25l-4.56,4.64c-7.34-7.27-19.54-7.17-26.94,.01-.15-.14-.31-.28-.46-.43-1.22-1.23-2.44-2.46-3.67-3.68-.13-.13-.3-.24-.45-.35v-.12Z"/><path class="j" d="M695.9,97.43l-4.53,4.61c-1.94-1.7-4.19-2.66-6.79-2.65-2.58,0-4.8,.97-6.67,2.62l-4.6-4.53c5.99-6.01,16.36-6.21,22.6-.04Z"/><path class="j" d="M680.1,104.35c2.11-2.32,6.49-2.37,8.9-.17l-4.46,4.5-4.44-4.33Z"/></g><g><path class="j" d="M755.51,91.91c0-2.38-1.1-3.59-3.28-3.59-5.1,0-10.2,0-15.29,0s-10.3,0-15.45,0c-1.91,0-3.06,1.27-3.06,3.39-.01,3.65-.01,7.3,0,10.96,0,2.11,1.15,3.37,3.08,3.37,10.27,0,20.55,0,30.82,0,2.06,0,3.18-1.25,3.18-3.52,0-3.54,0-7.08,0-10.61Zm-.76,10.7c0,1.63-1.01,2.61-2.31,2.6-10.33-.03-20.66-.01-30.99-.02-1.43,0-2.29-.94-2.29-2.52-.01-3.65-.01-7.31,0-10.96,0-1.62,.86-2.53,2.36-2.54,5.15,0,10.3,0,15.46,0h0c5.1,0,10.2,.03,15.3-.02,1.48-.01,2.45,.8,2.46,2.76,.03,3.57,.02,7.14,0,10.7Z"/><path class="j" d="M755.89,96.99c0-.86,0-1.72,0-2.58,0-.48,.18-.59,.58-.52,.74,.14,1.37,.84,1.41,1.71,.04,.97,.05,1.95,0,2.92-.04,.85-.61,1.53-1.32,1.7-.45,.11-.7,0-.67-.58,.02-.46,0-.92,0-1.37,0-.43,0-.86,0-1.29Z"/><path class="m" d="M721.55,97.16c0,2.27,0,4.54,0,6.8,0,.86-.23,1.01-.95,.61-.68-.38-1.06-1.01-1.06-1.86,0-3.67,0-7.35,0-11.02,0-.97,.46-1.63,1.25-1.99,.48-.22,.78-.15,.77,.57-.03,2.3-.01,4.59-.01,6.89Z"/></g><g><rect class="k" x="89.78" y="156.21" width="168.46" height="8" rx="2.42" ry="2.42"/><rect class="j" x="267.11" y="156.21" width="168.46" height="8" rx="2.42" ry="2.42"/><rect class="k" x="621.76" y="156.21" width="168.46" height="8" rx="2.42" ry="2.42"/><rect class="k" x="444.44" y="156.21" width="168.46" height="8" rx="2.42" ry="2.42"/></g><g><path class="j" d="M213.73,230.01l-3.2,.83c-.38-1.63-.99-2.78-3.14-2.78-2.02,0-2.85,.86-2.85,1.95,0,1.54,1.41,1.98,3.58,2.37,2.85,.51,5.89,1.18,5.89,4.96,0,3.42-2.75,5.25-6.82,5.25s-6.24-1.6-6.75-4.67l3.14-1.02c.42,1.57,1.09,2.94,3.74,2.94,1.82,0,3.1-.58,3.1-1.98,0-1.66-1.34-1.98-3.46-2.37-2.72-.51-5.89-1.12-5.89-5.06,0-3.46,2.91-5.12,6.37-5.12,3.84,0,5.63,1.82,6.27,4.7Z"/><path class="j" d="M222.72,242.59c-3.26,0-4.93-1.47-4.93-4.99v-9.22h-2.53v-2.72h2.53v-4.83l3.68-.51v5.34h4.48v2.72h-4.48v8.7c0,1.63,.42,2.5,2.21,2.5,.99,0,2.14-.38,2.82-.77l.61,2.62c-.83,.54-2.62,1.15-4.38,1.15Z"/><path class="j" d="M242.91,239.99c.29,0,.58-.06,.99-.19l.13,2.18c-.64,.32-1.7,.54-2.59,.54-1.73,0-2.5-.67-2.78-1.95-1.12,1.22-2.94,2.02-5.25,2.02-4.16,0-4.9-2.82-4.9-4.45,0-4.29,3.65-5.7,8.1-5.7,.77,0,1.25,.03,1.7,.06v-1.25c0-2.02-.45-3.17-2.88-3.17-2.02,0-2.69,.83-3.04,2.56l-3.23-.58c.51-3.1,2.5-4.77,6.56-4.77s6.21,1.63,6.21,5.76v7.65c0,.9,.16,1.28,.99,1.28Zm-6.11-5.02c-1.86,0-4.54,.22-4.54,2.66,0,1.15,.51,2.21,2.46,2.21,1.5,0,2.88-.77,3.62-1.54v-3.26c-.32-.03-.7-.06-1.54-.06Z"/><path class="j" d="M246.88,242.2v-16.54h3.17l.13,1.7c1.5-1.18,3.23-2.05,5.41-2.05s3.46,.61,4.16,2.14c1.44-1.25,3.3-2.14,5.54-2.14,3.39,0,4.8,1.89,4.8,5.6v11.29h-3.68v-10.75c0-1.95-.48-3.07-2.3-3.07-1.31,0-2.94,.86-3.74,1.6,.03,.26,.03,.58,.03,.86v11.36h-3.68v-10.75c0-1.95-.45-3.07-2.27-3.07-1.38,0-3.07,.93-3.87,1.66v12.16h-3.68Z"/><path class="j" d="M277.63,225.66l.19,1.76c1.47-1.38,3.36-2.11,5.54-2.11,3.49,0,6.11,2.18,6.11,8.22,0,6.53-3.14,9.05-6.85,9.05-1.98,0-3.46-.67-4.61-1.6v8h-3.55v-23.33h3.17Zm4.19,13.92c2.78,0,3.81-2.34,3.81-5.98s-1.15-5.28-3.49-5.28c-1.57,0-3.14,.93-4.03,1.76v8.03c.64,.51,2.11,1.47,3.71,1.47Z"/><path class="j" d="M292.26,234.14c0-5.73,3.01-8.83,8.19-8.83,3.65,0,6.24,2.14,6.53,6.05l-3.39,.48c-.26-2.18-1.15-3.58-3.3-3.58s-4.19,1.09-4.19,5.47,1.79,5.86,4.1,5.86c2.05,0,3.26-.99,3.65-3.3l3.2,.64c-.54,3.97-3.49,5.66-7.04,5.66-5.47,0-7.74-3.52-7.74-8.45Z"/><path class="j" d="M309.57,234.01c0-5.31,2.75-8.7,8.22-8.7s7.65,3.42,7.65,8.32c0,5.44-2.37,8.96-8.06,8.96s-7.81-3.65-7.81-8.58Zm12.03-.19c0-4.13-1.34-5.54-3.94-5.54s-4.26,1.57-4.26,5.6,1.28,5.86,4.16,5.86c2.53,0,4.03-1.66,4.03-5.92Z"/><path class="j" d="M329.44,228.38h-2.37v-2.72h2.37v-2.37c0-3.81,1.92-5.57,5.18-5.57,1.38,0,2.62,.32,3.17,.58l-.16,2.66c-.67-.22-1.5-.38-2.18-.38-1.44,0-2.34,.64-2.34,2.72v2.37h6.56v-2.37c0-3.81,2.05-5.57,5.41-5.57,1.5,0,2.72,.32,3.26,.58l-.16,2.66c-.64-.22-1.5-.42-2.27-.42-1.5,0-2.56,.54-2.56,2.85v2.27h4.51v2.72h-4.51v13.82h-3.68v-13.82h-6.56v13.82h-3.68v-13.82Z"/><path class="j" d="M348.86,233.95c0-5.98,3.58-8.64,7.9-8.64,4.8,0,6.78,3.04,6.78,7.33,0,.67-.03,1.44-.1,2.21h-10.72c.1,3.49,1.76,4.74,4.16,4.74,2.11,0,3.01-.99,3.39-2.69l3.14,.77c-.64,3.14-3.17,4.93-6.75,4.93-5.95,0-7.81-4.1-7.81-8.64Zm7.68-5.73c-1.86,0-3.58,1.12-3.74,4.06h6.94c0-2.82-.99-4.06-3.2-4.06Z"/><path class="j" d="M366.37,233.95c0-5.98,3.58-8.64,7.9-8.64,4.8,0,6.78,3.04,6.78,7.33,0,.67-.03,1.44-.1,2.21h-10.72c.1,3.49,1.76,4.74,4.16,4.74,2.11,0,3.01-.99,3.39-2.69l3.14,.77c-.64,3.14-3.17,4.93-6.75,4.93-5.95,0-7.81-4.1-7.81-8.64Zm7.68-5.73c-1.86,0-3.58,1.12-3.74,4.06h6.94c0-2.82-.99-4.06-3.2-4.06Z"/><path class="j" d="M383.87,234.14c0-5.73,3.01-8.83,8.19-8.83,3.65,0,6.24,2.14,6.53,6.05l-3.39,.48c-.26-2.18-1.15-3.58-3.3-3.58s-4.19,1.09-4.19,5.47,1.79,5.86,4.1,5.86c2.05,0,3.26-.99,3.65-3.3l3.2,.64c-.54,3.97-3.49,5.66-7.04,5.66-5.47,0-7.74-3.52-7.74-8.45Z"/><path class="j" d="M401.18,234.01c0-5.31,2.75-8.7,8.22-8.7s7.65,3.42,7.65,8.32c0,5.44-2.37,8.96-8.06,8.96s-7.81-3.65-7.81-8.58Zm12.03-.19c0-4.13-1.34-5.54-3.94-5.54s-4.26,1.57-4.26,5.6,1.28,5.86,4.16,5.86c2.53,0,4.03-1.66,4.03-5.92Z"/></g><g><path class="l" d="M443.35,240.16c2.26,0,4.25-1.24,4.25-4.34s-1.89-4.25-4.71-4.25h-2.02v-2.39h1.43c3.13,0,4.99-1.64,4.99-4.12,0-1.86-.87-3.35-3.54-3.35s-3.41,1.15-3.97,3.19l-2.51-.56c.74-3.75,3.47-4.99,6.79-4.99,3.94,0,6.05,2.11,6.05,5.3,0,3.38-2.39,4.93-4.37,5.43v.09c2.91,.53,4.78,2.26,4.78,5.71,0,4.03-2.85,6.7-7.22,6.7-3.5,0-6.11-1.49-6.54-5.21l2.67-.56c.4,1.92,.96,3.35,3.94,3.35Z"/><path class="l" d="M454.85,242.2v-15.94h2.42l.16,1.8c1.58-1.21,3.26-2.14,5.43-2.14s3.38,.71,4,2.2c1.55-1.24,3.35-2.2,5.52-2.2,3.35,0,4.53,1.86,4.53,5.43v10.85h-2.82v-10.45c0-2.14-.43-3.35-2.48-3.35-1.52,0-3.35,.99-4.28,1.77,.03,.37,.06,.78,.06,1.18v10.85h-2.82v-10.45c0-2.14-.43-3.35-2.48-3.35-1.61,0-3.57,1.12-4.4,1.89v11.91h-2.82Z"/></g><rect class="i" x="93.86" y="1510.85" width="497.82" height="100" rx="37.5" ry="37.5"/><path class="h" d="M652.93,1536.51c.75-.77,1.44-1.55,2.19-2.25,2.5-2.3,5.45-3.72,8.81-4.25,4.47-.71,8.62,.17,12.4,2.66,3.07,2.03,5.28,4.78,6.6,8.22,1.43,3.71,1.55,7.49,.42,11.29-.75,2.52-2,4.78-3.84,6.66-6.81,6.91-13.66,13.79-20.49,20.68-1.59,1.6-3.15,3.24-4.72,4.85-.83,.85-1.42,.85-2.27,0-8.36-8.3-16.74-16.57-25.05-24.92-3.89-3.91-5.68-8.7-5.03-14.21,.74-6.25,4.02-10.82,9.62-13.69,3.06-1.57,6.35-2.07,9.74-1.64,4.37,.55,8.03,2.5,10.94,5.84,.22,.26,.45,.51,.67,.77Zm.2,45.58c.1-.1,.19-.17,.27-.25,8.03-8.12,16.09-16.21,24.08-24.36,3.65-3.73,4.9-8.29,3.9-13.38-1.19-6.09-6.11-10.75-12.24-11.72-5.07-.8-9.44,.7-13.07,4.3-.78,.77-1.39,1.71-2.05,2.59-.58,.77-1.55,.79-2.11,0-.14-.2-.27-.41-.41-.62-2.15-3.09-5.06-5.12-8.69-6.04-3.6-.91-7.12-.53-10.41,1.2-4.79,2.53-7.55,6.55-8.09,11.94-.47,4.73,1.15,8.79,4.49,12.14,6.62,6.63,13.28,13.24,19.93,19.85,1.46,1.45,2.93,2.89,4.41,4.35Z"/><path class="j" d="M718.29,1530.09c.68,.04,1.37,.1,2.05,.11,4.88,.07,9.76,.12,14.64,.19,5.65,.08,11.31,.16,16.96,.24,5.71,.08,11.43,.16,17.14,.24,1.59,.02,3.17,.06,4.76,.07,2.36,.03,3.68,2.34,2.48,4.41-1.89,3.24-3.82,6.47-5.72,9.71-5.97,10.13-11.93,20.26-17.9,30.4-1.64,2.78-3.26,5.58-4.91,8.35-.63,1.06-1.6,1.55-2.83,1.39-1.23-.16-2.06-.87-2.37-2.07-1.11-4.32-2.2-8.65-3.29-12.97-1.24-4.9-2.47-9.8-3.71-14.69-.06-.22-.18-.46-.34-.62-5.85-5.77-11.71-11.53-17.57-17.29-.83-.81-1.69-1.59-2.46-2.46-.4-.45-.65-1.05-.96-1.58v-1.1c.4-1.28,1.27-2.03,2.56-2.32h1.47Zm28.11,44.87c6.6-11.22,13.14-22.32,19.68-33.43l-.11-.08-24.6,13.59,5.03,19.92Zm-22.19-39.04c.17,.19,.23,.27,.3,.34,4.58,4.51,9.16,9.02,13.74,13.53,.27,.26,.46,.22,.74,.06,7.89-4.36,15.78-8.72,23.66-13.08,.11-.06,.19-.16,.36-.3l-38.8-.55Z"/><g><path id="d" class="e" d="M112.87,202.17s.11-.03,.21-.06c.25-.06,.42-.15,.59-.31,.17-.17,.26-.33,.34-.62l.05-.21h.99l.06,.21c.07,.28,.17,.45,.34,.61,.17,.16,.34,.25,.59,.31,.3,.07,.69-.05,.95-.29,.19-.18,.26-.31,.35-.62l.06-.22h.99l.06,.21c.07,.28,.17,.45,.34,.61,.17,.16,.34,.25,.59,.31,.3,.07,.69-.05,.95-.29,.19-.18,.26-.31,.35-.62l.06-.22h.99l.06,.21c.07,.28,.17,.45,.34,.61,.17,.16,.34,.25,.59,.31,.3,.07,.69-.05,.95-.29,.19-.18,.26-.31,.35-.62l.06-.22h.99l.06,.21c.07,.28,.17,.45,.34,.61,.17,.16,.34,.25,.59,.31,.3,.07,.69-.05,.95-.29,.19-.18,.26-.31,.35-.62l.06-.22h.99l.06,.21c.07,.28,.17,.45,.34,.61,.17,.16,.34,.25,.59,.31,.3,.07,.69-.05,.95-.29,.19-.18,.26-.31,.35-.62l.06-.22h.99l.06,.21c.07,.28,.17,.45,.34,.61,.17,.16,.34,.25,.59,.31,.3,.07,.69-.05,.95-.29,.19-.18,.26-.31,.35-.62l.06-.22h.99l.06,.21c.07,.28,.17,.45,.34,.61,.17,.16,.34,.25,.59,.31,.3,.07,.69-.05,.95-.29,.19-.18,.26-.31,.35-.62l.06-.22h.99l.06,.21c.07,.28,.17,.45,.34,.61,.17,.16,.34,.25,.59,.31,.3,.07,.69-.05,.95-.29,.19-.18,.26-.31,.35-.62l.06-.22h.99l.06,.21c.07,.28,.17,.45,.34,.61,.17,.16,.34,.25,.59,.31,.3,.07,.69-.05,.95-.29,.19-.18,.26-.31,.35-.62l.06-.22h.99l.06,.21c.07,.28,.17,.45,.34,.61,.17,.16,.34,.25,.59,.31,.3,.07,.69-.05,.95-.29,.19-.18,.26-.31,.35-.62l.06-.22h.99l.06,.21c.07,.28,.17,.45,.34,.61,.17,.16,.34,.25,.59,.31,.3,.07,.69-.05,.95-.29,.19-.18,.26-.31,.35-.62l.06-.22h.99l.06,.21c.07,.28,.17,.45,.34,.61,.17,.16,.34,.25,.59,.31,.3,.07,.69-.05,.95-.29,.19-.18,.26-.31,.35-.62l.06-.22h.99l.06,.21c.07,.28,.17,.45,.34,.61,.17,.16,.34,.25,.59,.31,.3,.07,.69-.05,.95-.29,.19-.18,.26-.31,.35-.62l.06-.22h.99l.06,.21c.07,.28,.17,.45,.34,.61,.17,.16,.34,.25,.59,.31,.3,.07,.69-.05,.95-.29,.19-.18,.26-.31,.35-.62l.06-.22h.99l.06,.21c.14,.52,.41,.79,.94,.92l.22,.05v.98l-.21,.06c-.29,.07-.46,.16-.62,.34-.26,.27-.38,.65-.31,.95,.12,.5,.42,.79,.94,.91l.22,.05v.98l-.21,.06c-.29,.07-.46,.16-.62,.34-.26,.27-.38,.65-.31,.95,.12,.5,.42,.79,.94,.91l.22,.05v.98l-.21,.06c-.29,.07-.46,.16-.62,.34-.26,.27-.38,.65-.31,.95,.12,.5,.42,.79,.94,.91l.22,.05v.98l-.21,.06c-.29,.07-.46,.16-.62,.34-.26,.27-.38,.64-.31,.95,.11,.5,.41,.79,.94,.92l.22,.05v.98l-.21,.06c-.29,.07-.46,.16-.62,.34-.26,.27-.38,.65-.31,.95,.12,.5,.42,.79,.94,.91l.22,.05v.98l-.21,.06c-.29,.07-.46,.16-.62,.34-.26,.27-.38,.65-.31,.95,.12,.5,.42,.79,.94,.91l.22,.05v.98l-.21,.06c-.29,.07-.46,.16-.62,.34-.26,.27-.38,.65-.31,.95,.12,.5,.42,.79,.94,.91l.22,.05v.98l-.21,.06c-.29,.07-.46,.16-.62,.34-.26,.27-.38,.65-.31,.95,.12,.5,.42,.79,.94,.91l.22,.05v.98l-.21,.06c-.29,.07-.46,.16-.62,.34-.26,.27-.38,.65-.31,.95,.12,.5,.42,.79,.94,.91l.22,.05v.98l-.21,.06c-.29,.07-.46,.16-.62,.34-.26,.27-.38,.65-.31,.95,.12,.5,.42,.79,.94,.91l.22,.05v.98l-.21,.06c-.29,.07-.46,.16-.62,.34-.26,.27-.38,.65-.31,.95,.12,.5,.42,.79,.94,.91l.22,.05v.98l-.21,.06c-.29,.07-.46,.16-.62,.34-.26,.27-.38,.65-.31,.95,.12,.5,.42,.79,.94,.91l.22,.05v.98l-.21,.06c-.29,.07-.46,.16-.62,.34-.26,.27-.38,.65-.31,.95,.12,.5,.42,.79,.94,.91l.22,.05v.98l-.21,.06c-.29,.07-.46,.16-.62,.34-.26,.27-.38,.65-.31,.95,.12,.5,.42,.79,.94,.91l.22,.05v.98l-.21,.06c-.29,.07-.46,.16-.62,.34-.26,.27-.38,.65-.31,.95,.12,.5,.42,.79,.94,.91l.22,.05v.98l-.21,.06c-.29,.07-.46,.16-.62,.34-.26,.27-.38,.65-.31,.95,.12,.5,.42,.79,.94,.91l.22,.05v.98l-.21,.06c-.29,.07-.46,.16-.62,.34-.26,.27-.38,.65-.31,.95,.12,.5,.42,.79,.94,.91l.22,.05v.98l-.21,.06c-.29,.07-.46,.16-.62,.34-.26,.27-.38,.65-.31,.95,.12,.5,.42,.79,.94,.91l.22,.05v.98l-.21,.06c-.29,.07-.46,.16-.62,.34-.26,.27-.38,.65-.31,.95,.12,.5,.42,.79,.94,.91l.22,.05v.98l-.21,.06c-.29,.07-.46,.16-.62,.34-.17,.17-.24,.31-.31,.59l-.05,.21h-.99l-.06-.21c-.07-.28-.17-.45-.34-.61-.17-.16-.34-.25-.59-.31-.3-.07-.69,.05-.95,.29-.19,.18-.26,.31-.35,.62l-.06,.22h-.99l-.06-.21c-.07-.28-.17-.45-.34-.61-.17-.16-.34-.25-.59-.31-.3-.07-.69,.05-.95,.29-.19,.18-.26,.31-.35,.62l-.06,.22h-.99l-.06-.21c-.07-.28-.17-.45-.34-.61-.17-.16-.34-.25-.59-.31-.3-.07-.69,.05-.95,.29-.19,.18-.26,.31-.35,.62l-.06,.22h-.99l-.06-.21c-.07-.28-.17-.45-.34-.61-.17-.16-.34-.25-.59-.31-.3-.07-.69,.05-.95,.29-.19,.18-.26,.31-.35,.62l-.06,.22h-.99l-.06-.21c-.07-.28-.17-.45-.34-.61-.17-.16-.34-.25-.59-.31-.3-.07-.69,.05-.95,.29-.19,.18-.26,.31-.35,.62l-.06,.22h-.99l-.06-.21c-.07-.28-.17-.45-.34-.61-.17-.16-.34-.25-.59-.31-.3-.07-.69,.05-.95,.29-.19,.18-.26,.31-.35,.62l-.06,.22h-.99l-.06-.21c-.07-.28-.17-.45-.34-.61-.17-.16-.34-.25-.59-.31-.3-.07-.69,.05-.95,.29-.19,.18-.26,.31-.35,.62l-.06,.22h-.99l-.06-.21c-.07-.28-.17-.45-.34-.61-.17-.16-.34-.25-.59-.31-.3-.07-.69,.05-.95,.29-.19,.18-.26,.31-.35,.62l-.06,.22h-.99l-.06-.21c-.07-.28-.17-.45-.34-.61-.17-.16-.34-.25-.59-.31-.3-.07-.69,.05-.95,.29-.19,.18-.26,.31-.35,.62l-.06,.22h-.99l-.06-.21c-.07-.28-.17-.45-.34-.61-.17-.16-.34-.25-.59-.31-.3-.07-.69,.05-.95,.29-.19,.18-.26,.31-.35,.62l-.06,.22h-.99l-.06-.21c-.07-.28-.17-.45-.34-.61-.17-.16-.34-.25-.59-.31-.3-.07-.69,.05-.95,.29-.19,.18-.26,.31-.35,.62l-.06,.22h-.99l-.06-.21c-.07-.28-.17-.45-.34-.61-.17-.16-.34-.25-.59-.31-.3-.07-.69,.05-.95,.29-.19,.18-.26,.31-.35,.62l-.06,.22h-.99l-.06-.21c-.07-.28-.17-.45-.34-.61-.17-.16-.34-.25-.59-.31-.3-.07-.69,.05-.95,.29-.19,.18-.26,.31-.35,.62l-.06,.22h-.99l-.06-.21c-.07-.28-.17-.45-.34-.61-.17-.16-.34-.25-.59-.31-.3-.07-.69,.05-.95,.29-.19,.18-.26,.31-.35,.62l-.06,.22h-.99l-.06-.21c-.14-.52-.41-.79-.94-.92l-.22-.05v-.98l.21-.06c.29-.07,.46-.16,.62-.34,.26-.27,.38-.65,.31-.95-.12-.5-.42-.79-.94-.91l-.22-.05v-.98l.21-.06c.29-.07,.46-.16,.62-.34,.26-.27,.38-.65,.31-.95-.12-.5-.42-.79-.94-.91l-.22-.05v-.98l.21-.06c.29-.07,.46-.16,.62-.34,.26-.27,.38-.65,.31-.95-.12-.5-.42-.79-.94-.91l-.22-.05v-.98l.21-.06c.29-.07,.46-.16,.62-.34,.26-.27,.38-.65,.31-.95-.12-.5-.42-.79-.94-.91l-.22-.05v-.98l.21-.06c.29-.07,.46-.16,.62-.34,.26-.27,.38-.65,.31-.95-.12-.5-.42-.79-.94-.91l-.22-.05v-.98l.21-.06c.29-.07,.46-.16,.62-.34,.26-.27,.38-.65,.31-.95-.12-.5-.42-.79-.94-.91l-.22-.05v-.98l.21-.06c.29-.07,.46-.16,.62-.34,.26-.27,.38-.65,.31-.95-.12-.5-.42-.79-.94-.91l-.22-.05v-.98l.21-.06c.29-.07,.46-.16,.62-.34,.26-.27,.38-.65,.31-.95-.12-.5-.42-.79-.94-.91l-.22-.05v-.98l.21-.06c.29-.07,.46-.16,.62-.34,.26-.27,.38-.65,.31-.95-.12-.5-.42-.79-.94-.91l-.22-.05v-.98l.21-.06c.29-.07,.46-.16,.62-.34,.26-.27,.38-.65,.31-.95-.12-.5-.42-.79-.94-.91l-.22-.05v-.98l.21-.06c.29-.07,.46-.16,.62-.34,.26-.27,.38-.65,.31-.95-.12-.5-.42-.79-.94-.91l-.22-.05v-.98l.21-.06c.29-.07,.46-.16,.62-.34,.26-.27,.38-.65,.31-.95-.12-.5-.42-.79-.94-.91l-.22-.05v-.98l.21-.06c.29-.07,.46-.16,.62-.34,.26-.27,.38-.65,.31-.95-.12-.5-.42-.79-.94-.91l-.22-.05v-.98l.21-.06c.29-.07,.46-.16,.62-.34,.26-.27,.38-.65,.31-.95-.12-.5-.42-.79-.94-.91l-.22-.05v-.98l.21-.06c.29-.07,.46-.16,.62-.34,.26-.27,.38-.65,.31-.95-.12-.5-.42-.79-.94-.91l-.22-.05v-.98l.21-.06c.29-.07,.46-.16,.62-.34,.26-.27,.38-.65,.31-.95-.12-.5-.42-.79-.94-.91l-.22-.05v-.98l.21-.06c.29-.07,.46-.16,.62-.34,.26-.27,.38-.65,.31-.95-.12-.5-.42-.79-.94-.91l-.22-.05v-.98l.21-.06c.29-.07,.46-.16,.62-.34,.26-.27,.38-.65,.31-.95-.12-.5-.42-.79-.94-.91l-.22-.05v-.98l.21-.06c.29-.07,.46-.16,.62-.34,.26-.27,.38-.65,.31-.95-.12-.5-.42-.79-.94-.91l-.22-.05v-.48c-.02-.26,0-.49,0-.5h0Zm.3,.9c.5,.11,.84,.42,.97,.9,.12,.45,0,.92-.34,1.24-.19,.18-.36,.27-.62,.33l-.19,.04v.74l.19,.04c.5,.11,.84,.42,.97,.9,.12,.45,0,.92-.34,1.24-.19,.18-.36,.27-.62,.33l-.19,.04v.74l.19,.04c.5,.11,.84,.42,.97,.9,.12,.45,0,.92-.34,1.24-.19,.18-.36,.27-.62,.33l-.19,.04v.74l.19,.04c.5,.11,.84,.42,.97,.9,.12,.45,0,.92-.34,1.24-.19,.18-.36,.27-.62,.33l-.19,.04v.74l.19,.04c.5,.11,.84,.42,.97,.9,.12,.45,0,.92-.34,1.24-.19,.18-.36,.27-.62,.33l-.19,.04v.74l.19,.04c.5,.11,.84,.42,.97,.9,.12,.45,0,.92-.34,1.24-.19,.18-.36,.27-.62,.33l-.19,.04v.74l.19,.04c.5,.11,.84,.42,.97,.9,.12,.45,0,.92-.34,1.24-.19,.18-.36,.27-.62,.33l-.19,.04v.74l.19,.04c.5,.11,.84,.42,.97,.9,.12,.45,0,.92-.34,1.24-.19,.18-.36,.27-.62,.33l-.19,.04v.74l.19,.04c.5,.11,.84,.42,.97,.9,.12,.45,0,.92-.34,1.24-.19,.18-.36,.27-.62,.33l-.19,.04v.74l.19,.04c.5,.11,.84,.42,.97,.9,.12,.45,0,.92-.34,1.24-.19,.18-.36,.27-.62,.33l-.19,.04v.74l.19,.04c.5,.11,.84,.42,.97,.9,.12,.45,0,.92-.34,1.24-.19,.18-.36,.27-.62,.33l-.19,.04v.74l.19,.04c.5,.11,.84,.42,.97,.9,.12,.45,0,.92-.34,1.24-.19,.18-.36,.27-.62,.33l-.19,.04v.74l.19,.04c.5,.11,.84,.42,.97,.9,.12,.45,0,.92-.34,1.24-.19,.18-.36,.27-.62,.33l-.19,.04v.74l.19,.04c.5,.11,.84,.42,.97,.9,.12,.45,0,.92-.34,1.24-.19,.18-.36,.27-.62,.33l-.19,.04v.74l.19,.04c.5,.11,.84,.42,.97,.9,.12,.45,0,.92-.34,1.24-.19,.18-.36,.27-.62,.33l-.19,.04v.74l.19,.04c.5,.11,.84,.42,.97,.9,.12,.45,0,.92-.34,1.24-.19,.18-.36,.27-.62,.33l-.19,.04v.74l.19,.04c.5,.11,.84,.42,.97,.9,.12,.45,0,.92-.34,1.24-.19,.18-.36,.27-.62,.33l-.19,.04v.74l.19,.04c.5,.11,.84,.42,.97,.9,.12,.45,0,.92-.34,1.24-.19,.18-.36,.27-.62,.33l-.19,.04v.74l.19,.04c.5,.11,.84,.42,.97,.9,.12,.45,0,.92-.34,1.24-.19,.18-.36,.27-.62,.33l-.19,.04v.74l.19,.04c.52,.11,.86,.45,.98,.96l.04,.19h.75l.04-.18c.13-.58,.57-.96,1.16-1.01,.38-.03,.75,.1,1.02,.37,.18,.19,.27,.35,.33,.61l.04,.19h.75l.04-.18c.13-.58,.57-.96,1.16-1.01,.38-.03,.75,.1,1.02,.37,.18,.19,.27,.35,.33,.61l.04,.19h.75l.04-.18c.13-.58,.57-.96,1.16-1.01,.38-.03,.75,.1,1.02,.37,.18,.19,.27,.35,.33,.61l.04,.19h.75l.04-.18c.13-.58,.57-.96,1.16-1.01,.38-.03,.75,.1,1.02,.37,.18,.19,.27,.35,.33,.61l.04,.19h.75l.04-.18c.13-.58,.57-.96,1.16-1.01,.38-.03,.75,.1,1.02,.37,.18,.19,.27,.35,.33,.61l.04,.19h.75l.04-.18c.13-.58,.57-.96,1.16-1.01,.38-.03,.75,.1,1.02,.37,.18,.19,.27,.35,.33,.61l.04,.19h.75l.04-.18c.13-.58,.57-.96,1.16-1.01,.38-.03,.75,.1,1.02,.37,.18,.19,.27,.35,.33,.61l.04,.19h.75l.04-.18c.13-.58,.57-.96,1.16-1.01,.38-.03,.75,.1,1.02,.37,.18,.19,.27,.35,.33,.61l.04,.19h.75l.04-.18c.13-.58,.57-.96,1.16-1.01,.38-.03,.75,.1,1.02,.37,.18,.19,.27,.35,.33,.61l.04,.19h.75l.04-.18c.13-.58,.57-.96,1.16-1.01,.38-.03,.75,.1,1.02,.37,.18,.19,.27,.35,.33,.61l.04,.19h.75l.04-.18c.13-.58,.57-.96,1.16-1.01,.38-.03,.75,.1,1.02,.37,.18,.19,.27,.35,.33,.61l.04,.19h.75l.04-.18c.13-.58,.57-.96,1.16-1.01,.38-.03,.75,.1,1.02,.37,.18,.19,.27,.35,.33,.61l.04,.19h.75l.04-.18c.13-.58,.57-.96,1.16-1.01,.38-.03,.75,.1,1.02,.37,.18,.19,.27,.35,.33,.61l.04,.19h.75l.04-.18c.13-.58,.57-.96,1.16-1.01,.38-.03,.75,.1,1.02,.37,.18,.19,.27,.35,.33,.61l.04,.19h.75l.04-.19c.06-.26,.15-.42,.33-.61,.18-.19,.38-.3,.65-.35l.19-.04v-.74l-.19-.04c-.5-.11-.84-.42-.97-.9-.12-.45,0-.92,.34-1.24,.19-.18,.36-.27,.62-.33l.19-.04v-.74l-.19-.04c-.5-.11-.84-.42-.97-.9-.12-.45,0-.92,.34-1.24,.19-.18,.36-.27,.62-.33l.19-.04v-.74l-.19-.04c-.5-.11-.84-.42-.97-.9-.12-.45,0-.92,.34-1.24,.19-.18,.36-.27,.62-.33l.19-.04v-.74l-.19-.04c-.5-.11-.84-.42-.97-.9-.12-.45,0-.92,.34-1.24,.19-.18,.36-.27,.62-.33l.19-.04v-.74l-.19-.04c-.5-.11-.84-.42-.97-.9-.12-.45,0-.92,.34-1.24,.19-.18,.36-.27,.62-.33l.19-.04v-.74l-.19-.04c-.5-.11-.84-.42-.97-.9-.12-.45,0-.92,.34-1.24,.19-.18,.36-.27,.62-.33l.19-.04v-.74l-.19-.04c-.5-.11-.84-.42-.97-.9-.12-.45,0-.92,.34-1.24,.19-.18,.36-.27,.62-.33l.19-.04v-.74l-.19-.04c-.5-.11-.84-.42-.97-.9-.12-.45,0-.92,.34-1.24,.19-.18,.36-.27,.62-.33l.19-.04v-.74l-.19-.04c-.5-.11-.84-.42-.97-.9-.12-.45,0-.92,.34-1.24,.19-.18,.36-.27,.62-.33l.19-.04v-.74l-.19-.04c-.5-.11-.84-.42-.97-.9-.12-.45,0-.92,.34-1.24,.19-.18,.36-.27,.62-.33l.19-.04v-.74l-.19-.04c-.5-.11-.84-.42-.97-.9-.12-.45,0-.92,.34-1.24,.19-.18,.36-.27,.62-.33l.19-.04v-.74l-.19-.04c-.5-.11-.84-.42-.97-.9-.12-.45,0-.92,.34-1.24,.19-.18,.36-.27,.62-.33l.19-.04v-.74l-.19-.04c-.5-.11-.84-.42-.97-.9-.12-.45,0-.92,.34-1.24,.19-.18,.36-.27,.62-.33l.19-.04v-.74l-.19-.04c-.5-.11-.84-.42-.97-.9-.12-.45,0-.92,.34-1.24,.19-.18,.36-.27,.62-.33l.19-.04v-.74l-.19-.04c-.5-.11-.84-.42-.97-.9-.12-.45,0-.92,.34-1.24,.19-.18,.36-.27,.62-.33l.19-.04v-.74l-.19-.04c-.5-.11-.84-.42-.97-.9-.12-.45,0-.92,.34-1.24,.19-.18,.36-.27,.62-.33l.19-.04v-.74l-.19-.04c-.5-.11-.84-.42-.97-.9-.12-.45,0-.92,.34-1.24,.19-.18,.36-.27,.62-.33l.19-.04v-.74l-.19-.04c-.5-.11-.84-.42-.97-.9-.12-.45,0-.92,.34-1.24,.19-.18,.36-.27,.62-.33l.19-.04v-.74l-.19-.04c-.5-.11-.84-.42-.97-.9-.12-.45,0-.92,.34-1.24,.19-.18,.36-.27,.62-.33l.19-.04v-.74l-.19-.04c-.52-.11-.86-.45-.98-.96l-.04-.19h-.75l-.04,.18c-.13,.58-.57,.96-1.16,1.01-.38,.03-.75-.1-1.02-.37-.18-.19-.27-.35-.33-.61l-.04-.19h-.75l-.04,.18c-.13,.58-.57,.96-1.16,1.01-.38,.03-.75-.1-1.02-.37-.18-.19-.27-.35-.33-.61l-.04-.19h-.75l-.04,.18c-.13,.58-.57,.96-1.16,1.01-.38,.03-.75-.1-1.02-.37-.18-.19-.27-.35-.33-.61l-.04-.19h-.75l-.04,.18c-.13,.58-.57,.96-1.16,1.01-.38,.03-.75-.1-1.02-.37-.18-.19-.27-.35-.33-.61l-.04-.19h-.75l-.04,.18c-.13,.58-.57,.96-1.16,1.01-.38,.03-.75-.1-1.02-.37-.18-.19-.27-.35-.33-.61l-.04-.19h-.75l-.04,.18c-.13,.58-.57,.96-1.16,1.01-.38,.03-.75-.1-1.02-.37-.18-.19-.27-.35-.33-.61l-.04-.19h-.75l-.04,.18c-.13,.58-.57,.96-1.16,1.01-.38,.03-.75-.1-1.02-.37-.18-.19-.27-.35-.33-.61l-.04-.19h-.75l-.04,.18c-.13,.58-.57,.96-1.16,1.01-.38,.03-.75-.1-1.02-.37-.18-.19-.27-.35-.33-.61l-.04-.19h-.75l-.04,.18c-.13,.58-.57,.96-1.16,1.01-.38,.03-.75-.1-1.02-.37-.18-.19-.27-.35-.33-.61l-.04-.19h-.75l-.04,.18c-.13,.58-.57,.96-1.16,1.01-.37,.03-.72-.09-.99-.35-.19-.18-.3-.37-.36-.64l-.04-.19h-.75l-.04,.18c-.13,.58-.57,.96-1.16,1.01-.37,.03-.72-.09-.99-.35-.19-.18-.3-.37-.36-.64l-.04-.19h-.75l-.04,.18c-.13,.58-.57,.96-1.16,1.01-.37,.03-.72-.09-.99-.35-.19-.18-.3-.37-.36-.64l-.04-.19h-.75l-.04,.18c-.13,.58-.57,.96-1.16,1.01-.37,.03-.72-.09-.99-.35-.19-.18-.3-.37-.36-.64l-.04-.19h-.75l-.04,.18c-.13,.58-.57,.96-1.16,1.01-.37,.03-.72-.09-.99-.35-.19-.18-.3-.37-.36-.64l-.04-.19h-.75l-.04,.19c-.06,.26-.17,.46-.36,.64-.19,.18-.36,.27-.62,.33l-.19,.04v.74l.19,.04h0Z"/><rect class="g" x="116" y="203.98" width="44.06" height="59.79"/><g><path class="f" d="M152.62,210.63c.95,0,1.44-.36,1.69-.94,.12-.29,.22-.34,.36-.34,.16,0,.25,.12,.25,.38,0,1.44-1.16,1.95-2.65,1.95-1.65,0-2.6-.66-2.6-2.07,0-1.65,.97-2.69,2.56-2.69,.35,0,.96,.15,1.36,.15,.8,0,1.02-.16,1.25-.16,.18,0,.27,.04,.27,.2,0,.32-.42,.64-.75,1.27-.49,.98-1.05,1.39-1.89,1.39-.47,0-.74-.16-.74-.55,0-.41,.23-.61,.58-.61,.29,0,.53,.08,.86,.08,.54,0,.7-.31,.7-.51s-.13-.33-.38-.33-.48,.06-.91,.06c-.48,0-.78-.18-1.29-.18-.42,0-.75,.18-.77,.99,0,1.18,.73,1.91,2.11,1.91Z"/><path class="f" d="M152.3,214.29c.38,0,.71-.07,.94-.07,.8,0,1.72,.76,1.72,1.83,0,.58-.68,1.05-.68,1.64,0,.29,.06,.38,.06,.63,0,.48-.53,.62-2.19,.62-1.32,0-1.97-.12-1.97-.61,0-.1,.02-.37,.02-.53,0-.34-.5-.91-.5-1.73,0-1.16,.91-1.84,1.74-1.84,.22,0,.65,.07,.86,.07Zm-2.07,1.49c0,.47,.6,.93,.85,1.4,.41,.73,.84,.88,1.59,.88,.81,0,1.16-.39,1.16-.8,0-.65-.97-2.22-2.62-2.22-.64,0-.99,.28-.99,.74Z"/><path class="f" d="M151.81,221.52c.51,0,.68,.25,.72,.53,.03,.18,.07,.26,.33,.26,.55,0,1.17-.8,2.33-.8,.65,0,1.15,.3,1.16,.83-.01,1.2-1.48,1.63-1.48,2.21,0,.31,.43,.37,.75,.37,.57,0,.73-.31,.98-.31,.14,0,.31,.15,.31,.49,0,.64-.46,1.15-1.49,1.15-.89,0-1.41-.31-1.41-.85,0-.77,.73-1.31,.72-2.22,.01-.5-.25-.73-.93-.73-.8,0-1.54,.79-1.54,1.86,0,.93,1.36,1.22,1.36,1.65,0,.23-.16,.29-1.51,.29-.92,0-1.05-.05-1.05-.28,0-.49,.66-.91,.66-1.72,0-.58-.72-1.83-1.52-1.83-.54,0-.89,.58-.89,1.2,0,.99,1,1.77,1,2.42,0,.14-.11,.2-.3,.2-.1,0-.56-.04-.91-.04s-.77,.02-.98,.02c-.19,0-.29-.09-.29-.23,0-.36,.9-1.48,.9-2.34,0-.69-.85-1.26-.85-1.87,0-.18,.2-.26,.48-.26,.71,0,1.32,.47,1.85,.47,.63,0,1.05-.47,1.61-.47Z"/><path class="f" d="M149.94,228.86c.55,0,1.44,.18,2.16,.18,.76,0,1.51-.24,1.98-.24,.66,0,1.15,.34,1.15,1.44,0,1.18-.79,2.07-2.22,2.07-.73,0-1.26-.28-1.26-.82s.58-.85,1.15-.85c.15,0,.25,.04,.25,.17,0,.11-.07,.2-.07,.42,0,.33,.29,.45,.6,.45,.45,0,.68-.18,.68-.59,0-.81-.79-1.53-1.98-1.53-.66,0-1.41,.23-1.41,1.56s1.58,1.82,1.58,2.22c0,.12-.11,.2-.26,.2-.09,0-.81-.03-1.36-.03-.38,0-.84,.04-1.09,.04-.14,0-.28-.04-.28-.2,0-.34,.94-1.31,.94-2.37s-.93-1.58-.93-1.88c0-.14,.1-.23,.37-.23Z"/><path class="f" d="M152.45,236.21c1.03,0,1.86-.06,2.12-.06s.38,.14,.38,.3c0,.23-.48,.72-.48,1.6s.75,2.14,.75,2.52c0,.18-.22,.26-.35,.26-.18,0-.56-.05-.79-.05-.27,0-.67,.05-.78,.05-.16,0-.29-.08-.29-.2,0-.36,1.02-.75,1.02-1.53,0-.24-.14-.44-.53-.44-.68,0-1.18,.26-1.72,.26-.44,0-.61-.23-.61-.5,0-.29,.19-.45,.47-.45,.36,0,.82,.22,1.46,.22,.69,0,.85-.21,.85-.61,0-.47-.33-.74-1.14-.74-1.36,0-2.28,.96-2.28,1.99,0,.69,.51,1.02,1.4,1.07,.42,.01,.55,.12,.55,.33,0,.4-.5,.63-1.65,.63s-1.36-.19-1.36-.42c0-.28,.54-1.09,.54-2.05,0-.89-.09-1.59-.09-1.96,0-.14,.13-.26,.38-.26,.33,0,1.05,.05,2.14,.05Z"/><path class="f" d="M149.55,243.47c.2,0,.4,.03,.61,.03,.25,0,.48-.04,.66-.04s.25,.09,.25,.22c0,.12-.06,.27-.06,.42,0,.1,.05,.23,.28,.23,.57,0,1.24-.92,2.44-.92,.65,0,1.15,.3,1.16,.83,0,1.16-1.5,1.48-1.5,2.21,0,.38,.45,.46,.75,.46,.4,0,.63-.15,.79-.28,.1-.07,.19-.13,.27-.13,.14,0,.25,.15,.25,.39,0,.55-.31,1.26-1.43,1.26-.94,0-1.39-.37-1.39-1,0-.72,.65-1.22,.64-2.07,.01-.43-.23-.64-.88-.64-.84,0-1.62,.74-1.62,1.77,0,.91,1.38,1.35,1.38,1.68,0,.2-.16,.3-1.51,.3-1.18,0-1.34-.07-1.34-.28,0-.38,.97-.96,.97-1.75,0-.96-1.07-1.96-1.07-2.38,0-.2,.18-.3,.36-.3Z"/><path class="f" d="M149.62,250.76c.26,0,.63,.03,.94,.03,.56,0,.99-.03,1.19-.03,.31,0,.45,.12,.45,.47,0,.65-.6,1.16-.6,1.63,0,.34,.21,.49,.7,.49,.59,0,1.33-.23,1.33-.91,0-.72-.64-1.15-.64-1.47,0-.18,.11-.23,.32-.23,.31,0,.69,.03,1.18,.03,.33,0,.62-.04,.75-.04,.14,0,.25,.07,.25,.18,0,.23-.57,.5-.85,1.38-.16,.53-.26,1.23-.25,1.82,.03,.91-.35,1.33-1.14,1.33-.73,0-1.21-.09-2.03-.09-.68,0-1,.07-1.32,.07-.19,0-.31-.04-.31-.2,0-.09,.07-.28,.07-.42,0-.34,.23-.5,.71-.5,.68,0,1.59,.28,2.58,.28,.51,0,.93-.15,.93-.39,0-.35-.37-.41-1.71-.47-1.87-.09-2.57-.27-2.57-.73,0-.26,.16-.53,.99-.66,.73-.12,.9-.24,.9-.39,0-.22-.41-.37-.95-.48-.85-.18-1.16-.32-1.16-.52,0-.09,.09-.16,.24-.16Z"/><path class="f" d="M141.92,210.63c.95,0,1.44-.36,1.69-.94,.12-.29,.22-.34,.36-.34,.16,0,.25,.12,.25,.38,0,1.44-1.16,1.95-2.65,1.95-1.65,0-2.6-.66-2.6-2.07,0-1.65,.97-2.69,2.56-2.69,.35,0,.96,.15,1.36,.15,.8,0,1.02-.16,1.25-.16,.18,0,.27,.04,.27,.2,0,.32-.42,.64-.75,1.27-.49,.98-1.05,1.39-1.89,1.39-.47,0-.74-.16-.74-.55,0-.41,.23-.61,.58-.61,.29,0,.53,.08,.86,.08,.54,0,.7-.31,.7-.51s-.13-.33-.38-.33-.48,.06-.91,.06c-.48,0-.78-.18-1.29-.18-.42,0-.75,.18-.77,.99,0,1.18,.73,1.91,2.11,1.91Z"/><path class="f" d="M141.6,214.29c.38,0,.71-.07,.94-.07,.8,0,1.72,.76,1.72,1.83,0,.58-.68,1.05-.68,1.64,0,.29,.06,.38,.06,.63,0,.48-.53,.62-2.19,.62-1.32,0-1.97-.12-1.97-.61,0-.1,.02-.37,.02-.53,0-.34-.5-.91-.5-1.73,0-1.16,.91-1.84,1.74-1.84,.22,0,.65,.07,.86,.07Zm-2.07,1.49c0,.47,.6,.93,.85,1.4,.41,.73,.84,.88,1.59,.88,.81,0,1.16-.39,1.16-.8,0-.65-.97-2.22-2.62-2.22-.64,0-.99,.28-.99,.74Z"/><path class="f" d="M142.94,221.75c.56,0,.74-.26,.96-.26,.29,0,.38,.32,.38,.57,0,.54-.26,.86-.99,.86-.93,0-2.05-.66-2.87-.66-.47,0-.67,.15-.67,.39,0,.64,1.86,.94,2.45,.94,.88,0,1.19-.23,1.43-.23,.14,0,.26,.07,.26,.28,0,.48-.21,.86-.89,.86s-1.44-.7-2.07-.7c-.27,0-.4,.12-.4,.34,0,1.01,2.28,1.3,2.28,1.85,0,.14-.12,.24-.44,.24-.48,0-1.12-.04-1.71-.04-.51,0-.84,.02-1.14,.02-.17,0-.26-.05-.26-.15,0-.05,.05-.14,.15-.2,.35-.21,.66-.61,.66-.93,0-.99-.94-1.95-.94-2.6,0-.52,.46-.77,1.25-.77,.67,0,1.82,.2,2.56,.2Z"/><path class="f" d="M142.94,229.06c.56,0,.74-.26,.96-.26,.29,0,.38,.32,.38,.57,0,.54-.26,.86-.99,.86-.93,0-2.05-.66-2.87-.66-.47,0-.67,.15-.67,.39,0,.64,1.86,.94,2.45,.94,.88,0,1.19-.23,1.43-.23,.14,0,.26,.07,.26,.28,0,.48-.21,.86-.89,.86s-1.44-.7-2.07-.7c-.27,0-.4,.12-.4,.34,0,1.01,2.28,1.3,2.28,1.85,0,.14-.12,.24-.44,.24-.48,0-1.12-.04-1.71-.04-.51,0-.84,.02-1.14,.02-.17,0-.26-.05-.26-.15,0-.05,.05-.14,.15-.2,.35-.21,.66-.61,.66-.93,0-.99-.94-1.95-.94-2.6,0-.52,.46-.77,1.25-.77,.67,0,1.82,.2,2.56,.2Z"/><path class="f" d="M139.03,238.47c0-1.78,.82-2.33,2.18-2.33,.44,0,1.18,.15,1.68,.15,.53,0,.68-.2,.88-.2,.3,0,.42,.31,.42,.63,0,.49-.27,.78-1.03,.78-.95,0-1.84-.64-2.8-.64-.28,0-.55,.15-.55,.45,0,.61,1.19,.89,2.07,.89,.82,0,1.2-.27,1.41-.27,.13,0,.21,.04,.21,.19,0,.61-.12,.97-.72,.97-.88,0-1.36-.69-2.44-.69-.33,0-.54,.17-.54,.42,0,.52,.75,1.07,1.89,1.07,1.39,0,1.79-.67,2.23-.67,.2,0,.31,.13,.31,.41,0,.77-1.03,1.25-2.19,1.25-1.98,0-3.02-.78-3.02-2.41Z"/><path class="f" d="M139.03,245.78c0-1.78,.82-2.33,2.18-2.33,.44,0,1.18,.15,1.68,.15,.53,0,.68-.2,.88-.2,.3,0,.42,.31,.42,.63,0,.49-.27,.78-1.03,.78-.95,0-1.84-.64-2.8-.64-.28,0-.55,.15-.55,.45,0,.61,1.19,.89,2.07,.89,.82,0,1.2-.27,1.41-.27,.13,0,.21,.04,.21,.19,0,.61-.12,.97-.72,.97-.88,0-1.36-.69-2.44-.69-.33,0-.54,.17-.54,.42,0,.52,.75,1.07,1.89,1.07,1.39,0,1.79-.67,2.23-.67,.2,0,.31,.13,.31,.41,0,.77-1.03,1.25-2.19,1.25-1.98,0-3.02-.78-3.02-2.41Z"/><path class="f" d="M133.16,207.43c.22,0,.28,.09,.28,.23,0,.36-.46,.92-.88,.92-.75,0-.83-1.36-2.07-1.36-.35,0-.64,.15-.64,.47,0,1.01,3.52,.99,3.52,2.58,0,.77-.74,1.38-2.42,1.38-2.12,0-2.65-.61-2.65-1.13,0-.43,.43-.78,1.05-.78,.25,0,.32,.09,.36,.25,.1,.45,.55,.84,1.87,.84,.83,0,1.27-.15,1.27-.5s-.42-.52-1.53-.67c-1.75-.23-2.94-.51-2.94-1.47,0-.78,.89-1.28,2.24-1.28s1.89,.53,2.53,.53Z"/><path class="f" d="M130.38,217.61c0,.58,.2,1.01,.76,1.01,.64,0,.75-.34,.91-1.63,.03-.25,.19-.34,.31-.34,.27,0,.29,.18,.68,.49,.36,.28,.53,.42,.53,.62,0,.83-1.3,1.22-2.54,1.22-1.62,0-2.5-.34-2.5-1.21,0-1.07,1.98-1.92,1.98-2.61,0-.18-.13-.28-.39-.28-.72,0-1.04,.8-1.51,.8-.2,0-.3-.07-.3-.2,0-.07,.04-.31,.04-.46,0-.18-.06-.4-.06-.51,0-.15,.04-.26,.36-.26,.55,0,1.36,.05,2.38,.05,.85,0,2.14-.05,2.33-.05,.25,0,.36,.09,.36,.28,0,.47-.57,1.21-.98,1.21-.46,0-.62-.65-1.18-.65-.64,0-1.15,1.12-1.15,2.51Z"/><path class="f" d="M131.05,221.61c1.03,0,1.86-.06,2.12-.06s.38,.14,.38,.3c0,.23-.48,.72-.48,1.6s.75,2.14,.75,2.52c0,.18-.22,.26-.35,.26-.18,0-.56-.05-.79-.05-.27,0-.67,.05-.78,.05-.16,0-.29-.08-.29-.2,0-.36,1.02-.75,1.02-1.53,0-.24-.14-.44-.53-.44-.68,0-1.18,.26-1.72,.26-.44,0-.61-.23-.61-.5,0-.29,.19-.45,.47-.45,.36,0,.82,.22,1.46,.22,.69,0,.85-.21,.85-.61,0-.47-.33-.74-1.14-.74-1.36,0-2.28,.96-2.28,1.99,0,.69,.51,1.02,1.4,1.07,.42,.01,.55,.12,.55,.33,0,.4-.5,.63-1.65,.63s-1.36-.19-1.36-.42c0-.28,.54-1.09,.54-2.05,0-.89-.09-1.59-.09-1.96,0-.14,.13-.26,.38-.26,.33,0,1.05,.05,2.14,.05Z"/><path class="f" d="M130.41,228.82c.51,0,.68,.25,.72,.53,.03,.18,.07,.26,.33,.26,.55,0,1.17-.8,2.33-.8,.65,0,1.15,.3,1.16,.83-.01,1.2-1.48,1.63-1.48,2.21,0,.31,.43,.37,.75,.37,.57,0,.73-.31,.98-.31,.14,0,.31,.15,.31,.49,0,.64-.46,1.15-1.49,1.15-.89,0-1.41-.31-1.41-.85,0-.77,.73-1.31,.72-2.22,.01-.5-.25-.73-.93-.73-.8,0-1.54,.79-1.54,1.86,0,.93,1.36,1.22,1.36,1.65,0,.23-.16,.29-1.51,.29-.92,0-1.05-.05-1.05-.28,0-.49,.66-.91,.66-1.72,0-.58-.72-1.83-1.52-1.83-.54,0-.89,.58-.89,1.2,0,.99,1,1.77,1,2.42,0,.14-.11,.2-.3,.2-.1,0-.56-.04-.91-.04s-.77,.02-.98,.02c-.19,0-.29-.09-.29-.23,0-.36,.9-1.48,.9-2.34,0-.69-.85-1.26-.85-1.87,0-.18,.2-.26,.48-.26,.71,0,1.32,.47,1.85,.47,.63,0,1.05-.47,1.61-.47Z"/><path class="f" d="M128.54,236.16c.55,0,1.44,.18,2.16,.18,.76,0,1.51-.24,1.98-.24,.66,0,1.15,.34,1.15,1.44,0,1.18-.79,2.07-2.22,2.07-.73,0-1.26-.28-1.26-.82s.58-.85,1.15-.85c.15,0,.25,.04,.25,.17,0,.11-.07,.2-.07,.42,0,.33,.29,.45,.6,.45,.45,0,.68-.18,.68-.59,0-.81-.79-1.53-1.98-1.53-.66,0-1.41,.23-1.41,1.56s1.58,1.82,1.58,2.22c0,.12-.11,.2-.26,.2-.09,0-.81-.03-1.36-.03-.38,0-.84,.04-1.09,.04-.14,0-.28-.04-.28-.2,0-.34,.94-1.31,.94-2.37s-.93-1.58-.93-1.88c0-.14,.1-.23,.37-.23Z"/></g><g><path class="f" d="M121.4,256.38c-.9,0-1.23,.45-1.71,.45-.26,0-.43-.16-.43-.41,0-.28,.26-.81,.26-1.46,0-.74-.06-1.23-.06-1.65,0-.24,.12-.41,.38-.41,.68,0,1.82,.26,2.83,.26,.87,0,1.04-.47,1.34-.47,.18,0,.3,.12,.3,.32,0,1.06-.62,1.63-1.4,1.63s-1.46-.55-2.09-.55c-.42,0-.79,.35-.79,1.06,0,.38,.28,.72,.71,.72,.94,0,1.4-.36,2.3-.36,1.29,0,1.71,1.05,1.71,2.21,0,1.71-1.17,2.87-3.28,2.87-1.44,0-2.64-.36-2.64-1.89,0-.98,1.12-1.52,2-1.52,.38,0,.57,.16,.57,.55,0,.53-.25,.79-.66,.79-.3,0-.56-.2-.91-.2-.37,0-.49,.23-.49,.44s.16,.41,.42,.41c.32,0,.66-.08,1.22-.08,.75,0,1.21,.28,2,.28,.47,0,.83-.16,.83-.77,0-1.33-1.22-2.24-2.4-2.24Z"/><path class="f" d="M127.62,260.57c-.22,0-.33-.16-.33-.29,0-.72,2.1-.75,2.1-1.33,0-.17-.23-.24-.68-.24-.85,0-2.42,.07-2.86,.07-.31,0-.48-.2-.48-.43,0-.71,1-1.3,1-2.52,0-.91-.68-2.14-.68-2.42s.14-.48,.37-.48c.28,0,.81,.04,1.24,.04,.5,0,1.14-.04,1.29-.04,.24,0,.36,.12,.36,.37,0,.48-2.01,1.63-2.01,2.87,0,.87,.67,2.09,1.76,2.09,.49,0,.66-.14,.66-.47,0-.66-.96-.97-.96-1.6,0-.51,.9-1.17,1.71-1.96,.18-.18,.28-.19,.41-.19,.16,0,.28,.1,.28,.38,0,.56-.83,2.76-.83,3.37,0,.35,.12,.44,.36,.44,.49,0,.6-.73,.59-1.03,0-.29,.07-.41,.33-.41,.49,0,.78,.31,.78,1.03,0,.53-.22,1.04-.85,1.04-.36,0-.62-.17-.9-.17-.19,0-.28,.11-.28,.28,0,.54,1.03,.91,1.03,1.22,0,.17-.17,.36-.53,.36-.19,0-.81-.05-1.16-.05-.47,0-1.28,.05-1.73,.05Z"/><path class="f" d="M132.98,257.12c0-1.9,.84-3.01,2.01-3.07,.33-.01,.41-.08,.41-.37,0-.39-.59-.6-.59-.97,0-.2,.13-.32,.39-.32,.1,0,.3,.02,.51,.02s.45-.02,.55-.02c.25,0,.36,.16,.36,.32,0,.33-.61,.5-.61,1.02,0,.2,.06,.32,.32,.35,1.2,.13,1.64,.73,1.64,1.49s-.37,1.59-1.22,1.59c-.43,0-.68-.17-.68-.55,0-.48,.42-.65,.85-.65,.38,0,.51-.16,.51-.38,0-.22-.14-.33-.44-.33s-.61,.17-1.12,.17-.79-.12-1.3-.12c-.29,0-.55,.16-.56,.87,0,1.03,.68,2.04,1.87,2.04,1.06,0,1.51-.29,1.76-.68,.16-.26,.25-.29,.36-.29,.16,0,.26,.12,.26,.37,0,1.32-.88,1.71-1.93,1.87-.18,.02-.28,.08-.28,.24,0,.61,.66,.84,.66,1.21,0,.14-.07,.28-.23,.28-.13,0-.43-.02-.72-.02-.26,0-.53,.02-.65,.02-.22,0-.32-.11-.32-.28,0-.37,.65-.61,.65-1.21,0-.12-.07-.2-.3-.23-1.32-.13-2.16-.74-2.16-2.37Z"/></g></g></g></g></g></svg>