<svg xmlns="http://www.w3.org/2000/svg" xmlns:xlink="http://www.w3.org/1999/xlink" viewBox="0 0 293.4 95.1"><defs><style>.cls-1{font-size:99px;fill:none;font-family:DegularDisplay-Black, Degular Display;font-weight:800;letter-spacing:-0.09em;}.cls-2{fill:#f2fedc;}.cls-3{clip-path:url(#clip-path);}.cls-4{fill:#1b3d2f;}</style><clipPath id="clip-path" transform="translate(0 -7.24)"><text class="cls-1" transform="translate(0 79.2)">about me</text></clipPath></defs><g id="Layer_2" data-name="Layer 2"><g id="Layer_1-2" data-name="Layer 1"><path class="cls-2" d="M45.23,101.9l-.14-.08L2,58.42a5.6,5.6,0,0,1,0-7.9L45.25,7.32l.18-.08,236.18.16a11.44,11.44,0,0,1,11.44,11.47l-.12,71.81a11.45,11.45,0,0,1-11.46,11.43S83.05,102,45.29,101.9" transform="translate(0 -7.24)"/><polygon class="cls-2" points="44.59 94.38 44.45 94.38 44.45 94.29 44.59 94.38"/><g class="cls-3"><path class="cls-4" d="M45,102.14l-.14-.09L1.63,58.65a5.59,5.59,0,0,1,0-7.9L45,7.55l.18-.08,236.77.16A11.46,11.46,0,0,1,293.4,19.1l-.12,71.82a11.46,11.46,0,0,1-11.49,11.42s-198.92-.12-236.77-.2" transform="translate(0 -7.24)"/><polygon class="cls-4" points="44.32 94.61 44.18 94.61 44.18 94.52 44.32 94.61"/></g></g></g></svg>