<svg xmlns="http://www.w3.org/2000/svg" viewBox="0 0 306.42 166.78"><defs><style>.cls-1{fill:none;stroke-miterlimit:10;stroke-width:5.9px;}.cls-1,.cls-2{stroke:#1b3d2f;}.cls-2{fill:#1b3d2f;stroke-linejoin:round;stroke-width:1.08px;}</style></defs><g id="Layer_2" data-name="Layer 2"><g id="Layer_1-2" data-name="Layer 1"><path class="cls-1" d="M5.38,164.81C5.38,124.45-5.51,6.31,18.8,6.31S23,161.6,47.25,163.81,51.44,8.52,75.71,6.31s4.18,155.29,28.46,157.5S108.35,8.52,132.62,6.31s4.19,155.29,28.46,157.5S165.23,6.32,189.54,6.31s4.15,157.5,28.46,157.5S222.19,8.52,246.46,6.31s4.19,155.29,28.46,157.5,16.46-158,16.46-158"/><polygon class="cls-2" points="305.88 30.31 290.88 16.31 277.88 30.31 285.88 13.31 291.38 0.54 297.88 14.31 305.88 30.31"/></g></g></svg>