<svg xmlns="http://www.w3.org/2000/svg" viewBox="0 0 893.13 279.34"><defs><style>.cls-1{fill:none;stroke-miterlimit:10;stroke-width:13px;}.cls-1,.cls-2{stroke:#1b3d2f;}.cls-2{fill:#1b3d2f;stroke-linejoin:round;stroke-width:2.39px;}</style></defs><g id="Layer_2" data-name="Layer 2"><g id="Layer_1-2" data-name="Layer 1"><path class="cls-1" d="M13.61,274.46c0-67.14-31.84-263.67,39.21-263.67S65.05,269.13,136,272.8s12.22-258.33,83.17-262,12.23,258.33,83.18,262,12.23-258.33,83.18-262,12.24,258.33,83.18,262,12.13-262,83.18-262,12.14,262,83.19,262,12.23-258.34,83.18-262,12.23,258.33,83.18,262S849.55,10,849.55,10"/><polygon class="cls-2" points="891.93 50.72 848.09 27.43 810.09 50.72 833.48 22.44 849.54 1.19 868.55 24.1 891.93 50.72"/></g></g></svg>