<svg xmlns="http://www.w3.org/2000/svg" xmlns:xlink="http://www.w3.org/1999/xlink" viewBox="0 0 296.01 145.33"><defs><style>.cls-1{font-size:112px;fill:none;font-family:DegularDisplay-Black, Degular Display;font-weight:800;letter-spacing:-0.08em;}.cls-2{letter-spacing:-0.09em;}.cls-3{letter-spacing:-0.08em;}.cls-4{letter-spacing:-0.09em;}.cls-5{letter-spacing:-0.08em;}.cls-6{fill:#f2fedc;}.cls-7{clip-path:url(#clip-path);}.cls-8{fill:#1b3d2f;}</style><clipPath id="clip-path" transform="translate(2.34)"><text class="cls-1" transform="translate(7.17 124.38)">co<tspan class="cls-2" x="95.09" y="0">n</tspan><tspan class="cls-3" x="140.23" y="0">ta</tspan><tspan class="cls-4" x="213.59" y="0">c</tspan><tspan class="cls-5" x="259.17" y="0">t</tspan></text></clipPath></defs><g id="Layer_2" data-name="Layer 2"><g id="Layer_1-2" data-name="Layer 1"><path class="cls-6" d="M293.67,61.76l-.12,72.06a11.5,11.5,0,0,1-11.5,11.47s-199.1-.13-237-.21-.06,0-.06,0l-.14-.09L1.63,101.45a5.62,5.62,0,0,1,0-7.93L45,50.17l.18-.08,237,.16A11.49,11.49,0,0,1,293.67,61.76Z" transform="translate(2.34)"/><polygon class="cls-6" points="46.7 144.79 46.56 144.79 46.56 144.71 46.7 144.79"/><polygon class="cls-6" points="65.91 0 65.91 0.03 65.84 0 65.91 0"/><g class="cls-7"><polygon class="cls-8" points="296.01 50.29 295.85 145.33 47.37 145.11 47.31 145.11 47.17 145.03 0 97.51 47.33 50.21 47.33 50.07 296.01 50.29"/><polygon class="cls-8" points="47.31 145.11 47.17 145.11 47.17 145.03 47.31 145.11"/><polygon class="cls-8" points="47.37 145.11 47.37 145.15 47.31 145.11 47.37 145.11"/></g></g></g></svg>