<svg xmlns="http://www.w3.org/2000/svg" xmlns:xlink="http://www.w3.org/1999/xlink" viewBox="0 0 296.01 144.93"><defs><style>.cls-1{fill:none;}.cls-2{fill:#f2fedc;}.cls-3{clip-path:url(#clip-path);}.cls-4{fill:#1b3d2f;}</style><clipPath id="clip-path" transform="translate(2.74)"><path class="cls-1" d="M35.33,86c-4.81,0-8.4,3-8.4,11s3.48,11.31,8.52,11.31c4.81,0,7-3.92,7.95-9.74l18.25,3.36c-1.34,14.33-9.18,23.74-25.87,23.74-17,0-28.33-9-28.33-28,0-18.25,10.64-28.89,28-28.89,17.8,0,24.41,8.51,26.32,23.52L43.4,94.86C42.5,90.16,40.49,86,35.33,86ZM54,97.21c0-17.92,10.64-28.44,28.22-28.44,17.25,0,28,10.52,28,28.44s-10.75,28.45-28,28.45C64.68,125.66,54,115,54,97.21Zm19,0c0,6.72,3.13,11.09,9.07,11.09s9.07-4.37,9.07-11.09S88.09,86,82.15,86,73.08,90.49,73.08,97.21ZM122.92,124h-19V70.45h19V85.68H123c2.8-13.33,8.74-16.91,16.8-16.91,10.08,0,15.12,6.72,15.12,18.36V124h-19V92.85c0-4.37-2.13-6.95-6.38-6.95s-6.61,18-6.61,22.4Zm29.34-37.85h-4.92V70.45h4.92V57.9h19V70.45h12.21V86.13H171.3v16.35c0,3.13,1.12,4.59,4.82,4.59a28.49,28.49,0,0,0,6.27-1.23l2,17.69A37,37,0,0,1,171,125.66c-13.33,0-18.71-8.73-18.71-19Zm56.12,25.08H208c-2.13,8.74-7.17,13.89-16.13,13.89-8.51,0-15.79-5.15-15.79-16,0-9.64,5.71-15.91,20.5-15.91h11.76V90.83c0-4-2-6-6.16-6-3.36,0-5.94,1.23-6.72,5.83l-17.81-2.47c1.12-10.3,7.17-19,25.42-19,17.25,0,24.31,8.07,24.31,21.62V124h-19Zm0-8.28v-1.46h-8.52c-3.13,0-5.15,1.9-5.15,4.14,0,2.58,1.57,4.37,6.16,4.37S208.38,107.07,208.38,102.93ZM248.92,86c-4.81,0-8.4,3-8.4,11S244,108.3,249,108.3c4.82,0,7.06-3.92,8-9.74l18.25,3.36c-1.34,14.33-9.18,23.74-25.87,23.74-17,0-28.34-9-28.34-28,0-18.25,10.64-28.89,28-28.89,17.81,0,24.42,8.51,26.32,23.52L257,94.86C256.09,90.16,254.07,86,248.92,86Zm22.29.12h-4.93V70.45h4.93V57.9h19V70.45h12.21V86.13H290.25v16.35c0,3.13,1.12,4.59,4.82,4.59a28.49,28.49,0,0,0,6.27-1.23l2,17.69a37,37,0,0,1-13.45,2.13c-13.32,0-18.7-8.73-18.7-19Z"/></clipPath></defs><g id="Layer_2" data-name="Layer 2"><g id="Layer_1-2" data-name="Layer 1"><path class="cls-2" d="M44.84,144.58l-.14-.08L1.63,101.1a5.59,5.59,0,0,1,0-7.9L44.86,50l.19-.08,236.18.16a11.44,11.44,0,0,1,11.44,11.47l-.12,71.81a11.45,11.45,0,0,1-11.46,11.43s-198.42-.12-236.19-.21" transform="translate(2.74)"/><polygon class="cls-2" points="46.95 144.3 46.81 144.3 46.81 144.21 46.95 144.3"/><polygon class="cls-2" points="66.09 0 66.09 0.03 66.03 0 66.09 0"/><g class="cls-3"><polygon class="cls-4" points="296.01 49.89 295.85 144.93 47.37 144.71 47.31 144.71 47.17 144.63 0 97.11 47.33 49.81 47.33 49.67 296.01 49.89"/><polygon class="cls-4" points="47.31 144.71 47.17 144.71 47.17 144.63 47.31 144.71"/><polygon class="cls-4" points="47.37 144.71 47.37 144.75 47.31 144.71 47.37 144.71"/></g></g></g></svg>