<svg xmlns="http://www.w3.org/2000/svg" xmlns:xlink="http://www.w3.org/1999/xlink" viewBox="0 0 296.01 95.26"><defs><style>.cls-1{fill:none;}.cls-2{fill:#f2fedc;}.cls-3{clip-path:url(#clip-path);}.cls-4{fill:#1b3d2f;}</style><clipPath id="clip-path" transform="translate(2.74 0.25)"><path class="cls-1" d="M35.33,36.09c-4.81,0-8.4,3-8.4,11s3.48,11.31,8.52,11.31c4.81,0,7-3.92,7.95-9.75L61.65,52c-1.34,14.34-9.18,23.75-25.87,23.75-17,0-28.33-9-28.33-28,0-18.26,10.64-28.9,28-28.9,17.8,0,24.41,8.51,26.32,23.52L43.4,44.94C42.5,40.23,40.49,36.09,35.33,36.09ZM54,47.29c0-17.92,10.64-28.45,28.22-28.45,17.25,0,28,10.53,28,28.45s-10.75,28.45-28,28.45C64.68,75.74,54,65.1,54,47.29Zm19,0c0,6.72,3.13,11.09,9.07,11.09S91.22,54,91.22,47.29s-3.13-11.2-9.07-11.2S73.08,40.57,73.08,47.29Zm49.84,26.77h-19V20.52h19V35.75H123c2.8-13.32,8.74-16.91,16.8-16.91,10.08,0,15.12,6.72,15.12,18.37V74.06h-19V42.92c0-4.37-2.13-6.94-6.38-6.94s-6.61,18-6.61,22.4ZM152.26,36.2h-4.92V20.52h4.92V8h19V20.52h12.21V36.2H171.3V52.55c0,3.14,1.12,4.6,4.82,4.6a27.87,27.87,0,0,0,6.27-1.24l2,17.7A37.2,37.2,0,0,1,171,75.74c-13.33,0-18.71-8.74-18.71-19Zm56.12,25.09H208c-2.13,8.74-7.17,13.89-16.13,13.89-8.51,0-15.79-5.15-15.79-16,0-9.63,5.71-15.9,20.5-15.9h11.76V40.91c0-4-2-6-6.16-6-3.36,0-5.94,1.23-6.72,5.82l-17.81-2.46c1.12-10.31,7.17-19,25.42-19,17.25,0,24.31,8.06,24.31,21.61V74.06h-19Zm0-8.29V51.55h-8.52c-3.13,0-5.15,1.9-5.15,4.14,0,2.58,1.57,4.37,6.16,4.37S208.38,57.15,208.38,53Zm40.54-16.91c-4.81,0-8.4,3-8.4,11S244,58.38,249,58.38c4.82,0,7.06-3.92,8-9.75L275.24,52c-1.34,14.34-9.18,23.75-25.87,23.75-17,0-28.34-9-28.34-28,0-18.26,10.64-28.9,28-28.9,17.81,0,24.42,8.51,26.32,23.52L257,44.94C256.09,40.23,254.07,36.09,248.92,36.09Zm22.29.11h-4.93V20.52h4.93V8h19V20.52h12.21V36.2H290.25V52.55c0,3.14,1.12,4.6,4.82,4.6a27.87,27.87,0,0,0,6.27-1.24l2,17.7a37.22,37.22,0,0,1-13.45,2.13c-13.32,0-18.7-8.74-18.7-19Z"/></clipPath></defs><g id="Layer_2" data-name="Layer 2"><g id="Layer_1-2" data-name="Layer 1"><path class="cls-2" d="M44.84,94.66l-.14-.08L1.63,51.18a5.6,5.6,0,0,1,0-7.91L44.86.08,45.05,0,281.23.16a11.44,11.44,0,0,1,11.44,11.46l-.12,71.82a11.45,11.45,0,0,1-11.46,11.43S82.67,94.75,44.9,94.66" transform="translate(2.74 0.25)"/><polygon class="cls-2" points="46.95 94.63 46.81 94.63 46.81 94.54 46.95 94.63"/><g class="cls-3"><polygon class="cls-4" points="296.01 0.22 295.85 95.26 47.37 95.04 47.31 95.04 47.17 94.96 0 47.44 47.33 0.14 47.33 0 296.01 0.22"/><polygon class="cls-4" points="47.31 95.04 47.17 95.04 47.17 94.96 47.31 95.04"/><polygon class="cls-4" points="47.37 95.04 47.37 95.08 47.31 95.04 47.37 95.04"/></g></g></g></svg>