<svg xmlns="http://www.w3.org/2000/svg" viewBox="0 0 863.77 448"><defs><style>.cls-1{fill:none;stroke:#1b3d2f;stroke-miterlimit:10;stroke-width:5px;}</style></defs><g id="Layer_2" data-name="Layer 2"><g id="Layer_1-2" data-name="Layer 1"><path class="cls-1" d="M199.26,226.53v5.1h.2C199.45,229.89,199.38,228.2,199.26,226.53Z"/><path class="cls-1" d="M199.26,226.53v5.1h.2C199.45,229.89,199.38,228.2,199.26,226.53Z"/><path class="cls-1" d="M315.79,42.18c-23.3,0-40.62,1.82-47.45,51.59a.86.86,0,0,1-.85.73.85.85,0,0,1-.85-.85V42.18H199.26V226.53c.12,1.67.19,3.36.2,5.1h.1v65.43h-.8c-3-12.38-6.86-22.12-11.47-29.71,8.45-9.39,12.18-21.15,12.18-34.72,0-.34,0-.67,0-1h-.2v-5.1c-2.09-29.73-20.2-48.2-64.79-48.2-18.62,0-40.42,2.38-62.22,2.38-.08.29-2.08.44-2.08-4.71,0-2,2-8,2-8s12,.82,24.25.82c51.13,0,81.25-13.87,81.25-42.41,0-17.83-12.68-24.57-28.93-28.14v-.39c10.7.79,19.82.79,27.35.79h17.44V43.18H96.82C43.32,43.18,11.61,67,11.61,107c0,30.12,3.44,47.08,33.56,55l-1.85,5.63c-22.59,4.76-30.92,17.83-30.92,29.72,0,13.08,3.46,22.07,34.77,23.65C15.46,224.17,2.5,239,2.5,255.61A31.83,31.83,0,0,0,3,261.37V431.55H70.37V291.4q6,.35,12.61.52c-4.45,14.79-6.68,32.73-6.68,53.5,0,62.22,21.4,99.08,63.41,99.08,27.35,0,48.35-11.49,58.66-53.9h1.19v47.95h67.37v-83.9c-.05-1.41-.07-2.83-.07-4.27,0-1.64,0-3.27.07-4.88V195.6h-.29v-48c0-22.6,5.95-27.75,33.29-27.75h23.39V42.18ZM96.42,96.69c18.63,0,25.37,6.34,25.37,16.25,0,7.92-5.55,15.85-25.37,15.85s-25.36-7.93-25.36-15.85C71.06,103.82,76.61,96.69,96.42,96.69ZM98,245.31C65.17,246,64.17,238,64.17,233s-2-9,40-9,45,2,44.57,8.63S149.17,245,98,245.31Zm101.55,101.3c0,23.78-9.91,37.25-27.75,37.25-21,0-28.93-14.66-28.93-38.84,0-25.76,7.93-41.22,28.93-41.22,17.84,0,27.75,14.27,27.75,38.84Z"/><path class="cls-1" d="M266.86,350.38c0,1.44,0,2.86.07,4.27V345.5C266.88,347.11,266.86,348.74,266.86,350.38Z"/><path class="cls-1" d="M452.74,333.34c0-51.13-27-89.18-86.8-89.18-62.63,0-97.35,37.34-99,101.34-.05,1.61-.07,3.24-.07,4.88,0,1.44,0,2.86.07,4.27,1.8,60.94,42.42,90.85,97.82,90.85,48.86,0,72.64-23.13,83.16-51.66,1.08-2.94,2-5.94,2.84-9l-3.22-.91-54.25-15.34c-3.56,10.31-8.71,19-27.74,19-19.42,0-29.33-7.53-32.1-28.94h118.9C453.13,348,452.74,342.85,452.74,333.34Zm-119.3-3.57c2.38-22.19,11.89-30.12,30.52-30.12,17.83,0,27,9.12,27.34,30.12Z"/><path class="cls-1" d="M447.53,384c0,.63,0,1.26,0,1.89a76.37,76.37,0,0,0,.4,8c1.08-2.94,2-5.94,2.84-9Z"/><path class="cls-1" d="M685.62,171.27l-.32.07c.1.83.21,1.65.33,2.48,0-.29,0-.57,0-.86C685.64,172.4,685.63,171.83,685.62,171.27Z"/><path class="cls-1" d="M685.63,173.82c-.12-.83-.23-1.65-.33-2.48l.32-.07c-.58-27.54-15.7-52.92-71-60.86-38.57-5.51-41.16-11-41.16-17.5,0-7.45,5.83-12.63,19.77-12.63,18.47,0,26.9,7.45,31.76,25.27l57.68-12C677.86,66,660,43,619.85,36.85l1.3-34.35H575.46l1.29,33.7c-41.8,4.86-62.22,25.6-62.22,57.69s16.53,56.06,71,63.51c32.41,4.54,40.51,9.08,40.51,17.5,0,8.1-8.43,11.67-21.71,11.67-17.83,0-33.38-8.75-37.59-26.9l-57,11.67c3.24,26.9,18.8,53.79,67.08,60.27l-.53,16.3a140.11,140.11,0,0,0-33.2-3.56c-64.6,0-86,30.92-90,67.38l63,8.72c2.78-16.25,11.89-20.61,23.78-20.61,14.67,0,21.8,7.13,21.8,21.4v8.32H520c-51.35,0-71.77,21.38-72.51,54.39l3.22.91c-.81,3-1.76,6-2.84,9,3.34,33,27.53,48.68,55.48,48.68,31.71,0,49.54-18.23,57.07-49.15h1.19v45.18H629V320.85c0-20.09-4.38-36.77-14-49.37h6.09l-1.3-39.54C665.15,227.44,685.29,206.07,685.63,173.82Zm-124,190.23c0,14.66-10.7,25-26.55,25-16.25,0-21.8-6.34-21.8-15.45,0-7.93,7.13-14.67,18.23-14.67h30.12Z"/><path class="cls-1" d="M685.62,171.27l-.32.07c.1.83.21,1.65.33,2.48,0-.29,0-.57,0-.86C685.64,172.4,685.63,171.83,685.62,171.27Z"/><path class="cls-1" d="M795.48,231.94l1.3,39.54h-5.6c6.37,8.33,10.21,18.27,12.17,29.36l-64.2,14.27c-2.78-15.46-9.52-23.39-23.78-23.39-11.1,0-17,3.57-17,10.31,0,7.13,1.19,12.29,37.26,19.82,56.28,11.89,69.75,33.68,69.75,61.43,0,38.44-25.76,62.22-86,62.22-67.38,0-86-30.12-90-62.22L692,371c4.36,18.23,13.87,25.76,28.94,25.76,11.88,0,17.83-3.17,18.23-10.7,0-7.13-4.76-11.49-34.48-18.23-55.09-12.68-73.33-30.91-73.33-62.62,0-38.45,27.75-61,84.42-61,14,0,25.9,1.32,36.09,3.79l.53-16.34c-46.8-6.28-62.85-31.74-66.75-57.79,0-.29,0-.57,0-.86,0-.56,0-1.13,0-1.69l56.72-11.6c4.21,18.15,19.76,26.9,37.59,26.9,13.28,0,21.71-3.57,21.71-11.67,0-8.42-8.1-13-40.51-17.5-54.44-7.45-71-31.43-71-63.51s20.42-52.83,62.22-57.69L751.09,2.5h45.69l-1.3,34.35c40.19,6.16,58,29.17,62.87,56.71l-57.68,12c-4.86-17.82-13.29-25.27-31.76-25.27-13.94,0-19.77,5.18-19.77,12.63,0,6.49,2.59,12,41.16,17.5,56.39,8.1,71,34.36,71,62.55C861.27,205.69,841.18,227.4,795.48,231.94Z"/></g></g></svg>