<svg xmlns="http://www.w3.org/2000/svg" viewBox="0 0 1259.86 646.3"><defs><style>.cls-1{fill:#b3b3b3;}.cls-12,.cls-2,.cls-9{fill:#4d4d4d;}.cls-23,.cls-3{fill:#ccc;}.cls-4{fill:#7b7b7b;}.cls-5{fill:#ff454a;stroke:#a0252e;}.cls-10,.cls-11,.cls-13,.cls-14,.cls-15,.cls-17,.cls-19,.cls-20,.cls-21,.cls-22,.cls-23,.cls-24,.cls-25,.cls-5,.cls-6,.cls-7{stroke-miterlimit:10;}.cls-5,.cls-6,.cls-7{stroke-width:0.96px;}.cls-15,.cls-6{fill:#00cc2c;}.cls-6{stroke:#0c7a21;}.cls-7{fill:#ffba00;stroke:#563e09;}.cls-8{fill:#999;}.cls-9{font-size:17.37px;}.cls-12,.cls-9{font-family:EuphemiaUCAS, Euphemia UCAS;}.cls-10,.cls-11,.cls-13,.cls-17,.cls-19,.cls-20{fill:none;}.cls-10,.cls-11,.cls-21,.cls-23,.cls-24,.cls-25{stroke:gray;}.cls-10{stroke-width:0.5px;}.cls-11{stroke-width:0.75px;}.cls-12{font-size:32.21px;letter-spacing:-0.03em;}.cls-13{stroke:#000;stroke-width:0.78px;}.cls-14{fill:#ff7bac;}.cls-14,.cls-15{stroke:#fff;stroke-width:0.73px;}.cls-14,.cls-19,.cls-23,.cls-24{fill-rule:evenodd;}.cls-16{fill:#666;}.cls-17{stroke:#4d4d4d;stroke-width:0.55px;}.cls-18{fill:#333;}.cls-19,.cls-20,.cls-22{stroke:#333;}.cls-19{stroke-width:0.55px;}.cls-20{stroke-width:0.44px;}.cls-21,.cls-24,.cls-25{fill:#f2f2f2;}.cls-21{stroke-width:0.63px;}.cls-22{fill:gray;stroke-width:0.53px;}.cls-23,.cls-24,.cls-25{stroke-width:0.73px;}</style></defs><g id="Layer_2" data-name="Layer 2"><g id="Layer_1-2" data-name="Layer 1"><rect class="cls-1" x="0.11" y="46.88" width="67.91" height="25.61"/><path class="cls-2" d="M67.91,47V72.38H.22V47H67.91m.22-.22H0V72.6H68.13V46.77Z"/><path class="cls-1" d="M.12,46.65V12A11.86,11.86,0,0,1,12,.13h1235.9A11.86,11.86,0,0,1,1259.73,12V46.65Z"/><path class="cls-2" d="M1247.88.25A11.74,11.74,0,0,1,1259.61,12V46.52H.25V12A11.74,11.74,0,0,1,12,.25h1235.9m0-.25H12A12,12,0,0,0,0,12V46.77H1259.86V12a12,12,0,0,0-12-12Z"/><path class="cls-3" d="M12,646.18A11.71,11.71,0,0,1,.12,634.65V63.3H62a6,6,0,0,1,6,6V646.18Z"/><path class="cls-2" d="M62,63.43a5.89,5.89,0,0,1,5.89,5.89V646.05H12A11.58,11.58,0,0,1,.25,634.65V63.43H62m0-.25H0V634.65A11.82,11.82,0,0,0,12,646.3H68.13v-577A6.14,6.14,0,0,0,62,63.18Z"/><path class="cls-3" d="M1023.73,646.18V46.89h233.94V634.32a11.87,11.87,0,0,1-11.86,11.86Z"/><path class="cls-2" d="M1257.54,47v587.3a11.74,11.74,0,0,1-11.73,11.73H1023.86V47h233.68m.25-.25H1023.61V646.3h222.2a12,12,0,0,0,12-12V46.77Z"/><rect class="cls-4" x="68.26" y="46.9" width="957.3" height="599.28"/><path d="M1025.43,47v599h-957V47h957.05m.25-.25H68.13V646.3h957.55V46.77Z"/><circle class="cls-5" cx="38.4" cy="23.39" r="12"/><circle class="cls-6" cx="97.87" cy="23.39" r="12"/><circle class="cls-7" cx="68.13" cy="23.39" r="12"/><rect class="cls-1" x="68.26" y="46.9" width="4.52" height="599.28"/><path class="cls-2" d="M72.65,47v599H68.38V47h4.27m.25-.25H68.13V646.3H72.9V46.77Z"/><rect class="cls-8" x="73" y="46.87" width="952.58" height="32.56"/><path class="cls-2" d="M1025.48,47V79.33H73.1V47h952.38m.2-.2H72.9V79.53h952.78V46.77Z"/><rect class="cls-1" x="73.03" y="46.9" width="212.96" height="32.51"/><path class="cls-2" d="M285.86,47V79.28H73.15V47H285.86m.26-.26H72.9V79.53H286.12V46.77Z"/><text class="cls-9" transform="translate(85.87 67.9) scale(1.54 1)">x</text><rect class="cls-8" x="1025.76" y="46.86" width="234.01" height="7.8"/><path class="cls-2" d="M1259.69,46.94v7.63H1025.85V46.94h233.84m.17-.17H1025.68v8h234.18v-8Z"/><rect class="cls-8" x="1087.17" y="54.82" width="172.61" height="24.63"/><path class="cls-2" d="M1259.69,54.91V79.37H1087.25V54.91h172.44m.17-.17H1087.09V79.53h172.77V54.74Z"/><rect class="cls-8" x="1087.17" y="54.82" width="55.52" height="24.63"/><path class="cls-2" d="M1142.6,54.91V79.37h-55.35V54.91h55.35m.17-.17h-55.68V79.53h55.68V54.74Z"/><rect class="cls-8" x="1142.87" y="54.84" width="62.85" height="24.59"/><path class="cls-2" d="M1205.62,54.94V79.33H1143V54.94h62.65m.2-.2h-63V79.53h63V54.74Z"/><line class="cls-10" x1="1025.68" y1="114.79" x2="1257.79" y2="115.26"/><line class="cls-10" x1="1025.68" y1="215.53" x2="1257.79" y2="216"/><line class="cls-10" x1="1025.68" y1="407.09" x2="1257.79" y2="407.56"/><rect class="cls-11" x="1042.58" y="426.14" width="93.51" height="23.19"/><rect class="cls-11" x="1145.31" y="426.14" width="93.51" height="23.19"/><rect class="cls-11" x="1042.58" y="455.95" width="196.23" height="23.19"/><rect class="cls-11" x="1042.58" y="485.76" width="196.23" height="23.19"/><rect class="cls-11" x="1042.58" y="515.57" width="196.23" height="23.19"/><rect class="cls-11" x="1042.58" y="545.38" width="196.23" height="23.19"/><text class="cls-12" transform="translate(1236.54 207.89)">...</text><text class="cls-12" transform="translate(1236.54 403.2)">...</text><rect class="cls-13" x="1048.25" y="228.49" width="32.92" height="32.92"/><rect class="cls-13" x="1048.25" y="339.14" width="32.92" height="32.92"/><path class="cls-14" d="M1049.46,285v30.49H1080V285Zm23.2,23h-15.91v-15.9h15.91Z"/><rect class="cls-13" x="1048.25" y="283.82" width="32.92" height="32.92"/><rect class="cls-15" x="1049.46" y="229.7" width="30.5" height="30.5"/><polygon class="cls-16" points="22.41 83.98 34.88 92.95 47.38 101.9 32.95 103.77 25.45 114.48 22.41 83.98"/><path class="cls-2" d="M22.43,84.06,34.87,93l12.43,8.91-14.36,1.88h0l-7.45,10.67L24,99.25,22.43,84.06m0-.08,1.53,15.28,1.52,15.27L33,103.78l14.44-1.89-12.5-9-12.5-9Z"/><path class="cls-2" d="M23.31,153l11.14,8,11,7.86-12.56,1.65-.33,0-.19.27L26,180l-1.33-13.29L23.31,153m-.92-1.58,1.53,15.31,1.52,15.32L33,171.3l14.44-1.9-12.5-9-12.5-9Z"/><path class="cls-16" d="M21.46,248.64a.17.17,0,0,1-.16-.11.15.15,0,0,1,0-.17l6.2-6c2.65-2.61,4.14-4,4.2-4a1.68,1.68,0,0,0,.69.19c.4,0,.66-.28,1-.7.15-.16.32-.35.53-.55a3.06,3.06,0,0,0,1.06-1.51c0-.43-.16-.85-.75-1.46l-.17-.17c-.47-.5-.73-.77-1-.77s-.59.25-1.22.86c-.16.16-.32.3-.47.43-.8.74-1.44,1.33-1,2.28,0,.09-4.13,4.28-4.17,4.32l-6.07,5.86a.17.17,0,0,1-.12,0,.19.19,0,0,1-.14-.08.16.16,0,0,1,0-.15l8-19a.19.19,0,0,1,.07-.08l6.69-3.79h.09c.06,0,.09,0,.11,0l10,10.38a.18.18,0,0,1,0,.21l-4,6.54a.11.11,0,0,1-.08.07l-19.27,7.34Z"/><path class="cls-2" d="M34.73,224a.21.21,0,0,1,.12.05l10,10.39a.15.15,0,0,1,0,.19l-4,6.55a.18.18,0,0,1-.08.07l-11,4.19-8.25,3.15h-.06a.15.15,0,0,1-.15-.11.14.14,0,0,1,0-.17l6.07-5.87.1-.1c2.62-2.57,4.15-4,4.22-4.06a1.68,1.68,0,0,0,.69.19c.4,0,.66-.28,1-.7.15-.16.32-.35.53-.55,1.26-1.21,1.46-1.78.31-3l-.16-.17c-.48-.5-.74-.78-1-.78s-.59.26-1.23.87l-.46.43c-.81.74-1.45,1.32-1,2.28,0,.11-4.13,4.28-4.17,4.32l-6.07,5.86a.18.18,0,0,1-.11,0,.18.18,0,0,1-.16-.23l3.44-8.14,4.57-10.86a.27.27,0,0,1,.07-.08l6.69-3.79.08,0m0,0-.08,0L28,227.85a.11.11,0,0,0-.07.08l-4.58,10.86-3.43,8.14a.17.17,0,0,0,.16.23.14.14,0,0,0,.11,0l6.07-5.86c.05-.05,4.2-4.26,4.17-4.32-.47-1.13.5-1.73,1.51-2.7.61-.59.93-.87,1.22-.87s.61.33,1.2.94c1.12,1.17,1,1.73-.31,3-.76.73-1,1.25-1.58,1.25a1.57,1.57,0,0,1-.69-.2h0c-.09,0-4.27,4.12-4.32,4.17l-6.08,5.86a.17.17,0,0,0,.12.29h.06l8.26-3.14,11-4.2a.15.15,0,0,0,.09-.06l4-6.55a.18.18,0,0,0,0-.21l-10-10.39a.18.18,0,0,0-.12-.05Z"/><path class="cls-16" d="M45.6,233.57a.67.67,0,0,1-.49-.21l-9.37-9.7a.69.69,0,0,1,0-1l3.63-3.5a.66.66,0,0,1,.48-.19.7.7,0,0,1,.49.2l9.37,9.71a.71.71,0,0,1,.19.48.69.69,0,0,1-.21.48l-3.63,3.51A.71.71,0,0,1,45.6,233.57Z"/><path class="cls-2" d="M39.87,219h0a.63.63,0,0,1,.48.21l9.37,9.7a.63.63,0,0,1,.19.48.66.66,0,0,1-.2.48l-3.63,3.51a.71.71,0,0,1-.48.19.68.68,0,0,1-.48-.21l-9.37-9.71a.68.68,0,0,1,0-1l3.64-3.51a.67.67,0,0,1,.47-.19h0m0,0a.73.73,0,0,0-.48.19l-3.63,3.51a.69.69,0,0,0,0,1l9.37,9.7a.7.7,0,0,0,.49.21.66.66,0,0,0,.48-.19l3.63-3.5a.69.69,0,0,0,0-1l-9.37-9.71a.67.67,0,0,0-.49-.21Z"/><path class="cls-16" d="M24.8,315.17a.17.17,0,0,1-.16-.11.17.17,0,0,1,0-.18L30.83,309c2.63-2.59,4.18-4.08,4.24-4.08a1.6,1.6,0,0,0,.68.19c.4,0,.66-.28,1-.7.15-.16.32-.35.53-.55a3,3,0,0,0,1.06-1.51c.06-.42-.16-.84-.75-1.45l-.16-.17c-.48-.5-.74-.77-1-.77s-.6.25-1.23.86c-.15.15-.31.3-.46.43-.81.74-1.44,1.32-1,2.28,0,.09-4.12,4.27-4.17,4.31l-6.06,5.85a.17.17,0,0,1-.27-.18l8-19a.27.27,0,0,1,.07-.08L38,290.62h.09a.14.14,0,0,1,.11,0l10,10.37a.16.16,0,0,1,0,.2l-4,6.54a.18.18,0,0,1-.08.07l-19.25,7.33Z"/><path class="cls-2" d="M38.05,290.6a.18.18,0,0,1,.12,0l10,10.37a.17.17,0,0,1,0,.2l-4,6.54a.22.22,0,0,1-.09.07L33.1,312l-8.24,3.14-.06,0a.15.15,0,0,1-.15-.11.14.14,0,0,1,0-.17L30.75,309l.11-.1c2.61-2.57,4.14-4,4.2-4.06a1.68,1.68,0,0,0,.69.19c.41,0,.66-.27,1.06-.7l.52-.54c1.26-1.21,1.47-1.78.32-3l-.17-.18c-.48-.49-.74-.77-1-.77s-.6.26-1.23.87l-.46.43c-.81.74-1.45,1.32-1,2.27,0,.12-4.13,4.28-4.17,4.32l-6.06,5.85a.16.16,0,0,1-.25,0,.14.14,0,0,1,0-.15l3.42-8.13,4.58-10.84a.12.12,0,0,1,.06-.08L38,290.62l.08,0m0,0a.11.11,0,0,0-.08,0l-6.68,3.78a.18.18,0,0,0-.07.08l-4.57,10.85-3.43,8.13a.17.17,0,0,0,.16.23.13.13,0,0,0,.11-.05l6.07-5.85c.05-.05,4.19-4.25,4.16-4.32-.47-1.12.49-1.72,1.51-2.7.61-.59.93-.86,1.22-.86s.6.33,1.19.94c1.12,1.16,1,1.73-.31,3-.76.73-1,1.25-1.58,1.25a1.68,1.68,0,0,1-.68-.19h0c-.1,0-4.27,4.11-4.32,4.16l-6.07,5.85a.17.17,0,0,0,.12.29h.06L33.11,312l11-4.19a.13.13,0,0,0,.08-.07l4-6.54a.17.17,0,0,0,0-.2l-10-10.37a.14.14,0,0,0-.12-.06Z"/><path class="cls-16" d="M48.91,300.12a.71.71,0,0,1-.49-.21l-9.35-9.69a.68.68,0,0,1,0-1l3.63-3.5a.64.64,0,0,1,.47-.19.68.68,0,0,1,.49.2L53,295.46a.73.73,0,0,1,.19.49.68.68,0,0,1-.21.48l-3.62,3.5A.71.71,0,0,1,48.91,300.12Z"/><path class="cls-2" d="M43.18,285.57a.65.65,0,0,1,.49.21L53,295.47a.68.68,0,0,1,0,1l-3.63,3.49a.63.63,0,0,1-.47.19.7.7,0,0,1-.49-.2l-9.35-9.69a.67.67,0,0,1-.19-.49.64.64,0,0,1,.21-.47l3.62-3.5a.7.7,0,0,1,.47-.19m0,0a.7.7,0,0,0-.47.19l-3.63,3.5a.69.69,0,0,0,0,1l9.36,9.69a.67.67,0,0,0,.49.21.68.68,0,0,0,.48-.19l3.62-3.5a.68.68,0,0,0,0-1l-9.36-9.69a.67.67,0,0,0-.49-.21Z"/><path class="cls-17" d="M23.58,314.37c-2-.35-4.75-.86-5.87-2.6a6,6,0,0,1-.63-5.91c1.23-2.35,4.21-3.13,6-5.05a6.66,6.66,0,0,0-.33-9.14"/><rect class="cls-1" x="20.16" y="352.36" width="29.47" height="23.44"/><path class="cls-2" d="M49.36,352.62v22.91H20.42V352.62H49.36m.53-.53h-30v24h30v-24Z"/><rect class="cls-18" x="29.3" y="416.14" width="9.53" height="28.64" transform="translate(-218 781.06) rotate(-139.76)"/><polygon class="cls-19" points="19.89 447.21 20.64 442.99 21.39 438.78 24.68 441.56 27.96 444.33 23.92 445.77 19.89 447.21"/><rect class="cls-18" x="40.21" y="415.59" width="9.53" height="3.95" transform="translate(-190.43 765.37) rotate(-139.76)"/><path class="cls-2" d="M45.73,497.41a15.17,15.17,0,0,0-1.28-3.32c-.64-1.08-1-1.36-3.24-1.36h-4V512.2c0,3.12.32,3.56,4.12,3.8v1.12H29.69V516c3.72-.24,4-.64,4-3.8V492.73H30.09c-2.2,0-2.84.24-3.52,1.44a18.27,18.27,0,0,0-1.32,3.24h-1.2c.24-2.44.48-5,.6-7.2h.92c.6,1,1,.92,2.16.92H43.57a2,2,0,0,0,2-.92h1c0,1.88.16,4.76.36,7.08Z"/><rect class="cls-20" x="18.87" y="587.36" width="16.83" height="6.83" transform="translate(-351.64 1044.84) rotate(-137.51)"/><rect class="cls-18" x="25.51" y="572.54" width="19.28" height="19.28" transform="translate(-332.16 1035.23) rotate(-137.51)"/><rect class="cls-21" x="1058.62" y="130.02" width="65.3" height="23.19" rx="1.94"/><rect class="cls-21" x="1058.62" y="158.21" width="65.3" height="23.19" rx="1.94"/><rect class="cls-21" x="1141.64" y="130.02" width="65.3" height="23.19" rx="1.94"/><rect class="cls-21" x="1141.64" y="158.21" width="65.3" height="23.19" rx="1.94"/><rect class="cls-22" x="1217.51" y="145.82" width="22.22" height="22.22" rx="2.39"/><path class="cls-23" d="M1151.53,286.6v26.94H1138.3a1.94,1.94,0,0,1-1.94-1.94V288.54a1.94,1.94,0,0,1,1.94-1.94Z"/><path class="cls-24" d="M1212.23,288.54V311.6a1.94,1.94,0,0,1-1.94,1.94h-58.76V286.6h58.76A1.94,1.94,0,0,1,1212.23,288.54Z"/><rect class="cls-25" x="1136.36" y="342.13" width="75.87" height="26.94" rx="1.94"/><path class="cls-23" d="M1197.06,313.54V286.6h13.23a1.94,1.94,0,0,1,1.94,1.94V311.6a1.94,1.94,0,0,1-1.94,1.94Z"/><path class="cls-23" d="M1197.06,369.07V342.13h13.23a1.94,1.94,0,0,1,1.94,1.94v23.06a1.94,1.94,0,0,1-1.94,1.94Z"/></g></g></svg>