<svg xmlns="http://www.w3.org/2000/svg" xmlns:xlink="http://www.w3.org/1999/xlink" viewBox="0 0 293.62 94.87"><defs><style>.cls-1{fill:none;}.cls-2{fill:#f2fedc;}.cls-3{clip-path:url(#clip-path);}.cls-4{fill:#1b3d2f;}</style><clipPath id="clip-path" transform="translate(-0.27 0)"><path class="cls-1" d="M18.08,73.13H0V22.45H18.08V36.87h.11c2.66-12.61,8.29-16,16-16,9.15,0,13.93,5.83,14.36,16h.1c2.66-12.61,8.3-16,16-16,9.57,0,14.36,6.36,14.36,17.39V73.13H60.83V43.66c0-4.14-2-6.58-6.06-6.58s-6.27,2.44-6.27,6.58V73.13H30.42V43.66c0-4.14-2-6.58-6.06-6.58s-6.28,2.44-6.28,6.58Zm51.8,14.63L71.79,74a35.3,35.3,0,0,0,6.6.74c4.15,0,6.27-.32,7.76-2.54L68.6,22.45H88.28l5.21,19Q94.77,46.2,96,51.29h.21c.75-3.29,1.49-6.36,2.13-9.54l4.36-19.3h19.47l-18.4,49.3C99.34,83.84,92.32,88.5,78.28,88.5A48,48,0,0,1,69.88,87.76Zm99-45.16c.95,5.3,1.59,10.81,2.23,16.54h.11c.85-5.41,1.7-10.61,2.66-16.54L177,22.45h17.65L181.77,73.13H159.32L156,51.61q-1.12-7.32-1.6-15.27h-.21c-.43,5.2-1.06,10.5-1.7,15.27l-2.66,21.52H127.21L114.34,22.45H133l3.93,20.15c1.17,5.83,2,11,2.77,16.54h.11C140.39,53.41,141,47.9,142,42.6l3.51-20.15h19.89Zm12.66,5.19c0-17,10.1-26.93,26.8-26.93,16.38,0,26.59,10,26.59,26.93s-10.21,26.93-26.59,26.93C191.66,74.72,181.56,64.65,181.56,47.79Zm18.08,0c0,6.36,3,10.5,8.61,10.5s8.62-4.14,8.62-10.5-3-10.6-8.62-10.6S199.64,41.43,199.64,47.79ZM228,73.13V22.45h18.08V42.07h.42c2.77-17.92,6.49-19.62,12.76-19.62h2V43.23h-6.28c-7.34,0-8.93,1.38-8.93,7.42V73.13ZM272.28,41h.43l12.23-18.56h20.52v.22L287.17,47.05,306,72.92v.21H284.94L272.28,53.94V73.13H254.2v-65h18.08Z"/></clipPath></defs><g id="Layer_2" data-name="Layer 2"><g id="Layer_1-2" data-name="Layer 1"><path class="cls-2" d="M45.84,94.66l-.14-.08L2.62,51.18a5.6,5.6,0,0,1,0-7.91L45.86.08,46,0,282.22.16a11.44,11.44,0,0,1,11.44,11.46l-.12,71.82a11.45,11.45,0,0,1-11.46,11.43S83.66,94.75,45.9,94.66" transform="translate(-0.27 0)"/><polygon class="cls-2" points="44.93 94.38 44.79 94.38 44.79 94.29 44.93 94.38"/><g class="cls-3"><path class="cls-4" d="M45.26,94.66l-.14-.08L1.9,51.18a5.59,5.59,0,0,1,0-7.91L45.28.08,45.47,0l237,.15a11.48,11.48,0,0,1,11.47,11.47l-.12,71.82a11.46,11.46,0,0,1-11.49,11.43s-199.07-.12-237-.21" transform="translate(-0.27 0)"/><polygon class="cls-4" points="44.35 94.38 44.21 94.38 44.21 94.29 44.35 94.38"/></g></g></g></svg>