<?xml version="1.0" encoding="utf-8"?>
<!-- Generator: Adobe Illustrator 26.0.3, SVG Export Plug-In . SVG Version: 6.00 Build 0)  -->
<svg version="1.1" id="Layer_1" xmlns="http://www.w3.org/2000/svg" xmlns:xlink="http://www.w3.org/1999/xlink" x="0px" y="0px"
	 viewBox="0 0 152.6 132.9" style="enable-background:new 0 0 152.6 132.9;" xml:space="preserve">
<style type="text/css">
	.st0{fill:#F2FEDC;}
	.st1{clip-path:url(#SVGID_00000046334488729134546610000005706210610571342217_);}
	.st2{enable-background:new    ;}
	.st3{fill:#E0512B;}
</style>
<g id="Layer_2_00000155105542108595440550000008952787844835757975_">
	<g id="Layer_2-2">
		<path class="st0" d="M36.5,2.2c24.2-10,41.3,17.4,41.3,17.4s18.5-26.4,44.4-6.4s-4.2,42.4-4.2,42.4s31.5,8.3,20.7,38.1
			s-43.9,8.8-43.9,8.8c-0.4,4.5-2,15.4-9.8,23.2c-1.9,1.9-4,3.5-6.4,4.7c-4.8,2.3-10.2,3-15.4,2c-28.7-4.2-22.9-37-22.9-37
			S1.4,102.7,0,75.9s29.6-31.6,29.6-31.6S12.2,12.2,36.5,2.2z"/>
		<g>
			<defs>
				<path id="SVGID_1_" d="M36.3,1.9C60.7-8.2,77.9,19.4,77.9,19.4S96.5-7.1,122.5,13s-4.2,42.6-4.2,42.6S149.9,64,139.1,94
					S95,102.8,95,102.8c-0.4,4.6-2,15.5-9.9,23.4c-1.9,1.9-4,3.5-6.4,4.7c-4.8,2.3-10.2,3-15.5,2c-28.9-4.3-23.1-37.2-23.1-37.2
					S1.1,103-0.3,76s29.9-31.8,29.9-31.8S12,12,36.3,1.9z"/>
			</defs>
			<clipPath id="SVGID_00000156561299810701775980000003303067099554963891_">
				<use xlink:href="#SVGID_1_"  style="overflow:visible;"/>
			</clipPath>
			<g style="clip-path:url(#SVGID_00000156561299810701775980000003303067099554963891_);">
				<g class="st2">
					<path class="st3" d="M20.4,67.9H9.7V30.7h10.8v10.4h0.1c1.7-8.6,6.2-11.5,12.2-11.5c7.5,0,11,4.6,11.4,11.7h0.2
						c1.6-8.7,5.8-11.7,12.2-11.7C64.5,29.7,68,35,68,43v24.9H57.3V46.1c0-3.8-1.8-6.8-6.3-6.8c-4.3,0-6.8,2.5-6.8,6.8v21.8H33.5
						V46.1c0-3.8-1.7-6.8-6.2-6.8c-4.3,0-6.8,2.5-6.8,6.8V67.9z"/>
				</g>
				<g class="st2">
					<path class="st3" d="M64.9,80.1l1.3-9c1.6,0.3,3.2,0.5,4.8,0.5c3.8,0,5.7-0.5,7.4-4.3L64.3,30.7H76l4.4,13.7
						c1,3.5,2.3,7.5,3.5,11.4h0.6c1.2-3.9,2.3-7.7,3.2-11.2l3.8-13.9H103l-14.5,37c-3.5,9.1-8.4,12.9-17.7,12.9
						C68.3,80.6,66.8,80.3,64.9,80.1z"/>
				</g>
				<g class="st2">
					<path class="st3" d="M44.7,81.4c1.1,4.7,2,9.5,2.8,14.6h0.3c0.9-4.9,2-9.4,3.1-14.7l2.9-14.6h10.5l-10.4,37.2H40.8l-3.4-16
						c-0.9-4.3-1.6-8.8-2.2-13.4h-0.4c-0.6,4.5-1.4,9.1-2.2,13.4l-3.1,16H16.4L5.9,66.7h11l3.5,14.6c1.3,5.2,2.3,9.7,3.1,14.7h0.3
						c0.9-5.1,1.7-9.9,2.7-14.6l3.2-14.7h11.7L44.7,81.4z"/>
				</g>
				<g class="st2">
					<path class="st3" d="M58.5,85.3c0-12.4,7.5-19.6,19.3-19.6c11.7,0,19.2,7.2,19.2,19.6c0,12.3-7.3,19.7-19.2,19.7
						C65.8,105,58.5,97.6,58.5,85.3z M69.3,85.2c0,6,3,10,8.5,10c5.6,0,8.6-3.9,8.6-10c0-6-3.1-9.8-8.6-9.8
						C72.4,75.4,69.3,79.3,69.3,85.2z"/>
					<path class="st3" d="M96,103.9V66.7h10.8V80h0.2c1.8-11.3,4.9-13.3,10.1-13.3h1.8v12.3h-4.1c-6,0-7.9,1.6-7.9,7.2v17.7H96z"/>
					<path class="st3" d="M127.8,81.2h0.6l11.6-14.5h12.4v0.2L136.9,85l16.3,18.8v0.2h-12.6L128.3,89h-0.5v14.9H117V55.8h10.8V81.2z
						"/>
				</g>
			</g>
		</g>
	</g>
</g>
</svg>
