<svg xmlns="http://www.w3.org/2000/svg" xmlns:xlink="http://www.w3.org/1999/xlink" viewBox="0 0 152.55 132.85"><defs><style>.cls-1{fill:none;}.cls-2{fill:#f2fedc;}.cls-3{clip-path:url(#clip-path);}.cls-4{font-size:78.54px;fill:#e0512b;font-family:DegularDisplay-Bold, Degular Display;font-weight:700;letter-spacing:-0.06em;}.cls-5{letter-spacing:-0.05em;}.cls-6{letter-spacing:-0.06em;}.cls-7{letter-spacing:-0.05em;}</style><clipPath id="clip-path" transform="translate(-0.31 -0.3)"><path class="cls-1" d="M36.66,2.21C61-7.86,78.17,19.73,78.17,19.73s18.65-26.52,44.6-6.4-4.19,42.61-4.19,42.61,31.67,8.38,20.8,38.32-44.1,8.82-44.1,8.82c-.41,4.57-2,15.51-9.86,23.37A25.17,25.17,0,0,1,79,131.19a25.55,25.55,0,0,1-15.46,2C34.63,128.91,40.46,96,40.46,96S1.42,103.28,0,76.28,29.89,44.49,29.89,44.49,12.29,12.28,36.66,2.21Z"/></clipPath></defs><g id="Layer_2" data-name="Layer 2"><g id="Layer_2-2" data-name="Layer 2"><path class="cls-2" d="M36.77,2.5C61-7.52,78.06,19.92,78.06,19.92S96.6-6.46,122.42,13.55s-4.17,42.38-4.17,42.38,31.5,8.34,20.68,38.12-43.86,8.77-43.86,8.77c-.41,4.54-2,15.42-9.8,23.24a24.71,24.71,0,0,1-6.4,4.71,25.42,25.42,0,0,1-15.38,2c-28.73-4.23-22.94-37-22.94-37S1.72,103,.35,76.16,30,44.55,30,44.55,12.53,12.51,36.77,2.5Z" transform="translate(-0.31 -0.3)"/><g class="cls-3"><text class="cls-4" transform="translate(7.56 67.92)">m<tspan class="cls-5" x="57.26" y="0">y</tspan><tspan class="cls-6"><tspan x="0" y="36">w</tspan><tspan class="cls-7" x="50.27" y="36">ork</tspan></tspan></text></g></g></g></svg>