<svg xmlns="http://www.w3.org/2000/svg" viewBox="0 0 181.76 174.81"><defs><style>.cls-1{fill:none;stroke:#000;stroke-miterlimit:10;stroke-width:6px;}</style></defs><g id="Layer_2" data-name="Layer 2"><g id="Layer_2-2" data-name="Layer 2"><path class="cls-1" d="M159.41,150.66c-25.55,20.87-56.06-6-56.06-6s-12.76,38.52-51.12,23.79-10.38-52.57-10.38-52.57-41,1.4-38.76-38.4S52.74,51,52.74,51c-1.16-5.62-3.21-19.3,3.36-31.55a31.19,31.19,0,0,1,6-8C68.7,5.25,76.41,4,79.9,3.47,116.06-1.87,121,39.66,121,39.66s44.15-22.82,55.55,9-24.27,48.87-24.27,48.87S185,129.79,159.41,150.66Z"/></g></g></svg>