<svg xmlns="http://www.w3.org/2000/svg" viewBox="0 0 452.65 86.4"><defs><style>.cls-1,.cls-2,.cls-3{fill:none;}.cls-1,.cls-2{stroke:#f2fedc;stroke-miterlimit:10;stroke-width:4px;}.cls-1{stroke-linecap:square;}.cls-3{stroke:#e0512b;stroke-linejoin:round;stroke-width:2.45px;}</style></defs><g id="Layer_2" data-name="Layer 2"><g id="Layer_1-2" data-name="Layer 1"><path class="cls-1" d="M85.7,16.58c-6.37,0-10.15,1.73-13,20h-.43v-20H27.7C13.12,16.58,4.48,23.06,4.48,34c0,8.21,4.65,13.5,12.86,15.66l-4.22.86C7,51.79,4.7,55.35,4.7,58.59c0,3.57,6.34,6.7,14.87,7.13C10.93,66.58,2,69.93,2,74.47c0,6.15,5.4,10,26.46,9.93,19.87.11,27.22-6.26,27.22-16.2H72.31V45.31c0-6.16,1.62-7.56,9.07-7.56h6.38V16.58ZM27.6,31.16c5.07,0,6.91,1.73,6.91,4.43,0,2.16-1.51,4.32-6.91,4.32s-6.92-2.16-6.92-4.32C20.68,33.1,22.2,31.16,27.6,31.16ZM28,71.66c-11,0-12.64-.86-12.64-3.24,0-1.62,1.84-2.7,4.75-2.7H38.5c2.38,0,3.35,1.08,3.35,2.48C41.85,70.69,39.69,71.66,28,71.66ZM38,53.41c-5.07,0-11,.65-16.95.65-2.38,0-3-.55-3-2a4.27,4.27,0,0,1,.33-1.62l.32-.54a44.33,44.33,0,0,0,9,.86c13.93,0,22.14-3.77,22.14-11.55,0-4.86-3.46-6.7-7.89-7.67v-.11c2.92.22,5.4.22,7.45.22H54V56.91c-.87,1.46-1.41,1.38-1.41,1.38C49.81,55.17,45.15,53.41,38,53.41Z"/><path class="cls-2" d="M202.77,36.13c-9.83-2.06-10.15-3.46-10.15-5.4s1.62-2.81,4.64-2.81c3.89,0,5.72,2.16,6.48,6.37l17.5-3.89c-1.62-9.18-8-15.44-23.87-15.44-10.44,0-17.28,2.81-20.61,7.86-.28.27-.13.48-.57,0-3.67-4-10.48-7.86-20.27-7.86-15.45,0-23,6.15-23,16.63,0,8.64,5,13.61,20,17.07,8.1,1.83,9.4,3,9.4,5s-1.73,2.92-5,2.92c-4.1,0-6.7-2-7.88-7l-17.07,3.35c1.08,8.75,6.16,16.95,24.52,16.95,10.54,0,17.2-2.67,20.62-7.36,3.43,4.34,9.68,7.36,20.83,7.36,16.42,0,23.44-6.48,23.44-16.95C221.78,45.31,218.11,39.37,202.77,36.13Zm-4,20.41c-4.1,0-6.69-2-7.88-7L180.28,51.6c-.41-7-4.5-12.41-19-15.47-9.83-2.06-10.16-3.46-10.16-5.4s1.62-2.81,4.65-2.81c3.89,0,5.72,2.16,6.48,6.37l12.07-2.68c0,8.63,5,13.59,20,17,8.1,1.83,9.4,3,9.4,5S202,56.54,198.77,56.54Z"/><path class="cls-2" d="M240.78,2V12.8h18.36V2Z"/><path class="cls-2" d="M356.92,39.26c0-13.93-7.34-24.3-23.65-24.3-12.07,0-20.34,3.2-24.3,12.35V2H290.61l.11,23.47h-.22C287.69,13.91,282.08,15,274.84,15c-7.57,0-12.57,4.67-15.32,12.24-.07.22-.34,1.7-.38.11V16.58H240.78V68.2h18.36V57.9c0-.19.17-.15.24,0,2.68,7.3,7.65,11.88,14.92,11.88,7.45,0,13.18.83,16-10.72h.33v9.1H309V58.26c4.2,8.68,13,11.56,24,11.56,14.69,0,21.06-7.66,23.44-16.52l-15.66-4.43c-1,2.81-2.38,5.19-7.56,5.19s-8-2.06-8.75-7.89h32.4C357,43.26,356.92,41.85,356.92,39.26Zm-66.31,3.89c0,6.48-2.7,10.15-7.56,10.15-5.73,0-7.89-4-7.89-10.58,0-7,2.16-11.24,7.89-11.24,4.86,0,7.56,3.89,7.56,10.59Zm33.8-4.86c.65-6,3.24-8.21,8.32-8.21,4.86,0,7.34,2.48,7.45,8.21Z"/><path class="cls-2" d="M431.64,36.13c-9.83-2.06-10.15-3.46-10.15-5.4s1.62-2.81,4.64-2.81c3.89,0,5.73,2.16,6.48,6.37l17.5-3.89c-1.62-9.18-8-15.44-23.87-15.44-12.12,0-19.38,3.79-21.94,10.48-3.14-6.51-9.93-10.16-21.33-10.16-17.6,0-23.43,8.43-24.51,18.36L375.63,36c.76-4.43,3.24-5.62,6.48-5.62,4,0,5.94,2,5.94,5.83V38.5H376.71c-14.26,0-19.76,6-19.76,15.34,0,10.48,7,15.44,15.23,15.44,8.63,0,13.5-5,15.55-13.39h.32V68.2h18.36v-4c3.43,4.32,9.68,5.6,20.8,5.6,16.42,0,23.44-6.48,23.44-16.95C450.65,45.31,447,39.37,431.64,36.13ZM388.05,47.9c0,4-2.91,6.8-7.24,6.8s-5.93-1.73-5.93-4.21c0-2.16,1.94-4,5-4h8.21Zm39.6,8.64c-4.11,0-6.7-2-7.89-7l-13.35,1.59V40.87c3,3.36,8.26,5.82,16.81,7.79,8.1,1.83,9.39,3,9.39,5S430.89,56.54,427.65,56.54Z"/><g id="Layer_2-2" data-name="Layer 2"><g id="Layer_1-2-2" data-name="Layer 1-2"><path class="cls-3" d="M142.23,46.21c-3.67,11.52-18.41,9.39-18.41,9.39S127.61,70,112.88,73.13,99.16,59.07,99.16,59.07s-12.3,8.63-19.59-4S89.52,37,89.52,37c-1.49-1.49-4.85-5.28-5.29-10.36a11.84,11.84,0,0,1,.24-3.66,11.85,11.85,0,0,1,3.88-6c10-8.87,19.85,2.9,19.85,2.9s9-15.84,18.87-8.35,2.33,19.87,2.33,19.87S145.9,34.68,142.23,46.21Z"/><path class="cls-3" d="M134.72,44.93c-2.86,9-14.31,7.3-14.31,7.3s3,11.17-8.5,13.62-10.66-10.92-10.66-10.92S91.69,61.63,86,51.79s7.73-14,7.73-14a13.66,13.66,0,0,1-4.11-8,8.75,8.75,0,0,1,.19-2.84,9.08,9.08,0,0,1,3-4.67c7.8-6.9,15.43,2.25,15.43,2.25s7-12.32,14.66-6.49,1.82,15.45,1.82,15.45S137.57,36,134.72,44.93Z"/><path class="cls-3" d="M127.2,43.66c-2,6.39-10.2,5.2-10.2,5.2s2.1,8-6.07,9.72-7.59-7.8-7.59-7.8-6.82,4.78-10.86-2.23,5.51-10,5.51-10a9.81,9.81,0,0,1-2.92-5.75,6.24,6.24,0,0,1,.13-2,6.45,6.45,0,0,1,2.15-3.33c5.56-4.92,11,1.6,11,1.6s5-8.78,10.45-4.62,1.29,11,1.29,11S129.24,37.29,127.2,43.66Z"/><path class="cls-3" d="M119.68,42.39c-1.22,3.81-6.1,3.1-6.1,3.1s1.26,4.76-3.62,5.81-4.53-4.66-4.53-4.66-4.07,2.86-6.49-1.33,3.29-6,3.29-6a5.73,5.73,0,0,1-1.75-3.43,3.56,3.56,0,0,1,1.35-3.21c3.32-2.94,6.57,1,6.57,1s3-5.24,6.25-2.76.77,6.57.77,6.57S120.89,38.58,119.68,42.39Z"/><path class="cls-3" d="M112.16,41.12c-.39,1.25-2,1-2,1A1.49,1.49,0,0,1,109,44c-1.59.34-1.48-1.52-1.48-1.52a1.42,1.42,0,0,1-2.11-.43c-.78-1.37,1.06-1.95,1.06-1.95a1.89,1.89,0,0,1-.57-1.12,1.29,1.29,0,0,1,0-.39,1.23,1.23,0,0,1,.42-.65c1.08-1,2.14.31,2.14.31s1-1.7,2-.9.26,2.15.26,2.15S112.55,39.87,112.16,41.12Z"/></g></g></g></g></svg>