<svg xmlns="http://www.w3.org/2000/svg" viewBox="0 0 452.65 86.4"><defs><style>.cls-1,.cls-2{fill:none;stroke:#f2fedc;stroke-miterlimit:10;stroke-width:4px;}.cls-1{stroke-linecap:square;}</style></defs><g id="Layer_2" data-name="Layer 2"><g id="Layer_1-2" data-name="Layer 1"><path class="cls-1" d="M85.7,16.58c-6.37,0-10.15,1.73-13,20h-.43v-20H27.7C13.12,16.58,4.48,23.06,4.48,34c0,8.21,4.65,13.5,12.86,15.66l-4.22.86C7,51.79,4.7,55.35,4.7,58.59c0,3.57,6.34,6.7,14.87,7.13C10.93,66.58,2,69.93,2,74.47c0,6.15,5.4,10,26.46,9.93,19.87.11,27.22-6.26,27.22-16.2H72.31V45.31c0-6.16,1.62-7.56,9.07-7.56h6.38V16.58ZM27.6,31.16c5.07,0,6.91,1.73,6.91,4.43,0,2.16-1.51,4.32-6.91,4.32s-6.92-2.16-6.92-4.32C20.68,33.1,22.2,31.16,27.6,31.16ZM28,71.66c-11,0-12.64-.86-12.64-3.24,0-1.62,1.84-2.7,4.75-2.7H38.5c2.38,0,3.35,1.08,3.35,2.48C41.85,70.69,39.69,71.66,28,71.66ZM38,53.41c-5.07,0-11,.65-16.95.65-2.38,0-3-.55-3-2a4.27,4.27,0,0,1,.33-1.62l.32-.54a44.33,44.33,0,0,0,9,.86c13.93,0,22.14-3.77,22.14-11.55,0-4.86-3.46-6.7-7.89-7.67v-.11c2.92.22,5.4.22,7.45.22H54V56.91c-.87,1.46-1.41,1.38-1.41,1.38C49.81,55.17,45.15,53.41,38,53.41Z"/><path class="cls-2" d="M202.77,36.13c-9.83-2.06-10.15-3.46-10.15-5.4s1.62-2.81,4.64-2.81c3.89,0,5.72,2.16,6.48,6.37l17.5-3.89c-1.62-9.18-8-15.44-23.87-15.44-10.44,0-17.28,2.81-20.61,7.86-.28.27-.13.48-.57,0-3.67-4-10.48-7.86-20.27-7.86-15.45,0-23,6.15-23,16.63,0,8.64,5,13.61,20,17.07,8.1,1.83,9.4,3,9.4,5s-1.73,2.92-5,2.92c-4.1,0-6.7-2-7.88-7l-17.07,3.35c1.08,8.75,6.16,16.95,24.52,16.95,10.54,0,17.2-2.67,20.62-7.36,3.43,4.34,9.68,7.36,20.83,7.36,16.42,0,23.44-6.48,23.44-16.95C221.78,45.31,218.11,39.37,202.77,36.13Zm-4,20.41c-4.1,0-6.69-2-7.88-7L180.28,51.6c-.41-7-4.5-12.41-19-15.47-9.83-2.06-10.16-3.46-10.16-5.4s1.62-2.81,4.65-2.81c3.89,0,5.72,2.16,6.48,6.37l12.07-2.68c0,8.63,5,13.59,20,17,8.1,1.83,9.4,3,9.4,5S202,56.54,198.77,56.54Z"/><path class="cls-2" d="M240.78,2V12.8h18.36V2Z"/><path class="cls-2" d="M356.92,39.26c0-13.93-7.34-24.3-23.65-24.3-12.07,0-20.34,3.2-24.3,12.35V2H290.61l.11,23.47h-.22C287.69,13.91,282.08,15,274.84,15c-7.57,0-12.57,4.67-15.32,12.24-.07.22-.34,1.7-.38.11V16.58H240.78V68.2h18.36V57.9c0-.19.17-.15.24,0,2.68,7.3,7.65,11.88,14.92,11.88,7.45,0,13.18.83,16-10.72h.33v9.1H309V58.26c4.2,8.68,13,11.56,24,11.56,14.69,0,21.06-7.66,23.44-16.52l-15.66-4.43c-1,2.81-2.38,5.19-7.56,5.19s-8-2.06-8.75-7.89h32.4C357,43.26,356.92,41.85,356.92,39.26Zm-66.31,3.89c0,6.48-2.7,10.15-7.56,10.15-5.73,0-7.89-4-7.89-10.58,0-7,2.16-11.24,7.89-11.24,4.86,0,7.56,3.89,7.56,10.59Zm33.8-4.86c.65-6,3.24-8.21,8.32-8.21,4.86,0,7.34,2.48,7.45,8.21Z"/><path class="cls-2" d="M431.64,36.13c-9.83-2.06-10.15-3.46-10.15-5.4s1.62-2.81,4.64-2.81c3.89,0,5.73,2.16,6.48,6.37l17.5-3.89c-1.62-9.18-8-15.44-23.87-15.44-12.12,0-19.38,3.79-21.94,10.48-3.14-6.51-9.93-10.16-21.33-10.16-17.6,0-23.43,8.43-24.51,18.36L375.63,36c.76-4.43,3.24-5.62,6.48-5.62,4,0,5.94,2,5.94,5.83V38.5H376.71c-14.26,0-19.76,6-19.76,15.34,0,10.48,7,15.44,15.23,15.44,8.63,0,13.5-5,15.55-13.39h.32V68.2h18.36v-4c3.43,4.32,9.68,5.6,20.8,5.6,16.42,0,23.44-6.48,23.44-16.95C450.65,45.31,447,39.37,431.64,36.13ZM388.05,47.9c0,4-2.91,6.8-7.24,6.8s-5.93-1.73-5.93-4.21c0-2.16,1.94-4,5-4h8.21Zm39.6,8.64c-4.11,0-6.7-2-7.89-7l-13.35,1.59V40.87c3,3.36,8.26,5.82,16.81,7.79,8.1,1.83,9.39,3,9.39,5S430.89,56.54,427.65,56.54Z"/></g></g></svg>