<svg xmlns="http://www.w3.org/2000/svg" xmlns:xlink="http://www.w3.org/1999/xlink" viewBox="0 0 294.79 95.34"><defs><style>.cls-1{fill:none;}.cls-2{fill:#f2fedc;}.cls-3{clip-path:url(#clip-path);}.cls-4{fill:#1b3d2f;}</style><clipPath id="clip-path" transform="translate(-7.18 0.13)"><path class="cls-1" d="M28.51,65.92h-.3C26.33,73.64,21.88,78.2,14,78.2,6.44,78.2,0,73.64,0,64,0,55.52,5.05,50,18.12,50H28.51V47.9c0-3.56-1.78-5.34-5.44-5.34-3,0-5.25,1.08-5.94,5.14L1.39,45.53c1-9.11,6.33-16.83,22.47-16.83,15.24,0,21.48,7.12,21.48,19.1V77.21H28.51Zm0-7.33V57.31H21c-2.77,0-4.56,1.68-4.56,3.66,0,2.28,1.39,3.86,5.45,3.86S28.51,62.26,28.51,58.59ZM56.63,41.86h.29C59.5,31.27,64.74,28.4,71.58,28.4c10.49,0,15.84,9.21,15.84,24.75,0,16.23-5.45,25.54-16.34,25.54-6.63,0-11.68-2.87-14.26-13.46h-.19v12H39.8V16.52H56.63ZM70.78,53.25c0-6-2-9.7-7.22-9.7-4.46,0-6.93,3.36-6.93,9.3v1c0,6.14,2.47,9.7,6.93,9.7C68.8,63.54,70.78,59.68,70.78,53.25Zm8.71.29c0-15.84,9.41-25.14,25-25.14,15.25,0,24.75,9.3,24.75,25.14s-9.5,25.15-24.75,25.15C88.9,78.69,79.49,69.29,79.49,53.54Zm16.83,0c0,5.94,2.78,9.8,8,9.8s8-3.86,8-9.8-2.77-9.9-8-9.9S96.32,47.6,96.32,53.54Zm54.26,10.2h-.1c-2.48,11.78-7.72,14.95-14.85,14.95-8.91,0-13.37-5.94-13.37-16.24V29.88h16.83V57.41c0,3.86,1.88,6.13,5.64,6.13s5.85-2.27,5.85-6.13V29.88h16.83V77.21H150.58Zm14.15-20h-4.35V29.88h4.35V18.8h16.83V29.88h10.79V43.74H181.56V58.2c0,2.77,1,4.06,4.26,4.06a25.34,25.34,0,0,0,5.54-1.09l1.78,15.64a32.71,32.71,0,0,1-11.88,1.88c-11.78,0-16.53-7.72-16.53-16.83Zm43.86,33.47H191.76V29.88h16.83V43.35h.1c2.47-11.78,7.72-15,14.85-15,8.51,0,13,5.44,13.36,15h.1c2.48-11.78,7.72-15,14.85-15,8.91,0,13.37,5.94,13.37,16.23V77.21H248.39V49.68c0-3.86-1.89-6.13-5.65-6.13s-5.84,2.27-5.84,6.13V77.21H220.07V49.68c0-3.86-1.88-6.13-5.64-6.13s-5.84,2.27-5.84,6.13Zm49.69-22.28C258.28,38.2,267,28.4,283,28.4c15,0,21.69,9.5,21.69,22.27,0,2.38.09,3.67-.1,6.34h-29.7c.69,5.35,3.16,7.23,8,7.23s6-2.18,6.93-4.76l14.35,4.06c-2.18,8.12-8,15.15-21.48,15.15C268.58,78.69,258.28,70.87,258.28,54.93Zm16.64-5.15h14.45c-.1-5.24-2.38-7.52-6.83-7.52C277.89,42.26,275.51,44.24,274.92,49.78Z"/></clipPath></defs><g id="Layer_2" data-name="Layer 2"><g id="Layer_1-2" data-name="Layer 1"><path class="cls-2" d="M256.12,95l.14-.09,43.23-43.55a5.62,5.62,0,0,0,0-7.93L256.1.08,255.91,0,18.89.16A11.48,11.48,0,0,0,7.41,11.66l.12,72.08A11.5,11.5,0,0,0,19,95.21s199.13-.13,237-.21" transform="translate(-7.18 0.13)"/><g class="cls-3"><path class="cls-4" d="M256.81,94.87l.14-.08,43.39-43.56a5.6,5.6,0,0,0,0-7.93L256.79,0l-.19-.08L18.71,0A11.51,11.51,0,0,0,7.18,11.54l.13,72.07A11.5,11.5,0,0,0,18.85,95.08s199.86-.12,237.9-.21" transform="translate(-7.18 0.13)"/></g></g></g></svg>