<svg xmlns="http://www.w3.org/2000/svg" xmlns:xlink="http://www.w3.org/1999/xlink" viewBox="0 0 294.79 95.39"><defs><style>.cls-1{fill:none;}.cls-2{fill:#f2fedc;}.cls-3{clip-path:url(#clip-path);}.cls-4{fill:#1b3d2f;}</style><clipPath id="clip-path" transform="translate(-9.2 0.18)"><path class="cls-1" d="M28,38.45c-4.83,0-8.43,3-8.43,11S23,60.74,28.1,60.74c4.84,0,7.09-3.92,8-9.75l18.33,3.36c-1.35,14.34-9.22,23.75-26,23.75C11.35,78.1,0,69.14,0,50.1,0,31.84,10.68,21.2,28.1,21.2c17.88,0,24.51,8.51,26.42,23.52L36.08,47.3C35.19,42.59,33.16,38.45,28,38.45Zm18.77,11.2c0-17.92,10.68-28.45,28.33-28.45,17.31,0,28.11,10.53,28.11,28.45S92.4,78.1,75.09,78.1C57.44,78.1,46.76,67.46,46.76,49.65Zm19.11,0c0,6.72,3.15,11.09,9.11,11.09s9.11-4.37,9.11-11.09S80.94,38.45,75,38.45,65.87,42.93,65.87,49.65Zm50,26.77H96.79V22.88H115.9V38.11H116c2.81-13.33,8.77-16.91,16.86-16.91,10.12,0,15.18,6.72,15.18,18.37V76.42H128.94V45.28c0-4.37-2.14-6.94-6.41-6.94s-6.63,18-6.63,22.4Zm29.45-37.86h-4.94V22.88h4.94V10.34h19.11V22.88h12.26V38.56H164.46V54.91c0,3.14,1.13,4.59,4.84,4.59a28.23,28.23,0,0,0,6.29-1.23l2,17.7a37.38,37.38,0,0,1-13.49,2.13c-13.37,0-18.77-8.74-18.77-19Zm56.32,25.09h-.34c-2.13,8.73-7.19,13.89-16.18,13.89-8.55,0-15.85-5.16-15.85-16,0-9.63,5.73-15.9,20.57-15.9h11.8V43.26c0-4-2-6-6.18-6-3.37,0-6,1.23-6.75,5.82l-17.87-2.46c1.12-10.31,7.19-19,25.52-19,17.31,0,24.39,8.06,24.39,21.61V76.42H201.67Zm0-8.29V53.9h-8.54c-3.15,0-5.17,1.91-5.17,4.15,0,2.57,1.57,4.37,6.18,4.37S201.67,59.5,201.67,55.36Zm40.69-16.91c-4.83,0-8.43,3-8.43,11s3.49,11.32,8.55,11.32c4.83,0,7.08-3.92,8-9.75l18.32,3.36c-1.35,14.34-9.22,23.75-26,23.75-17.08,0-28.44-9-28.44-28,0-18.26,10.68-28.9,28.11-28.9,17.87,0,24.5,8.51,26.41,23.52L250.46,47.3C249.56,42.59,247.54,38.45,242.36,38.45Zm22.38.11h-4.95V22.88h4.95V10.34h19.11V22.88H296.1V38.56H283.85V54.91c0,3.14,1.12,4.59,4.83,4.59a28.21,28.21,0,0,0,6.3-1.23L297,76a37.42,37.42,0,0,1-13.49,2.13c-13.38,0-18.77-8.74-18.77-19Z"/></clipPath></defs><g id="Layer_2" data-name="Layer 2"><g id="Layer_1-2" data-name="Layer 1"><path class="cls-2" d="M258,95l.14-.09,43.23-43.55a5.62,5.62,0,0,0,0-7.93L258,.08,257.83,0,20.81.16A11.48,11.48,0,0,0,9.33,11.66l.12,72.08A11.5,11.5,0,0,0,21,95.21s199.13-.13,237-.21" transform="translate(-9.2 0.18)"/><g class="cls-3"><path class="cls-4" d="M258.82,94.82l.14-.09,43.39-43.55a5.6,5.6,0,0,0,0-7.93L258.8-.1l-.18-.08L20.72,0A11.5,11.5,0,0,0,9.2,11.48l.12,72.08A11.52,11.52,0,0,0,20.86,95s199.86-.13,237.9-.21" transform="translate(-9.2 0.18)"/></g></g></g></svg>