<svg xmlns="http://www.w3.org/2000/svg" xmlns:xlink="http://www.w3.org/1999/xlink" viewBox="0 0 293.73 145.36"><defs><style>.cls-1{fill:none;}.cls-2{fill:#f2fedc;}.cls-3{clip-path:url(#clip-path);}.cls-4{fill:#1b3d2f;}</style><clipPath id="clip-path" transform="translate(-10.44 50.15)"><path class="cls-1" d="M18.36,72.88H0V21.25H18.36V35.94h.11c2.7-12.85,8.42-16.31,16.2-16.31,9.29,0,14.15,5.94,14.58,16.31h.11c2.7-12.85,8.42-16.31,16.2-16.31,9.72,0,14.58,6.48,14.58,17.71V72.88H61.78v-30c0-4.21-2.06-6.69-6.16-6.69s-6.37,2.48-6.37,6.69v30H30.89v-30c0-4.21-2.05-6.69-6.16-6.69s-6.37,2.48-6.37,6.69ZM71.6,87.78l2-14a35.45,35.45,0,0,0,6.69.76c4.22,0,6.38-.33,7.89-2.59L70.31,21.25h20l5.29,19.33q1.29,4.86,2.59,10.05h.22c.75-3.35,1.51-6.48,2.16-9.72L105,21.25h19.76L106.06,71.47c-4.54,12.32-11.67,17.07-25.92,17.07A49.33,49.33,0,0,1,71.6,87.78Zm101.85-46c1,5.4,1.62,11,2.26,16.85h.11c.87-5.51,1.73-10.8,2.7-16.85l3.13-20.52h17.93L186.51,72.88H163.73L160.38,51q-1.14-7.46-1.62-15.55h-.22c-.43,5.29-1.08,10.69-1.73,15.55l-2.7,21.93h-23L118,21.25h18.9l4,20.52c1.19,5.94,2.05,11.24,2.81,16.85h.1c.65-5.83,1.3-11.45,2.27-16.85l3.57-20.52h20.19ZM187,47.06c0-17.28,10.26-27.43,27.21-27.43,16.63,0,27,10.15,27,27.43s-10.37,27.44-27,27.44C197.21,74.5,187,64.24,187,47.06Zm18.36,0c0,6.49,3,10.7,8.74,10.7s8.75-4.21,8.75-10.7-3-10.8-8.75-10.8S205.31,40.58,205.31,47.06Zm29.48,25.82V21.25h18.36v20h.43c2.81-18.25,6.59-20,13-20h2V42.42h-6.37c-7.45,0-9.07,1.4-9.07,7.56v22.9Zm45.57-32.73h.44l12.42-18.9h20.84v.22L295.48,46.31,314.6,72.66v.22H293.22L280.36,53.33V72.88H262V6.67h18.36Z"/></clipPath></defs><g id="Layer_2" data-name="Layer 2"><g id="Layer_1-2" data-name="Layer 1"><path class="cls-2" d="M259.15,95l.14-.09,43.24-43.55a5.62,5.62,0,0,0,0-7.93L259.13.08,259,0,21.92.16a11.48,11.48,0,0,0-11.48,11.5l.13,72.08a11.49,11.49,0,0,0,11.5,11.47s199.13-.13,237-.21" transform="translate(-10.44 50.15)"/><g class="cls-3"><path class="cls-4" d="M10.45,11.62l.12,72.07a11.48,11.48,0,0,0,11.5,11.47s199.14-.12,237-.21.06,0,.06,0l.14-.08,43.24-43.56a5.62,5.62,0,0,0,0-7.93L259.15,0,259,0,21.93.11A11.49,11.49,0,0,0,10.45,11.62Z" transform="translate(-10.44 50.15)"/><polygon class="cls-4" points="249.37 144.82 249.51 144.82 249.51 144.73 249.37 144.82"/><polygon class="cls-4" points="230.16 0 230.16 0.03 230.22 0 230.16 0"/></g></g></g></svg>