<svg xmlns="http://www.w3.org/2000/svg" xmlns:xlink="http://www.w3.org/1999/xlink" viewBox="0 0 293.73 145.36"><defs><style>.cls-1{font-size:108px;fill:none;font-family:DegularDisplay-Black, Degular Display;font-weight:800;letter-spacing:-0.1em;}.cls-2{letter-spacing:-0.08em;}.cls-3{letter-spacing:-0.1em;}.cls-4{fill:#f2fedc;}.cls-5{clip-path:url(#clip-path);}.cls-6{fill:#1b3d2f;}</style><clipPath id="clip-path" transform="translate(-7.77 0.05)"><text class="cls-1" transform="translate(0 126.43)">m<tspan class="cls-2" x="72.68" y="0">y </tspan><tspan class="cls-3" x="122.47" y="0">w</tspan><tspan class="cls-2" x="188.24" y="0">ork</tspan></text></clipPath></defs><g id="Layer_2" data-name="Layer 2"><g id="Layer_1-2" data-name="Layer 1"><path class="cls-4" d="M7.77,61.77l.13,72.07a11.48,11.48,0,0,0,11.5,11.47s199.13-.12,237-.21.06,0,.06,0l.14-.08,43.23-43.56a5.61,5.61,0,0,0,0-7.93L256.46,50.18l-.18-.08-237,.16A11.49,11.49,0,0,0,7.77,61.77Z" transform="translate(-7.77 0.05)"/><polygon class="cls-4" points="249.35 144.86 249.49 144.86 249.49 144.78 249.35 144.86"/><polygon class="cls-4" points="230.14 0.05 230.14 0.08 230.2 0.05 230.14 0.05"/><g class="cls-5"><path class="cls-6" d="M7.78,61.72l.12,72.07a11.5,11.5,0,0,0,11.5,11.48s199.14-.13,237-.22.06,0,.06,0l.14-.08,43.24-43.55a5.63,5.63,0,0,0,0-7.94L256.48,50.13l-.18-.08-237,.16A11.49,11.49,0,0,0,7.78,61.72Z" transform="translate(-7.77 0.05)"/><polygon class="cls-6" points="249.37 144.82 249.51 144.82 249.51 144.73 249.37 144.82"/><polygon class="cls-6" points="230.16 0 230.16 0.03 230.22 0 230.16 0"/></g></g></g></svg>