<svg xmlns="http://www.w3.org/2000/svg" xmlns:xlink="http://www.w3.org/1999/xlink" viewBox="0 0 293.73 145.36"><defs><style>.cls-1{fill:none;}.cls-2{fill:#f2fedc;}.cls-3{clip-path:url(#clip-path);}.cls-4{fill:#1b3d2f;}</style><clipPath id="clip-path" transform="translate(-10.44 0.05)"><path class="cls-1" d="M18.36,123H0V71.35H18.36V86h.11c2.7-12.85,8.42-16.31,16.2-16.31C44,69.73,48.82,75.67,49.25,86h.11c2.7-12.85,8.42-16.31,16.2-16.31,9.72,0,14.58,6.48,14.58,17.72V123H61.78V93c0-4.21-2.06-6.69-6.16-6.69S49.25,88.74,49.25,93v30H30.89V93c0-4.21-2.05-6.69-6.16-6.69S18.36,88.74,18.36,93Zm53.24,14.9,2-14a34.65,34.65,0,0,0,6.69.76c4.22,0,6.38-.32,7.89-2.59L70.31,71.35h20l5.29,19.34q1.29,4.86,2.59,10h.22c.75-3.35,1.51-6.48,2.16-9.72L105,71.35h19.76l-18.68,50.23c-4.54,12.31-11.67,17.06-25.92,17.06A48.36,48.36,0,0,1,71.6,137.88Zm101.85-46c1,5.4,1.62,11,2.26,16.85h.11c.87-5.51,1.73-10.8,2.7-16.85l3.13-20.52h17.93L186.51,123H163.73l-3.35-21.93q-1.14-7.44-1.62-15.55h-.22c-.43,5.29-1.08,10.69-1.73,15.55L154.11,123h-23L118,71.35h18.9l4,20.52c1.19,5.94,2.05,11.24,2.81,16.85h.1c.65-5.83,1.3-11.45,2.27-16.85l3.57-20.52h20.19Zm13.5,5.3c0-17.28,10.26-27.44,27.21-27.44,16.63,0,27,10.16,27,27.44s-10.37,27.43-27,27.43C197.21,124.6,187,114.34,187,97.17Zm18.36,0c0,6.48,3,10.69,8.74,10.69s8.75-4.21,8.75-10.69-3-10.8-8.75-10.8S205.31,90.69,205.31,97.17ZM234.79,123V71.35h18.36v20h.43c2.81-18.25,6.59-20,13-20h2V92.52h-6.37c-7.45,0-9.07,1.41-9.07,7.56V123Zm45.57-32.73h.44l12.42-18.9h20.84v.22L295.48,96.41l19.12,26.35V123H293.22l-12.86-19.55V123H262V56.77h18.36Z"/></clipPath></defs><g id="Layer_2" data-name="Layer 2"><g id="Layer_1-2" data-name="Layer 1"><path class="cls-2" d="M259.15,145.1l.14-.08,43.24-43.56a5.62,5.62,0,0,0,0-7.93L259.13,50.18,259,50.1l-237,.16A11.49,11.49,0,0,0,10.44,61.77l.13,72.07a11.48,11.48,0,0,0,11.5,11.47s199.13-.12,237-.21" transform="translate(-10.44 0.05)"/><polygon class="cls-2" points="230.14 0.05 230.14 0.08 230.2 0.05 230.14 0.05"/><g class="cls-3"><path class="cls-4" d="M10.45,61.72l.12,72.07a11.5,11.5,0,0,0,11.5,11.48s199.14-.13,237-.22.06,0,.06,0l.14-.08,43.24-43.55a5.63,5.63,0,0,0,0-7.94L259.15,50.13l-.18-.08-237,.16A11.49,11.49,0,0,0,10.45,61.72Z" transform="translate(-10.44 0.05)"/><polygon class="cls-4" points="249.37 144.82 249.51 144.82 249.51 144.73 249.37 144.82"/><polygon class="cls-4" points="230.16 0 230.16 0.03 230.22 0 230.16 0"/></g></g></g></svg>