<svg xmlns="http://www.w3.org/2000/svg" xmlns:xlink="http://www.w3.org/1999/xlink" viewBox="0 0 152.16 212.02"><defs><style>.cls-1{fill:none;}.cls-2{clip-path:url(#clip-path);}.cls-3{fill:#f2fedc;}.cls-4{fill:#1b3d2f;}</style><clipPath id="clip-path" transform="translate(4.59 3.5)"><path class="cls-1" d="M33,96.85c-4.24,0-7.42,2.62-7.42,6.1,0,2.89,1.49,6.36,8.61,6.36,6,0,10.17-3.88,10.17-9.4V96.85Zm8.54,3.06c0,3.93-3,6.58-7.35,6.58-5.79,0-5.79-2.48-5.79-3.54,0-1.9,1.93-3.28,4.6-3.28h8.54Zm-.08,8-.27,1.06c-2.26,9-7.16,13.72-15,14.52l-1.67.17,6.68,23.68c1,3.6,2,7.44,3.14,11.77l.27,1.07h2.48l1-4.12c.69-2.87,1.34-5.59,1.91-8.49l4.33-27.39,0-12.27Zm.08,12-4.3,27.22c-.43,2.14-.91,4.22-1.42,6.38-.65-2.43-1.25-4.69-1.86-6.88L28.16,126a17.9,17.9,0,0,0,13.37-10ZM33,96.85c-4.24,0-7.42,2.62-7.42,6.1,0,2.89,1.49,6.36,8.61,6.36,6,0,10.17-3.88,10.17-9.4V96.85Zm8.54,3.06c0,3.93-3,6.58-7.35,6.58-5.79,0-5.79-2.48-5.79-3.54,0-1.9,1.93-3.28,4.6-3.28h8.54Zm-.35,9c-2.26,9-7.16,13.72-15,14.52l-1.67.17,6.68,23.68c1,3.6,2,7.44,3.14,11.77l.27,1.07h2.48l1-4.12c.69-2.87,1.34-5.59,1.91-8.49l4.33-27.39,0-12.27h-2.9Zm.35,10.89-4.3,27.22c-.43,2.14-.91,4.22-1.42,6.38-.65-2.43-1.25-4.69-1.86-6.88L28.16,126a17.9,17.9,0,0,0,13.37-10Zm77.78,81.38v.64h.12v-.64ZM25.57,103c0,2.89,1.49,6.36,8.61,6.36,6,0,10.17-3.88,10.17-9.4V96.85H33C28.75,96.85,25.57,99.47,25.57,103Zm16-3c0,3.93-3,6.58-7.35,6.58-5.79,0-5.79-2.48-5.79-3.54,0-1.9,1.93-3.28,4.6-3.28h8.54Zm-.35,9c-2.26,9-7.16,13.72-15,14.52l-1.67.17,6.68,23.68c1,3.6,2,7.44,3.14,11.77l.27,1.07h2.48l1-4.12c.69-2.87,1.34-5.59,1.91-8.49l4.33-27.39,0-12.27h-2.9Zm.35,10.89-4.3,27.22c-.43,2.14-.91,4.22-1.42,6.38-.65-2.43-1.25-4.69-1.86-6.88L28.16,126a17.9,17.9,0,0,0,13.37-10Zm75,21.4V148c-3.11-5.65-8.61-8.65-16.12-8.65l-.67,0c-7.19,0-13.63,0-17.67,7.93V124.1H66.54l0-38c0-10.78-4-18.26-11.84-22.32,7.16-3.48,10.92-9.59,10.92-17.86C65.66,35.08,59,28.85,43.5,25.3l21.71-4.68L65,19.29C62.62,6.3,52.72,0,34.7,0,15.82,0,5.44,7.42,5.44,20.93,5.44,31,11,36.85,25,40.9L4.63,44.77l.16,1.31c1.11,8.78,5.35,14.71,12.93,18-7,3.71-11,10-12,18.91l-.16,1.36,23,3.09c-11.42.13-24.69,3.66-24.69,19.41a18.14,18.14,0,0,0,9.16,16H0l22,60.64c-1.41,1.57-3.48,1.88-8,1.88a43,43,0,0,1-7.83-.87l-1.45-.28L2,203.55l2,.3a60.72,60.72,0,0,0,9.91.81c17.81,0,27-5.87,32.72-21l11.29-33.77L57,204.66H82V174.28c0-4.24,2.19-6.47,6.31-6.47s6,2.11,6,6.47v30.38h47.15V141.23Zm0,60.62H97.2V174.28c0-5.91-3.24-9.29-8.86-9.29s-9.13,3.47-9.13,9.29v27.57H59.82l1-59.31-3.5.08L44,182.72c-5.3,13.94-13.44,19.13-30.07,19.13a55,55,0,0,1-8.73-.68l1.94-13.65a41.27,41.27,0,0,0,6.92.66c5,0,8.37-.25,10.71-3.66l.41-.59L4,125.66H17.79l.41-.07c1.09-.32,1.65-.9,1.66-1.72a1.64,1.64,0,0,0-1.19-1.55c-3.61-1.2-12-5.1-12-15.44,0-11.17,7.36-16.59,22.51-16.59H44.35V86.22c0-5.41-3-8.27-8.61-8.27-4.83,0-7.76,2.11-9,6.43L8.69,82C10,73.61,14.33,68.16,21.93,65.3l3.88-1.46-4-1.21C13.68,60.13,9.19,55.15,7.79,47L25.84,43.6c1.7,5.41,5.17,8,10.56,8,1.76,0,7.14,0,7.43-4.84,0-3.51-2.69-5.06-12.5-7.21C12.12,35.29,8.26,29.26,8.26,20.93,8.26,6,22.62,2.82,34.7,2.82c16,0,24.69,5,27.23,15.63l-18.44,4c-.88-3.44-2.93-7.22-8.92-7.22-6.35,0-7,3.29-7,4.71,0,3.69,2,5.41,13.41,7.72,19.23,3.93,21.89,11.1,21.89,18.27,0,8.33-4,13.72-12.17,16.48l-3.83,1.29,3.8,1.38c8.82,3.18,13.12,10,13.12,21v37.42l-1.14,3.4H79.21v29.94h2.68l.24-1.11c3-13.62,8.48-13.58,17.55-13.61h.69c9.82,0,15.25,5.48,16.12,16.2ZM29.05,87.47l.22-1.27c.68-3.87,2.55-5.44,6.47-5.44s5.79,1.62,5.79,5.46v1.25Zm-.8-45.71c.8.19,1.63.39,2.47.57C40.22,44.42,41,45.63,41,46.71c0,.74-.13,2.12-4.61,2.12S29.49,46.7,28.25,41.76Zm12.86-17c-10.75-2.21-10.75-3.56-10.75-4.87,0-1.56,2.28-1.89,4.21-1.89,3.8,0,5.61,1.78,6.45,6.33Zm97.61,177.06H119.31v-57.8h19.41Zm-22.23-77.74v15.5h25v-15.5Zm22.23,12.68H119.31v-9.86h19.41Z"/></clipPath></defs><g id="Layer_2" data-name="Layer 2"><g id="Layer_1-2" data-name="Layer 1"><g class="cls-2"><rect class="cls-3" x="40.83" width="111.33" height="176.48"/><polygon class="cls-4" points="152.16 176.47 152.16 212.02 0 212.02 0 0 40.83 0 40.83 176.47 152.16 176.47"/></g></g></g></svg>