<svg xmlns="http://www.w3.org/2000/svg" viewBox="0 0 656.31 107.09"><defs><style>.cls-1{fill:#1b3d2f;}</style></defs><g id="Layer_2" data-name="Layer 2"><g id="Layer_1-2" data-name="Layer 1"><text/><path class="cls-1" d="M0,35.51l10.11-1.93c.71,2.86,2.24,4,4.67,4,1.92,0,2.88-.5,3-1.68s-.77-1.8-5.57-2.86C3.26,31.1.32,28.24.32,23.28c0-6,4.48-9.56,13.63-9.56,9.41,0,13.18,3.6,14.14,8.87L17.73,24.83c-.45-2.42-1.54-3.66-3.84-3.66-1.8,0-2.75.56-2.75,1.61s.19,1.92,6,3.1c9.09,1.87,11.26,5.28,11.26,9.63,0,6-4.16,9.74-13.88,9.74C3.65,45.25.64,40.53,0,35.51Z"/><path class="cls-1" d="M38.78,44.32H27.9v-38H38.78V23.09h.07c1.6-7.39,5-9.37,9.6-9.37,5.76,0,8.63,3.72,8.63,10.18V44.32H46.21V27.06c0-2.42-1.22-3.84-3.65-3.84s-3.78,1.42-3.78,3.84Z"/><path class="cls-1" d="M56.51,29.48c0-9.93,6.08-15.76,16.13-15.76,9.85,0,16,5.83,16,15.76s-6.15,15.77-16,15.77C62.59,45.25,56.51,39.35,56.51,29.48Zm10.88,0c0,3.73,1.79,6.15,5.18,6.15s5.19-2.42,5.19-6.15-1.79-6.2-5.19-6.2S67.39,25.76,67.39,29.48Z"/><path class="cls-1" d="M87.42,29.48c0-9.93,6.08-15.76,16.13-15.76,9.85,0,16,5.83,16,15.76s-6.15,15.77-16,15.77C93.5,45.25,87.42,39.35,87.42,29.48Zm10.88,0c0,3.73,1.79,6.15,5.19,6.15s5.18-2.42,5.18-6.15-1.79-6.2-5.18-6.2S98.3,25.76,98.3,29.48Z"/><path class="cls-1" d="M120.32,23.34H117.5V14.65h2.82V7.7H131.2v7h7v8.69h-7V32.4c0,1.74.64,2.55,2.75,2.55a16.24,16.24,0,0,0,3.58-.69l1.15,9.81A21.6,21.6,0,0,1,131,45.25c-7.62,0-10.69-4.84-10.69-10.55Z"/><path class="cls-1" d="M156.48,44.32H145.6V14.65h10.88v8.44h.06c1.6-7.39,5-9.37,9.6-9.37,5.5,0,8.38,3.41,8.64,9.37h.06c1.6-7.39,5-9.37,9.6-9.37,5.76,0,8.64,3.72,8.64,10.18V44.32H182.2V27.06c0-2.42-1.21-3.84-3.65-3.84s-3.77,1.42-3.77,3.84V44.32H163.9V27.06c0-2.42-1.22-3.84-3.65-3.84s-3.77,1.42-3.77,3.84Z"/><path class="cls-1" d="M192.51,30.35c0-10.49,5.63-16.63,16-16.63,9.66,0,14,6,14,14,0,1.49.07,2.3-.06,4h-19.2c.45,3.35,2.05,4.53,5.18,4.53s3.91-1.37,4.48-3l9.28,2.54c-1.41,5.09-5.18,9.5-13.88,9.5C199.16,45.25,192.51,40.35,192.51,30.35Zm10.75-3.22h9.34c-.06-3.29-1.53-4.72-4.41-4.72S203.64,23.65,203.26,27.13Z"/><path class="cls-1" d="M247.29,37.24h-.19c-1.22,4.85-4.1,7.7-9.22,7.7-4.86,0-9-2.85-9-8.88,0-5.33,3.26-8.81,11.71-8.81h6.72V26c0-2.24-1.15-3.36-3.52-3.36-1.92,0-3.39.69-3.84,3.23l-10.18-1.36c.64-5.71,4.1-10.56,14.53-10.56,9.86,0,13.89,4.47,13.89,12V44.32H247.29Zm0-4.59v-.81h-4.86c-1.8,0-3,1.06-3,2.3,0,1.43.9,2.42,3.52,2.42S247.29,35,247.29,32.65Z"/><path class="cls-1" d="M277,44.32H266.11v-38H277Z"/><path class="cls-1" d="M278.2,12.48V6.27h10.88v6.21Zm0,31.84V14.65h10.88V44.32Z"/><path class="cls-1" d="M301.22,44.32H290.34V14.65h10.88v8.44h.06c1.6-7.39,5-9.37,9.6-9.37,5.76,0,8.64,3.72,8.64,10.18V44.32H308.64V27.06c0-2.42-1.22-3.84-3.65-3.84s-3.77,1.42-3.77,3.84Z"/><path class="cls-1" d="M318.94,30.35c0-10.49,5.64-16.63,16-16.63,9.67,0,14,6,14,14,0,1.49.06,2.3-.07,4h-19.2c.45,3.35,2.05,4.53,5.19,4.53s3.9-1.37,4.48-3l9.28,2.54c-1.41,5.09-5.19,9.5-13.89,9.5C325.6,45.25,318.94,40.35,318.94,30.35Zm10.75-3.22H339c-.07-3.29-1.54-4.72-4.42-4.72S330.08,23.65,329.69,27.13Z"/><path class="cls-1" d="M488.44,51.4,481,57.11C472.19,48.91,470,38.24,470,28.55S472.19,8.19,481,0l7.42,5.71c-6.14,7.39-7.36,14.77-7.36,22.84S482.3,44,488.44,51.4Z"/><path class="cls-1" d="M487,29.48c0-9.93,6.08-15.76,16.13-15.76,9.85,0,16,5.83,16,15.76s-6.15,15.77-16,15.77C493.05,45.25,487,39.35,487,29.48Zm10.88,0c0,3.73,1.79,6.15,5.18,6.15s5.19-2.42,5.19-6.15-1.79-6.2-5.19-6.2S497.85,25.76,497.85,29.48Z"/><path class="cls-1" d="M518.65,44.32V14.65h10.88V26.13h.26c1.66-10.49,3.9-11.48,7.68-11.48h1.21V26.82H534.9c-4.41,0-5.37.8-5.37,4.34V44.32Z"/><path class="cls-1" d="M547.58,23.34h-2.82V14.65h2.82V7.7h10.88v7h7v8.69h-7V32.4c0,1.74.64,2.55,2.75,2.55a16.36,16.36,0,0,0,3.58-.69l1.15,9.81a21.62,21.62,0,0,1-7.68,1.18c-7.61,0-10.68-4.84-10.68-10.55Z"/><path class="cls-1" d="M595.83,26.44c.58,3.11,1,6.33,1.34,9.69h.07c.51-3.17,1-6.21,1.6-9.69l1.85-11.79h10.63l-7.75,29.67h-13.5l-2-12.6q-.68-4.29-1-8.94H587c-.26,3-.64,6.15-1,8.94l-1.59,12.6H570.74L563,14.65h11.2l2.37,11.79c.7,3.42,1.21,6.46,1.66,9.69h.07c.38-3.36.76-6.58,1.34-9.69l2.11-11.79h12Z"/><path class="cls-1" d="M607.16,29.48c0-9.93,6.08-15.76,16.13-15.76,9.85,0,16,5.83,16,15.76s-6.15,15.77-16,15.77C613.24,45.25,607.16,39.35,607.16,29.48Zm10.88,0c0,3.73,1.79,6.15,5.18,6.15s5.19-2.42,5.19-6.15-1.79-6.2-5.19-6.2S618,25.76,618,29.48Z"/><path class="cls-1" d="M637.82,5.71,645.24,0c8.83,8.19,11.07,18.87,11.07,28.55s-2.24,20.36-11.07,28.56l-7.42-5.71c6.14-7.39,7.36-14.78,7.36-22.85S644,13.1,637.82,5.71Z"/></g></g></svg>