<svg xmlns="http://www.w3.org/2000/svg" xmlns:xlink="http://www.w3.org/1999/xlink" viewBox="0 0 651.86 526.86"><defs><style>.cls-1,.cls-13,.cls-15{fill:none;}.cls-2,.cls-24,.cls-26,.cls-27,.cls-6{fill:#d5dd72;}.cls-13,.cls-15,.cls-16,.cls-17,.cls-18,.cls-19,.cls-2,.cls-21,.cls-22,.cls-23,.cls-24,.cls-26,.cls-27,.cls-3{stroke:#000;stroke-miterlimit:10;}.cls-13,.cls-16,.cls-19,.cls-2,.cls-21,.cls-24{stroke-width:2.37px;}.cls-19,.cls-21,.cls-22,.cls-23,.cls-3{fill:#fff;}.cls-3{stroke-width:1.86px;}.cls-4{fill:#f29a68;}.cls-5{fill:#7196cc;}.cls-7{fill:#ef6078;}.cls-8{fill:#d7cae5;}.cls-9{fill:#efc5af;}.cls-10{fill:#f45a0c;}.cls-11{fill:#f28251;}.cls-12,.cls-16,.cls-17,.cls-18{fill:#ffeee6;}.cls-14{clip-path:url(#clip-path);}.cls-15{stroke-width:2.01px;}.cls-17,.cls-22,.cls-26{stroke-width:1.82px;}.cls-18,.cls-23,.cls-27{stroke-width:2.97px;}.cls-19,.cls-24{stroke-linecap:square;}.cls-20{clip-path:url(#clip-path-2);}.cls-25{clip-path:url(#clip-path-3);}.cls-28{clip-path:url(#clip-path-4);}</style><clipPath id="clip-path"><circle class="cls-1" cx="510.04" cy="173.13" r="76.74"/></clipPath><clipPath id="clip-path-2"><circle class="cls-2" cx="285.1" cy="173.13" r="76.74"/></clipPath><clipPath id="clip-path-3"><circle class="cls-1" cx="284.91" cy="411.21" r="76.74"/></clipPath><clipPath id="clip-path-4"><circle class="cls-1" cx="509.53" cy="410.08" r="76.74"/></clipPath></defs><g id="Layer_2" data-name="Layer 2"><g id="Layer_1-2" data-name="Layer 1"><rect class="cls-3" x="0.93" y="0.93" width="650" height="525"/><circle class="cls-4" cx="87.2" cy="448.85" r="40.38"/><circle class="cls-5" cx="87.2" cy="264.24" r="40.38"/><circle class="cls-6" cx="87.2" cy="79.62" r="40.38"/><circle class="cls-7" cx="87.2" cy="356.54" r="40.38"/><circle class="cls-8" cx="87.2" cy="171.93" r="40.38"/><path class="cls-9" d="M584.94,182a75.57,75.57,0,0,1-3.79,16.66q-8.77,2.26-17.53,4a136.88,136.88,0,0,0,2.85-19.32C572.62,182.9,578.79,182.46,584.94,182Z"/><path class="cls-10" d="M563.62,202.6A149.53,149.53,0,0,1,558,221.75a147.62,147.62,0,0,1-19.16,5.64q2.11-10.72,3.36-21.43Q552.91,204.7,563.62,202.6Z"/><path class="cls-10" d="M584.94,165.29c-6.15-.51-12.32-.95-18.47-1.33a136.88,136.88,0,0,0-2.85-19.32q8.76,1.73,17.53,4A75.31,75.31,0,0,1,584.94,165.29Z"/><path class="cls-9" d="M542.18,206q-1.26,10.71-3.36,21.43a135.33,135.33,0,0,1-19.31,2.86q.69-11.31,1.11-22.6Q531.41,207.23,542.18,206Z"/><path class="cls-9" d="M468,110.78q-3.52,7.36-6.23,14.71-7.35,2.71-14.71,6.24A76.07,76.07,0,0,1,468,110.78Z"/><path class="cls-10" d="M501.51,98.53q-.75,9.24-1.32,18.47a134,134,0,0,0-19.32,2.85q1.72-8.76,4-17.52A75,75,0,0,1,501.51,98.53Z"/><path class="cls-11" d="M461.72,125.49q-7.35,2.71-14.71,6.24a75.29,75.29,0,0,0-8.46,16.9q8.76-2.28,17.53-4A147.62,147.62,0,0,1,461.72,125.49Z"/><path class="cls-10" d="M480.87,227.39a147.48,147.48,0,0,1-19.15-5.64,147.94,147.94,0,0,1-5.64-19.15q10.71,2.1,21.43,3.36Q478.77,216.67,480.87,227.39Z"/><path class="cls-10" d="M572.69,131.73q-7.35-3.53-14.71-6.24-2.7-7.35-6.24-14.71A76.24,76.24,0,0,1,572.69,131.73Z"/><path class="cls-9" d="M538.82,119.85A133.9,133.9,0,0,0,519.51,117q-.57-9.24-1.33-18.47a75.24,75.24,0,0,1,16.67,3.8Q537.12,111.09,538.82,119.85Z"/><path class="cls-10" d="M499.07,207.65q-10.77-.42-21.56-1.69-1.26-10.78-1.68-21.56,11.32.42,22.68.57Q498.65,196.31,499.07,207.65Z"/><path class="cls-10" d="M498.51,185q-11.36-.15-22.68-.57-.43-10.78,0-21.55,11.32-.43,22.68-.57Q498.36,173.62,498.51,185Z"/><path class="cls-11" d="M543.88,184.4q-.43,10.77-1.7,21.56-10.77,1.26-21.56,1.69.42-11.34.57-22.68Q532.53,184.82,543.88,184.4Z"/><path class="cls-10" d="M521.19,185q-11.34.14-22.68,0-.15-11.35,0-22.69,11.34-.15,22.68,0Q521.32,173.62,521.19,185Z"/><path class="cls-10" d="M543.88,184.4q-11.36.42-22.69.57.13-11.35,0-22.69,11.34.14,22.69.57Q544.29,173.62,543.88,184.4Z"/><path class="cls-11" d="M521.19,162.28q-11.34-.15-22.68,0,.14-11.34.56-22.68,10.79-.43,21.55,0Q521,150.94,521.19,162.28Z"/><path class="cls-11" d="M542.18,141.29q-10.77-1.28-21.56-1.69-.4-11.31-1.11-22.6a133.9,133.9,0,0,1,19.31,2.85Q540.93,130.57,542.18,141.29Z"/><path class="cls-11" d="M500.19,117q-.7,11.3-1.12,22.6-10.77.42-21.56,1.69,1.26-10.72,3.36-21.44A134,134,0,0,1,500.19,117Z"/><path class="cls-10" d="M477.51,141.29q-1.26,10.77-1.68,21.56-11.31.42-22.6,1.11a134,134,0,0,1,2.85-19.32Q466.79,142.56,477.51,141.29Z"/><path class="cls-10" d="M480.87,119.85q-2.08,10.72-3.36,21.44-10.71,1.26-21.43,3.35a147.94,147.94,0,0,1,5.64-19.15A149.06,149.06,0,0,1,480.87,119.85Z"/><path class="cls-10" d="M456.08,144.65q-8.76,1.71-17.53,4a74.33,74.33,0,0,0-3.79,16.66q9.23-.76,18.47-1.33A133.69,133.69,0,0,1,456.08,144.65Z"/><path class="cls-9" d="M477.51,206q-10.71-1.26-21.43-3.36a134,134,0,0,1-2.85-19.32q11.29.71,22.6,1.12Q476.24,195.17,477.51,206Z"/><path class="cls-9" d="M566.47,164q-11.29-.69-22.59-1.11-.43-10.78-1.7-21.56,10.73,1.26,21.44,3.35A136.88,136.88,0,0,1,566.47,164Z"/><path class="cls-10" d="M563.62,144.64q-10.73-2.08-21.44-3.35-1.26-10.72-3.36-21.44A149.2,149.2,0,0,1,558,125.49,149.53,149.53,0,0,1,563.62,144.64Z"/><path class="cls-11" d="M566.47,183.28q-11.29.71-22.59,1.12.4-10.78,0-21.55,11.29.42,22.59,1.11A129.79,129.79,0,0,1,566.47,183.28Z"/><path class="cls-9" d="M520.62,139.6q-10.77-.43-21.55,0,.42-11.31,1.12-22.6a129.78,129.78,0,0,1,19.32,0Q520.2,128.3,520.62,139.6Z"/><path class="cls-11" d="M558,221.75q-2.7,7.35-6.24,14.72a75.39,75.39,0,0,1-16.89,8.45q2.26-8.78,4-17.53A147.62,147.62,0,0,0,558,221.75Z"/><path class="cls-11" d="M581.15,198.62a75.43,75.43,0,0,1-8.46,16.89q-7.35,3.54-14.71,6.24a149.53,149.53,0,0,0,5.64-19.15Q572.38,200.89,581.15,198.62Z"/><path class="cls-10" d="M519.51,230.24q-.57,9.24-1.33,18.47a74.21,74.21,0,0,0,16.66-3.79q2.28-8.76,4-17.53A133.69,133.69,0,0,1,519.51,230.24Z"/><path class="cls-11" d="M453.23,183.28q-9.24-.57-18.47-1.32a75.74,75.74,0,0,1,0-16.67q9.24-.76,18.47-1.33A129.78,129.78,0,0,0,453.23,183.28Z"/><path class="cls-11" d="M456.08,202.6q-8.76-1.71-17.53-4a75.71,75.71,0,0,0,8.46,16.9q7.35,3.53,14.71,6.23A147.48,147.48,0,0,1,456.08,202.6Z"/><path class="cls-10" d="M453.23,183.28q-9.24-.57-18.47-1.32a74.46,74.46,0,0,0,3.79,16.66q8.76,2.26,17.53,4A134,134,0,0,1,453.23,183.28Z"/><path class="cls-10" d="M447,215.52A75.89,75.89,0,0,0,468,236.46q-3.52-7.35-6.23-14.71Q454.37,219.05,447,215.52Z"/><path class="cls-10" d="M519.51,230.25q-.57,9.23-1.33,18.46a74.14,74.14,0,0,1-16.67,0q-.75-9.22-1.32-18.46A132.54,132.54,0,0,0,519.51,230.25Z"/><path class="cls-9" d="M501.51,248.71a75,75,0,0,1-16.66-3.79q-2.27-8.78-4-17.53a135.47,135.47,0,0,0,19.32,2.86Q500.76,239.48,501.51,248.71Z"/><path class="cls-11" d="M461.72,221.75q2.7,7.35,6.23,14.71a75.71,75.71,0,0,0,16.9,8.46q-2.27-8.76-4-17.53A147.94,147.94,0,0,1,461.72,221.75Z"/><path class="cls-10" d="M572.69,215.51a76.27,76.27,0,0,1-21,21q3.54-7.36,6.24-14.72Q565.33,219.05,572.69,215.51Z"/><path class="cls-10" d="M558,125.49a149.2,149.2,0,0,0-19.16-5.64q-1.71-8.76-4-17.52a75,75,0,0,1,16.89,8.45Q555.28,118.15,558,125.49Z"/><path class="cls-11" d="M581.15,148.63q-8.77-2.28-17.53-4A149.53,149.53,0,0,0,558,125.49q7.35,2.71,14.71,6.24A75.29,75.29,0,0,1,581.15,148.63Z"/><path class="cls-10" d="M543.88,162.85q-11.36-.43-22.69-.57-.13-11.34-.57-22.68,10.78.42,21.56,1.69Q543.45,152.06,543.88,162.85Z"/><path class="cls-10" d="M585.4,173.62a76.57,76.57,0,0,1-.46,8.34c-6.15.5-12.32.94-18.47,1.32a129.79,129.79,0,0,0,0-19.32c6.15.38,12.32.82,18.47,1.33A76.24,76.24,0,0,1,585.4,173.62Z"/><path class="cls-10" d="M566.47,183.28a136.88,136.88,0,0,1-2.85,19.32q-10.73,2.1-21.44,3.36,1.27-10.78,1.7-21.56Q555.17,184,566.47,183.28Z"/><path class="cls-11" d="M500.19,230.25a135.47,135.47,0,0,1-19.32-2.86q-2.08-10.72-3.36-21.43,10.78,1.26,21.56,1.69Q499.49,218.95,500.19,230.25Z"/><path class="cls-10" d="M520.62,207.65q-.4,11.29-1.11,22.6a132.54,132.54,0,0,1-19.32,0q-.7-11.31-1.12-22.6Q509.86,208.07,520.62,207.65Z"/><path class="cls-9" d="M521.19,185q-.13,11.34-.57,22.68-10.77.42-21.55,0-.42-11.34-.56-22.68Q509.85,185.11,521.19,185Z"/><path class="cls-10" d="M475.83,184.4q-11.31-.42-22.6-1.12a129.78,129.78,0,0,1,0-19.32q11.29-.69,22.6-1.11Q475.4,173.62,475.83,184.4Z"/><path class="cls-9" d="M499.07,139.6q-.42,11.34-.56,22.68-11.36.14-22.68.57.41-10.78,1.68-21.56Q488.29,140,499.07,139.6Z"/><path class="cls-10" d="M519.51,117a129.78,129.78,0,0,0-19.32,0q.57-9.24,1.32-18.47a75.74,75.74,0,0,1,16.67,0Q518.95,107.77,519.51,117Z"/><path class="cls-12" d="M484.85,102.33q-2.27,8.76-4,17.52a149.06,149.06,0,0,0-19.15,5.64q2.7-7.35,6.23-14.71A75.25,75.25,0,0,1,484.85,102.33Z"/><circle class="cls-13" cx="510.04" cy="173.13" r="76.74"/><g class="cls-14"><path class="cls-15" d="M565.16,118c-37.87-32.41-72.44-32.35-110.24,0M565.16,228.25c32.35-37.81,32.41-72.38,0-110.25M454.92,228.25c37.8,32.35,72.37,32.41,110.24,0M454.92,118c-32.41,37.87-32.35,72.44,0,110.25m123-15.75c-46.35,23.18-89.43,23.19-135.8,0m135.8-78.75c-46.35-23.18-89.43-23.19-135.8,0M586.46,149.5c-51.7-13.88-101.17-13.87-152.84,0m157.1,15.75a951.28,951.28,0,0,0-161.36,0M590.72,181a951.28,951.28,0,0,1-161.36,0m157.1,15.75c-51.7,13.88-101.17,13.87-152.84,0m131.54,31.5c32.35-37.81,32.41-72.38,0-110.25m-110.24,0c-32.41,37.87-32.35,72.44,0,110.25M470.67,241c-23.19-46.37-23.19-89.45,0-135.81M549.41,241c23.2-46.37,23.19-89.45,0-135.81M533.66,249.55c13.88-51.68,13.88-101.14,0-152.85M517.92,253.81a953.47,953.47,0,0,0,0-161.37M502.17,253.81a951.4,951.4,0,0,1,0-161.37M486.42,249.55c-13.87-51.68-13.88-101.14,0-152.85"/></g><rect class="cls-13" x="504.76" y="69.44" width="10.55" height="17.59" rx="5.23"/><rect class="cls-13" x="504.76" y="44.54" width="10.55" height="17.59" rx="5.23"/><line class="cls-13" x1="510.04" y1="57.07" x2="510.04" y2="74.66"/><line class="cls-13" x1="510.04" y1="82.23" x2="510.04" y2="95.47"/><line class="cls-13" x1="510.04" y1="36.21" x2="510.04" y2="49.44"/><path class="cls-16" d="M468.54,105.76a159.79,159.79,0,0,0-8.16,18.33,163,163,0,0,0-18.49,8.09,148,148,0,0,1,11.79-14.73A150.3,150.3,0,0,1,468.54,105.76Z"/><path class="cls-16" d="M479.23,118.07q-2.1,10.71-3.36,21.43-10.69,1.25-21.42,3.35c1.41-6.38,3.88-12.16,6.23-18.55C467.06,122,472.85,119.47,479.23,118.07Z"/><path class="cls-16" d="M468.21,240.49a143.7,143.7,0,0,1-14.4-11.33,143.88,143.88,0,0,1-11.43-14.26,160,160,0,0,0,17.92,7.83A155.1,155.1,0,0,0,468.21,240.49Z"/><path class="cls-16" d="M500.48,94.49q-1.05,10.42-1.79,20.86a153.62,153.62,0,0,0-19.31,2.48q2.19-9.76,5.31-19.53A71.14,71.14,0,0,1,500.48,94.49Z"/><path class="cls-16" d="M578.13,131.47a160.72,160.72,0,0,0-18.22-7.94,159.31,159.31,0,0,0-8-18A146.75,146.75,0,0,1,566.51,117,145.61,145.61,0,0,1,578.13,131.47Z"/><path class="cls-16" d="M584.43,198.47a92.87,92.87,0,0,1-7.75,15.95,141.7,141.7,0,0,1-17,8.51,169.58,169.58,0,0,0,5.49-19.48C571.78,202,577.84,200.55,584.43,198.47Z"/><path class="cls-17" d="M519.71,231.57q-.74,9.87-1.79,19.75a70.78,70.78,0,0,1-15.76,0q-1.05-9.87-1.79-19.75A156,156,0,0,0,519.71,231.57Z"/><path class="cls-16" d="M543.91,207.29q-1.24,10.71-3.35,21.43h0a133.56,133.56,0,0,1-19.3,2.85q.69-11.3,1.12-22.59Q533.14,208.56,543.91,207.29Z"/><path class="cls-16" d="M568.2,184.62a126.93,126.93,0,0,1-3,18.83c-7.14,1.4-14.13,3-21.28,3.84q1.27-10.78,1.7-21.56Q556.91,185.33,568.2,184.62Z"/><path class="cls-16" d="M545.61,183.91c-7.57.29-15.12.47-22.69.56q.15-11.34,0-22.69c7.57.09,15.12.27,22.69.55Q546,173.13,545.61,183.91Z"/><path class="cls-16" d="M540.81,118.07h0a153.59,153.59,0,0,0-19.31-2.47q-.74-10.35-1.79-20.7a70.82,70.82,0,0,1,15.79,3.77Q538.62,108.38,540.81,118.07Z"/><path class="cls-16" d="M475.94,139.5q-1.28,10.77-1.69,21.54-11.29.42-22.59,1.12a135.54,135.54,0,0,1,2.86-19.31Q465.25,140.75,475.94,139.5Z"/><path class="cls-16" d="M588.73,173.13a70.4,70.4,0,0,1-.44,7.88q-9.87,1.05-19.72,1.79a160.16,160.16,0,0,0,0-19.35q9.85.75,19.72,1.8A70.27,70.27,0,0,1,588.73,173.13Z"/><path class="cls-16" d="M497.71,209q-10.77-.42-21.54-1.7h0q-1.28-10.77-1.69-21.55,11.34.44,22.69.56C497.25,193.87,497.43,201.42,497.71,209Z"/><path class="cls-16" d="M451.65,181.51q-10.09-.75-20.21-1.8a67.72,67.72,0,0,1,0-15.76q10.11-1,20.22-1.79A158.13,158.13,0,0,0,451.65,181.51Z"/><path class="cls-16" d="M560.17,222.3a145.59,145.59,0,0,1-8.51,17.31,91.74,91.74,0,0,1-15.95,7.9q3.12-10.08,5.32-20.15A159.13,159.13,0,0,0,560.17,222.3Z"/><path class="cls-16" d="M479.38,228.21a145.8,145.8,0,0,1-19.14-5.64,145.8,145.8,0,0,1-5.64-19.14c7.15,1.4,14.27,2.52,21.42,3.35h0Q477.28,217.51,479.38,228.21Z"/><path class="cls-16" d="M565.6,142.85q-10.73-2.1-21.43-3.35-1.26-10.71-3.36-21.43A147.42,147.42,0,0,1,560,123.7,147.94,147.94,0,0,1,565.6,142.85Z"/><path class="cls-18" d="M520.83,136.91q.42,11.35.56,22.69-11.35-.14-22.7,0,.15-11.34.56-22.69"/><path class="cls-19" d="M499,136.91c7.19-.27,15-.27,22.16,0"/><path class="cls-6" d="M360,180.49a75.44,75.44,0,0,1-3.79,16.66q-8.77,2.28-17.53,4a136.88,136.88,0,0,0,2.85-19.32C347.68,181.43,353.85,181,360,180.49Z"/><path class="cls-6" d="M338.68,201.13A147,147,0,0,1,333,220.28a147.94,147.94,0,0,1-19.15,5.64q2.1-10.71,3.36-21.43Q328,203.23,338.68,201.13Z"/><path class="cls-6" d="M360,163.82c-6.15-.5-12.32-.95-18.47-1.33a137,137,0,0,0-2.85-19.31q8.76,1.71,17.53,4A75.57,75.57,0,0,1,360,163.82Z"/><path class="cls-6" d="M317.25,204.49q-1.28,10.72-3.36,21.43a135.68,135.68,0,0,1-19.32,2.86q.69-11.29,1.12-22.6Q306.46,205.76,317.25,204.49Z"/><path class="cls-6" d="M243,109.31q-3.54,7.36-6.24,14.72-7.35,2.7-14.71,6.23A76.1,76.1,0,0,1,243,109.31Z"/><path class="cls-6" d="M276.57,97.07q-.75,9.23-1.32,18.46a135.47,135.47,0,0,0-19.32,2.86q1.72-8.76,4-17.53A74.25,74.25,0,0,1,276.57,97.07Z"/><path class="cls-6" d="M236.78,124q-7.35,2.7-14.71,6.23a75.29,75.29,0,0,0-8.46,16.9q8.77-2.28,17.53-4A147.48,147.48,0,0,1,236.78,124Z"/><path class="cls-6" d="M255.93,225.92a147.48,147.48,0,0,1-19.15-5.64,147,147,0,0,1-5.64-19.15q10.71,2.1,21.43,3.36Q253.84,215.21,255.93,225.92Z"/><path class="cls-6" d="M347.75,130.26Q340.4,126.74,333,124q-2.7-7.36-6.24-14.72A76.24,76.24,0,0,1,347.75,130.26Z"/><path class="cls-6" d="M313.89,118.39a135.68,135.68,0,0,0-19.32-2.86q-.57-9.23-1.32-18.46a74.46,74.46,0,0,1,16.66,3.79Q312.18,109.62,313.89,118.39Z"/><path class="cls-6" d="M274.13,206.18q-10.77-.42-21.56-1.69-1.26-10.78-1.68-21.56,11.33.42,22.68.57Q273.71,194.84,274.13,206.18Z"/><path class="cls-6" d="M273.57,183.5q-11.34-.15-22.68-.57-.44-10.77,0-21.55,11.33-.42,22.68-.57Q273.42,172.15,273.57,183.5Z"/><path class="cls-6" d="M318.94,182.93q-.44,10.78-1.69,21.56-10.78,1.27-21.56,1.69.4-11.34.57-22.68Q307.59,183.35,318.94,182.93Z"/><path class="cls-6" d="M296.26,183.5q-11.36.13-22.69,0-.15-11.34,0-22.69,11.34-.13,22.69,0Q296.38,172.15,296.26,183.5Z"/><path class="cls-6" d="M318.94,182.93q-11.35.42-22.68.57.12-11.34,0-22.69,11.33.15,22.68.57Q319.36,172.15,318.94,182.93Z"/><path class="cls-6" d="M296.26,160.81q-11.36-.13-22.69,0,.14-11.34.56-22.68,10.78-.42,21.56,0Q296.09,149.47,296.26,160.81Z"/><path class="cls-6" d="M317.25,139.82q-10.78-1.27-21.56-1.69-.42-11.3-1.12-22.6a135.68,135.68,0,0,1,19.32,2.86Q316,129.1,317.25,139.82Z"/><path class="cls-6" d="M275.25,115.53q-.69,11.31-1.12,22.6-10.77.42-21.56,1.69,1.27-10.71,3.36-21.43A135.47,135.47,0,0,1,275.25,115.53Z"/><path class="cls-6" d="M252.57,139.82q-1.26,10.77-1.68,21.56-11.31.42-22.6,1.11a134.1,134.1,0,0,1,2.85-19.31Q241.85,141.08,252.57,139.82Z"/><path class="cls-6" d="M255.93,118.39q-2.09,10.71-3.36,21.43-10.71,1.26-21.43,3.36A147.48,147.48,0,0,1,236.78,124,147.48,147.48,0,0,1,255.93,118.39Z"/><path class="cls-6" d="M231.14,143.18q-8.76,1.71-17.53,4a75,75,0,0,0-3.79,16.66q9.23-.75,18.47-1.33A134.1,134.1,0,0,1,231.14,143.18Z"/><path class="cls-6" d="M252.57,204.49q-10.71-1.26-21.43-3.36a134,134,0,0,1-2.85-19.32q11.29.7,22.6,1.12Q251.31,193.72,252.57,204.49Z"/><path class="cls-6" d="M341.53,162.49q-11.29-.69-22.59-1.11-.44-10.78-1.69-21.56,10.71,1.26,21.43,3.36A137,137,0,0,1,341.53,162.49Z"/><path class="cls-6" d="M338.68,143.18q-10.73-2.1-21.43-3.36-1.28-10.71-3.36-21.43A147.94,147.94,0,0,1,333,124,147.48,147.48,0,0,1,338.68,143.18Z"/><path class="cls-6" d="M341.53,181.81q-11.29.7-22.59,1.12.42-10.77,0-21.55,11.3.42,22.59,1.11A129.79,129.79,0,0,1,341.53,181.81Z"/><path class="cls-6" d="M295.69,138.13q-10.79-.42-21.56,0,.42-11.3,1.12-22.6a132.54,132.54,0,0,1,19.32,0Q295.26,126.84,295.69,138.13Z"/><path class="cls-6" d="M333,220.28q-2.7,7.36-6.24,14.72a75.39,75.39,0,0,1-16.89,8.45q2.26-8.76,4-17.53A147.94,147.94,0,0,0,333,220.28Z"/><path class="cls-6" d="M356.21,197.15a75.5,75.5,0,0,1-8.46,16.9q-7.35,3.52-14.71,6.23a147,147,0,0,0,5.64-19.15Q347.44,199.42,356.21,197.15Z"/><path class="cls-6" d="M294.57,228.78q-.57,9.22-1.33,18.47a75,75,0,0,0,16.67-3.8q2.26-8.76,4-17.52A136.88,136.88,0,0,1,294.57,228.78Z"/><path class="cls-6" d="M228.29,181.81q-9.24-.57-18.47-1.32a75.74,75.74,0,0,1,0-16.67q9.24-.75,18.47-1.33A129.78,129.78,0,0,0,228.29,181.81Z"/><path class="cls-6" d="M231.14,201.13q-8.76-1.71-17.53-4a75.29,75.29,0,0,0,8.46,16.9q7.35,3.52,14.71,6.23A147,147,0,0,1,231.14,201.13Z"/><path class="cls-6" d="M228.29,181.82q-9.24-.57-18.47-1.33a75,75,0,0,0,3.79,16.66q8.77,2.28,17.53,4A134.1,134.1,0,0,1,228.29,181.82Z"/><path class="cls-6" d="M222.07,214.05A76.24,76.24,0,0,0,243,235q-3.54-7.37-6.24-14.72Q229.43,217.58,222.07,214.05Z"/><path class="cls-6" d="M294.57,228.78q-.57,9.22-1.32,18.47a75.83,75.83,0,0,1-16.68,0q-.75-9.24-1.32-18.47A132.54,132.54,0,0,0,294.57,228.78Z"/><path class="cls-6" d="M276.57,247.25a74.81,74.81,0,0,1-16.65-3.8q-2.28-8.76-4-17.53a135.47,135.47,0,0,0,19.32,2.86Q275.82,238,276.57,247.25Z"/><path class="cls-6" d="M236.78,220.28q2.7,7.36,6.24,14.72a75.39,75.39,0,0,0,16.89,8.45q-2.27-8.76-4-17.52A149.6,149.6,0,0,1,236.78,220.28Z"/><path class="cls-6" d="M347.75,214.05A76.24,76.24,0,0,1,326.8,235q3.54-7.37,6.24-14.72Q340.39,217.58,347.75,214.05Z"/><path class="cls-6" d="M333,124a147.94,147.94,0,0,0-19.15-5.64q-1.71-8.76-4-17.53a75.39,75.39,0,0,1,16.89,8.45Q330.34,116.68,333,124Z"/><path class="cls-6" d="M356.21,147.16q-8.77-2.26-17.53-4A147.48,147.48,0,0,0,333,124q7.35,2.7,14.71,6.23A75.71,75.71,0,0,1,356.21,147.16Z"/><path class="cls-6" d="M318.94,161.38q-11.35-.42-22.68-.57-.15-11.34-.57-22.68,10.77.42,21.56,1.69Q318.51,150.59,318.94,161.38Z"/><path class="cls-6" d="M360.46,172.16a76.38,76.38,0,0,1-.46,8.33c-6.15.5-12.32.94-18.47,1.32a129.79,129.79,0,0,0,0-19.32c6.15.38,12.32.83,18.47,1.33A76.57,76.57,0,0,1,360.46,172.16Z"/><path class="cls-6" d="M341.53,181.81a136.88,136.88,0,0,1-2.85,19.32q-10.73,2.1-21.43,3.36,1.26-10.78,1.69-21.56Q330.24,182.51,341.53,181.81Z"/><path class="cls-6" d="M275.25,228.78a135.47,135.47,0,0,1-19.32-2.86q-2.09-10.71-3.36-21.43,10.79,1.27,21.56,1.69Q274.55,217.48,275.25,228.78Z"/><path class="cls-6" d="M295.69,206.18q-.42,11.3-1.12,22.6a132.54,132.54,0,0,1-19.32,0q-.69-11.29-1.12-22.6Q284.91,206.62,295.69,206.18Z"/><path class="cls-6" d="M296.26,183.5q-.15,11.34-.57,22.68-10.79.44-21.56,0-.42-11.34-.56-22.68Q284.91,183.64,296.26,183.5Z"/><path class="cls-6" d="M250.89,182.93q-11.31-.42-22.6-1.12a129.78,129.78,0,0,1,0-19.32q11.29-.69,22.6-1.11Q250.46,172.15,250.89,182.93Z"/><path class="cls-6" d="M274.13,138.13q-.42,11.34-.56,22.68-11.34.15-22.68.57.42-10.78,1.68-21.56Q263.36,138.55,274.13,138.13Z"/><path class="cls-6" d="M294.57,115.53a132.54,132.54,0,0,0-19.32,0q.57-9.23,1.32-18.46a74.23,74.23,0,0,1,16.68,0Q294,106.3,294.57,115.53Z"/><path class="cls-6" d="M259.92,100.86q-2.28,8.76-4,17.53A147.48,147.48,0,0,0,236.78,124q2.7-7.36,6.24-14.72A75.25,75.25,0,0,1,259.92,100.86Z"/><circle class="cls-2" cx="285.1" cy="173.13" r="76.74"/><circle class="cls-6" cx="285.1" cy="173.13" r="76.74"/><g class="cls-20"><path class="cls-15" d="M340.22,118C302.35,85.59,267.78,85.65,230,118M340.22,228.25c32.36-37.81,32.41-72.38,0-110.25M230,228.25c37.8,32.35,72.37,32.41,110.24,0M230,118c-32.41,37.87-32.35,72.44,0,110.25M353,212.5c-46.35,23.18-89.43,23.19-135.8,0M353,133.75c-46.35-23.18-89.43-23.19-135.8,0M361.52,149.5c-51.7-13.88-101.17-13.87-152.84,0m157.1,15.75a951.28,951.28,0,0,0-161.36,0M365.78,181a951.28,951.28,0,0,1-161.36,0m157.1,15.75c-51.7,13.88-101.17,13.87-152.84,0m131.54,31.5c32.36-37.81,32.41-72.38,0-110.25M230,118c-32.41,37.87-32.35,72.44,0,110.25M245.73,241c-23.19-46.37-23.19-89.45,0-135.81M324.47,241c23.2-46.37,23.19-89.45,0-135.81M308.72,249.55c13.88-51.68,13.88-101.14,0-152.85M293,253.81a952.43,952.43,0,0,0,0-161.37M277.23,253.81a951.4,951.4,0,0,1,0-161.37M261.48,249.55c-13.87-51.68-13.88-101.14,0-152.85"/></g><circle class="cls-13" cx="285.1" cy="173.13" r="76.74"/><rect class="cls-13" x="279.83" y="69.44" width="10.55" height="17.59" rx="5.23"/><path class="cls-21" d="M243.6,105.76a159.79,159.79,0,0,0-8.16,18.33A163,163,0,0,0,217,132.18a148,148,0,0,1,11.79-14.73A150.3,150.3,0,0,1,243.6,105.76Z"/><rect class="cls-13" x="279.83" y="44.54" width="10.55" height="17.59" rx="5.23"/><line class="cls-13" x1="285.1" y1="57.07" x2="285.1" y2="74.66"/><line class="cls-13" x1="285.1" y1="82.23" x2="285.1" y2="95.47"/><path class="cls-21" d="M254.3,118.07q-2.12,10.71-3.36,21.43-10.71,1.25-21.43,3.35c1.41-6.38,3.88-12.16,6.23-18.55C242.12,122,247.91,119.47,254.3,118.07Z"/><line class="cls-13" x1="285.1" y1="36.21" x2="285.1" y2="49.44"/><path class="cls-21" d="M243.27,240.49a146,146,0,0,1-14.4-11.33,143.88,143.88,0,0,1-11.43-14.26,160.83,160.83,0,0,0,17.92,7.83A155.1,155.1,0,0,0,243.27,240.49Z"/><path class="cls-21" d="M275.54,94.49q-1.05,10.42-1.79,20.86a153.62,153.62,0,0,0-19.31,2.48q2.19-9.76,5.32-19.53A70.92,70.92,0,0,1,275.54,94.49Z"/><path class="cls-21" d="M353.19,131.47A160.72,160.72,0,0,0,335,123.53a157.54,157.54,0,0,0-8-18A146.75,146.75,0,0,1,341.57,117,145.61,145.61,0,0,1,353.19,131.47Z"/><path class="cls-21" d="M359.49,198.47a92.87,92.87,0,0,1-7.75,15.95,142.33,142.33,0,0,1-17,8.51,171.56,171.56,0,0,0,5.48-19.48C346.84,202,352.9,200.55,359.49,198.47Z"/><path class="cls-22" d="M294.77,231.57q-.74,9.87-1.79,19.75a70.78,70.78,0,0,1-15.76,0q-1.05-9.87-1.79-19.75A156,156,0,0,0,294.77,231.57Z"/><path class="cls-21" d="M319,207.29q-1.26,10.71-3.36,21.43h0a133.9,133.9,0,0,1-19.31,2.85q.69-11.3,1.12-22.59Q308.2,208.56,319,207.29Z"/><path class="cls-21" d="M343.27,184.62a128.28,128.28,0,0,1-3,18.83c-7.14,1.4-14.13,3-21.27,3.84q1.26-10.78,1.69-21.56Q332,185.33,343.27,184.62Z"/><path class="cls-21" d="M320.67,183.91q-11.35.43-22.68.56.13-11.34,0-22.69,11.34.14,22.68.55Q321.09,173.13,320.67,183.91Z"/><path class="cls-21" d="M315.87,118.07h0a153.59,153.59,0,0,0-19.31-2.47q-.74-10.35-1.79-20.7a70.82,70.82,0,0,1,15.79,3.77Q313.68,108.38,315.87,118.07Z"/><path class="cls-21" d="M251,139.5q-1.27,10.77-1.69,21.54-11.3.42-22.58,1.12a134.1,134.1,0,0,1,2.85-19.31Q240.3,140.75,251,139.5Z"/><path class="cls-21" d="M363.79,173.13a70.4,70.4,0,0,1-.44,7.88q-9.87,1.05-19.72,1.79a160.16,160.16,0,0,0,0-19.35q9.86.75,19.72,1.8A70.27,70.27,0,0,1,363.79,173.13Z"/><path class="cls-21" d="M272.77,209q-10.77-.42-21.54-1.7h0q-1.28-10.77-1.69-21.55,11.34.44,22.69.56C272.31,193.87,272.5,201.42,272.77,209Z"/><path class="cls-21" d="M226.72,181.51q-10.11-.75-20.22-1.8a67.72,67.72,0,0,1,0-15.76q10.11-1,20.23-1.79A154.24,154.24,0,0,0,226.72,181.51Z"/><path class="cls-21" d="M335.23,222.3a145.59,145.59,0,0,1-8.51,17.31,91.65,91.65,0,0,1-15.94,7.9q3.11-10.08,5.31-20.15A159.13,159.13,0,0,0,335.23,222.3Z"/><path class="cls-21" d="M254.44,228.21a145.8,145.8,0,0,1-19.14-5.64,145.8,145.8,0,0,1-5.64-19.14q10.72,2.1,21.42,3.35h0Q252.35,217.51,254.44,228.21Z"/><path class="cls-21" d="M340.66,142.85q-10.73-2.1-21.43-3.35-1.26-10.71-3.36-21.43A147,147,0,0,1,335,123.7,147.94,147.94,0,0,1,340.66,142.85Z"/><path class="cls-23" d="M295.89,136.91q.42,11.35.56,22.69-11.35-.14-22.7,0,.15-11.34.56-22.69"/><path class="cls-24" d="M274,136.91c7.19-.27,15-.27,22.16,0"/><path class="cls-4" d="M359.62,419.38a75.11,75.11,0,0,1-3.8,16.67q-8.76,2.26-17.53,4a133.69,133.69,0,0,0,2.85-19.31Q350.38,420.14,359.62,419.38Z"/><path class="cls-7" d="M338.29,440a149.14,149.14,0,0,1-5.63,19.16,149.67,149.67,0,0,1-19.16,5.64q2.1-10.72,3.36-21.44Q327.57,442.14,338.29,440Z"/><path class="cls-7" d="M359.62,402.72q-9.24-.77-18.48-1.33a134,134,0,0,0-2.85-19.32q8.77,1.73,17.53,4A75,75,0,0,1,359.62,402.72Z"/><path class="cls-4" d="M316.86,443.38q-1.26,10.72-3.36,21.44a134,134,0,0,1-19.32,2.85q.7-11.3,1.12-22.59Q306.09,444.66,316.86,443.38Z"/><path class="cls-4" d="M242.63,348.21q-3.52,7.35-6.23,14.71-7.36,2.71-14.72,6.23A76.07,76.07,0,0,1,242.63,348.21Z"/><path class="cls-8" d="M276.19,336q-.75,9.24-1.33,18.47a134.1,134.1,0,0,0-19.31,2.85q1.71-8.76,4-17.53A74.46,74.46,0,0,1,276.19,336Z"/><path class="cls-5" d="M236.4,362.92q-7.36,2.7-14.72,6.24a75.39,75.39,0,0,0-8.45,16.89q8.76-2.26,17.52-4A149.6,149.6,0,0,1,236.4,362.92Z"/><path class="cls-8" d="M255.55,464.82a149.06,149.06,0,0,1-19.15-5.64A147.68,147.68,0,0,1,230.75,440q10.73,2.1,21.44,3.36Q253.45,454.1,255.55,464.82Z"/><path class="cls-8" d="M347.36,369.15q-7.35-3.52-14.7-6.23-2.71-7.35-6.24-14.71A75.89,75.89,0,0,1,347.36,369.15Z"/><path class="cls-4" d="M313.5,357.28a134,134,0,0,0-19.32-2.85q-.57-9.24-1.32-18.47a74.46,74.46,0,0,1,16.66,3.79Q311.8,348.51,313.5,357.28Z"/><path class="cls-7" d="M273.75,445.08q-10.78-.42-21.56-1.7-1.27-10.77-1.69-21.56,11.34.44,22.68.57C273.27,430,273.47,437.51,273.75,445.08Z"/><path class="cls-8" d="M273.18,422.39q-11.34-.13-22.68-.57-.42-10.77,0-21.54,11.34-.43,22.68-.57Q273,411.05,273.18,422.39Z"/><path class="cls-5" d="M318.55,421.82q-.42,10.79-1.69,21.56-10.78,1.28-21.56,1.7c.28-7.57.48-15.12.57-22.69Q307.21,422.26,318.55,421.82Z"/><path class="cls-7" d="M295.87,422.39q-11.34.15-22.69,0-.14-11.34,0-22.68,11.35-.15,22.69,0Q296,411.05,295.87,422.39Z"/><path class="cls-8" d="M318.55,421.82q-11.34.44-22.68.57.13-11.34,0-22.68,11.34.14,22.68.57Q319,411.05,318.55,421.82Z"/><path class="cls-5" d="M295.87,399.71q-11.34-.15-22.69,0,.13-11.35.57-22.68,10.78-.43,21.55,0Q295.72,388.37,295.87,399.71Z"/><path class="cls-5" d="M316.86,378.72q-10.78-1.28-21.56-1.69-.42-11.31-1.12-22.6a134,134,0,0,1,19.32,2.85Q315.6,368,316.86,378.72Z"/><path class="cls-5" d="M274.86,354.43q-.69,11.29-1.11,22.6-10.78.41-21.56,1.69,1.26-10.73,3.36-21.44A134.1,134.1,0,0,1,274.86,354.43Z"/><path class="cls-8" d="M252.19,378.72q-1.27,10.77-1.69,21.56-11.3.42-22.6,1.11a136.88,136.88,0,0,1,2.85-19.32Q241.48,380,252.19,378.72Z"/><path class="cls-7" d="M255.55,357.28q-2.1,10.73-3.36,21.44-10.71,1.25-21.44,3.35a148,148,0,0,1,5.65-19.15A147.48,147.48,0,0,1,255.55,357.28Z"/><path class="cls-7" d="M230.75,382.07q-8.76,1.73-17.52,4a75,75,0,0,0-3.8,16.66q9.24-.75,18.47-1.32A136.88,136.88,0,0,1,230.75,382.07Z"/><path class="cls-4" d="M252.19,443.38q-10.71-1.25-21.44-3.36a136.53,136.53,0,0,1-2.85-19.31q11.31.71,22.6,1.11Q250.92,432.61,252.19,443.38Z"/><path class="cls-4" d="M341.14,401.39q-11.29-.7-22.59-1.11-.42-10.78-1.69-21.56,10.71,1.25,21.43,3.35A134,134,0,0,1,341.14,401.39Z"/><path class="cls-8" d="M338.29,382.07q-10.71-2.08-21.43-3.35Q315.6,368,313.5,357.28a148.08,148.08,0,0,1,19.16,5.64A149.47,149.47,0,0,1,338.29,382.07Z"/><path class="cls-5" d="M341.14,420.71q-11.29.71-22.59,1.11.42-10.77,0-21.54,11.29.42,22.59,1.11A129.78,129.78,0,0,1,341.14,420.71Z"/><path class="cls-4" d="M295.3,377q-10.77-.43-21.55,0,.42-11.31,1.11-22.6a129.78,129.78,0,0,1,19.32,0Q294.89,365.73,295.3,377Z"/><path class="cls-5" d="M332.66,459.18q-2.71,7.35-6.24,14.71a75.5,75.5,0,0,1-16.9,8.46q2.28-8.78,4-17.53A149.67,149.67,0,0,0,332.66,459.18Z"/><path class="cls-5" d="M355.82,436.05a75,75,0,0,1-8.46,16.89q-7.35,3.54-14.7,6.24A149.14,149.14,0,0,0,338.29,440Q347.06,438.31,355.82,436.05Z"/><path class="cls-8" d="M294.18,467.67q-.57,9.24-1.32,18.47a75.57,75.57,0,0,0,16.66-3.79q2.26-8.78,4-17.53A134,134,0,0,1,294.18,467.67Z"/><path class="cls-5" d="M227.9,420.71q-9.22-.57-18.46-1.33a74.05,74.05,0,0,1,0-16.66q9.23-.77,18.46-1.33A132.54,132.54,0,0,0,227.9,420.71Z"/><path class="cls-5" d="M230.75,440q-8.76-1.72-17.52-4a75.39,75.39,0,0,0,8.45,16.89q7.37,3.54,14.72,6.24A149.6,149.6,0,0,1,230.75,440Z"/><path class="cls-8" d="M227.9,420.71q-9.22-.57-18.47-1.32a75,75,0,0,0,3.8,16.66q8.76,2.26,17.52,4A136.88,136.88,0,0,1,227.9,420.71Z"/><path class="cls-7" d="M221.68,452.94a76.24,76.24,0,0,0,20.95,20.95q-3.52-7.35-6.23-14.71Q229,456.48,221.68,452.94Z"/><path class="cls-7" d="M294.18,467.67q-.57,9.24-1.32,18.47a75.74,75.74,0,0,1-16.67,0q-.75-9.22-1.33-18.47A129.78,129.78,0,0,0,294.18,467.67Z"/><path class="cls-4" d="M276.19,486.14a75,75,0,0,1-16.66-3.79q-2.26-8.78-4-17.53a134.1,134.1,0,0,0,19.31,2.85Q275.43,476.91,276.19,486.14Z"/><path class="cls-5" d="M236.4,459.18q2.7,7.35,6.23,14.71a75.29,75.29,0,0,0,16.9,8.46q-2.28-8.78-4-17.53A147,147,0,0,1,236.4,459.18Z"/><path class="cls-8" d="M347.36,452.94a75.93,75.93,0,0,1-20.94,20.95q3.52-7.35,6.24-14.71Q340,456.47,347.36,452.94Z"/><path class="cls-7" d="M332.66,362.92a148.08,148.08,0,0,0-19.16-5.64q-1.71-8.76-4-17.53a75.5,75.5,0,0,1,16.9,8.46Q329.94,355.56,332.66,362.92Z"/><path class="cls-5" d="M355.82,386.05q-8.76-2.26-17.53-4a149.47,149.47,0,0,0-5.63-19.15q7.35,2.71,14.7,6.23A75.29,75.29,0,0,1,355.82,386.05Z"/><path class="cls-7" d="M318.55,400.28q-11.34-.43-22.68-.57-.14-11.35-.57-22.68,10.79.41,21.56,1.69Q318.12,389.49,318.55,400.28Z"/><path class="cls-8" d="M360.07,411.05a78.84,78.84,0,0,1-.45,8.33q-9.24.76-18.48,1.33a129.78,129.78,0,0,0,0-19.32q9.24.57,18.48,1.33A78.84,78.84,0,0,1,360.07,411.05Z"/><path class="cls-8" d="M341.14,420.71A133.69,133.69,0,0,1,338.29,440q-10.71,2.1-21.43,3.36,1.26-10.77,1.69-21.56Q329.85,421.42,341.14,420.71Z"/><path class="cls-5" d="M274.86,467.67a134.1,134.1,0,0,1-19.31-2.85q-2.1-10.72-3.36-21.44,10.79,1.28,21.56,1.7Q274.17,456.38,274.86,467.67Z"/><path class="cls-8" d="M295.3,445.08q-.42,11.3-1.12,22.59a129.78,129.78,0,0,1-19.32,0q-.69-11.3-1.11-22.59Q284.53,445.5,295.3,445.08Z"/><path class="cls-4" d="M295.87,422.39c-.09,7.57-.29,15.12-.57,22.69q-10.77.42-21.55,0c-.28-7.57-.48-15.12-.57-22.69Q284.53,422.54,295.87,422.39Z"/><path class="cls-7" d="M250.5,421.82q-11.3-.4-22.6-1.11a132.54,132.54,0,0,1,0-19.32q11.31-.7,22.6-1.11Q250.08,411.05,250.5,421.82Z"/><path class="cls-4" d="M273.75,377q-.42,11.34-.57,22.68-11.34.14-22.68.57.42-10.78,1.69-21.56Q263,377.45,273.75,377Z"/><path class="cls-7" d="M294.18,354.43a129.78,129.78,0,0,0-19.32,0q.57-9.24,1.33-18.47a75.74,75.74,0,0,1,16.67,0Q293.63,345.2,294.18,354.43Z"/><path class="cls-8" d="M259.53,339.75q-2.26,8.76-4,17.53a147.48,147.48,0,0,0-19.15,5.64q2.7-7.35,6.23-14.71A75.29,75.29,0,0,1,259.53,339.75Z"/><circle class="cls-13" cx="284.91" cy="411.21" r="76.74"/><g class="cls-25"><path class="cls-15" d="M340,356.09c-37.87-32.41-72.44-32.35-110.24,0M340,466.34c32.36-37.81,32.41-72.38,0-110.25M229.79,466.34c37.8,32.35,72.37,32.41,110.24,0M229.79,356.09c-32.41,37.87-32.35,72.44,0,110.25m123-15.75c-46.35,23.18-89.43,23.19-135.8,0m135.8-78.75c-46.35-23.18-89.43-23.19-135.8,0m144.32,15.75c-51.7-13.88-101.17-13.87-152.84,0m157.1,15.75a951.28,951.28,0,0,0-161.36,0m161.36,15.75a951.28,951.28,0,0,1-161.36,0m157.1,15.75c-51.7,13.88-101.17,13.87-152.84,0M340,466.34c32.36-37.81,32.41-72.38,0-110.25m-110.24,0c-32.41,37.87-32.35,72.44,0,110.25m15.75,12.78c-23.19-46.38-23.19-89.45,0-135.81m78.74,135.81c23.2-46.38,23.19-89.45,0-135.81M308.54,487.64c13.87-51.68,13.87-101.14,0-152.85M292.79,491.9a951.4,951.4,0,0,0,0-161.37M277,491.9a951.4,951.4,0,0,1,0-161.37M261.29,487.64c-13.87-51.68-13.88-101.14,0-152.85"/></g><rect class="cls-13" x="279.64" y="307.53" width="10.55" height="17.59" rx="5.23"/><rect class="cls-13" x="279.64" y="282.63" width="10.55" height="17.59" rx="5.23"/><line class="cls-13" x1="284.91" y1="295.16" x2="284.91" y2="312.75"/><line class="cls-13" x1="284.91" y1="320.32" x2="284.91" y2="333.56"/><line class="cls-13" x1="284.91" y1="274.3" x2="284.91" y2="287.53"/><path class="cls-2" d="M243.41,343.85a159.79,159.79,0,0,0-8.16,18.33,163,163,0,0,0-18.49,8.09,148,148,0,0,1,11.79-14.73A150.3,150.3,0,0,1,243.41,343.85Z"/><path class="cls-2" d="M254.11,356.16q-2.12,10.71-3.36,21.43-10.71,1.25-21.43,3.35c1.41-6.38,3.88-12.17,6.23-18.55C241.93,360,247.72,357.56,254.11,356.16Z"/><path class="cls-2" d="M243.09,478.58a145,145,0,0,1-14.41-11.33A142.85,142.85,0,0,1,217.25,453a159.09,159.09,0,0,0,17.92,7.84A153.47,153.47,0,0,0,243.09,478.58Z"/><path class="cls-2" d="M275.36,332.58q-1.07,10.43-1.8,20.86a153.62,153.62,0,0,0-19.31,2.48q2.19-9.76,5.32-19.53A70.87,70.87,0,0,1,275.36,332.58Z"/><path class="cls-2" d="M353,369.56a160.72,160.72,0,0,0-18.22-7.94,157.54,157.54,0,0,0-8-18,146.75,146.75,0,0,1,14.63,11.47A145.61,145.61,0,0,1,353,369.56Z"/><path class="cls-2" d="M359.3,436.56a92.87,92.87,0,0,1-7.75,15.95,142.33,142.33,0,0,1-17,8.51,171.56,171.56,0,0,0,5.48-19.48C346.65,440.08,352.71,438.64,359.3,436.56Z"/><path class="cls-26" d="M294.58,469.66q-.74,9.87-1.79,19.75a70.78,70.78,0,0,1-15.76,0q-1-9.87-1.79-19.75A156,156,0,0,0,294.58,469.66Z"/><path class="cls-2" d="M318.79,445.38q-1.26,10.71-3.36,21.43h0a133.9,133.9,0,0,1-19.31,2.85q.69-11.3,1.12-22.59Q308,446.65,318.79,445.38Z"/><path class="cls-2" d="M343.08,422.71a128.28,128.28,0,0,1-3,18.83c-7.14,1.4-14.13,3-21.27,3.84q1.26-10.78,1.69-21.56Q331.78,423.4,343.08,422.71Z"/><path class="cls-2" d="M320.48,422q-11.36.44-22.68.56.13-11.34,0-22.69,11.34.13,22.68.55Q320.9,411.22,320.48,422Z"/><path class="cls-2" d="M315.68,356.16h0a153.59,153.59,0,0,0-19.31-2.47q-.74-10.35-1.79-20.7a70.82,70.82,0,0,1,15.79,3.77Q313.49,346.47,315.68,356.16Z"/><path class="cls-2" d="M250.81,377.59q-1.27,10.77-1.69,21.54c-7.52.28-15.06.66-22.58,1.12a133.9,133.9,0,0,1,2.85-19.31Q240.12,378.84,250.81,377.59Z"/><path class="cls-2" d="M363.6,411.22a70.09,70.09,0,0,1-.44,7.87q-9.87,1.07-19.71,1.8a158.13,158.13,0,0,0,0-19.35q9.85.73,19.72,1.79A70.45,70.45,0,0,1,363.6,411.22Z"/><path class="cls-2" d="M272.59,447.08c-7.19-.28-14.36-.85-21.55-1.7h0q-1.28-10.77-1.69-21.55,11.34.44,22.69.56C272.12,432,272.31,439.51,272.59,447.08Z"/><path class="cls-2" d="M226.53,419.6q-10.11-.75-20.22-1.8a67.72,67.72,0,0,1,0-15.76q10.11-1.05,20.23-1.79A154.24,154.24,0,0,0,226.53,419.6Z"/><path class="cls-2" d="M335,460.39a145.59,145.59,0,0,1-8.51,17.31,92.37,92.37,0,0,1-15.94,7.9q3.11-10.08,5.31-20.15A159.13,159.13,0,0,0,335,460.39Z"/><path class="cls-2" d="M254.25,466.3a145.8,145.8,0,0,1-19.14-5.64,145.8,145.8,0,0,1-5.64-19.14q10.72,2.1,21.42,3.35h0Q252.16,455.6,254.25,466.3Z"/><path class="cls-2" d="M340.47,380.94q-10.73-2.1-21.43-3.35-1.26-10.71-3.36-21.43a147,147,0,0,1,19.15,5.63A147.94,147.94,0,0,1,340.47,380.94Z"/><path class="cls-27" d="M295.7,375q.42,11.36.56,22.69-11.36-.13-22.69,0,.14-11.34.55-22.69"/><path class="cls-19" d="M273.84,375c7.19-.28,15-.28,22.16,0"/><path class="cls-4" d="M584.43,418.25a75.66,75.66,0,0,1-3.79,16.67q-8.77,2.26-17.53,4A135.1,135.1,0,0,0,566,419.58Q575.2,419,584.43,418.25Z"/><path class="cls-7" d="M563.11,438.89a147.62,147.62,0,0,1-5.64,19.16,149.53,149.53,0,0,1-19.15,5.64q2.1-10.72,3.36-21.44Q552.39,441,563.11,438.89Z"/><path class="cls-7" d="M584.43,401.59q-9.23-.76-18.47-1.33a135.44,135.44,0,0,0-2.85-19.32q8.76,1.72,17.53,4A75.53,75.53,0,0,1,584.43,401.59Z"/><path class="cls-4" d="M541.68,442.25q-1.27,10.72-3.36,21.44A134,134,0,0,1,519,466.54q.69-11.3,1.12-22.59Q530.89,443.53,541.68,442.25Z"/><path class="cls-4" d="M467.45,347.08q-3.52,7.35-6.24,14.71-7.35,2.71-14.71,6.23A76.07,76.07,0,0,1,467.45,347.08Z"/><path class="cls-8" d="M501,334.83q-.75,9.24-1.32,18.47a134,134,0,0,0-19.32,2.85q1.72-8.76,4-17.53A74.25,74.25,0,0,1,501,334.83Z"/><path class="cls-6" d="M461.21,361.79q-7.35,2.7-14.71,6.24A75.43,75.43,0,0,0,438,384.92q8.77-2.26,17.53-4A147.94,147.94,0,0,1,461.21,361.79Z"/><path class="cls-8" d="M480.36,463.69a149.06,149.06,0,0,1-19.15-5.64,147.62,147.62,0,0,1-5.64-19.16Q466.3,441,477,442.25,478.28,453,480.36,463.69Z"/><path class="cls-8" d="M572.18,368q-7.35-3.52-14.71-6.23-2.7-7.35-6.24-14.71A76.07,76.07,0,0,1,572.18,368Z"/><path class="cls-4" d="M538.32,356.15A134,134,0,0,0,519,353.3q-.57-9.24-1.32-18.47a74.46,74.46,0,0,1,16.66,3.79Q536.61,347.38,538.32,356.15Z"/><path class="cls-7" d="M498.56,444q-10.77-.42-21.56-1.7-1.26-10.78-1.68-21.56,11.32.44,22.68.57C498.09,428.83,498.28,436.38,498.56,444Z"/><path class="cls-8" d="M498,421.26q-11.34-.13-22.68-.57-.44-10.77,0-21.54,11.32-.43,22.68-.57Q497.85,409.92,498,421.26Z"/><path class="cls-6" d="M543.37,420.69q-.43,10.79-1.69,21.56-10.78,1.28-21.56,1.7c.28-7.57.47-15.12.57-22.69Q532,421.13,543.37,420.69Z"/><path class="cls-7" d="M520.69,421.26q-11.36.15-22.69,0-.15-11.34,0-22.68,11.34-.15,22.69,0Q520.82,409.92,520.69,421.26Z"/><path class="cls-8" d="M543.37,420.69q-11.36.44-22.68.57.13-11.34,0-22.68,11.32.14,22.68.57Q543.79,409.92,543.37,420.69Z"/><path class="cls-6" d="M520.69,398.58q-11.36-.15-22.69,0c.09-7.57.28-15.12.56-22.69q10.79-.42,21.56,0C520.4,383.46,520.59,391,520.69,398.58Z"/><path class="cls-6" d="M541.68,377.59q-10.78-1.27-21.56-1.7Q519.7,364.6,519,353.3a134,134,0,0,1,19.32,2.85Q540.42,366.88,541.68,377.59Z"/><path class="cls-6" d="M499.68,353.3q-.69,11.29-1.12,22.59-10.77.42-21.56,1.7,1.28-10.72,3.36-21.44A134,134,0,0,1,499.68,353.3Z"/><path class="cls-8" d="M477,377.59q-1.26,10.77-1.68,21.56-11.31.41-22.6,1.11a134,134,0,0,1,2.85-19.32Q466.3,378.86,477,377.59Z"/><path class="cls-7" d="M480.36,356.15q-2.08,10.73-3.36,21.44-10.71,1.25-21.43,3.35a147.94,147.94,0,0,1,5.64-19.15A147.48,147.48,0,0,1,480.36,356.15Z"/><path class="cls-7" d="M455.57,380.94q-8.76,1.72-17.53,4a75.57,75.57,0,0,0-3.79,16.66q9.24-.75,18.47-1.32A134,134,0,0,1,455.57,380.94Z"/><path class="cls-4" d="M477,442.25q-10.71-1.25-21.43-3.36a133.69,133.69,0,0,1-2.85-19.31q11.29.71,22.6,1.11Q475.74,431.48,477,442.25Z"/><path class="cls-4" d="M566,400.26q-11.3-.7-22.59-1.11-.43-10.78-1.69-21.56,10.71,1.25,21.43,3.35A135.44,135.44,0,0,1,566,400.26Z"/><path class="cls-8" d="M563.11,380.94q-10.73-2.08-21.43-3.35-1.27-10.72-3.36-21.44a147.94,147.94,0,0,1,19.15,5.64A147.94,147.94,0,0,1,563.11,380.94Z"/><path class="cls-6" d="M566,419.58q-11.3.71-22.59,1.11.42-10.77,0-21.54,11.29.41,22.59,1.11A129.78,129.78,0,0,1,566,419.58Z"/><path class="cls-4" d="M520.12,375.89q-10.79-.42-21.56,0,.42-11.29,1.12-22.59a129.78,129.78,0,0,1,19.32,0Q519.69,364.6,520.12,375.89Z"/><path class="cls-6" d="M557.47,458.05q-2.7,7.35-6.24,14.71a75.43,75.43,0,0,1-16.89,8.46q2.26-8.78,4-17.53A149.53,149.53,0,0,0,557.47,458.05Z"/><path class="cls-6" d="M580.64,434.92a75.43,75.43,0,0,1-8.46,16.89q-7.35,3.54-14.71,6.24a147.62,147.62,0,0,0,5.64-19.16Q571.87,437.18,580.64,434.92Z"/><path class="cls-8" d="M519,466.54q-.57,9.24-1.32,18.47a75.57,75.57,0,0,0,16.66-3.79q2.26-8.78,4-17.53A134,134,0,0,1,519,466.54Z"/><path class="cls-6" d="M452.72,419.58q-9.24-.57-18.47-1.33a75.65,75.65,0,0,1,0-16.66q9.24-.76,18.47-1.33A129.79,129.79,0,0,0,452.72,419.58Z"/><path class="cls-6" d="M455.57,438.9q-8.76-1.72-17.53-4a75.43,75.43,0,0,0,8.46,16.89q7.35,3.54,14.71,6.24A147.94,147.94,0,0,1,455.57,438.9Z"/><path class="cls-8" d="M452.72,419.58q-9.24-.57-18.47-1.33A75.53,75.53,0,0,0,438,434.92q8.77,2.26,17.53,4A134,134,0,0,1,452.72,419.58Z"/><path class="cls-7" d="M446.5,451.81a76.24,76.24,0,0,0,20.95,20.95q-3.54-7.35-6.24-14.71Q453.86,455.35,446.5,451.81Z"/><path class="cls-7" d="M519,466.54q-.57,9.24-1.32,18.47A75.83,75.83,0,0,1,501,485q-.75-9.24-1.32-18.47A129.78,129.78,0,0,0,519,466.54Z"/><path class="cls-4" d="M501,485a74.8,74.8,0,0,1-16.65-3.79q-2.28-8.78-4-17.53a134,134,0,0,0,19.32,2.85Q500.25,475.78,501,485Z"/><path class="cls-6" d="M461.21,458.05q2.7,7.35,6.24,14.71a75.43,75.43,0,0,0,16.89,8.46q-2.26-8.78-4-17.53A147.94,147.94,0,0,1,461.21,458.05Z"/><path class="cls-8" d="M572.18,451.81a76.1,76.1,0,0,1-20.95,20.95q3.54-7.35,6.24-14.71Q564.82,455.34,572.18,451.81Z"/><path class="cls-7" d="M557.47,361.79a147.94,147.94,0,0,0-19.15-5.64q-1.71-8.76-4-17.53a75.43,75.43,0,0,1,16.89,8.46Q554.77,354.43,557.47,361.79Z"/><path class="cls-6" d="M580.64,384.92q-8.77-2.26-17.53-4a147.94,147.94,0,0,0-5.64-19.15q7.35,2.71,14.71,6.23A75.71,75.71,0,0,1,580.64,384.92Z"/><path class="cls-7" d="M543.37,399.15q-11.36-.43-22.68-.57c-.1-7.57-.29-15.12-.57-22.69q10.77.42,21.56,1.7Q542.94,388.36,543.37,399.15Z"/><path class="cls-8" d="M584.89,409.92a76.24,76.24,0,0,1-.46,8.33q-9.23.76-18.47,1.33a129.78,129.78,0,0,0,0-19.32q9.24.57,18.47,1.33A76.24,76.24,0,0,1,584.89,409.92Z"/><path class="cls-8" d="M566,419.58a135.1,135.1,0,0,1-2.85,19.31q-10.73,2.1-21.43,3.36,1.26-10.78,1.69-21.56Q554.67,420.27,566,419.58Z"/><path class="cls-6" d="M499.68,466.54a134,134,0,0,1-19.32-2.85Q478.28,453,477,442.25q10.78,1.28,21.56,1.7Q499,455.25,499.68,466.54Z"/><path class="cls-8" d="M520.12,444q-.42,11.3-1.12,22.59a129.79,129.79,0,0,1-19.32,0q-.69-11.3-1.12-22.59Q509.35,444.37,520.12,444Z"/><path class="cls-4" d="M520.69,421.26c-.1,7.57-.29,15.12-.57,22.69q-10.79.42-21.56,0c-.28-7.57-.47-15.12-.56-22.69Q509.34,421.41,520.69,421.26Z"/><path class="cls-7" d="M475.32,420.69q-11.31-.42-22.6-1.11a129.79,129.79,0,0,1,0-19.32q11.29-.7,22.6-1.11Q474.89,409.92,475.32,420.69Z"/><path class="cls-4" d="M498.56,375.89c-.28,7.57-.47,15.12-.56,22.69q-11.34.14-22.68.57.42-10.78,1.68-21.56Q487.79,376.32,498.56,375.89Z"/><path class="cls-7" d="M519,353.3a129.79,129.79,0,0,0-19.32,0q.57-9.24,1.32-18.47a75.83,75.83,0,0,1,16.68,0Q518.43,344.07,519,353.3Z"/><path class="cls-8" d="M484.35,338.62q-2.28,8.76-4,17.53a147.48,147.48,0,0,0-19.15,5.64q2.7-7.35,6.24-14.71A75.29,75.29,0,0,1,484.35,338.62Z"/><circle class="cls-13" cx="509.53" cy="410.08" r="76.74"/><g class="cls-28"><path class="cls-15" d="M564.65,355c-37.87-32.41-72.44-32.35-110.24,0M564.65,465.2c32.35-37.8,32.41-72.37,0-110.24M454.41,465.2c37.8,32.36,72.37,32.41,110.24,0M454.41,355c-32.41,37.87-32.35,72.44,0,110.24m123-15.75c-46.35,23.19-89.43,23.2-135.8,0m135.8-78.74c-46.35-23.19-89.43-23.19-135.8,0M586,386.46c-51.71-13.88-101.17-13.87-152.84,0m157.1,15.75a951.28,951.28,0,0,0-161.36,0M590.21,418a951.28,951.28,0,0,1-161.36,0M586,433.71c-51.71,13.88-101.17,13.87-152.84,0M564.65,465.2c32.35-37.8,32.41-72.37,0-110.24m-110.24,0c-32.41,37.87-32.35,72.44,0,110.24M470.16,478c-23.2-46.37-23.19-89.44,0-135.8M548.9,478c23.19-46.37,23.19-89.44,0-135.8M533.15,486.5c13.87-51.67,13.88-101.13,0-152.84M517.4,490.76a951.28,951.28,0,0,0,0-161.36M501.65,490.76a953.36,953.36,0,0,1,0-161.36M485.91,486.5c-13.88-51.67-13.88-101.13,0-152.84"/></g><rect class="cls-13" x="504.25" y="306.39" width="10.55" height="17.59" rx="5.23"/><path class="cls-21" d="M468,342.72a159.79,159.79,0,0,0-8.16,18.33,165.63,165.63,0,0,0-18.5,8.08,149.4,149.4,0,0,1,11.8-14.72A148.83,148.83,0,0,1,468,342.72Z"/><rect class="cls-13" x="504.25" y="281.5" width="10.55" height="17.59" rx="5.23"/><line class="cls-13" x1="509.53" y1="294.03" x2="509.53" y2="311.61"/><line class="cls-13" x1="509.53" y1="319.19" x2="509.53" y2="332.43"/><path class="cls-21" d="M478.72,355q-2.1,10.73-3.36,21.43-10.69,1.24-21.42,3.36c1.41-6.38,3.88-12.17,6.23-18.55C466.55,358.91,472.34,356.43,478.72,355Z"/><line class="cls-13" x1="509.53" y1="273.16" x2="509.53" y2="286.4"/><path class="cls-21" d="M467.7,477.45a145.16,145.16,0,0,1-14.4-11.33,142.85,142.85,0,0,1-11.43-14.27,156.43,156.43,0,0,0,17.92,7.83A152.75,152.75,0,0,0,467.7,477.45Z"/><path class="cls-21" d="M500,331.45q-1.05,10.43-1.79,20.86a153.39,153.39,0,0,0-19.31,2.48q2.19-9.77,5.31-19.54A71,71,0,0,1,500,331.45Z"/><path class="cls-21" d="M577.62,368.43a163.44,163.44,0,0,0-18.22-7.95,160.11,160.11,0,0,0-8-18A146.85,146.85,0,0,1,566,354,145.89,145.89,0,0,1,577.62,368.43Z"/><path class="cls-21" d="M583.92,435.43a92.87,92.87,0,0,1-7.75,15.95,141.7,141.7,0,0,1-17,8.51,171.2,171.2,0,0,0,5.49-19.49C571.27,438.94,577.33,437.51,583.92,435.43Z"/><path class="cls-22" d="M519.2,468.53q-.74,9.87-1.79,19.74a69.22,69.22,0,0,1-15.76,0q-1-9.87-1.79-19.74A160,160,0,0,0,519.2,468.53Z"/><path class="cls-21" d="M543.4,444.24q-1.24,10.72-3.35,21.43h0a133.79,133.79,0,0,1-19.3,2.86q.69-11.29,1.12-22.59Q532.63,445.52,543.4,444.24Z"/><path class="cls-21" d="M567.69,421.58a126.59,126.59,0,0,1-3,18.82c-7.15,1.41-14.14,3-21.28,3.84q1.27-10.77,1.69-21.55Q556.4,422.27,567.69,421.58Z"/><path class="cls-21" d="M545.09,420.87q-11.34.42-22.68.56.15-11.35,0-22.7,11.36.15,22.68.56Q545.53,410.08,545.09,420.87Z"/><path class="cls-21" d="M540.3,355h0A153.56,153.56,0,0,0,521,352.56q-.74-10.35-1.79-20.71A71,71,0,0,1,535,335.63Q538.11,345.32,540.3,355Z"/><path class="cls-21" d="M475.43,376.45q-1.28,10.79-1.69,21.55-11.3.42-22.59,1.12A135.13,135.13,0,0,1,454,379.81Q464.72,377.71,475.43,376.45Z"/><path class="cls-21" d="M588.21,410.08a72.6,72.6,0,0,1-.43,7.88q-9.87,1.05-19.72,1.79a160,160,0,0,0,0-19.34q9.86.73,19.72,1.79A72.74,72.74,0,0,1,588.21,410.08Z"/><path class="cls-21" d="M497.2,445.94q-10.77-.42-21.55-1.69h0q-1.27-10.78-1.69-21.55,11.34.42,22.68.56Q496.79,434.6,497.2,445.94Z"/><path class="cls-21" d="M451.14,418.46q-10.09-.73-20.22-1.79a67.72,67.72,0,0,1,0-15.76q10.13-1.05,20.23-1.79A158,158,0,0,0,451.14,418.46Z"/><path class="cls-21" d="M559.66,459.26a146.23,146.23,0,0,1-8.51,17.3,91.79,91.79,0,0,1-15.95,7.91q3.12-10.1,5.32-20.16A159.07,159.07,0,0,0,559.66,459.26Z"/><path class="cls-21" d="M478.87,465.17a147.34,147.34,0,0,1-19.14-5.64,145.8,145.8,0,0,1-5.64-19.14q10.71,2.08,21.42,3.35h0Q476.77,454.45,478.87,465.17Z"/><path class="cls-21" d="M565.08,379.81q-10.71-2.1-21.42-3.36Q542.4,365.74,540.3,355a147.94,147.94,0,0,1,19.15,5.64A145.87,145.87,0,0,1,565.08,379.81Z"/><path class="cls-23" d="M520.32,373.87q.42,11.34.56,22.69-11.36-.15-22.7,0,.15-11.34.56-22.69"/><path class="cls-19" d="M498.45,373.87c7.2-.28,15-.28,22.17,0"/></g></g></svg>