<svg xmlns="http://www.w3.org/2000/svg" xmlns:xlink="http://www.w3.org/1999/xlink" viewBox="0 0 651.86 526.86"><defs><style>.cls-1,.cls-11,.cls-16,.cls-18,.cls-9{fill:none;}.cls-2,.cls-6{fill:#f24607;}.cls-11,.cls-12,.cls-13,.cls-14,.cls-15,.cls-16,.cls-18,.cls-19,.cls-2,.cls-20,.cls-21,.cls-22,.cls-24,.cls-3,.cls-30,.cls-31,.cls-32,.cls-9{stroke:#000;stroke-miterlimit:10;}.cls-12,.cls-15,.cls-2,.cls-24,.cls-30,.cls-9{stroke-width:2.37px;}.cls-12,.cls-13,.cls-14,.cls-15,.cls-22,.cls-3{fill:#fff;}.cls-3{stroke-width:1.86px;}.cls-4{fill:#f27127;}.cls-5{fill:#038c7f;}.cls-24,.cls-7{fill:#f28dc4;}.cls-8{fill:#ff7bac;}.cls-10{clip-path:url(#clip-path);}.cls-11{stroke-width:2.01px;}.cls-13,.cls-31{stroke-width:1.82px;}.cls-14,.cls-32{stroke-width:2.97px;}.cls-15,.cls-22,.cls-24{stroke-linecap:square;}.cls-16,.cls-19,.cls-22{stroke-width:2.34px;}.cls-17{clip-path:url(#clip-path-2);}.cls-18{stroke-width:1.98px;}.cls-19,.cls-20,.cls-21,.cls-34{fill:#f2ca52;}.cls-20{stroke-width:1.8px;}.cls-21{stroke-width:2.93px;}.cls-23{clip-path:url(#clip-path-3);}.cls-25{fill:#eda2ce;}.cls-26{fill:#f49dcc;}.cls-27{fill:#bc468c;}.cls-28{fill:#db6aad;}.cls-29{clip-path:url(#clip-path-4);}.cls-30,.cls-31,.cls-32{fill:#fdeaf4;}.cls-33{fill:#f299c2;}</style><clipPath id="clip-path"><circle class="cls-1" cx="510.04" cy="411.21" r="76.74"/></clipPath><clipPath id="clip-path-2"><circle class="cls-1" cx="284.91" cy="410.8" r="75.66"/></clipPath><clipPath id="clip-path-3"><circle class="cls-2" cx="284.91" cy="173.93" r="76.74"/></clipPath><clipPath id="clip-path-4"><circle class="cls-1" cx="510.04" cy="173.93" r="76.74"/></clipPath></defs><g id="Layer_2" data-name="Layer 2"><g id="Layer_1-2" data-name="Layer 1"><rect class="cls-3" x="0.93" y="0.93" width="650" height="525"/><path class="cls-4" d="M584.94,418.58a75.44,75.44,0,0,1-3.79,16.66q-8.77,2.28-17.53,4a136.88,136.88,0,0,0,2.85-19.32C572.62,419.52,578.79,419.08,584.94,418.58Z"/><path class="cls-5" d="M563.62,439.22A148.59,148.59,0,0,1,558,458.37,147.62,147.62,0,0,1,538.82,464q2.11-10.71,3.36-21.43Q552.91,441.32,563.62,439.22Z"/><path class="cls-5" d="M584.94,401.91c-6.15-.5-12.32-1-18.47-1.33a137,137,0,0,0-2.85-19.31q8.76,1.71,17.53,4A75.57,75.57,0,0,1,584.94,401.91Z"/><path class="cls-4" d="M542.18,442.58q-1.26,10.73-3.36,21.43a135.33,135.33,0,0,1-19.31,2.86q.69-11.3,1.11-22.6Q531.41,443.85,542.18,442.58Z"/><path class="cls-4" d="M468,347.4q-3.52,7.37-6.23,14.72-7.35,2.7-14.71,6.23A76.07,76.07,0,0,1,468,347.4Z"/><path class="cls-6" d="M501.51,335.16q-.75,9.22-1.32,18.46a135.47,135.47,0,0,0-19.32,2.86q1.72-8.76,4-17.53A74.46,74.46,0,0,1,501.51,335.16Z"/><path class="cls-7" d="M461.72,362.12q-7.35,2.7-14.71,6.23a75.29,75.29,0,0,0-8.46,16.9q8.76-2.28,17.53-4A147.48,147.48,0,0,1,461.72,362.12Z"/><path class="cls-6" d="M480.87,464a147.48,147.48,0,0,1-19.15-5.64,147,147,0,0,1-5.64-19.15q10.71,2.1,21.43,3.36Q478.77,453.31,480.87,464Z"/><path class="cls-6" d="M572.69,368.35q-7.35-3.53-14.71-6.23-2.7-7.37-6.24-14.72A76.24,76.24,0,0,1,572.69,368.35Z"/><path class="cls-4" d="M538.82,356.48a135.33,135.33,0,0,0-19.31-2.86q-.57-9.22-1.33-18.46A74.67,74.67,0,0,1,534.85,339Q537.12,347.71,538.82,356.48Z"/><path class="cls-5" d="M499.07,444.27q-10.77-.42-21.56-1.69-1.26-10.79-1.68-21.56,11.32.42,22.68.57Q498.65,432.93,499.07,444.27Z"/><path class="cls-6" d="M498.51,421.59q-11.36-.15-22.68-.57-.43-10.77,0-21.55,11.32-.42,22.68-.57Q498.36,410.24,498.51,421.59Z"/><path class="cls-7" d="M543.88,421q-.43,10.78-1.7,21.56-10.77,1.28-21.56,1.69.42-11.34.57-22.68Q532.53,421.44,543.88,421Z"/><path class="cls-5" d="M521.19,421.59q-11.34.14-22.68,0-.15-11.34,0-22.69,11.34-.13,22.68,0Q521.32,410.24,521.19,421.59Z"/><path class="cls-6" d="M543.88,421q-11.36.42-22.69.57.13-11.34,0-22.69,11.34.15,22.69.57Q544.29,410.24,543.88,421Z"/><path class="cls-7" d="M521.19,398.9q-11.34-.13-22.68,0,.14-11.34.56-22.68,10.79-.42,21.55,0Q521,387.56,521.19,398.9Z"/><path class="cls-7" d="M542.18,377.91q-10.77-1.28-21.56-1.69-.4-11.3-1.11-22.6a135.33,135.33,0,0,1,19.31,2.86Q540.93,367.19,542.18,377.91Z"/><path class="cls-7" d="M500.19,353.62q-.7,11.29-1.12,22.6-10.77.42-21.56,1.69,1.26-10.71,3.36-21.43A135.47,135.47,0,0,1,500.19,353.62Z"/><path class="cls-6" d="M477.51,377.91q-1.26,10.77-1.68,21.56-11.31.42-22.6,1.11a134.1,134.1,0,0,1,2.85-19.31Q466.79,379.17,477.51,377.91Z"/><path class="cls-5" d="M480.87,356.48q-2.08,10.71-3.36,21.43-10.71,1.26-21.43,3.36a147,147,0,0,1,5.64-19.15A147.48,147.48,0,0,1,480.87,356.48Z"/><path class="cls-5" d="M456.08,381.27q-8.76,1.71-17.53,4a74.46,74.46,0,0,0-3.79,16.66q9.23-.75,18.47-1.33A134.1,134.1,0,0,1,456.08,381.27Z"/><path class="cls-4" d="M477.51,442.58q-10.71-1.26-21.43-3.36a134,134,0,0,1-2.85-19.32q11.29.71,22.6,1.12Q476.24,431.8,477.51,442.58Z"/><path class="cls-4" d="M566.47,400.58q-11.29-.69-22.59-1.11-.43-10.79-1.7-21.56,10.73,1.26,21.44,3.36A137,137,0,0,1,566.47,400.58Z"/><path class="cls-6" d="M563.62,381.27q-10.73-2.1-21.44-3.36-1.26-10.71-3.36-21.43A147.62,147.62,0,0,1,558,362.12,148.59,148.59,0,0,1,563.62,381.27Z"/><path class="cls-7" d="M566.47,419.9q-11.29.71-22.59,1.12.4-10.77,0-21.55,11.29.42,22.59,1.11A129.78,129.78,0,0,1,566.47,419.9Z"/><path class="cls-4" d="M520.62,376.22q-10.77-.42-21.55,0,.42-11.3,1.12-22.6a132.54,132.54,0,0,1,19.32,0Q520.2,364.92,520.62,376.22Z"/><path class="cls-7" d="M558,458.37q-2.7,7.36-6.24,14.72a75.39,75.39,0,0,1-16.89,8.45q2.26-8.76,4-17.53A147.62,147.62,0,0,0,558,458.37Z"/><path class="cls-7" d="M581.15,435.24a75.5,75.5,0,0,1-8.46,16.9q-7.35,3.53-14.71,6.23a148.59,148.59,0,0,0,5.64-19.15Q572.38,437.51,581.15,435.24Z"/><path class="cls-6" d="M519.51,466.87q-.57,9.22-1.33,18.47a74.77,74.77,0,0,0,16.66-3.8q2.28-8.76,4-17.52A136.53,136.53,0,0,1,519.51,466.87Z"/><path class="cls-7" d="M453.23,419.9q-9.24-.57-18.47-1.32a75.74,75.74,0,0,1,0-16.67q9.24-.75,18.47-1.33A129.79,129.79,0,0,0,453.23,419.9Z"/><path class="cls-7" d="M456.08,439.22q-8.76-1.71-17.53-4a75.29,75.29,0,0,0,8.46,16.9q7.35,3.53,14.71,6.23A147.48,147.48,0,0,1,456.08,439.22Z"/><path class="cls-6" d="M453.23,419.91q-9.24-.57-18.47-1.33a74.46,74.46,0,0,0,3.79,16.66q8.76,2.28,17.53,4A134.1,134.1,0,0,1,453.23,419.91Z"/><path class="cls-5" d="M447,452.14A76.07,76.07,0,0,0,468,473.09q-3.52-7.36-6.23-14.72Q454.37,455.67,447,452.14Z"/><path class="cls-5" d="M519.51,466.87q-.57,9.22-1.33,18.47a75.74,75.74,0,0,1-16.67,0q-.75-9.24-1.32-18.47A132.54,132.54,0,0,0,519.51,466.87Z"/><path class="cls-4" d="M501.51,485.34a75,75,0,0,1-16.66-3.8q-2.27-8.76-4-17.53a135.47,135.47,0,0,0,19.32,2.86Q500.76,476.1,501.51,485.34Z"/><path class="cls-7" d="M461.72,458.37q2.7,7.36,6.23,14.72a75.68,75.68,0,0,0,16.9,8.45q-2.27-8.76-4-17.52A149.6,149.6,0,0,1,461.72,458.37Z"/><path class="cls-6" d="M572.69,452.14a76.24,76.24,0,0,1-21,20.95q3.54-7.36,6.24-14.72Q565.33,455.67,572.69,452.14Z"/><path class="cls-5" d="M558,362.12a147.62,147.62,0,0,0-19.16-5.64q-1.71-8.76-4-17.53a75.39,75.39,0,0,1,16.89,8.45Q555.28,354.77,558,362.12Z"/><path class="cls-7" d="M581.15,385.25q-8.77-2.26-17.53-4A148.59,148.59,0,0,0,558,362.12q7.35,2.7,14.71,6.23A75.71,75.71,0,0,1,581.15,385.25Z"/><path class="cls-5" d="M543.88,399.47q-11.36-.42-22.69-.57-.13-11.34-.57-22.68,10.78.42,21.56,1.69Q543.45,388.68,543.88,399.47Z"/><path class="cls-6" d="M585.4,410.25a76.38,76.38,0,0,1-.46,8.33c-6.15.5-12.32.94-18.47,1.32a129.78,129.78,0,0,0,0-19.32c6.15.38,12.32.83,18.47,1.33A76.57,76.57,0,0,1,585.4,410.25Z"/><path class="cls-6" d="M566.47,419.9a136.88,136.88,0,0,1-2.85,19.32q-10.73,2.1-21.44,3.36,1.27-10.79,1.7-21.56Q555.17,420.6,566.47,419.9Z"/><path class="cls-7" d="M500.19,466.87A135.47,135.47,0,0,1,480.87,464q-2.08-10.71-3.36-21.43,10.78,1.28,21.56,1.69Q499.49,455.57,500.19,466.87Z"/><path class="cls-6" d="M520.62,444.27q-.4,11.3-1.11,22.6a132.54,132.54,0,0,1-19.32,0q-.7-11.3-1.12-22.6Q509.86,444.71,520.62,444.27Z"/><path class="cls-4" d="M521.19,421.59q-.13,11.34-.57,22.68-10.77.44-21.55,0-.42-11.34-.56-22.68Q509.85,421.73,521.19,421.59Z"/><path class="cls-5" d="M475.83,421q-11.31-.42-22.6-1.12a129.79,129.79,0,0,1,0-19.32q11.29-.69,22.6-1.11Q475.4,410.24,475.83,421Z"/><path class="cls-4" d="M499.07,376.22q-.42,11.34-.56,22.68-11.36.15-22.68.57.41-10.79,1.68-21.56Q488.29,376.64,499.07,376.22Z"/><path class="cls-5" d="M519.51,353.62a132.54,132.54,0,0,0-19.32,0q.57-9.22,1.32-18.46a74.14,74.14,0,0,1,16.67,0Q518.95,344.39,519.51,353.62Z"/><path class="cls-8" d="M484.85,339q-2.27,8.76-4,17.53a147.48,147.48,0,0,0-19.15,5.64q2.7-7.37,6.23-14.72A75.68,75.68,0,0,1,484.85,339Z"/><circle class="cls-9" cx="510.04" cy="411.21" r="76.74"/><g class="cls-10"><path class="cls-11" d="M565.16,356.09c-37.87-32.41-72.44-32.35-110.24,0M565.16,466.34c32.35-37.81,32.41-72.38,0-110.25M454.92,466.34c37.8,32.35,72.37,32.41,110.24,0M454.92,356.09c-32.41,37.87-32.35,72.44,0,110.25m123-15.75c-46.35,23.18-89.43,23.19-135.8,0m135.8-78.75c-46.35-23.18-89.43-23.19-135.8,0m144.32,15.75c-51.7-13.88-101.17-13.87-152.84,0m157.1,15.75a951.28,951.28,0,0,0-161.36,0m161.36,15.75a951.28,951.28,0,0,1-161.36,0m157.1,15.75c-51.7,13.88-101.17,13.87-152.84,0m131.54,31.5c32.35-37.81,32.41-72.38,0-110.25m-110.24,0c-32.41,37.87-32.35,72.44,0,110.25m15.75,12.78c-23.19-46.38-23.19-89.45,0-135.81m78.74,135.81c23.2-46.38,23.19-89.45,0-135.81M533.66,487.64c13.88-51.68,13.88-101.14,0-152.85M517.92,491.9a953.47,953.47,0,0,0,0-161.37M502.17,491.9a951.4,951.4,0,0,1,0-161.37M486.42,487.64c-13.87-51.68-13.88-101.14,0-152.85"/></g><rect class="cls-9" x="504.76" y="307.53" width="10.55" height="17.59" rx="5.23"/><path class="cls-12" d="M468.54,343.85a159.79,159.79,0,0,0-8.16,18.33,163,163,0,0,0-18.49,8.09,148,148,0,0,1,11.79-14.73A150.3,150.3,0,0,1,468.54,343.85Z"/><rect class="cls-9" x="504.76" y="282.63" width="10.55" height="17.59" rx="5.23"/><line class="cls-9" x1="510.04" y1="295.16" x2="510.04" y2="312.75"/><line class="cls-9" x1="510.04" y1="320.32" x2="510.04" y2="333.56"/><path class="cls-12" d="M479.23,356.16q-2.1,10.71-3.36,21.43-10.69,1.25-21.42,3.35c1.41-6.38,3.88-12.17,6.23-18.55C467.06,360,472.85,357.56,479.23,356.16Z"/><line class="cls-9" x1="510.04" y1="274.3" x2="510.04" y2="287.53"/><path class="cls-12" d="M468.21,478.58a143.7,143.7,0,0,1-14.4-11.33A142.85,142.85,0,0,1,442.38,453a158.31,158.31,0,0,0,17.92,7.84A155.1,155.1,0,0,0,468.21,478.58Z"/><path class="cls-12" d="M500.48,332.58q-1.05,10.43-1.79,20.86a153.62,153.62,0,0,0-19.31,2.48q2.19-9.76,5.31-19.53A71.14,71.14,0,0,1,500.48,332.58Z"/><path class="cls-12" d="M578.13,369.56a160.72,160.72,0,0,0-18.22-7.94,159.31,159.31,0,0,0-8-18,146.75,146.75,0,0,1,14.63,11.47A145.61,145.61,0,0,1,578.13,369.56Z"/><path class="cls-12" d="M584.43,436.56a92.87,92.87,0,0,1-7.75,15.95,141.7,141.7,0,0,1-17,8.51,169.58,169.58,0,0,0,5.49-19.48C571.78,440.08,577.84,438.64,584.43,436.56Z"/><path class="cls-13" d="M519.71,469.66q-.74,9.87-1.79,19.75a70.78,70.78,0,0,1-15.76,0q-1.05-9.87-1.79-19.75A156,156,0,0,0,519.71,469.66Z"/><path class="cls-12" d="M543.91,445.38q-1.24,10.71-3.35,21.43h0a133.56,133.56,0,0,1-19.3,2.85q.69-11.3,1.12-22.59Q533.14,446.65,543.91,445.38Z"/><path class="cls-12" d="M568.2,422.71a126.93,126.93,0,0,1-3,18.83c-7.14,1.4-14.13,3-21.28,3.84q1.27-10.78,1.7-21.56Q556.91,423.4,568.2,422.71Z"/><path class="cls-12" d="M545.61,422c-7.57.29-15.12.47-22.69.56q.15-11.34,0-22.69c7.57.09,15.12.27,22.69.55Q546,411.22,545.61,422Z"/><path class="cls-12" d="M540.81,356.16h0a153.59,153.59,0,0,0-19.31-2.47q-.74-10.35-1.79-20.7a70.82,70.82,0,0,1,15.79,3.77Q538.62,346.47,540.81,356.16Z"/><path class="cls-12" d="M475.94,377.59q-1.28,10.77-1.69,21.54-11.29.42-22.59,1.12a135.33,135.33,0,0,1,2.86-19.31Q465.25,378.84,475.94,377.59Z"/><path class="cls-12" d="M588.73,411.22a70.09,70.09,0,0,1-.44,7.87q-9.87,1.07-19.72,1.8a160.16,160.16,0,0,0,0-19.35q9.85.73,19.72,1.79A70.45,70.45,0,0,1,588.73,411.22Z"/><path class="cls-12" d="M497.71,447.08q-10.77-.42-21.54-1.7h0q-1.28-10.77-1.69-21.55,11.34.44,22.69.56C497.25,432,497.43,439.51,497.71,447.08Z"/><path class="cls-12" d="M451.65,419.6q-10.09-.75-20.21-1.8a67.72,67.72,0,0,1,0-15.76q10.11-1.05,20.22-1.79A158.13,158.13,0,0,0,451.65,419.6Z"/><path class="cls-12" d="M560.17,460.39a145.59,145.59,0,0,1-8.51,17.31,92.46,92.46,0,0,1-15.95,7.9q3.12-10.08,5.32-20.15A159.13,159.13,0,0,0,560.17,460.39Z"/><path class="cls-12" d="M479.38,466.3a145.8,145.8,0,0,1-19.14-5.64,145.8,145.8,0,0,1-5.64-19.14c7.15,1.4,14.27,2.52,21.42,3.35h0Q477.28,455.6,479.38,466.3Z"/><path class="cls-12" d="M565.6,380.94q-10.73-2.1-21.43-3.35-1.26-10.71-3.36-21.43A147.42,147.42,0,0,1,560,361.79,147.94,147.94,0,0,1,565.6,380.94Z"/><path class="cls-14" d="M520.83,375q.42,11.36.56,22.69-11.35-.13-22.7,0,.15-11.34.56-22.69"/><path class="cls-15" d="M499,375c7.19-.28,15-.28,22.16,0"/><path class="cls-4" d="M359.82,419.38A75.66,75.66,0,0,1,356,436.05q-8.77,2.26-17.53,4a136.53,136.53,0,0,0,2.85-19.31Q350.58,420.14,359.82,419.38Z"/><path class="cls-5" d="M338.5,440a150.82,150.82,0,0,1-5.64,19.16,149.67,149.67,0,0,1-19.16,5.64q2.1-10.72,3.36-21.44Q327.77,442.14,338.5,440Z"/><path class="cls-5" d="M359.82,402.72q-9.24-.77-18.47-1.33a136.88,136.88,0,0,0-2.85-19.32q8.76,1.73,17.53,4A75.53,75.53,0,0,1,359.82,402.72Z"/><path class="cls-4" d="M317.06,443.38q-1.26,10.72-3.36,21.44a133.9,133.9,0,0,1-19.31,2.85q.69-11.3,1.11-22.59Q306.28,444.66,317.06,443.38Z"/><path class="cls-4" d="M242.83,348.21q-3.53,7.35-6.23,14.71-7.35,2.71-14.72,6.23A76.07,76.07,0,0,1,242.83,348.21Z"/><path class="cls-6" d="M276.39,336q-.75,9.24-1.33,18.47a134.1,134.1,0,0,0-19.31,2.85q1.71-8.76,4-17.53A74.46,74.46,0,0,1,276.39,336Z"/><path class="cls-7" d="M236.6,362.92q-7.36,2.7-14.72,6.24a75.39,75.39,0,0,0-8.45,16.89q8.76-2.26,17.53-4A147.94,147.94,0,0,1,236.6,362.92Z"/><path class="cls-6" d="M255.75,464.82a149.06,149.06,0,0,1-19.15-5.64A149.26,149.26,0,0,1,231,440q10.73,2.1,21.44,3.36Q253.65,454.1,255.75,464.82Z"/><path class="cls-6" d="M347.57,369.15q-7.36-3.52-14.71-6.23-2.72-7.35-6.24-14.71A76.07,76.07,0,0,1,347.57,369.15Z"/><path class="cls-4" d="M313.7,357.28a133.9,133.9,0,0,0-19.31-2.85q-.57-9.24-1.33-18.47a74.46,74.46,0,0,1,16.66,3.79Q312,348.51,313.7,357.28Z"/><path class="cls-5" d="M274,445.08q-10.77-.42-21.56-1.7-1.26-10.77-1.69-21.56,11.34.44,22.68.57C273.47,430,273.67,437.51,274,445.08Z"/><path class="cls-6" d="M273.38,422.39q-11.34-.13-22.68-.57-.42-10.77,0-21.54,11.34-.43,22.68-.57Q273.25,411.05,273.38,422.39Z"/><path class="cls-7" d="M318.75,421.82q-.42,10.79-1.69,21.56-10.79,1.28-21.56,1.7c.28-7.57.48-15.12.57-22.69Q307.41,422.26,318.75,421.82Z"/><path class="cls-5" d="M296.07,422.39q-11.34.15-22.69,0-.13-11.34,0-22.68,11.36-.15,22.69,0Q296.21,411.05,296.07,422.39Z"/><path class="cls-6" d="M318.75,421.82q-11.34.44-22.68.57.14-11.34,0-22.68,11.34.14,22.68.57Q319.17,411.05,318.75,421.82Z"/><path class="cls-7" d="M296.07,399.71q-11.34-.15-22.69,0,.14-11.35.57-22.68,10.79-.43,21.55,0Q295.92,388.37,296.07,399.71Z"/><path class="cls-7" d="M317.06,378.72q-10.79-1.28-21.56-1.69-.42-11.31-1.11-22.6a133.9,133.9,0,0,1,19.31,2.85Q315.8,368,317.06,378.72Z"/><path class="cls-7" d="M275.06,354.43q-.69,11.29-1.11,22.6-10.77.41-21.56,1.69,1.26-10.73,3.36-21.44A134.1,134.1,0,0,1,275.06,354.43Z"/><path class="cls-6" d="M252.39,378.72q-1.26,10.77-1.69,21.56-11.3.42-22.6,1.11A136.88,136.88,0,0,1,231,382.07Q241.68,380,252.39,378.72Z"/><path class="cls-5" d="M255.75,357.28q-2.1,10.73-3.36,21.44Q241.68,380,231,382.07a149.6,149.6,0,0,1,5.65-19.15A147.48,147.48,0,0,1,255.75,357.28Z"/><path class="cls-5" d="M231,382.07q-8.78,1.73-17.53,4a75,75,0,0,0-3.8,16.66q9.24-.75,18.47-1.32A135.47,135.47,0,0,1,231,382.07Z"/><path class="cls-4" d="M252.39,443.38Q241.68,442.14,231,440a136.53,136.53,0,0,1-2.85-19.31q11.31.71,22.6,1.11Q251.12,432.61,252.39,443.38Z"/><path class="cls-4" d="M341.35,401.39c-7.54-.47-15.06-.83-22.6-1.11q-.42-10.78-1.69-21.56,10.71,1.25,21.44,3.35A136.88,136.88,0,0,1,341.35,401.39Z"/><path class="cls-6" d="M338.5,382.07q-10.72-2.08-21.44-3.35Q315.8,368,313.7,357.28a148.08,148.08,0,0,1,19.16,5.64A151.16,151.16,0,0,1,338.5,382.07Z"/><path class="cls-7" d="M341.35,420.71c-7.54.47-15.06.84-22.6,1.11q.42-10.77,0-21.54c7.54.28,15.06.64,22.6,1.11A129.78,129.78,0,0,1,341.35,420.71Z"/><path class="cls-4" d="M295.5,377q-10.77-.43-21.55,0,.42-11.31,1.11-22.6a129.92,129.92,0,0,1,19.33,0Q295.08,365.73,295.5,377Z"/><path class="cls-7" d="M332.86,459.18q-2.72,7.35-6.24,14.71a75.29,75.29,0,0,1-16.9,8.46q2.28-8.78,4-17.53A149.67,149.67,0,0,0,332.86,459.18Z"/><path class="cls-7" d="M356,436.05a75.43,75.43,0,0,1-8.46,16.89q-7.36,3.54-14.71,6.24A150.82,150.82,0,0,0,338.5,440Q347.26,438.31,356,436.05Z"/><path class="cls-6" d="M294.39,467.67q-.57,9.24-1.33,18.47a75.57,75.57,0,0,0,16.66-3.79q2.28-8.78,4-17.53A134.1,134.1,0,0,1,294.39,467.67Z"/><path class="cls-7" d="M228.1,420.71q-9.22-.57-18.46-1.33a74.05,74.05,0,0,1,0-16.66q9.23-.77,18.46-1.33A132.54,132.54,0,0,0,228.1,420.71Z"/><path class="cls-7" d="M231,440q-8.78-1.72-17.53-4a75.39,75.39,0,0,0,8.45,16.89q7.37,3.54,14.72,6.24A147.94,147.94,0,0,1,231,440Z"/><path class="cls-6" d="M228.1,420.71q-9.22-.57-18.47-1.32a75,75,0,0,0,3.8,16.66q8.76,2.26,17.53,4A135.47,135.47,0,0,1,228.1,420.71Z"/><path class="cls-5" d="M221.88,452.94a76.24,76.24,0,0,0,21,20.95q-3.53-7.35-6.23-14.71Q229.24,456.48,221.88,452.94Z"/><path class="cls-5" d="M294.39,467.67q-.57,9.24-1.33,18.47a75.74,75.74,0,0,1-16.67,0q-.75-9.22-1.33-18.47A129.92,129.92,0,0,0,294.39,467.67Z"/><path class="cls-4" d="M276.39,486.14a75,75,0,0,1-16.66-3.79q-2.26-8.78-4-17.53a134.1,134.1,0,0,0,19.31,2.85Q275.63,476.91,276.39,486.14Z"/><path class="cls-7" d="M236.6,459.18q2.7,7.35,6.23,14.71a75.5,75.5,0,0,0,16.9,8.46q-2.28-8.78-4-17.53A147.48,147.48,0,0,1,236.6,459.18Z"/><path class="cls-6" d="M347.57,452.94a76.1,76.1,0,0,1-20.95,20.95q3.53-7.35,6.24-14.71Q340.21,456.47,347.57,452.94Z"/><path class="cls-5" d="M332.86,362.92a148.08,148.08,0,0,0-19.16-5.64q-1.71-8.76-4-17.53a75.29,75.29,0,0,1,16.9,8.46Q330.15,355.56,332.86,362.92Z"/><path class="cls-7" d="M356,386.05q-8.77-2.26-17.53-4a151.16,151.16,0,0,0-5.64-19.15q7.35,2.71,14.71,6.23A75.71,75.71,0,0,1,356,386.05Z"/><path class="cls-5" d="M318.75,400.28q-11.34-.43-22.68-.57-.13-11.35-.57-22.68,10.78.41,21.56,1.69Q318.32,389.49,318.75,400.28Z"/><path class="cls-6" d="M360.28,411.05a76.24,76.24,0,0,1-.46,8.33q-9.24.76-18.47,1.33a129.78,129.78,0,0,0,0-19.32q9.22.57,18.47,1.33A76.24,76.24,0,0,1,360.28,411.05Z"/><path class="cls-6" d="M341.35,420.71A136.53,136.53,0,0,1,338.5,440q-10.72,2.1-21.44,3.36,1.26-10.77,1.69-21.56C326.29,421.55,333.81,421.18,341.35,420.71Z"/><path class="cls-7" d="M275.06,467.67a134.1,134.1,0,0,1-19.31-2.85q-2.1-10.72-3.36-21.44,10.78,1.28,21.56,1.7Q274.37,456.38,275.06,467.67Z"/><path class="cls-6" d="M295.5,445.08q-.42,11.3-1.11,22.59a129.92,129.92,0,0,1-19.33,0q-.69-11.3-1.11-22.59Q284.74,445.5,295.5,445.08Z"/><path class="cls-4" d="M296.07,422.39c-.09,7.57-.29,15.12-.57,22.69q-10.77.42-21.55,0c-.28-7.57-.48-15.12-.57-22.69Q284.74,422.54,296.07,422.39Z"/><path class="cls-5" d="M250.7,421.82q-11.3-.4-22.6-1.11a132.54,132.54,0,0,1,0-19.32q11.31-.7,22.6-1.11Q250.28,411.05,250.7,421.82Z"/><path class="cls-4" d="M274,377q-.42,11.34-.57,22.68-11.34.14-22.68.57.42-10.78,1.69-21.56Q263.17,377.45,274,377Z"/><path class="cls-5" d="M294.39,354.43a129.92,129.92,0,0,0-19.33,0q.57-9.24,1.33-18.47a75.74,75.74,0,0,1,16.67,0Q293.83,345.2,294.39,354.43Z"/><path class="cls-8" d="M259.73,339.75q-2.26,8.76-4,17.53a147.48,147.48,0,0,0-19.15,5.64q2.7-7.35,6.23-14.71A75.29,75.29,0,0,1,259.73,339.75Z"/><circle class="cls-16" cx="284.91" cy="410.8" r="75.66"/><g class="cls-17"><path class="cls-18" d="M339.26,356.46c-37.72-32-71.05-31.91-108.69,0M339.26,465.15c31.91-37.64,32-71,0-108.69M230.57,465.15c37.64,31.91,71,32,108.69,0M230.57,356.46c-32,37.71-31.91,71.05,0,108.69m121.28-15.53c-45.7,22.86-88.16,22.86-133.88,0M351.85,372c-45.7-22.86-88.16-22.87-133.88,0m142.28,15.52c-51-13.68-99.74-13.67-150.68,0M364.46,403a939.08,939.08,0,0,0-159.09,0m159.08,15.53a939,939,0,0,1-159.08,0m154.89,15.52c-51,13.69-99.75,13.68-150.69,0m129.69,31.06c31.91-37.64,32-71,0-108.69m-108.69,0c-32,37.71-31.91,71.05,0,108.69m15.53,12.6c-22.87-45.72-22.86-88.19,0-133.89m77.63,133.89c22.86-45.72,22.86-88.19,0-133.89M308.2,486.15c13.68-50.95,13.69-99.71,0-150.69M292.68,490.35a939.08,939.08,0,0,0,0-159.09M277.15,490.35a937,937,0,0,1,0-159.09M261.62,486.15c-13.67-50.95-13.68-99.71,0-150.69"/></g><rect class="cls-16" x="279.71" y="308.58" width="10.4" height="17.34" rx="5.2"/><path class="cls-19" d="M244,344.39A157.82,157.82,0,0,0,236,362.46a162.73,162.73,0,0,0-18.23,8,146.31,146.31,0,0,1,11.63-14.51A146.13,146.13,0,0,1,244,344.39Z"/><rect class="cls-16" x="279.71" y="284.04" width="10.4" height="17.34" rx="5.2"/><line class="cls-16" x1="284.91" y1="296.39" x2="284.91" y2="313.73"/><line class="cls-16" x1="284.91" y1="321.19" x2="284.91" y2="334.25"/><path class="cls-19" d="M254.54,356.52q-2.07,10.56-3.31,21.13-10.56,1.23-21.12,3.31c1.38-6.29,3.82-12,6.14-18.29C242.54,360.35,248.25,357.91,254.54,356.52Z"/><line class="cls-16" x1="284.91" y1="275.82" x2="284.91" y2="288.87"/><path class="cls-19" d="M244.11,477.22a143.75,143.75,0,0,1-14.2-11.17A142.87,142.87,0,0,1,218.64,452a155.68,155.68,0,0,0,17.67,7.73A153.26,153.26,0,0,0,244.11,477.22Z"/><path class="cls-19" d="M275.49,333.28q-1,10.29-1.77,20.57a150.77,150.77,0,0,0-19,2.44q2.16-9.63,5.23-19.26A70.13,70.13,0,0,1,275.49,333.28Z"/><path class="cls-19" d="M352,370.07a159.87,159.87,0,0,0-18-7.84,156.56,156.56,0,0,0-7.92-17.73,145.33,145.33,0,0,1,14.43,11.31A144.37,144.37,0,0,1,352,370.07Z"/><path class="cls-19" d="M358.25,435.79a90.59,90.59,0,0,1-7.64,15.72,139.29,139.29,0,0,1-16.74,8.4,166.88,166.88,0,0,0,5.41-19.21C345.78,439.26,351.76,437.84,358.25,435.79Z"/><path class="cls-20" d="M294.45,468.42q-.74,9.74-1.77,19.47a68.83,68.83,0,0,1-15.54,0q-1-9.74-1.76-19.47A155.56,155.56,0,0,0,294.45,468.42Z"/><path class="cls-19" d="M318.31,444.48Q317.07,455,315,465.61h0a131.55,131.55,0,0,1-19,2.81q.69-11.13,1.1-22.27Q307.69,445.75,318.31,444.48Z"/><path class="cls-19" d="M342.25,422.13a124.53,124.53,0,0,1-3,18.57c-7,1.38-13.93,3-21,3.78q1.24-10.62,1.67-21.25Q331.11,422.82,342.25,422.13Z"/><path class="cls-19" d="M320,423.21q-11.19.42-22.37.56.15-11.2,0-22.38,11.19.14,22.37.55Q320.4,412.57,320,423.21Z"/><path class="cls-19" d="M315.25,356.52h0a152.6,152.6,0,0,0-19-2.43q-.72-10.2-1.76-20.41A70.13,70.13,0,0,1,310,337.4Q313.09,347,315.25,356.52Z"/><path class="cls-19" d="M251.3,377.65q-1.26,10.62-1.67,21.24-11.13.42-22.27,1.1a131.45,131.45,0,0,1,2.82-19Q240.74,378.89,251.3,377.65Z"/><path class="cls-19" d="M362.49,410.81a68.14,68.14,0,0,1-.44,7.76q-9.72,1-19.43,1.77a157.57,157.57,0,0,0,0-19.07q9.72.72,19.44,1.76A68.49,68.49,0,0,1,362.49,410.81Z"/><path class="cls-19" d="M272.76,445.3q-10.62-.41-21.24-1.67h0q-1.26-10.62-1.67-21.25,11.19.42,22.37.56Q272.35,434.12,272.76,445.3Z"/><path class="cls-19" d="M227.35,419.07q-10-.74-19.93-1.77a65.85,65.85,0,0,1,0-15.54q10-1,19.94-1.77A153.75,153.75,0,0,0,227.35,419.07Z"/><path class="cls-19" d="M334.33,459.28a141.56,141.56,0,0,1-8.39,17.07,90.54,90.54,0,0,1-15.72,7.79q3.07-9.94,5.24-19.87A156.52,156.52,0,0,0,334.33,459.28Z"/><path class="cls-19" d="M254.69,465.11a142.91,142.91,0,0,1-18.88-5.56,144.75,144.75,0,0,1-5.56-18.87q10.58,2.07,21.12,3.31h0Q252.61,454.55,254.69,465.11Z"/><path class="cls-19" d="M339.68,381q-10.56-2.07-21.12-3.31-1.24-10.56-3.31-21.13a146.32,146.32,0,0,1,18.87,5.56A143.35,143.35,0,0,1,339.68,381Z"/><path class="cls-21" d="M295.55,375.1q.4,11.19.55,22.37-11.19-.14-22.37,0,.13-11.18.55-22.37"/><path class="cls-22" d="M274,375.1c7.1-.27,14.76-.27,21.85,0"/><path class="cls-6" d="M359.82,181.29A75.67,75.67,0,0,1,356,198q-8.76,2.26-17.53,4a133.69,133.69,0,0,0,2.85-19.31Q350.58,182.05,359.82,181.29Z"/><path class="cls-6" d="M338.49,201.93a147.62,147.62,0,0,1-5.64,19.16,149.06,149.06,0,0,1-19.15,5.64q2.1-10.72,3.36-21.44Q327.77,204,338.49,201.93Z"/><path class="cls-6" d="M359.82,164.63q-9.24-.76-18.48-1.33A134,134,0,0,0,338.49,144q8.76,1.72,17.53,4A75.54,75.54,0,0,1,359.82,164.63Z"/><path class="cls-6" d="M317.06,205.29Q315.8,216,313.7,226.73a134,134,0,0,1-19.32,2.85q.71-11.29,1.12-22.59Q306.28,206.57,317.06,205.29Z"/><path class="cls-6" d="M242.83,110.12c-2.35,4.91-4.44,9.81-6.23,14.71q-7.36,2.72-14.72,6.23A76.07,76.07,0,0,1,242.83,110.12Z"/><path class="cls-6" d="M276.38,97.87q-.74,9.24-1.32,18.47a134.1,134.1,0,0,0-19.31,2.85q1.71-8.76,4-17.53A75.05,75.05,0,0,1,276.38,97.87Z"/><path class="cls-6" d="M236.59,124.83q-7.35,2.7-14.71,6.24A75,75,0,0,0,213.43,148q8.76-2.27,17.52-4A151.16,151.16,0,0,1,236.59,124.83Z"/><path class="cls-6" d="M255.75,226.73a148.59,148.59,0,0,1-19.15-5.64A147.68,147.68,0,0,1,231,201.93q10.73,2.12,21.44,3.36Q253.65,216,255.75,226.73Z"/><path class="cls-6" d="M347.56,131.06q-7.35-3.52-14.71-6.23-2.7-7.35-6.23-14.71A75.89,75.89,0,0,1,347.56,131.06Z"/><path class="cls-6" d="M313.7,119.19a134,134,0,0,0-19.32-2.85q-.57-9.24-1.32-18.47a75,75,0,0,1,16.66,3.79Q312,110.42,313.7,119.19Z"/><path class="cls-6" d="M274,207q-10.79-.42-21.56-1.7-1.27-10.77-1.69-21.56,11.34.44,22.68.57C273.47,191.87,273.67,199.42,274,207Z"/><path class="cls-6" d="M273.38,184.3q-11.34-.13-22.68-.57-.44-10.77,0-21.54,11.34-.44,22.68-.57Q273.25,173,273.38,184.3Z"/><path class="cls-6" d="M318.75,183.73q-.42,10.78-1.69,21.56-10.79,1.28-21.56,1.7c.28-7.57.47-15.12.57-22.69Q307.41,184.17,318.75,183.73Z"/><path class="cls-6" d="M296.07,184.3q-11.34.15-22.69,0-.13-11.34,0-22.68,11.34-.15,22.69,0Q296.21,173,296.07,184.3Z"/><path class="cls-6" d="M318.75,183.73q-11.34.44-22.68.57.14-11.34,0-22.68,11.34.13,22.68.57Q319.17,173,318.75,183.73Z"/><path class="cls-6" d="M296.07,161.62q-11.34-.15-22.69,0,.14-11.35.57-22.68,10.77-.44,21.55,0Q295.92,150.28,296.07,161.62Z"/><path class="cls-6" d="M317.06,140.63q-10.79-1.27-21.56-1.69-.42-11.31-1.12-22.6a134,134,0,0,1,19.32,2.85Q315.8,129.92,317.06,140.63Z"/><path class="cls-6" d="M275.06,116.34q-.69,11.3-1.11,22.6-10.79.41-21.56,1.69,1.26-10.73,3.36-21.44A134.1,134.1,0,0,1,275.06,116.34Z"/><path class="cls-6" d="M252.39,140.63q-1.27,10.77-1.69,21.56-11.3.42-22.6,1.11A136.88,136.88,0,0,1,231,144Q241.68,141.9,252.39,140.63Z"/><path class="cls-6" d="M255.75,119.19q-2.1,10.73-3.36,21.44Q241.67,141.88,231,144a148,148,0,0,1,5.65-19.15A147,147,0,0,1,255.75,119.19Z"/><path class="cls-6" d="M231,144q-8.76,1.72-17.52,4a75,75,0,0,0-3.8,16.66q9.24-.75,18.47-1.32A136.88,136.88,0,0,1,231,144Z"/><path class="cls-6" d="M252.39,205.29Q241.67,204,231,201.93a136.53,136.53,0,0,1-2.85-19.31q11.29.7,22.6,1.11Q251.12,194.52,252.39,205.29Z"/><path class="cls-6" d="M341.34,163.3q-11.29-.7-22.59-1.11-.42-10.78-1.69-21.56,10.71,1.25,21.43,3.35A134,134,0,0,1,341.34,163.3Z"/><path class="cls-6" d="M338.49,144q-10.71-2.08-21.43-3.35-1.26-10.73-3.36-21.44a147.48,147.48,0,0,1,19.15,5.64A147.94,147.94,0,0,1,338.49,144Z"/><path class="cls-6" d="M341.34,182.62q-11.29.7-22.59,1.11.42-10.77,0-21.54,11.29.42,22.59,1.11A129.78,129.78,0,0,1,341.34,182.62Z"/><path class="cls-6" d="M295.5,138.94q-10.77-.44-21.55,0,.41-11.31,1.11-22.6a129.79,129.79,0,0,1,19.32,0Q295.09,127.64,295.5,138.94Z"/><path class="cls-6" d="M332.85,221.09q-2.7,7.35-6.23,14.71a75.71,75.71,0,0,1-16.9,8.46q2.28-8.77,4-17.53A149.06,149.06,0,0,0,332.85,221.09Z"/><path class="cls-6" d="M356,198a75.43,75.43,0,0,1-8.46,16.89q-7.35,3.54-14.71,6.24a147.62,147.62,0,0,0,5.64-19.16Q347.25,200.22,356,198Z"/><path class="cls-6" d="M294.38,229.58q-.57,9.24-1.32,18.47a75.57,75.57,0,0,0,16.66-3.79q2.26-8.77,4-17.53A134,134,0,0,1,294.38,229.58Z"/><path class="cls-6" d="M228.1,182.62q-9.22-.57-18.47-1.33a75.65,75.65,0,0,1,0-16.66q9.24-.76,18.47-1.33A132.54,132.54,0,0,0,228.1,182.62Z"/><path class="cls-6" d="M231,201.94q-8.76-1.73-17.52-4a75,75,0,0,0,8.45,16.89q7.37,3.54,14.71,6.24A151.16,151.16,0,0,1,231,201.94Z"/><path class="cls-6" d="M228.1,182.62q-9.24-.57-18.47-1.32a75,75,0,0,0,3.8,16.66q8.76,2.26,17.52,4A136.88,136.88,0,0,1,228.1,182.62Z"/><path class="cls-6" d="M221.88,214.85a76.24,76.24,0,0,0,21,21q-3.53-7.35-6.24-14.71Q229.24,218.39,221.88,214.85Z"/><path class="cls-6" d="M294.38,229.58q-.57,9.24-1.32,18.47a75.83,75.83,0,0,1-16.68,0q-.74-9.23-1.32-18.47A129.78,129.78,0,0,0,294.38,229.58Z"/><path class="cls-6" d="M276.38,248.05a75.05,75.05,0,0,1-16.65-3.79q-2.28-8.77-4-17.53a134.1,134.1,0,0,0,19.31,2.85Q275.63,238.82,276.38,248.05Z"/><path class="cls-6" d="M236.59,221.09q2.72,7.35,6.24,14.71a75.29,75.29,0,0,0,16.9,8.46q-2.28-8.77-4-17.53A147.62,147.62,0,0,1,236.59,221.09Z"/><path class="cls-6" d="M347.56,214.85a75.93,75.93,0,0,1-20.94,21q3.53-7.35,6.23-14.71Q340.22,218.39,347.56,214.85Z"/><path class="cls-6" d="M332.85,124.83a147.48,147.48,0,0,0-19.15-5.64q-1.71-8.76-4-17.53a75.71,75.71,0,0,1,16.9,8.46Q330.15,117.49,332.85,124.83Z"/><path class="cls-6" d="M356,148q-8.76-2.27-17.53-4a147.94,147.94,0,0,0-5.64-19.15q7.36,2.72,14.71,6.23A75.71,75.71,0,0,1,356,148Z"/><path class="cls-6" d="M318.75,162.19q-11.34-.44-22.68-.57-.15-11.35-.57-22.68,10.78.41,21.56,1.69Q318.32,151.4,318.75,162.19Z"/><path class="cls-6" d="M360.27,173a78.84,78.84,0,0,1-.45,8.33q-9.24.77-18.48,1.33a129.78,129.78,0,0,0,0-19.32q9.24.57,18.48,1.33A78.84,78.84,0,0,1,360.27,173Z"/><path class="cls-6" d="M341.34,182.62a133.69,133.69,0,0,1-2.85,19.31q-10.71,2.12-21.43,3.36,1.26-10.77,1.69-21.56Q330,183.33,341.34,182.62Z"/><path class="cls-6" d="M275.06,229.58a134.1,134.1,0,0,1-19.31-2.85q-2.1-10.72-3.36-21.44,10.77,1.28,21.56,1.7Q274.36,218.29,275.06,229.58Z"/><path class="cls-6" d="M295.5,207q-.42,11.3-1.12,22.59a129.78,129.78,0,0,1-19.32,0Q274.37,218.29,274,207,284.72,207.41,295.5,207Z"/><path class="cls-6" d="M296.07,184.3c-.1,7.57-.29,15.12-.57,22.69q-10.77.42-21.55,0c-.28-7.57-.48-15.12-.57-22.69Q284.72,184.45,296.07,184.3Z"/><path class="cls-6" d="M250.7,183.73q-11.3-.4-22.6-1.11a132.54,132.54,0,0,1,0-19.32q11.29-.7,22.6-1.11Q250.27,173,250.7,183.73Z"/><path class="cls-6" d="M274,138.94q-.42,11.34-.57,22.68-11.34.13-22.68.57.42-10.78,1.69-21.56Q263.16,139.36,274,138.94Z"/><path class="cls-6" d="M294.38,116.34a129.79,129.79,0,0,0-19.32,0q.57-9.24,1.32-18.47a75.83,75.83,0,0,1,16.68,0Q293.81,107.11,294.38,116.34Z"/><path class="cls-6" d="M259.73,101.66q-2.28,8.76-4,17.53a147,147,0,0,0-19.15,5.64c1.79-4.9,3.88-9.8,6.23-14.71A75.29,75.29,0,0,1,259.73,101.66Z"/><circle class="cls-2" cx="284.91" cy="173.93" r="76.74"/><circle class="cls-6" cx="284.91" cy="173.93" r="76.74"/><g class="cls-23"><path class="cls-11" d="M340,118.81c-37.87-32.41-72.44-32.35-110.25,0M340,229.05c32.35-37.8,32.41-72.37,0-110.24M229.79,229.05c37.81,32.35,72.38,32.41,110.25,0M229.79,118.81c-32.41,37.87-32.35,72.44,0,110.24m123-15.75c-46.36,23.19-89.44,23.2-135.81,0m135.81-78.74c-46.36-23.19-89.44-23.2-135.81,0m144.33,15.75c-51.71-13.88-101.17-13.87-152.85,0M365.6,166.06a951.4,951.4,0,0,0-161.37,0M365.6,181.8a951.4,951.4,0,0,1-161.37,0m157.11,15.75c-51.71,13.88-101.17,13.87-152.85,0M340,229.05c32.35-37.8,32.41-72.37,0-110.24m-110.25,0c-32.41,37.87-32.35,72.44,0,110.24m15.75,12.78c-23.19-46.37-23.18-89.45,0-135.8m78.75,135.8c23.19-46.37,23.18-89.45,0-135.8M308.54,250.35c13.87-51.67,13.88-101.14,0-152.84m-15.75,157.1a951.28,951.28,0,0,0,0-161.36M277,254.61a951.28,951.28,0,0,1,0-161.36m-15.75,157.1c-13.87-51.67-13.88-101.14,0-152.84"/></g><circle class="cls-9" cx="284.91" cy="173.93" r="76.74"/><rect class="cls-9" x="279.64" y="70.24" width="10.55" height="17.59" rx="5.23"/><path class="cls-12" d="M243.42,106.57a161.64,161.64,0,0,0-8.17,18.33A165.5,165.5,0,0,0,216.76,133a149.3,149.3,0,0,1,11.79-14.72A149,149,0,0,1,243.42,106.57Z"/><rect class="cls-9" x="279.64" y="45.35" width="10.55" height="17.59" rx="5.23"/><line class="cls-9" x1="284.91" y1="57.88" x2="284.91" y2="75.46"/><line class="cls-9" x1="284.91" y1="83.04" x2="284.91" y2="96.28"/><path class="cls-12" d="M254.11,118.87q-2.1,10.71-3.36,21.43-10.71,1.24-21.42,3.36c1.4-6.39,3.88-12.17,6.23-18.55C241.94,122.76,247.73,120.28,254.11,118.87Z"/><line class="cls-9" x1="284.91" y1="37.01" x2="284.91" y2="50.25"/><path class="cls-12" d="M243.09,241.3A148,148,0,0,1,228.68,230a145.75,145.75,0,0,1-11.43-14.27,159.13,159.13,0,0,0,17.93,7.83A153.51,153.51,0,0,0,243.09,241.3Z"/><path class="cls-12" d="M275.36,95.3q-1,10.42-1.79,20.86a149.56,149.56,0,0,0-19.31,2.48q2.19-9.76,5.31-19.54A70.31,70.31,0,0,1,275.36,95.3Z"/><path class="cls-12" d="M353,132.27a164.15,164.15,0,0,0-18.22-7.94,158.42,158.42,0,0,0-8-18,148.14,148.14,0,0,1,14.64,11.48A148.42,148.42,0,0,1,353,132.27Z"/><path class="cls-12" d="M359.3,199.28a91.65,91.65,0,0,1-7.74,15.94,140.33,140.33,0,0,1-17,8.52,171.79,171.79,0,0,0,5.49-19.49C346.66,202.79,352.72,201.36,359.3,199.28Z"/><path class="cls-13" d="M294.59,232.38q-.75,9.87-1.8,19.74a69.22,69.22,0,0,1-15.76,0q-1-9.87-1.79-19.74A160.16,160.16,0,0,0,294.59,232.38Z"/><path class="cls-12" d="M318.79,208.09q-1.26,10.71-3.36,21.43h0a133.93,133.93,0,0,1-19.31,2.86c.47-7.54.84-15.06,1.12-22.6Q308,209.38,318.79,208.09Z"/><path class="cls-12" d="M343.08,185.42a129.16,129.16,0,0,1-3,18.83c-7.15,1.4-14.14,3-21.28,3.84q1.27-10.78,1.69-21.55Q331.78,186.12,343.08,185.42Z"/><path class="cls-12" d="M320.48,184.72q-11.34.42-22.68.56.13-11.35,0-22.7,11.34.15,22.68.56Q320.91,173.93,320.48,184.72Z"/><path class="cls-12" d="M315.69,118.87h0a153.41,153.41,0,0,0-19.3-2.46q-.74-10.35-1.79-20.71a71.1,71.1,0,0,1,15.79,3.78Q313.49,109.17,315.69,118.87Z"/><path class="cls-12" d="M250.82,140.3q-1.27,10.77-1.7,21.55-11.28.42-22.58,1.12a133.69,133.69,0,0,1,2.85-19.31Q240.12,141.55,250.82,140.3Z"/><path class="cls-12" d="M363.6,173.93a70.14,70.14,0,0,1-.44,7.88q-9.86,1-19.71,1.79a158,158,0,0,0,0-19.34q9.85.74,19.72,1.79A70.27,70.27,0,0,1,363.6,173.93Z"/><path class="cls-12" d="M272.59,209.79q-10.77-.42-21.55-1.69h0q-1.26-10.78-1.69-21.55,11.34.42,22.69.56Q272.17,198.45,272.59,209.79Z"/><path class="cls-12" d="M226.53,182.31q-10.11-.74-20.22-1.79a67.72,67.72,0,0,1,0-15.76q10.11-1,20.23-1.79A154.08,154.08,0,0,0,226.53,182.31Z"/><path class="cls-12" d="M335,223.11a144.7,144.7,0,0,1-8.51,17.3,92.41,92.41,0,0,1-15.94,7.91q3.12-10.09,5.31-20.16A161,161,0,0,0,335,223.11Z"/><path class="cls-12" d="M254.26,229a147,147,0,0,1-19.15-5.64,145.8,145.8,0,0,1-5.64-19.14q10.72,2.08,21.43,3.35h0Q252.16,218.3,254.26,229Z"/><path class="cls-12" d="M340.47,143.66q-10.73-2.11-21.43-3.36-1.26-10.71-3.35-21.43a147.34,147.34,0,0,1,19.14,5.64A147,147,0,0,1,340.47,143.66Z"/><path class="cls-14" d="M295.7,137.72q.42,11.34.56,22.69-11.36-.15-22.69,0,.14-11.35.56-22.69"/><path class="cls-24" d="M273.84,137.72c7.2-.28,15-.28,22.16,0"/><path class="cls-25" d="M584.94,182.76a75.44,75.44,0,0,1-3.79,16.66q-8.77,2.28-17.53,4a136.53,136.53,0,0,0,2.85-19.31C572.62,183.71,578.79,183.27,584.94,182.76Z"/><path class="cls-26" d="M563.62,203.4A149.2,149.2,0,0,1,558,222.56a150.82,150.82,0,0,1-19.16,5.64q2.11-10.72,3.36-21.44Q552.91,205.5,563.62,203.4Z"/><path class="cls-26" d="M584.94,166.09c-6.15-.5-12.32-1-18.47-1.33a137,137,0,0,0-2.85-19.31q8.76,1.71,17.53,4A75.57,75.57,0,0,1,584.94,166.09Z"/><path class="cls-25" d="M542.18,206.76q-1.26,10.73-3.36,21.44a133.9,133.9,0,0,1-19.31,2.85q.69-11.3,1.11-22.6Q531.41,208,542.18,206.76Z"/><path class="cls-25" d="M468,111.58q-3.52,7.36-6.23,14.72-7.35,2.7-14.71,6.23A76.07,76.07,0,0,1,468,111.58Z"/><path class="cls-27" d="M501.51,99.34q-.75,9.22-1.32,18.46a135.47,135.47,0,0,0-19.32,2.86q1.72-8.76,4-17.53A74.46,74.46,0,0,1,501.51,99.34Z"/><path class="cls-28" d="M461.72,126.3q-7.35,2.7-14.71,6.23a75.71,75.71,0,0,0-8.46,16.9q8.76-2.27,17.53-4A147.48,147.48,0,0,1,461.72,126.3Z"/><path class="cls-27" d="M480.87,228.2a150.68,150.68,0,0,1-19.15-5.64,147.62,147.62,0,0,1-5.64-19.16q10.71,2.1,21.43,3.36Q478.77,217.49,480.87,228.2Z"/><path class="cls-27" d="M572.69,132.53Q565.34,129,558,126.3q-2.7-7.36-6.24-14.72A76.24,76.24,0,0,1,572.69,132.53Z"/><path class="cls-25" d="M538.82,120.66a135.33,135.33,0,0,0-19.31-2.86q-.57-9.22-1.33-18.46a74.67,74.67,0,0,1,16.67,3.79Q537.12,111.89,538.82,120.66Z"/><path class="cls-26" d="M499.07,208.45q-10.77-.42-21.56-1.69-1.26-10.78-1.68-21.56,11.32.44,22.68.57Q498.65,197.11,499.07,208.45Z"/><path class="cls-27" d="M498.51,185.77q-11.36-.14-22.68-.57-.43-10.77,0-21.55,11.32-.42,22.68-.57Q498.36,174.44,498.51,185.77Z"/><path class="cls-28" d="M543.88,185.2q-.43,10.78-1.7,21.56-10.77,1.28-21.56,1.69.42-11.34.57-22.68Q532.53,185.64,543.88,185.2Z"/><path class="cls-26" d="M521.19,185.77q-11.34.15-22.68,0-.15-11.34,0-22.69,11.34-.14,22.68,0Q521.32,174.44,521.19,185.77Z"/><path class="cls-27" d="M543.88,185.2q-11.36.44-22.69.57.13-11.34,0-22.69,11.34.15,22.69.57Q544.29,174.44,543.88,185.2Z"/><path class="cls-28" d="M521.19,163.08q-11.34-.14-22.68,0,.14-11.34.56-22.68,10.79-.42,21.55,0Q521,151.74,521.19,163.08Z"/><path class="cls-28" d="M542.18,142.09q-10.77-1.28-21.56-1.69-.4-11.29-1.11-22.6a135.33,135.33,0,0,1,19.31,2.86Q540.93,131.39,542.18,142.09Z"/><path class="cls-28" d="M500.19,117.8q-.7,11.31-1.12,22.6-10.77.42-21.56,1.69,1.26-10.71,3.36-21.43A135.47,135.47,0,0,1,500.19,117.8Z"/><path class="cls-27" d="M477.51,142.09q-1.26,10.78-1.68,21.56-11.31.42-22.6,1.11a134.1,134.1,0,0,1,2.85-19.31Q466.79,143.35,477.51,142.09Z"/><path class="cls-26" d="M480.87,120.66q-2.08,10.72-3.36,21.43-10.71,1.26-21.43,3.36a147.94,147.94,0,0,1,5.64-19.15A147.48,147.48,0,0,1,480.87,120.66Z"/><path class="cls-26" d="M456.08,145.45q-8.76,1.71-17.53,4a74.46,74.46,0,0,0-3.79,16.66q9.23-.75,18.47-1.32A134,134,0,0,1,456.08,145.45Z"/><path class="cls-25" d="M477.51,206.76q-10.71-1.26-21.43-3.36a133.69,133.69,0,0,1-2.85-19.31q11.29.69,22.6,1.11Q476.24,196,477.51,206.76Z"/><path class="cls-25" d="M566.47,164.76q-11.29-.69-22.59-1.11-.43-10.78-1.7-21.56,10.73,1.26,21.44,3.36A137,137,0,0,1,566.47,164.76Z"/><path class="cls-27" d="M563.62,145.45q-10.73-2.1-21.44-3.36-1.26-10.71-3.36-21.43A147.62,147.62,0,0,1,558,126.3,149.53,149.53,0,0,1,563.62,145.45Z"/><path class="cls-28" d="M566.47,184.09q-11.29.69-22.59,1.11.4-10.77,0-21.55,11.29.42,22.59,1.11A129.92,129.92,0,0,1,566.47,184.09Z"/><path class="cls-25" d="M520.62,140.4q-10.77-.42-21.55,0,.42-11.29,1.12-22.6a132.54,132.54,0,0,1,19.32,0Q520.2,129.11,520.62,140.4Z"/><path class="cls-28" d="M558,222.56q-2.7,7.35-6.24,14.71a75,75,0,0,1-16.89,8.45q2.26-8.76,4-17.52A150.82,150.82,0,0,0,558,222.56Z"/><path class="cls-28" d="M581.15,199.42a75.29,75.29,0,0,1-8.46,16.9q-7.35,3.52-14.71,6.24a149.2,149.2,0,0,0,5.64-19.16Q572.38,201.69,581.15,199.42Z"/><path class="cls-27" d="M519.51,231.05q-.57,9.24-1.33,18.47a74.77,74.77,0,0,0,16.66-3.8q2.28-8.76,4-17.52A136.53,136.53,0,0,1,519.51,231.05Z"/><path class="cls-28" d="M453.23,184.09q-9.24-.57-18.47-1.33a75.74,75.74,0,0,1,0-16.67q9.24-.75,18.47-1.33A129.92,129.92,0,0,0,453.23,184.09Z"/><path class="cls-28" d="M456.08,203.4q-8.76-1.71-17.53-4a75.29,75.29,0,0,0,8.46,16.9q7.35,3.52,14.71,6.24A147.62,147.62,0,0,1,456.08,203.4Z"/><path class="cls-27" d="M453.23,184.09q-9.24-.57-18.47-1.33a74.33,74.33,0,0,0,3.79,16.66q8.76,2.28,17.53,4A133.9,133.9,0,0,1,453.23,184.09Z"/><path class="cls-26" d="M447,216.32a76.07,76.07,0,0,0,20.94,21q-3.52-7.36-6.23-14.71Q454.37,219.85,447,216.32Z"/><path class="cls-26" d="M519.51,231.05q-.57,9.24-1.33,18.47a75.74,75.74,0,0,1-16.67,0q-.75-9.24-1.32-18.47A129.78,129.78,0,0,0,519.51,231.05Z"/><path class="cls-25" d="M501.51,249.52a75,75,0,0,1-16.66-3.8q-2.27-8.76-4-17.52a134,134,0,0,0,19.32,2.85Q500.76,240.29,501.51,249.52Z"/><path class="cls-28" d="M461.72,222.56q2.7,7.35,6.23,14.71a75.25,75.25,0,0,0,16.9,8.45q-2.27-8.76-4-17.52A151.16,151.16,0,0,1,461.72,222.56Z"/><path class="cls-27" d="M572.69,216.32a76.24,76.24,0,0,1-21,21q3.54-7.36,6.24-14.71Q565.33,219.85,572.69,216.32Z"/><path class="cls-26" d="M558,126.3a147.62,147.62,0,0,0-19.16-5.64q-1.71-8.76-4-17.53a75.39,75.39,0,0,1,16.89,8.45Q555.28,118.95,558,126.3Z"/><path class="cls-28" d="M581.15,149.43q-8.77-2.27-17.53-4A149.53,149.53,0,0,0,558,126.3q7.35,2.7,14.71,6.23A75.71,75.71,0,0,1,581.15,149.43Z"/><path class="cls-26" d="M543.88,163.65q-11.36-.42-22.69-.57-.13-11.34-.57-22.68,10.78.42,21.56,1.69Q543.45,152.88,543.88,163.65Z"/><path class="cls-27" d="M585.4,174.43a76.38,76.38,0,0,1-.46,8.33c-6.15.51-12.32,1-18.47,1.33a129.92,129.92,0,0,0,0-19.33c6.15.38,12.32.83,18.47,1.33A76.57,76.57,0,0,1,585.4,174.43Z"/><path class="cls-27" d="M566.47,184.09a136.53,136.53,0,0,1-2.85,19.31q-10.73,2.1-21.44,3.36,1.27-10.78,1.7-21.56Q555.17,184.78,566.47,184.09Z"/><path class="cls-28" d="M500.19,231.05a134,134,0,0,1-19.32-2.85q-2.08-10.72-3.36-21.44,10.78,1.28,21.56,1.69Q499.49,219.76,500.19,231.05Z"/><path class="cls-27" d="M520.62,208.45q-.4,11.31-1.11,22.6a129.78,129.78,0,0,1-19.32,0q-.7-11.3-1.12-22.6Q509.86,208.89,520.62,208.45Z"/><path class="cls-25" d="M521.19,185.77q-.13,11.34-.57,22.68-10.77.44-21.55,0-.42-11.34-.56-22.68Q509.85,185.92,521.19,185.77Z"/><path class="cls-26" d="M475.83,185.2q-11.31-.42-22.6-1.11a129.92,129.92,0,0,1,0-19.33q11.29-.69,22.6-1.11Q475.4,174.44,475.83,185.2Z"/><path class="cls-25" d="M499.07,140.4q-.42,11.34-.56,22.68-11.36.15-22.68.57.41-10.78,1.68-21.56Q488.29,140.82,499.07,140.4Z"/><path class="cls-26" d="M519.51,117.8a132.54,132.54,0,0,0-19.32,0q.57-9.22,1.32-18.46a74.14,74.14,0,0,1,16.67,0Q518.95,108.57,519.51,117.8Z"/><path class="cls-7" d="M484.85,103.13q-2.27,8.76-4,17.53a147.48,147.48,0,0,0-19.15,5.64q2.7-7.36,6.23-14.72A75.68,75.68,0,0,1,484.85,103.13Z"/><circle class="cls-9" cx="510.04" cy="173.93" r="76.74"/><g class="cls-29"><path class="cls-11" d="M565.16,118.81c-37.87-32.41-72.44-32.35-110.24,0M565.16,229.05c32.35-37.8,32.41-72.37,0-110.24M454.92,229.05c37.8,32.35,72.37,32.41,110.24,0M454.92,118.81c-32.41,37.87-32.35,72.44,0,110.24m123-15.75c-46.35,23.19-89.43,23.2-135.8,0m135.8-78.74c-46.35-23.19-89.43-23.2-135.8,0m144.32,15.75c-51.7-13.88-101.17-13.87-152.84,0m157.1,15.75a951.28,951.28,0,0,0-161.36,0M590.72,181.8a951.28,951.28,0,0,1-161.36,0m157.1,15.75c-51.7,13.88-101.17,13.87-152.84,0m131.54,31.5c32.35-37.8,32.41-72.37,0-110.24m-110.24,0c-32.41,37.87-32.35,72.44,0,110.24m15.75,12.78c-23.19-46.37-23.19-89.45,0-135.8m78.74,135.8c23.2-46.37,23.19-89.45,0-135.8M533.66,250.35c13.88-51.67,13.88-101.14,0-152.84m-15.74,157.1a953.36,953.36,0,0,0,0-161.36M502.17,254.61a951.28,951.28,0,0,1,0-161.36m-15.75,157.1c-13.87-51.67-13.88-101.14,0-152.84"/></g><rect class="cls-9" x="504.76" y="70.24" width="10.55" height="17.59" rx="5.23"/><path class="cls-30" d="M468.54,106.57a159.79,159.79,0,0,0-8.16,18.33A164.7,164.7,0,0,0,441.89,133a147.85,147.85,0,0,1,11.79-14.72A148.83,148.83,0,0,1,468.54,106.57Z"/><rect class="cls-9" x="504.76" y="45.35" width="10.55" height="17.59" rx="5.23"/><line class="cls-9" x1="510.04" y1="57.88" x2="510.04" y2="75.46"/><line class="cls-9" x1="510.04" y1="83.04" x2="510.04" y2="96.28"/><path class="cls-30" d="M479.23,118.87q-2.1,10.71-3.36,21.43-10.69,1.24-21.42,3.36c1.41-6.39,3.88-12.17,6.23-18.55C467.06,122.76,472.85,120.28,479.23,118.87Z"/><line class="cls-9" x1="510.04" y1="37.01" x2="510.04" y2="50.25"/><path class="cls-30" d="M468.21,241.3A146.65,146.65,0,0,1,453.81,230a142.85,142.85,0,0,1-11.43-14.27,158.21,158.21,0,0,0,17.92,7.83A155.23,155.23,0,0,0,468.21,241.3Z"/><path class="cls-30" d="M500.48,95.3q-1.05,10.42-1.79,20.86a150,150,0,0,0-19.31,2.48q2.19-9.76,5.31-19.54A70.58,70.58,0,0,1,500.48,95.3Z"/><path class="cls-30" d="M578.13,132.27a162.54,162.54,0,0,0-18.22-7.94,160.11,160.11,0,0,0-8-18,146.85,146.85,0,0,1,14.63,11.48A145.49,145.49,0,0,1,578.13,132.27Z"/><path class="cls-30" d="M584.43,199.28a92.42,92.42,0,0,1-7.75,15.94,140.33,140.33,0,0,1-17,8.52,169.74,169.74,0,0,0,5.49-19.49C571.78,202.79,577.84,201.36,584.43,199.28Z"/><path class="cls-31" d="M519.71,232.38q-.74,9.87-1.79,19.74a69.22,69.22,0,0,1-15.76,0q-1.05-9.87-1.79-19.74A160,160,0,0,0,519.71,232.38Z"/><path class="cls-30" d="M543.91,208.09q-1.24,10.71-3.35,21.43h0a133.59,133.59,0,0,1-19.3,2.86c.46-7.54.84-15.06,1.12-22.6Q533.14,209.38,543.91,208.09Z"/><path class="cls-30" d="M568.2,185.42a126.51,126.51,0,0,1-3,18.83c-7.14,1.4-14.13,3-21.28,3.84q1.27-10.78,1.7-21.55Q556.91,186.12,568.2,185.42Z"/><path class="cls-30" d="M545.61,184.72c-7.57.28-15.12.46-22.69.56q.15-11.35,0-22.7c7.57.1,15.12.28,22.69.56Q546,173.93,545.61,184.72Z"/><path class="cls-30" d="M540.81,118.87h0a153.56,153.56,0,0,0-19.31-2.46q-.74-10.35-1.79-20.71a70.83,70.83,0,0,1,15.79,3.78Q538.62,109.17,540.81,118.87Z"/><path class="cls-30" d="M475.94,140.3q-1.28,10.77-1.69,21.55-11.29.42-22.59,1.12a135.13,135.13,0,0,1,2.86-19.31Q465.25,141.55,475.94,140.3Z"/><path class="cls-30" d="M588.73,173.93a70.14,70.14,0,0,1-.44,7.88q-9.87,1-19.72,1.79a160,160,0,0,0,0-19.34q9.85.74,19.72,1.79A70.27,70.27,0,0,1,588.73,173.93Z"/><path class="cls-30" d="M497.71,209.79q-10.77-.42-21.54-1.69h0q-1.28-10.78-1.69-21.55,11.34.42,22.69.56Q497.29,198.45,497.71,209.79Z"/><path class="cls-30" d="M451.65,182.31q-10.09-.74-20.21-1.79a67.72,67.72,0,0,1,0-15.76q10.11-1,20.22-1.79A158,158,0,0,0,451.65,182.31Z"/><path class="cls-30" d="M560.17,223.11a146.23,146.23,0,0,1-8.51,17.3,92.5,92.5,0,0,1-15.95,7.91q3.12-10.09,5.32-20.16A161,161,0,0,0,560.17,223.11Z"/><path class="cls-30" d="M479.38,229a147.34,147.34,0,0,1-19.14-5.64,145.8,145.8,0,0,1-5.64-19.14c7.15,1.39,14.27,2.51,21.42,3.35h0Q477.28,218.3,479.38,229Z"/><path class="cls-30" d="M565.6,143.66q-10.73-2.11-21.43-3.36-1.26-10.71-3.36-21.43A147.48,147.48,0,0,1,560,124.51,147,147,0,0,1,565.6,143.66Z"/><path class="cls-32" d="M520.83,137.72q.42,11.34.56,22.69-11.35-.15-22.7,0,.15-11.35.56-22.69"/><path class="cls-15" d="M499,137.72c7.19-.28,15-.28,22.16,0"/><circle class="cls-33" cx="87.2" cy="448.05" r="40.38"/><circle class="cls-34" cx="87.2" cy="263.43" r="40.38"/><circle class="cls-6" cx="87.2" cy="78.82" r="40.38"/><circle class="cls-5" cx="87.2" cy="355.74" r="40.38"/><circle class="cls-4" cx="87.2" cy="171.12" r="40.38"/></g></g></svg>