<svg xmlns="http://www.w3.org/2000/svg" xmlns:xlink="http://www.w3.org/1999/xlink" viewBox="0 0 651.86 526.86"><defs><style>.cls-1,.cls-14,.cls-16,.cls-7,.cls-9{fill:none;}.cls-13,.cls-17,.cls-18,.cls-19,.cls-2,.cls-20,.cls-22,.cls-23,.cls-24{fill:#fff;}.cls-10,.cls-11,.cls-12,.cls-13,.cls-14,.cls-16,.cls-17,.cls-18,.cls-19,.cls-2,.cls-20,.cls-22,.cls-23,.cls-24,.cls-7,.cls-9{stroke:#000;stroke-miterlimit:10;}.cls-2{stroke-width:1.86px;}.cls-3{fill:#d95448;}.cls-4{fill:#b5be55;}.cls-5{fill:#649e90;}.cls-6{fill:#8c2c23;}.cls-10,.cls-13,.cls-22,.cls-7{stroke-width:2.37px;}.cls-8{clip-path:url(#clip-path);}.cls-9{stroke-width:2.01px;}.cls-10,.cls-11,.cls-12,.cls-30{fill:#eabd36;}.cls-11,.cls-23{stroke-width:1.82px;}.cls-12,.cls-24{stroke-width:2.97px;}.cls-13,.cls-20{stroke-linecap:square;}.cls-14,.cls-17,.cls-20{stroke-width:2.37px;}.cls-15{clip-path:url(#clip-path-2);}.cls-16{stroke-width:2.01px;}.cls-18{stroke-width:1.82px;}.cls-19{stroke-width:2.97px;}.cls-21{clip-path:url(#clip-path-3);}.cls-25{fill:#ccc;}.cls-26{fill:#7b7b7b;}.cls-27{fill:#333;}.cls-28{fill:#666;}.cls-29{clip-path:url(#clip-path-4);}</style><clipPath id="clip-path"><circle class="cls-1" cx="284.91" cy="174.59" r="76.74"/></clipPath><clipPath id="clip-path-2"><circle class="cls-1" cx="285.3" cy="412.74" r="76.74"/></clipPath><clipPath id="clip-path-3"><circle class="cls-1" cx="510.04" cy="172.8" r="76.74"/></clipPath><clipPath id="clip-path-4"><circle class="cls-1" cx="510.04" cy="411.21" r="76.74"/></clipPath></defs><g id="Layer_2" data-name="Layer 2"><g id="Layer_1-2" data-name="Layer 1"><rect class="cls-2" x="0.93" y="0.93" width="650" height="525"/><path class="cls-3" d="M359.62,182.76a75,75,0,0,1-3.8,16.66q-8.76,2.27-17.53,4a134,134,0,0,0,2.85-19.32Q350.38,183.51,359.62,182.76Z"/><path class="cls-4" d="M338.29,203.4a148.53,148.53,0,0,1-5.63,19.15,148.08,148.08,0,0,1-19.16,5.64q2.1-10.71,3.36-21.43Q327.57,205.5,338.29,203.4Z"/><path class="cls-4" d="M359.62,166.09q-9.24-.75-18.48-1.33a134.1,134.1,0,0,0-2.85-19.31q8.77,1.71,17.53,4A74.77,74.77,0,0,1,359.62,166.09Z"/><path class="cls-3" d="M316.86,206.76q-1.26,10.71-3.36,21.43a135.47,135.47,0,0,1-19.32,2.86q.7-11.3,1.12-22.6Q306.09,208,316.86,206.76Z"/><path class="cls-3" d="M242.63,111.58q-3.52,7.36-6.23,14.72-7.36,2.7-14.72,6.23A76.24,76.24,0,0,1,242.63,111.58Z"/><path class="cls-5" d="M276.19,99.33q-.75,9.24-1.33,18.47a135.54,135.54,0,0,0-19.31,2.86q1.71-8.76,4-17.53A75,75,0,0,1,276.19,99.33Z"/><path class="cls-6" d="M236.4,126.3q-7.36,2.7-14.72,6.23a75.25,75.25,0,0,0-8.45,16.9q8.76-2.28,17.52-4A148.66,148.66,0,0,1,236.4,126.3Z"/><path class="cls-5" d="M255.55,228.19a147.48,147.48,0,0,1-19.15-5.64,147.08,147.08,0,0,1-5.65-19.15q10.73,2.1,21.44,3.36Q253.45,217.47,255.55,228.19Z"/><path class="cls-5" d="M347.36,132.53Q340,129,332.66,126.3q-2.71-7.36-6.24-14.72A76.07,76.07,0,0,1,347.36,132.53Z"/><path class="cls-3" d="M313.5,120.66a135.47,135.47,0,0,0-19.32-2.86q-.57-9.22-1.32-18.47a75,75,0,0,1,16.66,3.8Q311.8,111.89,313.5,120.66Z"/><path class="cls-4" d="M273.75,208.45Q263,208,252.19,206.76,250.92,196,250.5,185.2q11.34.42,22.68.57Q273.31,197.11,273.75,208.45Z"/><path class="cls-5" d="M273.18,185.77q-11.34-.15-22.68-.57-.42-10.77,0-21.55,11.34-.42,22.68-.57Q273,174.42,273.18,185.77Z"/><path class="cls-6" d="M318.55,185.2q-.42,10.78-1.69,21.56-10.78,1.28-21.56,1.69.42-11.34.57-22.68Q307.21,185.62,318.55,185.2Z"/><path class="cls-4" d="M295.87,185.77q-11.34.14-22.69,0-.14-11.34,0-22.69,11.35-.14,22.69,0Q296,174.42,295.87,185.77Z"/><path class="cls-5" d="M318.55,185.2q-11.34.42-22.68.57.13-11.34,0-22.69,11.34.15,22.68.57Q319,174.42,318.55,185.2Z"/><path class="cls-6" d="M295.87,163.08q-11.34-.14-22.69,0,.13-11.34.57-22.68,10.78-.43,21.55,0Q295.72,151.74,295.87,163.08Z"/><path class="cls-6" d="M316.86,142.09q-10.78-1.28-21.56-1.69-.42-11.29-1.12-22.6a135.47,135.47,0,0,1,19.32,2.86Q315.6,131.37,316.86,142.09Z"/><path class="cls-6" d="M274.86,117.8q-.69,11.3-1.11,22.6-10.78.42-21.56,1.69,1.26-10.72,3.36-21.43A135.54,135.54,0,0,1,274.86,117.8Z"/><path class="cls-5" d="M252.19,142.09q-1.27,10.77-1.69,21.56-11.3.42-22.6,1.11a137,137,0,0,1,2.85-19.31Q241.48,143.35,252.19,142.09Z"/><path class="cls-4" d="M255.55,120.66q-2.1,10.71-3.36,21.43-10.71,1.26-21.44,3.36a147.08,147.08,0,0,1,5.65-19.15A145.93,145.93,0,0,1,255.55,120.66Z"/><path class="cls-4" d="M230.75,145.45q-8.76,1.71-17.52,4a75,75,0,0,0-3.8,16.66q9.24-.75,18.47-1.33A137,137,0,0,1,230.75,145.45Z"/><path class="cls-3" d="M252.19,206.76q-10.71-1.26-21.44-3.36a136.88,136.88,0,0,1-2.85-19.32q11.31.71,22.6,1.12Q250.92,196,252.19,206.76Z"/><path class="cls-3" d="M341.14,164.76q-11.29-.69-22.59-1.11-.42-10.78-1.69-21.56,10.71,1.26,21.43,3.36A134.1,134.1,0,0,1,341.14,164.76Z"/><path class="cls-5" d="M338.29,145.45q-10.71-2.1-21.43-3.36-1.26-10.72-3.36-21.43a146.52,146.52,0,0,1,19.16,5.64A148.53,148.53,0,0,1,338.29,145.45Z"/><path class="cls-6" d="M341.14,184.08q-11.29.71-22.59,1.12.42-10.77,0-21.55,11.29.42,22.59,1.11A129.79,129.79,0,0,1,341.14,184.08Z"/><path class="cls-3" d="M295.3,140.4q-10.77-.43-21.55,0,.42-11.29,1.11-22.6a132.54,132.54,0,0,1,19.32,0Q294.89,129.1,295.3,140.4Z"/><path class="cls-6" d="M332.66,222.55q-2.71,7.37-6.24,14.72a75.47,75.47,0,0,1-16.9,8.45q2.28-8.78,4-17.53A148.08,148.08,0,0,0,332.66,222.55Z"/><path class="cls-6" d="M355.82,199.42a75,75,0,0,1-8.46,16.89q-7.35,3.54-14.7,6.24a148.53,148.53,0,0,0,5.63-19.15Q347.06,201.69,355.82,199.42Z"/><path class="cls-5" d="M294.18,231.05q-.57,9.22-1.32,18.46a74.46,74.46,0,0,0,16.66-3.79q2.26-8.76,4-17.53A135.47,135.47,0,0,1,294.18,231.05Z"/><path class="cls-6" d="M227.9,184.08q-9.22-.57-18.46-1.32a74.14,74.14,0,0,1,0-16.67q9.23-.75,18.46-1.33A132.54,132.54,0,0,0,227.9,184.08Z"/><path class="cls-6" d="M230.75,203.4q-8.76-1.71-17.52-4a75.47,75.47,0,0,0,8.45,16.9q7.37,3.52,14.72,6.23A149.13,149.13,0,0,1,230.75,203.4Z"/><path class="cls-5" d="M227.9,184.08q-9.22-.56-18.47-1.32a75,75,0,0,0,3.8,16.66q8.76,2.28,17.52,4A136.88,136.88,0,0,1,227.9,184.08Z"/><path class="cls-4" d="M221.68,216.32a76.24,76.24,0,0,0,20.95,21q-3.52-7.36-6.23-14.72Q229,219.85,221.68,216.32Z"/><path class="cls-4" d="M294.18,231.05q-.57,9.22-1.32,18.47a75.74,75.74,0,0,1-16.67,0q-.75-9.24-1.33-18.47A132.54,132.54,0,0,0,294.18,231.05Z"/><path class="cls-3" d="M276.19,249.52a75,75,0,0,1-16.66-3.8q-2.26-8.78-4-17.53a135.54,135.54,0,0,0,19.31,2.86Q275.43,240.27,276.19,249.52Z"/><path class="cls-6" d="M236.4,222.55q2.7,7.37,6.23,14.72a75.25,75.25,0,0,0,16.9,8.45q-2.28-8.76-4-17.53A147,147,0,0,1,236.4,222.55Z"/><path class="cls-5" d="M347.36,216.31a76,76,0,0,1-20.94,21q3.52-7.36,6.24-14.72Q340,219.85,347.36,216.31Z"/><path class="cls-4" d="M332.66,126.3a146.52,146.52,0,0,0-19.16-5.64q-1.71-8.76-4-17.53a75.47,75.47,0,0,1,16.9,8.45Q329.94,118.95,332.66,126.3Z"/><path class="cls-6" d="M355.82,149.43q-8.76-2.28-17.53-4a148.53,148.53,0,0,0-5.63-19.15q7.35,2.7,14.7,6.23A75.08,75.08,0,0,1,355.82,149.43Z"/><path class="cls-4" d="M318.55,163.65q-11.34-.42-22.68-.57-.14-11.34-.57-22.68,10.79.42,21.56,1.69Q318.12,152.86,318.55,163.65Z"/><path class="cls-5" d="M360.07,174.42a79.17,79.17,0,0,1-.45,8.34q-9.24.75-18.48,1.32a129.79,129.79,0,0,0,0-19.32q9.24.57,18.48,1.33A79.13,79.13,0,0,1,360.07,174.42Z"/><path class="cls-5" d="M341.14,184.08a134,134,0,0,1-2.85,19.32q-10.71,2.1-21.43,3.36,1.26-10.78,1.69-21.56Q329.85,184.78,341.14,184.08Z"/><path class="cls-6" d="M274.86,231.05a135.54,135.54,0,0,1-19.31-2.86q-2.1-10.71-3.36-21.43Q263,208,273.75,208.45,274.17,219.75,274.86,231.05Z"/><path class="cls-5" d="M295.3,208.45q-.42,11.3-1.12,22.6a132.54,132.54,0,0,1-19.32,0q-.69-11.3-1.11-22.6Q284.53,208.87,295.3,208.45Z"/><path class="cls-3" d="M295.87,185.77q-.14,11.34-.57,22.68-10.77.42-21.55,0-.42-11.34-.57-22.68Q284.53,185.91,295.87,185.77Z"/><path class="cls-4" d="M250.5,185.2q-11.3-.42-22.6-1.12a132.54,132.54,0,0,1,0-19.32q11.31-.69,22.6-1.11Q250.08,174.42,250.5,185.2Z"/><path class="cls-3" d="M273.75,140.4q-.42,11.34-.57,22.68-11.34.15-22.68.57.42-10.78,1.69-21.56Q263,140.82,273.75,140.4Z"/><path class="cls-4" d="M294.18,117.8a132.54,132.54,0,0,0-19.32,0q.57-9.22,1.33-18.47a75.74,75.74,0,0,1,16.67,0Q293.63,108.57,294.18,117.8Z"/><path class="cls-5" d="M259.53,103.13q-2.26,8.76-4,17.53a145.93,145.93,0,0,0-19.15,5.64q2.7-7.36,6.23-14.72A75.25,75.25,0,0,1,259.53,103.13Z"/><circle class="cls-7" cx="284.91" cy="174.59" r="76.74"/><g class="cls-8"><path class="cls-9" d="M340,119.47c-37.87-32.41-72.44-32.35-110.24,0M340,229.71c32.36-37.8,32.41-72.37,0-110.24M229.79,229.71c37.8,32.35,72.37,32.41,110.24,0M229.79,119.47c-32.41,37.87-32.35,72.44,0,110.24m123-15.75c-46.35,23.19-89.43,23.19-135.8,0m135.8-78.74c-46.35-23.19-89.43-23.2-135.8,0M361.33,151c-51.7-13.88-101.17-13.88-152.84,0m157.1,15.74a953.36,953.36,0,0,0-161.36,0m161.36,15.75a951.28,951.28,0,0,1-161.36,0m157.1,15.75c-51.7,13.88-101.17,13.87-152.84,0M340,229.71c32.36-37.8,32.41-72.37,0-110.24m-110.24,0c-32.41,37.87-32.35,72.44,0,110.24m15.75,12.78c-23.19-46.37-23.18-89.45,0-135.8m78.74,135.8c23.2-46.37,23.19-89.45,0-135.8M308.54,251c13.87-51.67,13.87-101.14,0-152.84m-15.75,157.1a951.28,951.28,0,0,0,0-161.36M277,255.27a951.28,951.28,0,0,1,0-161.36M261.29,251c-13.87-51.67-13.88-101.14,0-152.84"/></g><rect class="cls-7" x="279.64" y="70.9" width="10.55" height="17.59" rx="5.23"/><rect class="cls-7" x="279.64" y="46.01" width="10.55" height="17.59" rx="5.23"/><line class="cls-7" x1="284.91" y1="58.54" x2="284.91" y2="76.12"/><line class="cls-7" x1="284.91" y1="83.7" x2="284.91" y2="96.93"/><line class="cls-7" x1="284.91" y1="37.67" x2="284.91" y2="50.91"/><path class="cls-10" d="M243.41,107.23a159.79,159.79,0,0,0-8.16,18.33,164.7,164.7,0,0,0-18.49,8.08,147.85,147.85,0,0,1,11.79-14.72A148.83,148.83,0,0,1,243.41,107.23Z"/><path class="cls-10" d="M254.11,119.53Q252,130.24,250.75,141q-10.71,1.24-21.43,3.35c1.41-6.38,3.88-12.16,6.23-18.54C241.93,123.42,247.72,120.94,254.11,119.53Z"/><path class="cls-10" d="M243.09,242a148,148,0,0,1-14.41-11.33,142.85,142.85,0,0,1-11.43-14.27,159,159,0,0,0,17.92,7.83A154.36,154.36,0,0,0,243.09,242Z"/><path class="cls-10" d="M275.36,96q-1.07,10.42-1.8,20.86a150,150,0,0,0-19.31,2.48q2.19-9.76,5.32-19.54A70.31,70.31,0,0,1,275.36,96Z"/><path class="cls-10" d="M353,132.93A162.54,162.54,0,0,0,334.78,125a158.32,158.32,0,0,0-8-18,146.85,146.85,0,0,1,14.63,11.48A145.49,145.49,0,0,1,353,132.93Z"/><path class="cls-10" d="M359.3,199.94a92.42,92.42,0,0,1-7.75,15.94,140.85,140.85,0,0,1-17,8.51,171,171,0,0,0,5.48-19.48C346.65,203.45,352.71,202,359.3,199.94Z"/><path class="cls-11" d="M294.58,233q-.74,9.87-1.79,19.74a69.22,69.22,0,0,1-15.76,0q-1-9.87-1.79-19.74A160,160,0,0,0,294.58,233Z"/><path class="cls-10" d="M318.79,208.75q-1.26,10.71-3.36,21.43h0A133.93,133.93,0,0,1,296.12,233c.46-7.54.84-15.06,1.12-22.6Q308,210,318.79,208.75Z"/><path class="cls-10" d="M343.08,186.08a127.86,127.86,0,0,1-3,18.83c-7.14,1.4-14.13,3-21.27,3.84Q320,198,320.48,187.2,331.78,186.78,343.08,186.08Z"/><path class="cls-10" d="M320.48,185.37q-11.36.44-22.68.57.13-11.35,0-22.7,11.34.13,22.68.56Q320.9,174.59,320.48,185.37Z"/><path class="cls-10" d="M315.68,119.53h0a153.56,153.56,0,0,0-19.31-2.46q-.74-10.35-1.79-20.71a70.83,70.83,0,0,1,15.79,3.78Q313.49,109.83,315.68,119.53Z"/><path class="cls-10" d="M250.81,141q-1.27,10.77-1.69,21.55c-7.52.28-15.06.65-22.58,1.11a134.1,134.1,0,0,1,2.85-19.31Q240.12,142.21,250.81,141Z"/><path class="cls-10" d="M363.6,174.59a70.14,70.14,0,0,1-.44,7.88q-9.87,1-19.71,1.79a158,158,0,0,0,0-19.34q9.85.74,19.72,1.79A70.27,70.27,0,0,1,363.6,174.59Z"/><path class="cls-10" d="M272.59,210.45c-7.19-.28-14.36-.84-21.55-1.69h0q-1.28-10.78-1.69-21.56,11.34.44,22.69.57Q272.17,199.11,272.59,210.45Z"/><path class="cls-10" d="M226.53,183q-10.11-.74-20.22-1.79a67.72,67.72,0,0,1,0-15.76q10.11-1,20.23-1.8A154.24,154.24,0,0,0,226.53,183Z"/><path class="cls-10" d="M335,223.76a145.59,145.59,0,0,1-8.51,17.31A92.41,92.41,0,0,1,310.59,249q3.11-10.09,5.31-20.16A159.13,159.13,0,0,0,335,223.76Z"/><path class="cls-10" d="M254.25,229.68A147.34,147.34,0,0,1,235.11,224a145.48,145.48,0,0,1-5.64-19.15q10.72,2.1,21.42,3.36h0Q252.16,219,254.25,229.68Z"/><path class="cls-10" d="M340.47,144.31Q329.75,142.21,319,141q-1.26-10.71-3.36-21.43a147,147,0,0,1,19.15,5.64A147.34,147.34,0,0,1,340.47,144.31Z"/><path class="cls-12" d="M295.7,138.38q.42,11.34.56,22.69-11.36-.15-22.69,0,.14-11.35.55-22.69"/><path class="cls-13" d="M273.84,138.38c7.19-.28,15-.28,22.16,0"/><path class="cls-3" d="M360,420.91a75.57,75.57,0,0,1-3.79,16.66q-8.78,2.26-17.53,4a136.88,136.88,0,0,0,2.85-19.32Q350.77,421.66,360,420.91Z"/><path class="cls-4" d="M338.69,441.55a151.16,151.16,0,0,1-5.64,19.15,148.08,148.08,0,0,1-19.16,5.64q2.1-10.72,3.36-21.43Q328,443.65,338.69,441.55Z"/><path class="cls-4" d="M360,404.24q-9.24-.76-18.47-1.33a136.88,136.88,0,0,0-2.85-19.32q8.76,1.73,17.53,4A75.31,75.31,0,0,1,360,404.24Z"/><path class="cls-3" d="M317.25,444.91q-1.26,10.71-3.36,21.43a135.33,135.33,0,0,1-19.31,2.86q.69-11.31,1.11-22.6Q306.48,446.18,317.25,444.91Z"/><path class="cls-3" d="M243,349.73q-3.53,7.36-6.23,14.71-7.35,2.71-14.72,6.24A76.24,76.24,0,0,1,243,349.73Z"/><path class="cls-5" d="M276.58,337.48q-.75,9.24-1.33,18.47a134.1,134.1,0,0,0-19.31,2.85q1.71-8.76,4-17.52A75,75,0,0,1,276.58,337.48Z"/><path class="cls-6" d="M236.79,364.44q-7.36,2.71-14.72,6.24a75.25,75.25,0,0,0-8.45,16.9q8.76-2.28,17.52-4A149.26,149.26,0,0,1,236.79,364.44Z"/><path class="cls-5" d="M255.94,466.34a147.48,147.48,0,0,1-19.15-5.64,149.6,149.6,0,0,1-5.65-19.15q10.73,2.1,21.44,3.36Q253.84,455.62,255.94,466.34Z"/><path class="cls-5" d="M347.76,370.68q-7.36-3.53-14.71-6.24-2.71-7.35-6.24-14.71A76.24,76.24,0,0,1,347.76,370.68Z"/><path class="cls-3" d="M313.89,358.8A133.9,133.9,0,0,0,294.58,356q-.57-9.24-1.33-18.47a75,75,0,0,1,16.66,3.8Q312.19,350,313.89,358.8Z"/><path class="cls-4" d="M274.14,446.6q-10.77-.42-21.56-1.69-1.26-10.79-1.69-21.56,11.34.42,22.68.57Q273.71,435.26,274.14,446.6Z"/><path class="cls-5" d="M273.57,423.92q-11.34-.15-22.68-.57-.42-10.78,0-21.55,11.34-.44,22.68-.57Q273.44,412.57,273.57,423.92Z"/><path class="cls-6" d="M318.94,423.35q-.42,10.77-1.69,21.56-10.78,1.26-21.56,1.69.42-11.34.57-22.68Q307.6,423.77,318.94,423.35Z"/><path class="cls-4" d="M296.26,423.92q-11.34.13-22.69,0-.13-11.35,0-22.69,11.35-.15,22.69,0Q296.4,412.57,296.26,423.92Z"/><path class="cls-5" d="M318.94,423.35q-11.34.42-22.68.57.14-11.35,0-22.69,11.34.13,22.68.57Q319.36,412.57,318.94,423.35Z"/><path class="cls-6" d="M296.26,401.23q-11.34-.15-22.69,0,.14-11.34.57-22.68,10.78-.44,21.55,0Q296.11,389.89,296.26,401.23Z"/><path class="cls-6" d="M317.25,380.24q-10.78-1.28-21.56-1.69-.42-11.31-1.11-22.6a133.9,133.9,0,0,1,19.31,2.85Q316,369.53,317.25,380.24Z"/><path class="cls-6" d="M275.25,356q-.69,11.3-1.11,22.6-10.77.42-21.56,1.69,1.26-10.73,3.36-21.44A134.1,134.1,0,0,1,275.25,356Z"/><path class="cls-5" d="M252.58,380.24q-1.26,10.77-1.69,21.56-11.29.42-22.6,1.11a136.88,136.88,0,0,1,2.85-19.32Q241.87,381.51,252.58,380.24Z"/><path class="cls-4" d="M255.94,358.8q-2.1,10.72-3.36,21.44-10.71,1.26-21.44,3.35a149.6,149.6,0,0,1,5.65-19.15A149.06,149.06,0,0,1,255.94,358.8Z"/><path class="cls-4" d="M231.14,383.6q-8.76,1.71-17.52,4a74.9,74.9,0,0,0-3.8,16.66q9.24-.76,18.47-1.33A136.74,136.74,0,0,1,231.14,383.6Z"/><path class="cls-3" d="M252.58,444.91q-10.71-1.26-21.44-3.36a136.88,136.88,0,0,1-2.85-19.32q11.31.7,22.6,1.12Q251.31,434.12,252.58,444.91Z"/><path class="cls-3" d="M341.54,402.91c-7.54-.46-15.06-.83-22.6-1.11q-.42-10.79-1.69-21.56,10.71,1.26,21.44,3.35A136.88,136.88,0,0,1,341.54,402.91Z"/><path class="cls-5" d="M338.69,383.59q-10.72-2.08-21.44-3.35-1.26-10.73-3.36-21.44a149.67,149.67,0,0,1,19.16,5.64A151.16,151.16,0,0,1,338.69,383.59Z"/><path class="cls-6" d="M341.54,422.23c-7.54.47-15.06.84-22.6,1.12q.42-10.78,0-21.55c7.54.28,15.06.65,22.6,1.11A129.78,129.78,0,0,1,341.54,422.23Z"/><path class="cls-3" d="M295.69,378.55q-10.77-.44-21.55,0,.42-11.31,1.11-22.6a129.92,129.92,0,0,1,19.33,0Q295.27,367.25,295.69,378.55Z"/><path class="cls-6" d="M333.05,460.7q-2.71,7.35-6.24,14.72a75.25,75.25,0,0,1-16.9,8.45q2.28-8.78,4-17.53A148.08,148.08,0,0,0,333.05,460.7Z"/><path class="cls-6" d="M356.22,437.57a75.43,75.43,0,0,1-8.46,16.89q-7.36,3.54-14.71,6.24a151.16,151.16,0,0,0,5.64-19.15Q347.45,439.84,356.22,437.57Z"/><path class="cls-5" d="M294.58,469.19q-.57,9.24-1.33,18.47a74.46,74.46,0,0,0,16.66-3.79q2.28-8.76,4-17.53A134.1,134.1,0,0,1,294.58,469.19Z"/><path class="cls-6" d="M228.29,422.23q-9.22-.57-18.46-1.32a74.14,74.14,0,0,1,0-16.67q9.22-.76,18.46-1.33A132.54,132.54,0,0,0,228.29,422.23Z"/><path class="cls-6" d="M231.15,441.55q-8.78-1.71-17.53-4a75.68,75.68,0,0,0,8.45,16.9q7.37,3.52,14.72,6.23A147.48,147.48,0,0,1,231.15,441.55Z"/><path class="cls-5" d="M228.29,422.23q-9.22-.57-18.47-1.32a75,75,0,0,0,3.8,16.66q8.76,2.26,17.53,4A135.47,135.47,0,0,1,228.29,422.23Z"/><path class="cls-4" d="M222.07,454.47a76.07,76.07,0,0,0,21,20.94q-3.53-7.35-6.23-14.71Q229.43,458,222.07,454.47Z"/><path class="cls-4" d="M294.58,469.2q-.57,9.23-1.33,18.46a74.14,74.14,0,0,1-16.67,0q-.75-9.23-1.33-18.46A132.68,132.68,0,0,0,294.58,469.2Z"/><path class="cls-3" d="M276.58,487.66a75,75,0,0,1-16.66-3.79q-2.26-8.78-4-17.53a135.54,135.54,0,0,0,19.31,2.86Q275.82,478.43,276.58,487.66Z"/><path class="cls-6" d="M236.79,460.7q2.7,7.35,6.23,14.71a75.29,75.29,0,0,0,16.9,8.46q-2.28-8.76-4-17.53A147.48,147.48,0,0,1,236.79,460.7Z"/><path class="cls-5" d="M347.76,454.46a76.27,76.27,0,0,1-20.95,21q3.53-7.37,6.24-14.72Q340.4,458,347.76,454.46Z"/><path class="cls-4" d="M333.05,364.44a149.67,149.67,0,0,0-19.16-5.64q-1.71-8.76-4-17.52a74.84,74.84,0,0,1,16.9,8.45Q330.34,357.1,333.05,364.44Z"/><path class="cls-6" d="M356.22,387.58q-8.78-2.28-17.53-4a151.16,151.16,0,0,0-5.64-19.15q7.35,2.71,14.71,6.24A75.29,75.29,0,0,1,356.22,387.58Z"/><path class="cls-4" d="M318.94,401.8q-11.34-.44-22.68-.57-.13-11.34-.57-22.68,10.79.42,21.56,1.69Q318.51,391,318.94,401.8Z"/><path class="cls-5" d="M360.47,412.57a79.16,79.16,0,0,1-.46,8.34q-9.24.75-18.47,1.32a129.78,129.78,0,0,0,0-19.32q9.22.57,18.47,1.33A78.82,78.82,0,0,1,360.47,412.57Z"/><path class="cls-5" d="M341.54,422.23a136.88,136.88,0,0,1-2.85,19.32q-10.72,2.1-21.44,3.36,1.26-10.79,1.69-21.56C326.48,423.07,334,422.7,341.54,422.23Z"/><path class="cls-6" d="M275.25,469.2a135.54,135.54,0,0,1-19.31-2.86q-2.1-10.72-3.36-21.43,10.78,1.26,21.56,1.69Q274.56,457.9,275.25,469.2Z"/><path class="cls-5" d="M295.69,446.6q-.42,11.29-1.11,22.6a132.68,132.68,0,0,1-19.33,0q-.69-11.31-1.11-22.6Q284.92,447,295.69,446.6Z"/><path class="cls-3" d="M296.26,423.92q-.13,11.34-.57,22.68-10.77.42-21.55,0-.42-11.34-.57-22.68Q284.92,424.05,296.26,423.92Z"/><path class="cls-4" d="M250.89,423.35q-11.29-.42-22.6-1.12a132.54,132.54,0,0,1,0-19.32q11.31-.69,22.6-1.11Q250.47,412.57,250.89,423.35Z"/><path class="cls-3" d="M274.14,378.55q-.42,11.34-.57,22.68-11.34.13-22.68.57.42-10.79,1.69-21.56Q263.36,379,274.14,378.55Z"/><path class="cls-4" d="M294.58,356a129.92,129.92,0,0,0-19.33,0q.57-9.24,1.33-18.47a75.74,75.74,0,0,1,16.67,0Q294,346.72,294.58,356Z"/><path class="cls-5" d="M259.92,341.28q-2.26,8.76-4,17.52a149.06,149.06,0,0,0-19.15,5.64q2.7-7.35,6.23-14.71A74.84,74.84,0,0,1,259.92,341.28Z"/><circle class="cls-14" cx="285.3" cy="412.74" r="76.74"/><g class="cls-15"><path class="cls-16" d="M340.42,357.62c-37.86-32.41-72.44-32.36-110.24,0M340.42,467.86c32.36-37.8,32.41-72.37,0-110.24M230.18,467.86c37.8,32.35,72.38,32.41,110.24,0M230.18,357.62c-32.41,37.87-32.35,72.44,0,110.24m123-15.75c-46.36,23.18-89.44,23.19-135.81,0m135.81-78.75c-46.36-23.18-89.44-23.19-135.81,0m144.33,15.75c-51.71-13.88-101.17-13.87-152.85,0M366,404.86a951.4,951.4,0,0,0-161.37,0M366,420.61a951.4,951.4,0,0,1-161.37,0m157.11,15.75c-51.71,13.88-101.17,13.87-152.85,0m131.54,31.5c32.36-37.8,32.41-72.37,0-110.24m-110.24,0c-32.41,37.87-32.35,72.44,0,110.24m15.75,12.78c-23.19-46.37-23.18-89.45,0-135.8m78.75,135.8c23.19-46.37,23.18-89.45,0-135.8M308.93,489.16c13.87-51.68,13.88-101.14,0-152.85M293.18,493.42a951.4,951.4,0,0,0,0-161.37M277.43,493.42a951.4,951.4,0,0,1,0-161.37M261.68,489.16c-13.87-51.68-13.88-101.14,0-152.85"/></g><rect class="cls-14" x="280.03" y="309.05" width="10.55" height="17.59" rx="5.23"/><rect class="cls-14" x="280.03" y="284.15" width="10.55" height="17.59" rx="5.23"/><line class="cls-14" x1="285.3" y1="296.68" x2="285.3" y2="314.27"/><line class="cls-14" x1="285.3" y1="321.84" x2="285.3" y2="335.08"/><line class="cls-14" x1="285.3" y1="275.82" x2="285.3" y2="289.06"/><path class="cls-17" d="M243.8,345.37a160.89,160.89,0,0,0-8.16,18.34,161.12,161.12,0,0,0-18.49,8.08,148.14,148.14,0,0,1,11.79-14.72A150.4,150.4,0,0,1,243.8,345.37Z"/><path class="cls-17" d="M254.5,357.68q-2.1,10.71-3.36,21.43-10.71,1.25-21.43,3.35c1.41-6.38,3.88-12.16,6.23-18.54C242.33,361.57,248.12,359.09,254.5,357.68Z"/><path class="cls-17" d="M243.48,480.1a145,145,0,0,1-14.41-11.33,145.63,145.63,0,0,1-11.43-14.26,159,159,0,0,0,17.92,7.83A153.47,153.47,0,0,0,243.48,480.1Z"/><path class="cls-17" d="M275.75,334.11q-1,10.42-1.8,20.85a153.62,153.62,0,0,0-19.31,2.48q2.19-9.76,5.32-19.53A70.31,70.31,0,0,1,275.75,334.11Z"/><path class="cls-17" d="M353.4,371.08a162.3,162.3,0,0,0-18.22-7.94,157.64,157.64,0,0,0-8-18,148,148,0,0,1,14.64,11.47A148.54,148.54,0,0,1,353.4,371.08Z"/><path class="cls-17" d="M359.69,438.09A91.69,91.69,0,0,1,351.94,454a139.39,139.39,0,0,1-17,8.51,173.13,173.13,0,0,0,5.49-19.48C347,441.6,353.1,440.16,359.69,438.09Z"/><path class="cls-18" d="M295,471.18q-.75,9.87-1.8,19.75a70.78,70.78,0,0,1-15.76,0q-1.05-9.87-1.79-19.75A156.16,156.16,0,0,0,295,471.18Z"/><path class="cls-17" d="M319.18,446.9q-1.26,10.71-3.36,21.43h0a132.52,132.52,0,0,1-19.31,2.85q.71-11.3,1.12-22.59Q308.4,448.17,319.18,446.9Z"/><path class="cls-17" d="M343.47,424.23a129.6,129.6,0,0,1-3,18.83c-7.15,1.4-14.14,3-21.28,3.84q1.27-10.78,1.69-21.55Q332.17,424.93,343.47,424.23Z"/><path class="cls-17" d="M320.87,423.52q-11.34.44-22.68.57.13-11.35,0-22.7,11.34.14,22.68.56Q321.29,412.74,320.87,423.52Z"/><path class="cls-17" d="M316.08,357.68h0a153.41,153.41,0,0,0-19.3-2.46q-.75-10.37-1.8-20.71a70.82,70.82,0,0,1,15.79,3.77Q313.88,348,316.08,357.68Z"/><path class="cls-17" d="M251.21,379.11q-1.28,10.77-1.7,21.55c-7.52.28-15.06.65-22.58,1.11a134.1,134.1,0,0,1,2.85-19.31Q240.51,380.36,251.21,379.11Z"/><path class="cls-17" d="M364,412.74a70.27,70.27,0,0,1-.44,7.88q-9.85,1-19.71,1.79a158.13,158.13,0,0,0,0-19.35q9.85.75,19.72,1.8A70.27,70.27,0,0,1,364,412.74Z"/><path class="cls-17" d="M273,448.6c-7.19-.28-14.36-.85-21.55-1.69h0q-1.28-10.79-1.69-21.56,11.34.43,22.69.57Q272.55,437.26,273,448.6Z"/><path class="cls-17" d="M226.92,421.12q-10.11-.74-20.22-1.79a67.72,67.72,0,0,1,0-15.76q10.11-1.06,20.23-1.8A154.24,154.24,0,0,0,226.92,421.12Z"/><path class="cls-17" d="M335.43,461.91a144.08,144.08,0,0,1-8.51,17.31,91.65,91.65,0,0,1-15.94,7.9Q314.09,477,316.29,467A159.13,159.13,0,0,0,335.43,461.91Z"/><path class="cls-17" d="M254.64,467.83a147.34,147.34,0,0,1-19.14-5.64A145.93,145.93,0,0,1,229.86,443q10.72,2.1,21.42,3.36h0Q252.55,457.11,254.64,467.83Z"/><path class="cls-17" d="M340.86,382.46q-10.73-2.1-21.43-3.35-1.26-10.71-3.35-21.43a148.86,148.86,0,0,1,19.14,5.63A147.94,147.94,0,0,1,340.86,382.46Z"/><path class="cls-19" d="M296.09,376.53q.42,11.34.56,22.68-11.36-.13-22.69,0,.14-11.34.55-22.68"/><path class="cls-20" d="M274.23,376.53c7.19-.28,15-.28,22.16,0"/><circle class="cls-7" cx="510.04" cy="172.8" r="76.74"/><g class="cls-21"><path class="cls-9" d="M565.16,117.68c-37.87-32.41-72.44-32.36-110.24,0M565.16,227.92c32.35-37.81,32.41-72.37,0-110.24M454.92,227.92c37.8,32.35,72.37,32.41,110.24,0M454.92,117.68c-32.41,37.87-32.36,72.43,0,110.24m123-15.75c-46.36,23.18-89.43,23.19-135.8,0m135.8-78.75c-46.36-23.18-89.43-23.19-135.8,0m144.32,15.75c-51.71-13.88-101.17-13.87-152.84,0m157.1,15.75a951.28,951.28,0,0,0-161.36,0m161.36,15.75a951.28,951.28,0,0,1-161.36,0m157.1,15.75c-51.71,13.88-101.17,13.87-152.84,0m131.54,31.5c32.35-37.81,32.41-72.37,0-110.24m-110.24,0c-32.41,37.87-32.36,72.43,0,110.24m15.74,12.78c-23.19-46.37-23.18-89.45,0-135.81M549.41,240.7c23.19-46.37,23.18-89.45,0-135.81M533.66,249.22c13.87-51.68,13.88-101.14,0-152.85M517.91,253.48a951.4,951.4,0,0,0,0-161.37M502.16,253.48a951.4,951.4,0,0,1,0-161.37M486.41,249.22c-13.87-51.68-13.88-101.14,0-152.85"/></g><rect class="cls-7" x="504.76" y="69.11" width="10.55" height="17.59" rx="5.23"/><path class="cls-22" d="M468.54,105.43a159.15,159.15,0,0,0-8.16,18.34,161.26,161.26,0,0,0-18.5,8.08,150.9,150.9,0,0,1,11.79-14.73A153.12,153.12,0,0,1,468.54,105.43Z"/><rect class="cls-7" x="504.76" y="44.21" width="10.55" height="17.59" rx="5.23"/><line class="cls-7" x1="510.04" y1="56.74" x2="510.04" y2="74.33"/><line class="cls-7" x1="510.04" y1="81.9" x2="510.04" y2="95.14"/><path class="cls-22" d="M479.23,117.74q-2.1,10.71-3.36,21.43-10.69,1.25-21.42,3.35c1.41-6.38,3.88-12.16,6.23-18.54C467.06,121.63,472.85,119.15,479.23,117.74Z"/><line class="cls-7" x1="510.04" y1="35.88" x2="510.04" y2="49.12"/><path class="cls-22" d="M468.21,240.16a145,145,0,0,1-14.41-11.33,145.63,145.63,0,0,1-11.43-14.26,161,161,0,0,0,17.93,7.83A153.38,153.38,0,0,0,468.21,240.16Z"/><path class="cls-22" d="M500.48,94.17q-1.05,10.42-1.79,20.85a153.39,153.39,0,0,0-19.31,2.48q2.19-9.77,5.31-19.53A70.44,70.44,0,0,1,500.48,94.17Z"/><path class="cls-22" d="M578.13,131.14a161.51,161.51,0,0,0-18.22-7.94,157.64,157.64,0,0,0-8-18,146.88,146.88,0,0,1,14.64,11.47A147.06,147.06,0,0,1,578.13,131.14Z"/><path class="cls-22" d="M584.43,198.15a92.42,92.42,0,0,1-7.75,15.94,140.23,140.23,0,0,1-17,8.51,171,171,0,0,0,5.49-19.48C571.78,201.66,577.84,200.22,584.43,198.15Z"/><path class="cls-23" d="M519.71,231.24q-.74,9.87-1.79,19.75a70.78,70.78,0,0,1-15.76,0q-1.05-9.87-1.8-19.75A156.16,156.16,0,0,0,519.71,231.24Z"/><path class="cls-22" d="M543.91,207q-1.26,10.71-3.35,21.43h0a133.76,133.76,0,0,1-19.3,2.85q.69-11.3,1.11-22.59Q533.15,208.23,543.91,207Z"/><path class="cls-22" d="M568.2,184.29a126.93,126.93,0,0,1-3,18.83c-7.15,1.4-14.14,3-21.28,3.84q1.27-10.78,1.69-21.55Q556.91,185,568.2,184.29Z"/><path class="cls-22" d="M545.6,183.58q-11.34.43-22.68.57.15-11.35,0-22.7,11.34.13,22.68.56Q546,172.8,545.6,183.58Z"/><path class="cls-22" d="M540.81,117.74h0a151.36,151.36,0,0,0-19.3-2.46q-.74-10.36-1.79-20.71a71,71,0,0,1,15.79,3.77Q538.62,108,540.81,117.74Z"/><path class="cls-22" d="M475.94,139.17q-1.28,10.77-1.69,21.55-11.29.42-22.59,1.11a135.54,135.54,0,0,1,2.86-19.31Q465.23,140.42,475.94,139.17Z"/><path class="cls-22" d="M588.72,172.8a70.27,70.27,0,0,1-.44,7.88q-9.85,1-19.71,1.79a160.16,160.16,0,0,0,0-19.35q9.85.75,19.71,1.8A70.27,70.27,0,0,1,588.72,172.8Z"/><path class="cls-22" d="M497.71,208.66q-10.77-.42-21.55-1.69h0q-1.28-10.78-1.69-21.56,11.34.43,22.68.57Q497.3,197.32,497.71,208.66Z"/><path class="cls-22" d="M451.65,181.18q-10.11-.75-20.22-1.8a67.72,67.72,0,0,1,0-15.76q10.11-1.05,20.23-1.79A158.13,158.13,0,0,0,451.65,181.18Z"/><path class="cls-22" d="M560.17,222a145.59,145.59,0,0,1-8.51,17.31,91.74,91.74,0,0,1-15.95,7.9Q538.83,237.1,541,227A159.28,159.28,0,0,0,560.17,222Z"/><path class="cls-22" d="M479.38,227.89a147.94,147.94,0,0,1-19.15-5.64,146.32,146.32,0,0,1-5.63-19.15q10.71,2.1,21.42,3.36h0Q477.28,217.17,479.38,227.89Z"/><path class="cls-22" d="M565.59,142.52q-10.71-2.1-21.43-3.35-1.24-10.71-3.35-21.43A148.86,148.86,0,0,1,560,123.37,146.38,146.38,0,0,1,565.59,142.52Z"/><path class="cls-24" d="M520.83,136.59q.42,11.34.55,22.68-11.34-.14-22.69,0,.15-11.34.56-22.68"/><path class="cls-13" d="M499,136.59c7.2-.28,15-.28,22.16,0"/><path class="cls-25" d="M585.27,419.39a75,75,0,0,1-3.79,16.66q-8.78,2.26-17.53,4a134,134,0,0,0,2.85-19.32Q576,420.14,585.27,419.39Z"/><path class="cls-26" d="M564,440a147.94,147.94,0,0,1-5.64,19.15,147.48,147.48,0,0,1-19.15,5.64q2.1-10.72,3.36-21.43Q553.23,442.13,564,440Z"/><path class="cls-26" d="M585.27,402.72Q576,402,566.8,401.39A134,134,0,0,0,564,382.07q8.76,1.73,17.53,4A74.76,74.76,0,0,1,585.27,402.72Z"/><path class="cls-25" d="M542.52,443.39q-1.28,10.71-3.36,21.43a135.47,135.47,0,0,1-19.32,2.86q.69-11.31,1.12-22.6Q531.74,444.66,542.52,443.39Z"/><path class="cls-25" d="M468.29,348.21c-2.35,4.91-4.44,9.81-6.23,14.71q-7.37,2.71-14.72,6.24A76.24,76.24,0,0,1,468.29,348.21Z"/><path d="M501.84,336q-.73,9.24-1.32,18.47a134.44,134.44,0,0,0-19.32,2.85q1.73-8.76,4-17.52A74.81,74.81,0,0,1,501.84,336Z"/><path class="cls-27" d="M462.05,362.92q-7.35,2.71-14.71,6.24a75.29,75.29,0,0,0-8.46,16.9q8.78-2.28,17.53-4A149.2,149.2,0,0,1,462.05,362.92Z"/><path d="M481.2,464.82a147.34,147.34,0,0,1-19.14-5.64A146.45,146.45,0,0,1,456.41,440q10.72,2.1,21.43,3.36Q479.12,454.1,481.2,464.82Z"/><path d="M573,369.16q-7.35-3.53-14.71-6.24-2.7-7.35-6.24-14.71A76.1,76.1,0,0,1,573,369.16Z"/><path class="cls-25" d="M539.16,357.28a134,134,0,0,0-19.32-2.85q-.57-9.24-1.32-18.47a75,75,0,0,1,16.66,3.8Q537.45,348.52,539.16,357.28Z"/><path class="cls-26" d="M499.4,445.08q-10.77-.42-21.56-1.69-1.26-10.78-1.68-21.56,11.34.42,22.68.57C498.93,430,499.13,437.52,499.4,445.08Z"/><path d="M498.84,422.4q-11.34-.15-22.68-.57-.44-10.79,0-21.55,11.34-.43,22.68-.57Q498.71,411.05,498.84,422.4Z"/><path class="cls-27" d="M544.21,421.83q-.44,10.79-1.69,21.56-10.78,1.28-21.56,1.69.42-11.34.57-22.68Q532.86,422.25,544.21,421.83Z"/><path class="cls-26" d="M521.53,422.4q-11.34.14-22.69,0-.13-11.36,0-22.69,11.34-.15,22.69,0Q521.67,411.05,521.53,422.4Z"/><path d="M544.21,421.83q-11.34.42-22.68.57.13-11.36,0-22.69,11.33.14,22.68.57Q544.63,411.05,544.21,421.83Z"/><path class="cls-27" d="M521.53,399.71q-11.34-.15-22.69,0c.09-7.56.29-15.12.56-22.68q10.78-.43,21.56,0Q521.38,388.37,521.53,399.71Z"/><path class="cls-27" d="M542.52,378.72Q531.74,377.45,521,377q-.42-11.31-1.12-22.6a134,134,0,0,1,19.32,2.85Q541.26,368,542.52,378.72Z"/><path class="cls-27" d="M500.52,354.43q-.69,11.29-1.12,22.6-10.77.42-21.56,1.69,1.28-10.73,3.36-21.44A134.44,134.44,0,0,1,500.52,354.43Z"/><path d="M477.84,378.72q-1.26,10.77-1.68,21.56-11.3.42-22.6,1.11a136.88,136.88,0,0,1,2.85-19.32Q467.14,380,477.84,378.72Z"/><path class="cls-26" d="M481.2,357.28q-2.08,10.73-3.36,21.44-10.71,1.26-21.43,3.35a146.45,146.45,0,0,1,5.65-19.15A148.93,148.93,0,0,1,481.2,357.28Z"/><path class="cls-26" d="M456.41,382.08q-8.76,1.71-17.53,4a75.44,75.44,0,0,0-3.79,16.66q9.24-.77,18.47-1.33A135.3,135.3,0,0,1,456.41,382.08Z"/><path class="cls-25" d="M477.84,443.39q-10.71-1.26-21.43-3.36a136.88,136.88,0,0,1-2.85-19.32q11.29.71,22.6,1.12Q476.58,432.62,477.84,443.39Z"/><path class="cls-25" d="M566.8,401.39q-11.29-.69-22.59-1.11-.44-10.78-1.69-21.56Q553.23,380,564,382.07A134,134,0,0,1,566.8,401.39Z"/><path d="M564,382.07q-10.71-2.08-21.43-3.35-1.28-10.73-3.36-21.44a149.06,149.06,0,0,1,19.15,5.64A147.94,147.94,0,0,1,564,382.07Z"/><path class="cls-27" d="M566.8,420.71q-11.29.71-22.59,1.12.42-10.79,0-21.55,11.29.42,22.59,1.11A129.78,129.78,0,0,1,566.8,420.71Z"/><path class="cls-25" d="M521,377q-10.77-.43-21.56,0,.42-11.31,1.12-22.6a129.79,129.79,0,0,1,19.32,0Q520.53,365.73,521,377Z"/><path class="cls-27" d="M558.31,459.18q-2.7,7.36-6.24,14.72a75.39,75.39,0,0,1-16.89,8.45q2.27-8.78,4-17.53A147.48,147.48,0,0,0,558.31,459.18Z"/><path class="cls-27" d="M581.48,436.05A75.43,75.43,0,0,1,573,452.94q-7.35,3.54-14.71,6.24A147.94,147.94,0,0,0,564,440Q572.71,438.32,581.48,436.05Z"/><path d="M519.84,467.67q-.57,9.24-1.32,18.47a74.46,74.46,0,0,0,16.66-3.79q2.27-8.76,4-17.53A134,134,0,0,1,519.84,467.67Z"/><path class="cls-27" d="M453.56,420.71q-9.22-.57-18.47-1.32a75.74,75.74,0,0,1,0-16.67q9.24-.77,18.47-1.33A132.54,132.54,0,0,0,453.56,420.71Z"/><path class="cls-27" d="M456.41,440q-8.76-1.71-17.53-4a75.71,75.71,0,0,0,8.46,16.9q7.35,3.53,14.71,6.23A150.68,150.68,0,0,1,456.41,440Z"/><path d="M453.56,420.71q-9.24-.57-18.47-1.32a75.57,75.57,0,0,0,3.79,16.66q8.78,2.26,17.53,4A136.88,136.88,0,0,1,453.56,420.71Z"/><path class="cls-26" d="M447.34,453a76.07,76.07,0,0,0,21,20.94q-3.54-7.35-6.24-14.71Q454.7,456.48,447.34,453Z"/><path class="cls-26" d="M519.84,467.68q-.57,9.22-1.32,18.46a74.23,74.23,0,0,1-16.68,0q-.73-9.22-1.32-18.46A132.54,132.54,0,0,0,519.84,467.68Z"/><path class="cls-25" d="M501.84,486.14a74.8,74.8,0,0,1-16.65-3.79q-2.28-8.78-4-17.53a135.89,135.89,0,0,0,19.32,2.86Q501.09,476.91,501.84,486.14Z"/><path class="cls-27" d="M462.05,459.18q2.71,7.35,6.24,14.71a75.29,75.29,0,0,0,16.9,8.46q-2.28-8.76-4-17.53A147.62,147.62,0,0,1,462.05,459.18Z"/><path d="M573,452.94a76.14,76.14,0,0,1-20.95,21q3.54-7.36,6.24-14.72Q565.68,456.48,573,452.94Z"/><path class="cls-26" d="M558.31,362.92a149.06,149.06,0,0,0-19.15-5.64q-1.71-8.76-4-17.52a75,75,0,0,1,16.89,8.45Q555.61,355.58,558.31,362.92Z"/><path class="cls-27" d="M581.48,386.06q-8.78-2.28-17.53-4a147.94,147.94,0,0,0-5.64-19.15q7.37,2.71,14.71,6.24A75.29,75.29,0,0,1,581.48,386.06Z"/><path class="cls-26" d="M544.21,400.28q-11.34-.43-22.68-.57-.15-11.34-.57-22.68,10.78.42,21.56,1.69Q543.78,389.49,544.21,400.28Z"/><path d="M585.73,411.05a76.57,76.57,0,0,1-.46,8.34q-9.22.75-18.47,1.32a129.78,129.78,0,0,0,0-19.32q9.24.57,18.47,1.33A76.38,76.38,0,0,1,585.73,411.05Z"/><path d="M566.8,420.71A134,134,0,0,1,564,440q-10.71,2.1-21.43,3.36,1.26-10.78,1.69-21.56Q555.51,421.41,566.8,420.71Z"/><path class="cls-27" d="M500.52,467.68a135.89,135.89,0,0,1-19.32-2.86q-2.08-10.72-3.36-21.43,10.79,1.28,21.56,1.69Q499.82,456.38,500.52,467.68Z"/><path d="M521,445.08q-.42,11.3-1.12,22.6a132.54,132.54,0,0,1-19.32,0q-.69-11.31-1.12-22.6Q510.18,445.5,521,445.08Z"/><path class="cls-25" d="M521.53,422.4q-.15,11.34-.57,22.68-10.77.42-21.56,0c-.27-7.56-.47-15.12-.56-22.68Q510.18,422.54,521.53,422.4Z"/><path class="cls-26" d="M476.16,421.83q-11.3-.42-22.6-1.12a132.54,132.54,0,0,1,0-19.32q11.29-.69,22.6-1.11Q475.73,411.05,476.16,421.83Z"/><path class="cls-25" d="M499.4,377c-.27,7.56-.47,15.12-.56,22.68q-11.34.14-22.68.57.42-10.78,1.68-21.56Q488.63,377.45,499.4,377Z"/><path class="cls-26" d="M519.84,354.43a129.78,129.78,0,0,0-19.32,0q.57-9.24,1.32-18.47a75.83,75.83,0,0,1,16.68,0Q519.27,345.2,519.84,354.43Z"/><path class="cls-28" d="M485.19,339.76q-2.28,8.76-4,17.52a148.93,148.93,0,0,0-19.14,5.64c1.79-4.9,3.88-9.8,6.23-14.71A74.84,74.84,0,0,1,485.19,339.76Z"/><circle class="cls-7" cx="510.04" cy="411.21" r="76.74"/><g class="cls-29"><path class="cls-9" d="M565.16,356.09c-37.87-32.41-72.44-32.35-110.24,0M565.16,466.34c32.35-37.81,32.41-72.38,0-110.25M454.92,466.34c37.8,32.35,72.37,32.41,110.24,0M454.92,356.09c-32.41,37.87-32.36,72.44,0,110.25m123-15.75c-46.36,23.18-89.43,23.19-135.8,0m135.8-78.75c-46.36-23.18-89.43-23.19-135.8,0m144.32,15.75c-51.71-13.88-101.17-13.87-152.84,0m157.1,15.75a951.28,951.28,0,0,0-161.36,0m161.36,15.75a951.28,951.28,0,0,1-161.36,0m157.1,15.75c-51.71,13.88-101.17,13.87-152.84,0m131.54,31.5c32.35-37.81,32.41-72.38,0-110.25m-110.24,0c-32.41,37.87-32.36,72.44,0,110.25m15.75,12.78c-23.2-46.38-23.19-89.45,0-135.81m78.74,135.81c23.19-46.38,23.18-89.45,0-135.81M533.66,487.64c13.87-51.68,13.88-101.14,0-152.85M517.91,491.9a951.4,951.4,0,0,0,0-161.37M502.16,491.9a951.4,951.4,0,0,1,0-161.37M486.41,487.64c-13.87-51.68-13.88-101.14,0-152.85"/></g><rect class="cls-7" x="504.76" y="307.53" width="10.55" height="17.59" rx="5.23"/><rect class="cls-7" x="504.76" y="282.63" width="10.55" height="17.59" rx="5.23"/><line class="cls-7" x1="510.04" y1="295.16" x2="510.04" y2="312.75"/><line class="cls-7" x1="510.04" y1="320.32" x2="510.04" y2="333.56"/><line class="cls-7" x1="510.04" y1="274.3" x2="510.04" y2="287.53"/><path class="cls-22" d="M468.54,343.85a159.79,159.79,0,0,0-8.16,18.33,163.12,163.12,0,0,0-18.5,8.09,150.9,150.9,0,0,1,11.79-14.73A151.6,151.6,0,0,1,468.54,343.85Z"/><path class="cls-22" d="M479.23,356.16q-2.1,10.71-3.36,21.43-10.69,1.25-21.42,3.35c1.41-6.38,3.88-12.17,6.23-18.55C467.06,360,472.85,357.56,479.23,356.16Z"/><path class="cls-22" d="M468.21,478.58a145,145,0,0,1-14.41-11.33A145.75,145.75,0,0,1,442.37,453a159.23,159.23,0,0,0,17.93,7.84A153.38,153.38,0,0,0,468.21,478.58Z"/><path class="cls-22" d="M500.48,332.58q-1.05,10.43-1.79,20.86a153.39,153.39,0,0,0-19.31,2.48q2.19-9.76,5.31-19.53A71,71,0,0,1,500.48,332.58Z"/><path class="cls-22" d="M578.13,369.56a161.51,161.51,0,0,0-18.22-7.94,157.64,157.64,0,0,0-8-18,146.88,146.88,0,0,1,14.64,11.47A147.06,147.06,0,0,1,578.13,369.56Z"/><path class="cls-22" d="M584.43,436.56a92.87,92.87,0,0,1-7.75,15.95,141.7,141.7,0,0,1-17,8.51,171.63,171.63,0,0,0,5.49-19.48C571.78,440.08,577.84,438.64,584.43,436.56Z"/><path class="cls-23" d="M519.71,469.66q-.74,9.87-1.79,19.75a70.78,70.78,0,0,1-15.76,0q-1.05-9.87-1.8-19.75A156.16,156.16,0,0,0,519.71,469.66Z"/><path class="cls-22" d="M543.91,445.38q-1.26,10.71-3.35,21.43h0a133.76,133.76,0,0,1-19.3,2.85q.69-11.3,1.11-22.59Q533.15,446.65,543.91,445.38Z"/><path class="cls-22" d="M568.2,422.71a126.93,126.93,0,0,1-3,18.83c-7.15,1.4-14.14,3-21.28,3.84q1.27-10.78,1.69-21.56Q556.91,423.4,568.2,422.71Z"/><path class="cls-22" d="M545.6,422q-11.34.44-22.68.56.15-11.34,0-22.69,11.34.13,22.68.55Q546,411.22,545.6,422Z"/><path class="cls-22" d="M540.81,356.16h0a153.2,153.2,0,0,0-19.3-2.47q-.74-10.35-1.79-20.7a71,71,0,0,1,15.79,3.77Q538.62,346.47,540.81,356.16Z"/><path class="cls-22" d="M475.94,377.59q-1.28,10.77-1.69,21.54-11.29.42-22.59,1.12a135.33,135.33,0,0,1,2.86-19.31Q465.23,378.84,475.94,377.59Z"/><path class="cls-22" d="M588.72,411.22a70.09,70.09,0,0,1-.44,7.87q-9.85,1.07-19.71,1.8a160.16,160.16,0,0,0,0-19.35q9.85.73,19.71,1.79A70.45,70.45,0,0,1,588.72,411.22Z"/><path class="cls-22" d="M497.71,447.08q-10.77-.42-21.55-1.7h0q-1.28-10.77-1.69-21.55,11.34.44,22.68.56C497.25,432,497.43,439.51,497.71,447.08Z"/><path class="cls-22" d="M451.65,419.6q-10.11-.75-20.22-1.8a67.72,67.72,0,0,1,0-15.76q10.11-1.05,20.23-1.79A158.13,158.13,0,0,0,451.65,419.6Z"/><path class="cls-22" d="M560.17,460.39a145.59,145.59,0,0,1-8.51,17.31,92.46,92.46,0,0,1-15.95,7.9q3.12-10.08,5.31-20.15A159.28,159.28,0,0,0,560.17,460.39Z"/><path class="cls-22" d="M479.38,466.3a146.38,146.38,0,0,1-19.15-5.64,145.73,145.73,0,0,1-5.63-19.14q10.71,2.1,21.42,3.35h0Q477.28,455.6,479.38,466.3Z"/><path class="cls-22" d="M565.59,380.94q-10.71-2.1-21.43-3.35-1.24-10.71-3.35-21.43A147.28,147.28,0,0,1,560,361.79,146.38,146.38,0,0,1,565.59,380.94Z"/><path class="cls-24" d="M520.83,375q.42,11.36.55,22.69-11.34-.13-22.69,0,.15-11.34.56-22.69"/><path class="cls-13" d="M499,375c7.2-.28,15-.28,22.16,0"/><circle class="cls-5" cx="87.2" cy="448.85" r="40.38"/><circle class="cls-30" cx="87.2" cy="264.24" r="40.38"/><circle class="cls-6" cx="87.2" cy="79.62" r="40.38"/><circle class="cls-4" cx="87.2" cy="356.54" r="40.38"/><circle class="cls-3" cx="87.2" cy="171.93" r="40.38"/></g></g></svg>