<svg xmlns="http://www.w3.org/2000/svg" xmlns:xlink="http://www.w3.org/1999/xlink" viewBox="0 0 651.86 526.86"><defs><style>.cls-1,.cls-17,.cls-19,.cls-24,.cls-26,.cls-7,.cls-9{fill:none;}.cls-13,.cls-2,.cls-23,.cls-27,.cls-28,.cls-29,.cls-30{fill:#fff;}.cls-10,.cls-11,.cls-12,.cls-13,.cls-17,.cls-19,.cls-2,.cls-20,.cls-21,.cls-22,.cls-23,.cls-24,.cls-26,.cls-27,.cls-28,.cls-29,.cls-30,.cls-35,.cls-36,.cls-37,.cls-7,.cls-9{stroke:#000;stroke-miterlimit:10;}.cls-2{stroke-width:1.86px;}.cls-3{fill:#0d421d;}.cls-4{fill:#4bbf73;}.cls-5{fill:#7cdd95;}.cls-6{fill:#2f964f;}.cls-10,.cls-13,.cls-7{stroke-width:2.37px;}.cls-8{clip-path:url(#clip-path);}.cls-9{stroke-width:2.01px;}.cls-10,.cls-11,.cls-12{fill:#e6ffec;}.cls-11{stroke-width:1.82px;}.cls-12{stroke-width:2.97px;}.cls-13,.cls-23,.cls-30{stroke-linecap:square;}.cls-14{fill:#534ed9;}.cls-15{fill:#f25260;}.cls-16{fill:#d971c7;}.cls-17,.cls-20,.cls-23{stroke-width:2.37px;}.cls-18{clip-path:url(#clip-path-2);}.cls-19{stroke-width:2.01px;}.cls-20,.cls-21,.cls-22,.cls-38{fill:#f2cd5c;}.cls-21{stroke-width:1.82px;}.cls-22{stroke-width:2.97px;}.cls-24,.cls-27,.cls-30,.cls-35{stroke-width:2.37px;}.cls-25{clip-path:url(#clip-path-3);}.cls-26{stroke-width:2.01px;}.cls-28,.cls-36{stroke-width:1.82px;}.cls-29,.cls-37{stroke-width:2.97px;}.cls-31{fill:#3333af;}.cls-32{fill:#9393e5;}.cls-33{fill:#141475;}.cls-34{clip-path:url(#clip-path-4);}.cls-35,.cls-36,.cls-37{fill:#dcdcff;}</style><clipPath id="clip-path"><circle class="cls-1" cx="284.91" cy="173.12" r="76.74"/></clipPath><clipPath id="clip-path-2"><circle class="cls-1" cx="285.11" cy="412.97" r="76.74"/></clipPath><clipPath id="clip-path-3"><circle class="cls-1" cx="510.04" cy="410.41" r="76.74"/></clipPath><clipPath id="clip-path-4"><circle class="cls-1" cx="510.04" cy="174.92" r="76.74"/></clipPath></defs><g id="Layer_2" data-name="Layer 2"><g id="Layer_1-2" data-name="Layer 1"><rect class="cls-2" x="0.93" y="0.93" width="650" height="525"/><path class="cls-3" d="M359.81,182A75.66,75.66,0,0,1,356,198.62q-8.77,2.26-17.53,4a135.1,135.1,0,0,0,2.85-19.31Q350.58,182.71,359.81,182Z"/><path class="cls-4" d="M338.49,202.59a147.62,147.62,0,0,1-5.64,19.16,149.53,149.53,0,0,1-19.15,5.64q2.1-10.72,3.36-21.44Q327.77,204.71,338.49,202.59Z"/><path class="cls-4" d="M359.81,165.29q-9.22-.76-18.47-1.33a135.44,135.44,0,0,0-2.85-19.32q8.76,1.73,17.53,4A75.53,75.53,0,0,1,359.81,165.29Z"/><path class="cls-3" d="M317.06,206q-1.28,10.73-3.36,21.44a134,134,0,0,1-19.32,2.85q.69-11.3,1.12-22.59Q306.27,207.23,317.06,206Z"/><path class="cls-3" d="M242.83,110.78q-3.53,7.35-6.24,14.71-7.35,2.71-14.71,6.23A76.07,76.07,0,0,1,242.83,110.78Z"/><path class="cls-4" d="M276.38,98.53q-.75,9.24-1.32,18.47a134,134,0,0,0-19.32,2.85q1.72-8.76,4-17.53A74.25,74.25,0,0,1,276.38,98.53Z"/><path class="cls-5" d="M236.59,125.49q-7.35,2.7-14.71,6.24a75.43,75.43,0,0,0-8.46,16.89q8.78-2.26,17.53-4A147.94,147.94,0,0,1,236.59,125.49Z"/><path class="cls-4" d="M255.74,227.39a149.06,149.06,0,0,1-19.15-5.64A147.62,147.62,0,0,1,231,202.59q10.71,2.1,21.43,3.36Q253.65,216.68,255.74,227.39Z"/><path class="cls-4" d="M347.56,131.72q-7.35-3.53-14.71-6.23-2.7-7.35-6.24-14.71A76.07,76.07,0,0,1,347.56,131.72Z"/><path class="cls-3" d="M313.7,119.85A134,134,0,0,0,294.38,117q-.57-9.24-1.32-18.47a74.46,74.46,0,0,1,16.66,3.79Q312,111.08,313.7,119.85Z"/><path class="cls-4" d="M273.94,207.65q-10.77-.42-21.56-1.7-1.26-10.78-1.68-21.56,11.32.44,22.68.57C273.47,192.53,273.66,200.08,273.94,207.65Z"/><path class="cls-4" d="M273.38,185q-11.34-.14-22.68-.57-.44-10.77,0-21.54,11.32-.43,22.68-.57Q273.23,173.62,273.38,185Z"/><path class="cls-5" d="M318.75,184.39q-.44,10.79-1.69,21.56-10.79,1.28-21.56,1.7c.27-7.57.47-15.12.57-22.69Q307.4,184.83,318.75,184.39Z"/><path class="cls-4" d="M296.07,185q-11.35.15-22.69,0-.15-11.34,0-22.68,11.34-.15,22.69,0Q296.19,173.62,296.07,185Z"/><path class="cls-4" d="M318.75,184.39q-11.36.44-22.68.57.12-11.34,0-22.68,11.32.14,22.68.57Q319.17,173.62,318.75,184.39Z"/><path class="cls-5" d="M296.07,162.28q-11.35-.15-22.69,0c.09-7.57.28-15.12.56-22.69q10.79-.42,21.56,0C295.77,147.16,296,154.71,296.07,162.28Z"/><path class="cls-5" d="M317.06,141.29q-10.79-1.28-21.56-1.7-.42-11.29-1.12-22.59a134,134,0,0,1,19.32,2.85Q315.8,130.57,317.06,141.29Z"/><path class="cls-5" d="M275.06,117q-.69,11.3-1.12,22.59-10.77.42-21.56,1.7,1.27-10.72,3.36-21.44A134,134,0,0,1,275.06,117Z"/><path class="cls-4" d="M252.38,141.29q-1.26,10.77-1.68,21.56-11.31.41-22.6,1.11A134,134,0,0,1,231,144.64Q241.66,142.56,252.38,141.29Z"/><path class="cls-4" d="M255.74,119.85q-2.09,10.72-3.36,21.44-10.71,1.25-21.43,3.35a147.94,147.94,0,0,1,5.64-19.15A147.48,147.48,0,0,1,255.74,119.85Z"/><path class="cls-4" d="M231,144.64q-8.76,1.73-17.53,4a75.57,75.57,0,0,0-3.79,16.66q9.24-.75,18.47-1.32A134,134,0,0,1,231,144.64Z"/><path class="cls-3" d="M252.38,206q-10.71-1.24-21.43-3.36a133.69,133.69,0,0,1-2.85-19.31q11.29.71,22.6,1.11Q251.12,195.18,252.38,206Z"/><path class="cls-3" d="M341.34,164q-11.29-.71-22.59-1.11-.44-10.78-1.69-21.56,10.71,1.25,21.43,3.35A135.44,135.44,0,0,1,341.34,164Z"/><path class="cls-4" d="M338.49,144.64q-10.73-2.08-21.43-3.35-1.28-10.72-3.36-21.44a147.94,147.94,0,0,1,19.15,5.64A147.94,147.94,0,0,1,338.49,144.64Z"/><path class="cls-5" d="M341.34,183.28q-11.29.71-22.59,1.11.42-10.77,0-21.54,11.29.41,22.59,1.11A129.78,129.78,0,0,1,341.34,183.28Z"/><path class="cls-3" d="M295.5,139.59q-10.78-.42-21.56,0,.42-11.29,1.12-22.59a129.79,129.79,0,0,1,19.32,0Q295.07,128.3,295.5,139.59Z"/><path class="cls-5" d="M332.85,221.75q-2.7,7.35-6.24,14.71a75.43,75.43,0,0,1-16.89,8.46q2.26-8.78,4-17.53A149.53,149.53,0,0,0,332.85,221.75Z"/><path class="cls-5" d="M356,198.62a75.43,75.43,0,0,1-8.46,16.89q-7.35,3.54-14.71,6.24a147.62,147.62,0,0,0,5.64-19.16Q347.25,200.88,356,198.62Z"/><path class="cls-4" d="M294.38,230.24q-.57,9.24-1.33,18.47a75.53,75.53,0,0,0,16.67-3.79q2.26-8.78,4-17.53A134,134,0,0,1,294.38,230.24Z"/><path class="cls-5" d="M228.1,183.28q-9.24-.57-18.47-1.33a75.65,75.65,0,0,1,0-16.66q9.24-.76,18.47-1.33A129.78,129.78,0,0,0,228.1,183.28Z"/><path class="cls-5" d="M231,202.6q-8.76-1.72-17.53-4a75.43,75.43,0,0,0,8.46,16.89q7.35,3.54,14.71,6.24A147.94,147.94,0,0,1,231,202.6Z"/><path class="cls-4" d="M228.1,183.28q-9.24-.57-18.47-1.33a75.53,75.53,0,0,0,3.79,16.67q8.78,2.26,17.53,4A134,134,0,0,1,228.1,183.28Z"/><path class="cls-4" d="M221.88,215.51a76.24,76.24,0,0,0,21,21q-3.54-7.35-6.24-14.71Q229.24,219.05,221.88,215.51Z"/><path class="cls-4" d="M294.38,230.24q-.57,9.24-1.32,18.47a75.83,75.83,0,0,1-16.68,0q-.75-9.24-1.32-18.47A129.78,129.78,0,0,0,294.38,230.24Z"/><path class="cls-3" d="M276.38,248.71a74.8,74.8,0,0,1-16.65-3.79q-2.28-8.78-4-17.53a134,134,0,0,0,19.32,2.85Q275.63,239.48,276.38,248.71Z"/><path class="cls-5" d="M236.59,221.75q2.7,7.35,6.24,14.71a75.43,75.43,0,0,0,16.89,8.46q-2.27-8.78-4-17.53A147.94,147.94,0,0,1,236.59,221.75Z"/><path class="cls-4" d="M347.56,215.51a76.1,76.1,0,0,1-20.95,21q3.54-7.35,6.24-14.71Q340.2,219,347.56,215.51Z"/><path class="cls-4" d="M332.85,125.49a147.94,147.94,0,0,0-19.15-5.64q-1.71-8.76-4-17.53a75.43,75.43,0,0,1,16.89,8.46Q330.15,118.13,332.85,125.49Z"/><path class="cls-5" d="M356,148.62q-8.77-2.26-17.53-4a147.94,147.94,0,0,0-5.64-19.15q7.35,2.71,14.71,6.23A75.71,75.71,0,0,1,356,148.62Z"/><path class="cls-4" d="M318.75,162.85q-11.36-.43-22.68-.57c-.1-7.57-.3-15.12-.57-22.69q10.77.42,21.56,1.7Q318.32,152.06,318.75,162.85Z"/><path class="cls-4" d="M360.27,173.62a76.24,76.24,0,0,1-.46,8.33q-9.22.77-18.47,1.33a129.78,129.78,0,0,0,0-19.32q9.24.57,18.47,1.33A76.24,76.24,0,0,1,360.27,173.62Z"/><path class="cls-4" d="M341.34,183.28a135.1,135.1,0,0,1-2.85,19.31q-10.73,2.1-21.43,3.36,1.26-10.78,1.69-21.56Q330,184,341.34,183.28Z"/><path class="cls-5" d="M275.06,230.24a134,134,0,0,1-19.32-2.85q-2.09-10.72-3.36-21.44,10.78,1.28,21.56,1.7Q274.36,218.95,275.06,230.24Z"/><path class="cls-4" d="M295.5,207.65q-.42,11.29-1.12,22.59a129.78,129.78,0,0,1-19.32,0q-.69-11.3-1.12-22.59Q284.73,208.07,295.5,207.65Z"/><path class="cls-3" d="M296.07,185c-.1,7.57-.3,15.12-.57,22.69q-10.78.42-21.56,0c-.28-7.57-.47-15.12-.56-22.69Q284.72,185.11,296.07,185Z"/><path class="cls-4" d="M250.7,184.39q-11.31-.42-22.6-1.11a129.78,129.78,0,0,1,0-19.32q11.29-.71,22.6-1.11Q250.27,173.62,250.7,184.39Z"/><path class="cls-3" d="M273.94,139.59c-.28,7.57-.47,15.12-.56,22.69q-11.34.14-22.68.57.42-10.78,1.68-21.56Q263.16,140,273.94,139.59Z"/><path class="cls-4" d="M294.38,117a129.79,129.79,0,0,0-19.32,0q.57-9.24,1.32-18.47a75.83,75.83,0,0,1,16.68,0Q293.81,107.77,294.38,117Z"/><path class="cls-6" d="M259.73,102.32q-2.28,8.76-4,17.53a147.48,147.48,0,0,0-19.15,5.64q2.7-7.35,6.24-14.71A75.29,75.29,0,0,1,259.73,102.32Z"/><circle class="cls-7" cx="284.91" cy="173.12" r="76.74"/><g class="cls-8"><path class="cls-9" d="M340,118c-37.87-32.41-72.44-32.35-110.24,0M340,228.24c32.36-37.8,32.41-72.37,0-110.24M229.79,228.24c37.8,32.36,72.37,32.41,110.24,0M229.79,118c-32.41,37.87-32.35,72.44,0,110.24m123-15.74c-46.35,23.18-89.43,23.19-135.8,0m135.8-78.75c-46.35-23.18-89.43-23.19-135.8,0M361.33,149.5c-51.7-13.88-101.17-13.87-152.84,0m157.1,15.75a951.28,951.28,0,0,0-161.36,0M365.59,181a951.28,951.28,0,0,1-161.36,0m157.1,15.75c-51.7,13.88-101.17,13.87-152.84,0M340,228.24c32.36-37.8,32.41-72.37,0-110.24m-110.24,0c-32.41,37.87-32.35,72.44,0,110.24M245.54,241c-23.19-46.37-23.19-89.44,0-135.8M324.28,241c23.2-46.37,23.19-89.44,0-135.8M308.54,249.54c13.87-51.67,13.87-101.13,0-152.84M292.79,253.8a951.28,951.28,0,0,0,0-161.36M277,253.81a951.4,951.4,0,0,1,0-161.37m-15.75,157.1c-13.87-51.67-13.88-101.13,0-152.84"/></g><rect class="cls-7" x="279.64" y="69.43" width="10.55" height="17.59" rx="5.23"/><rect class="cls-7" x="279.64" y="44.54" width="10.55" height="17.59" rx="5.23"/><line class="cls-7" x1="284.91" y1="57.07" x2="284.91" y2="74.66"/><line class="cls-7" x1="284.91" y1="82.23" x2="284.91" y2="95.47"/><line class="cls-7" x1="284.91" y1="36.2" x2="284.91" y2="49.44"/><path class="cls-10" d="M243.41,105.76a159.79,159.79,0,0,0-8.16,18.33,163,163,0,0,0-18.49,8.09,148,148,0,0,1,11.79-14.73A148.83,148.83,0,0,1,243.41,105.76Z"/><path class="cls-10" d="M254.11,118.07q-2.12,10.71-3.36,21.42-10.71,1.26-21.43,3.36c1.41-6.38,3.88-12.17,6.23-18.55C241.93,122,247.72,119.47,254.11,118.07Z"/><path class="cls-10" d="M243.09,240.49a146.46,146.46,0,0,1-14.41-11.33,142.85,142.85,0,0,1-11.43-14.27,159.09,159.09,0,0,0,17.92,7.84A153.47,153.47,0,0,0,243.09,240.49Z"/><path class="cls-10" d="M275.36,94.49q-1.07,10.42-1.8,20.86a153.62,153.62,0,0,0-19.31,2.48q2.19-9.76,5.32-19.54A70.86,70.86,0,0,1,275.36,94.49Z"/><path class="cls-10" d="M353,131.47a162.63,162.63,0,0,0-18.22-8,158.32,158.32,0,0,0-8-18A146.85,146.85,0,0,1,341.38,117,144.46,144.46,0,0,1,353,131.47Z"/><path class="cls-10" d="M359.3,198.47a92.87,92.87,0,0,1-7.75,15.95,142.33,142.33,0,0,1-17,8.51,171.14,171.14,0,0,0,5.48-19.49C346.65,202,352.71,200.55,359.3,198.47Z"/><path class="cls-11" d="M294.58,231.57q-.74,9.87-1.79,19.74a69.22,69.22,0,0,1-15.76,0q-1-9.87-1.79-19.74A156,156,0,0,0,294.58,231.57Z"/><path class="cls-10" d="M318.79,207.29q-1.26,10.71-3.36,21.42h0a133.93,133.93,0,0,1-19.31,2.86q.69-11.3,1.12-22.59Q308,208.56,318.79,207.29Z"/><path class="cls-10" d="M343.08,184.62a127.94,127.94,0,0,1-3,18.82c-7.14,1.41-14.13,3-21.27,3.85q1.26-10.78,1.69-21.56Q331.78,185.31,343.08,184.62Z"/><path class="cls-10" d="M320.48,183.91q-11.36.42-22.68.56.13-11.35,0-22.7,11.34.15,22.68.56C320.76,169.53,320.76,176.71,320.48,183.91Z"/><path class="cls-10" d="M315.68,118.07h0a153.59,153.59,0,0,0-19.31-2.47q-.74-10.35-1.79-20.71a70.83,70.83,0,0,1,15.79,3.78Q313.49,108.36,315.68,118.07Z"/><path class="cls-10" d="M250.81,139.49q-1.27,10.78-1.69,21.55c-7.52.28-15.06.65-22.58,1.12a133.69,133.69,0,0,1,2.85-19.31Q240.12,140.75,250.81,139.49Z"/><path class="cls-10" d="M363.6,173.13a70.09,70.09,0,0,1-.44,7.87q-9.87,1-19.71,1.8a158.13,158.13,0,0,0,0-19.35q9.85.74,19.72,1.79A70.32,70.32,0,0,1,363.6,173.13Z"/><path class="cls-10" d="M272.59,209c-7.19-.28-14.36-.84-21.55-1.69h0q-1.28-10.78-1.69-21.55,11.34.42,22.69.56Q272.17,197.64,272.59,209Z"/><path class="cls-10" d="M226.53,181.5q-10.11-.74-20.22-1.79a67.72,67.72,0,0,1,0-15.76q10.11-1,20.23-1.79A154.08,154.08,0,0,0,226.53,181.5Z"/><path class="cls-10" d="M335,222.3a146.23,146.23,0,0,1-8.51,17.3,91.7,91.7,0,0,1-15.94,7.91q3.11-10.08,5.31-20.16A159.07,159.07,0,0,0,335,222.3Z"/><path class="cls-10" d="M254.25,228.21a147.34,147.34,0,0,1-19.14-5.64,145.8,145.8,0,0,1-5.64-19.14q10.72,2.08,21.42,3.35h0Q252.16,217.49,254.25,228.21Z"/><path class="cls-10" d="M340.47,142.85q-10.73-2.1-21.43-3.36-1.26-10.71-3.36-21.42a145.42,145.42,0,0,1,19.15,5.63A147.94,147.94,0,0,1,340.47,142.85Z"/><path class="cls-12" d="M295.7,136.91q.42,11.34.56,22.69-11.36-.15-22.69,0,.14-11.34.55-22.69"/><path class="cls-13" d="M273.84,136.91c7.19-.28,15-.28,22.16,0"/><path class="cls-4" d="M359.82,421.14A75.59,75.59,0,0,1,356,437.8q-8.76,2.26-17.53,4a134,134,0,0,0,2.85-19.32Q350.58,421.89,359.82,421.14Z"/><path class="cls-14" d="M338.49,441.78a147.94,147.94,0,0,1-5.64,19.15,147.48,147.48,0,0,1-19.15,5.64q2.1-10.72,3.36-21.43Q327.77,443.88,338.49,441.78Z"/><path class="cls-14" d="M359.82,404.47q-9.24-.77-18.48-1.33a134,134,0,0,0-2.85-19.32q8.76,1.73,17.53,4A75.33,75.33,0,0,1,359.82,404.47Z"/><path class="cls-4" d="M317.06,445.14q-1.26,10.71-3.36,21.43a135.47,135.47,0,0,1-19.32,2.86q.71-11.31,1.12-22.6Q306.28,446.41,317.06,445.14Z"/><path class="cls-4" d="M242.83,350c-2.35,4.91-4.44,9.81-6.23,14.71q-7.36,2.71-14.72,6.24A76.24,76.24,0,0,1,242.83,350Z"/><path class="cls-15" d="M276.38,337.71q-.74,9.24-1.32,18.47A134.1,134.1,0,0,0,255.75,359q1.71-8.76,4-17.53A75.05,75.05,0,0,1,276.38,337.71Z"/><path class="cls-16" d="M236.59,364.67q-7.35,2.71-14.71,6.24a74.84,74.84,0,0,0-8.45,16.9q8.76-2.28,17.52-4A150.82,150.82,0,0,1,236.59,364.67Z"/><path class="cls-15" d="M255.75,466.57a147,147,0,0,1-19.15-5.64A148,148,0,0,1,231,441.78q10.73,2.1,21.44,3.36Q253.65,455.85,255.75,466.57Z"/><path class="cls-15" d="M347.56,370.91q-7.35-3.53-14.71-6.24-2.7-7.35-6.23-14.71A76.07,76.07,0,0,1,347.56,370.91Z"/><path class="cls-4" d="M313.7,359a134,134,0,0,0-19.32-2.85q-.57-9.24-1.32-18.47a75,75,0,0,1,16.66,3.79Q312,350.28,313.7,359Z"/><path class="cls-14" d="M274,446.83q-10.79-.42-21.56-1.69-1.27-10.78-1.69-21.56,11.34.42,22.68.57Q273.52,435.49,274,446.83Z"/><path class="cls-15" d="M273.38,424.15Q262,424,250.7,423.58q-.44-10.79,0-21.55,11.34-.43,22.68-.57Q273.25,412.8,273.38,424.15Z"/><path class="cls-16" d="M318.75,423.58q-.42,10.77-1.69,21.56-10.79,1.26-21.56,1.69.42-11.35.57-22.68Q307.41,424,318.75,423.58Z"/><path class="cls-14" d="M296.07,424.15q-11.34.14-22.69,0-.13-11.36,0-22.69,11.34-.15,22.69,0Q296.21,412.8,296.07,424.15Z"/><path class="cls-15" d="M318.75,423.58q-11.34.42-22.68.57.14-11.36,0-22.69,11.34.14,22.68.57Q319.17,412.8,318.75,423.58Z"/><path class="cls-16" d="M296.07,401.46q-11.34-.15-22.69,0,.14-11.34.57-22.68,10.77-.43,21.55,0Q295.92,390.12,296.07,401.46Z"/><path class="cls-16" d="M317.06,380.47q-10.79-1.28-21.56-1.69-.42-11.31-1.12-22.6A134,134,0,0,1,313.7,359Q315.8,369.76,317.06,380.47Z"/><path class="cls-16" d="M275.06,356.18q-.69,11.29-1.11,22.6-10.79.42-21.56,1.69,1.26-10.73,3.36-21.44A134.1,134.1,0,0,1,275.06,356.18Z"/><path class="cls-15" d="M252.39,380.47q-1.27,10.77-1.69,21.56-11.3.42-22.6,1.11A136.88,136.88,0,0,1,231,383.82Q241.68,381.74,252.39,380.47Z"/><path class="cls-14" d="M255.75,359q-2.1,10.73-3.36,21.44-10.72,1.26-21.44,3.35a148,148,0,0,1,5.65-19.15A148.59,148.59,0,0,1,255.75,359Z"/><path class="cls-14" d="M231,383.83q-8.76,1.71-17.52,4a74.77,74.77,0,0,0-3.8,16.66q9.24-.77,18.47-1.33A136.53,136.53,0,0,1,231,383.83Z"/><path class="cls-4" d="M252.39,445.14q-10.72-1.26-21.44-3.36a136.88,136.88,0,0,1-2.85-19.32q11.29.71,22.6,1.12Q251.12,434.35,252.39,445.14Z"/><path class="cls-4" d="M341.34,403.14Q330,402.45,318.75,402q-.42-10.78-1.69-21.56,10.71,1.26,21.43,3.35A134,134,0,0,1,341.34,403.14Z"/><path class="cls-15" d="M338.49,383.82q-10.71-2.08-21.43-3.35Q315.8,369.75,313.7,359a149.06,149.06,0,0,1,19.15,5.64A147.94,147.94,0,0,1,338.49,383.82Z"/><path class="cls-16" d="M341.34,422.46q-11.29.71-22.59,1.12.42-10.79,0-21.55,11.29.42,22.59,1.11A129.78,129.78,0,0,1,341.34,422.46Z"/><path class="cls-4" d="M295.5,378.78q-10.77-.43-21.55,0,.41-11.31,1.11-22.6a129.79,129.79,0,0,1,19.32,0Q295.09,367.48,295.5,378.78Z"/><path class="cls-16" d="M332.85,460.93q-2.7,7.35-6.23,14.72a75.68,75.68,0,0,1-16.9,8.45q2.28-8.78,4-17.53A147.48,147.48,0,0,0,332.85,460.93Z"/><path class="cls-16" d="M356,437.8a75.43,75.43,0,0,1-8.46,16.89q-7.35,3.54-14.71,6.24a147.94,147.94,0,0,0,5.64-19.15Q347.25,440.07,356,437.8Z"/><path class="cls-15" d="M294.38,469.42q-.57,9.24-1.32,18.47a74.46,74.46,0,0,0,16.66-3.79q2.26-8.76,4-17.53A134,134,0,0,1,294.38,469.42Z"/><path class="cls-16" d="M228.1,422.46q-9.22-.57-18.47-1.32a75.74,75.74,0,0,1,0-16.67q9.24-.77,18.47-1.33A132.54,132.54,0,0,0,228.1,422.46Z"/><path class="cls-16" d="M231,441.78q-8.76-1.71-17.52-4a75.25,75.25,0,0,0,8.45,16.9q7.37,3.53,14.71,6.23A150.68,150.68,0,0,1,231,441.78Z"/><path class="cls-15" d="M228.1,422.46q-9.24-.57-18.47-1.32a75,75,0,0,0,3.8,16.66q8.76,2.26,17.52,4A136.88,136.88,0,0,1,228.1,422.46Z"/><path class="cls-14" d="M221.88,454.7a76.07,76.07,0,0,0,21,20.94q-3.53-7.35-6.24-14.71Q229.24,458.23,221.88,454.7Z"/><path class="cls-14" d="M294.38,469.43q-.57,9.22-1.32,18.46a74.23,74.23,0,0,1-16.68,0q-.74-9.22-1.32-18.46A132.54,132.54,0,0,0,294.38,469.43Z"/><path class="cls-4" d="M276.38,487.89a75.05,75.05,0,0,1-16.65-3.79q-2.28-8.78-4-17.53a135.54,135.54,0,0,0,19.31,2.86Q275.63,478.66,276.38,487.89Z"/><path class="cls-16" d="M236.59,460.93q2.72,7.35,6.24,14.71a75.29,75.29,0,0,0,16.9,8.46q-2.28-8.76-4-17.53A147.62,147.62,0,0,1,236.59,460.93Z"/><path class="cls-15" d="M347.56,454.69a76.1,76.1,0,0,1-20.94,21q3.53-7.36,6.23-14.72Q340.22,458.23,347.56,454.69Z"/><path class="cls-14" d="M332.85,364.67A149.06,149.06,0,0,0,313.7,359q-1.71-8.76-4-17.53a75.71,75.71,0,0,1,16.9,8.46Q330.15,357.33,332.85,364.67Z"/><path class="cls-16" d="M356,387.81q-8.76-2.28-17.53-4a147.94,147.94,0,0,0-5.64-19.15q7.36,2.71,14.71,6.24A75.29,75.29,0,0,1,356,387.81Z"/><path class="cls-14" d="M318.75,402q-11.34-.43-22.68-.57-.15-11.34-.57-22.68,10.78.42,21.56,1.69Q318.32,391.24,318.75,402Z"/><path class="cls-15" d="M360.27,412.8a79.17,79.17,0,0,1-.45,8.34q-9.24.75-18.48,1.32a129.78,129.78,0,0,0,0-19.32q9.24.57,18.48,1.33A78.84,78.84,0,0,1,360.27,412.8Z"/><path class="cls-15" d="M341.34,422.46a134,134,0,0,1-2.85,19.32q-10.71,2.1-21.43,3.36,1.26-10.78,1.69-21.56Q330,423.16,341.34,422.46Z"/><path class="cls-16" d="M275.06,469.43a135.54,135.54,0,0,1-19.31-2.86q-2.1-10.72-3.36-21.43,10.77,1.26,21.56,1.69Q274.36,458.13,275.06,469.43Z"/><path class="cls-15" d="M295.5,446.83q-.42,11.3-1.12,22.6a132.54,132.54,0,0,1-19.32,0q-.69-11.31-1.11-22.6Q284.72,447.25,295.5,446.83Z"/><path class="cls-4" d="M296.07,424.15q-.15,11.34-.57,22.68-10.77.42-21.55,0-.42-11.35-.57-22.68Q284.72,424.29,296.07,424.15Z"/><path class="cls-14" d="M250.7,423.58q-11.3-.42-22.6-1.12a132.54,132.54,0,0,1,0-19.32q11.29-.69,22.6-1.11Q250.27,412.8,250.7,423.58Z"/><path class="cls-4" d="M274,378.78q-.42,11.34-.57,22.68-11.34.14-22.68.57.42-10.78,1.69-21.56Q263.16,379.2,274,378.78Z"/><path class="cls-14" d="M294.38,356.18a129.79,129.79,0,0,0-19.32,0q.57-9.24,1.32-18.47a75.83,75.83,0,0,1,16.68,0Q293.81,347,294.38,356.18Z"/><path class="cls-15" d="M259.73,341.5q-2.28,8.78-4,17.53a148.59,148.59,0,0,0-19.15,5.64c1.79-4.9,3.88-9.8,6.23-14.71A75.29,75.29,0,0,1,259.73,341.5Z"/><circle class="cls-17" cx="285.11" cy="412.97" r="76.74"/><g class="cls-18"><path class="cls-19" d="M340.23,357.85c-37.87-32.41-72.44-32.36-110.24,0M340.23,468.09c32.35-37.81,32.41-72.37,0-110.24M230,468.09c37.8,32.35,72.37,32.41,110.24,0M230,357.85c-32.41,37.86-32.35,72.43,0,110.24m123-15.75c-46.35,23.18-89.43,23.19-135.8,0M353,373.59c-46.35-23.18-89.43-23.19-135.8,0m144.32,15.75c-51.7-13.88-101.17-13.87-152.84,0m157.1,15.75a951.28,951.28,0,0,0-161.36,0m161.36,15.75a951.28,951.28,0,0,1-161.36,0m157.1,15.75c-51.7,13.88-101.17,13.87-152.84,0m131.54,31.5c32.35-37.81,32.41-72.37,0-110.24m-110.24,0c-32.41,37.86-32.35,72.43,0,110.24m15.75,12.78c-23.19-46.37-23.19-89.45,0-135.81m78.74,135.81c23.2-46.37,23.19-89.45,0-135.81M308.73,489.39c13.88-51.68,13.88-101.14,0-152.85M293,493.65a953.47,953.47,0,0,0,0-161.37M277.24,493.65a951.4,951.4,0,0,1,0-161.37M261.49,489.39c-13.87-51.68-13.88-101.14,0-152.85"/></g><rect class="cls-17" x="279.83" y="309.28" width="10.55" height="17.59" rx="5.23"/><rect class="cls-17" x="279.83" y="284.38" width="10.55" height="17.59" rx="5.23"/><line class="cls-17" x1="285.11" y1="296.91" x2="285.11" y2="314.5"/><line class="cls-17" x1="285.11" y1="322.07" x2="285.11" y2="335.31"/><line class="cls-17" x1="285.11" y1="276.05" x2="285.11" y2="289.28"/><path class="cls-20" d="M243.61,345.6a159.15,159.15,0,0,0-8.16,18.34A162,162,0,0,0,217,372a149.52,149.52,0,0,1,11.8-14.73A151.8,151.8,0,0,1,243.61,345.6Z"/><path class="cls-20" d="M254.3,357.91q-2.1,10.71-3.36,21.43-10.69,1.25-21.42,3.35c1.41-6.38,3.88-12.16,6.23-18.54C242.13,361.79,247.92,359.32,254.3,357.91Z"/><path class="cls-20" d="M243.28,480.33A143.7,143.7,0,0,1,228.88,469a142.73,142.73,0,0,1-11.43-14.26,160,160,0,0,0,17.92,7.83A155.1,155.1,0,0,0,243.28,480.33Z"/><path class="cls-20" d="M275.55,334.34q-1.05,10.43-1.79,20.85a153.62,153.62,0,0,0-19.31,2.48q2.19-9.76,5.31-19.53A70.58,70.58,0,0,1,275.55,334.34Z"/><path class="cls-20" d="M353.2,371.31A160.72,160.72,0,0,0,335,363.37a159.31,159.31,0,0,0-8-18,146.75,146.75,0,0,1,14.63,11.47A145.61,145.61,0,0,1,353.2,371.31Z"/><path class="cls-20" d="M359.5,438.32a92.42,92.42,0,0,1-7.75,15.94,140.23,140.23,0,0,1-17,8.51,169.58,169.58,0,0,0,5.49-19.48C346.85,441.83,352.91,440.39,359.5,438.32Z"/><path class="cls-21" d="M294.78,471.41q-.73,9.87-1.79,19.75a70.78,70.78,0,0,1-15.76,0q-1.05-9.87-1.79-19.75A156,156,0,0,0,294.78,471.41Z"/><path class="cls-20" d="M319,447.13q-1.25,10.71-3.35,21.43h0a133.56,133.56,0,0,1-19.3,2.85q.69-11.3,1.12-22.59Q308.21,448.4,319,447.13Z"/><path class="cls-20" d="M343.27,424.46a126.93,126.93,0,0,1-3,18.83c-7.14,1.4-14.13,3-21.28,3.84q1.27-10.78,1.7-21.55Q332,425.16,343.27,424.46Z"/><path class="cls-20" d="M320.68,423.75c-7.57.29-15.12.47-22.69.57q.15-11.35,0-22.7c7.57.09,15.12.28,22.69.56Q321.1,413,320.68,423.75Z"/><path class="cls-20" d="M315.88,357.91h0a153.59,153.59,0,0,0-19.31-2.47q-.74-10.35-1.79-20.7a70.82,70.82,0,0,1,15.79,3.77Q313.69,348.22,315.88,357.91Z"/><path class="cls-20" d="M251,379.34q-1.27,10.77-1.69,21.55-11.3.41-22.59,1.11a135.54,135.54,0,0,1,2.86-19.31Q240.32,380.59,251,379.34Z"/><path class="cls-20" d="M363.8,413a70.27,70.27,0,0,1-.44,7.88q-9.87,1-19.72,1.79a160.16,160.16,0,0,0,0-19.35q9.86.75,19.72,1.8A70.27,70.27,0,0,1,363.8,413Z"/><path class="cls-20" d="M272.78,448.83q-10.77-.42-21.54-1.69h0q-1.28-10.78-1.69-21.56,11.34.44,22.69.57Q272.37,437.49,272.78,448.83Z"/><path class="cls-20" d="M226.72,421.35q-10.09-.75-20.21-1.8a67.72,67.72,0,0,1,0-15.76q10.11-1.05,20.22-1.79A158.13,158.13,0,0,0,226.72,421.35Z"/><path class="cls-20" d="M335.24,462.14a145.59,145.59,0,0,1-8.51,17.31,91.74,91.74,0,0,1-16,7.9q3.12-10.08,5.32-20.15A159.13,159.13,0,0,0,335.24,462.14Z"/><path class="cls-20" d="M254.45,468.06a147.34,147.34,0,0,1-19.14-5.64,146.38,146.38,0,0,1-5.64-19.15c7.15,1.4,14.27,2.52,21.42,3.36h0Q252.35,457.34,254.45,468.06Z"/><path class="cls-20" d="M340.67,382.69q-10.73-2.1-21.43-3.35-1.26-10.71-3.36-21.43A149,149,0,0,1,335,363.54,147.94,147.94,0,0,1,340.67,382.69Z"/><path class="cls-22" d="M295.9,376.76q.42,11.34.56,22.68-11.35-.13-22.7,0,.15-11.34.56-22.68"/><path class="cls-23" d="M274,376.76c7.19-.28,15-.28,22.16,0"/><path class="cls-4" d="M584.94,418.58a75.44,75.44,0,0,1-3.79,16.66q-8.77,2.28-17.53,4a136.53,136.53,0,0,0,2.85-19.31C572.62,419.53,578.79,419.09,584.94,418.58Z"/><path class="cls-14" d="M563.62,439.22A149.2,149.2,0,0,1,558,458.38,150.82,150.82,0,0,1,538.82,464q2.11-10.72,3.36-21.44Q552.91,441.32,563.62,439.22Z"/><path class="cls-14" d="M584.94,401.91c-6.15-.5-12.32-1-18.47-1.33a137,137,0,0,0-2.85-19.31q8.76,1.71,17.53,4A75.57,75.57,0,0,1,584.94,401.91Z"/><path class="cls-4" d="M542.18,442.58q-1.26,10.73-3.36,21.44a133.9,133.9,0,0,1-19.31,2.85q.69-11.3,1.11-22.6Q531.41,443.85,542.18,442.58Z"/><path class="cls-4" d="M468,347.4q-3.52,7.37-6.23,14.72-7.35,2.7-14.71,6.23A76.07,76.07,0,0,1,468,347.4Z"/><path class="cls-15" d="M501.51,335.16q-.75,9.22-1.32,18.46a135.47,135.47,0,0,0-19.32,2.86q1.72-8.76,4-17.53A74.46,74.46,0,0,1,501.51,335.16Z"/><path class="cls-16" d="M461.72,362.12q-7.35,2.7-14.71,6.23a75.71,75.71,0,0,0-8.46,16.9q8.76-2.26,17.53-4A147.48,147.48,0,0,1,461.72,362.12Z"/><path class="cls-15" d="M480.87,464a150.68,150.68,0,0,1-19.15-5.64,147.62,147.62,0,0,1-5.64-19.16q10.71,2.1,21.43,3.36Q478.77,453.31,480.87,464Z"/><path class="cls-15" d="M572.69,368.35q-7.35-3.53-14.71-6.23-2.7-7.35-6.24-14.72A76.24,76.24,0,0,1,572.69,368.35Z"/><path class="cls-4" d="M538.82,356.48a135.33,135.33,0,0,0-19.31-2.86q-.57-9.22-1.33-18.46A74.67,74.67,0,0,1,534.85,339Q537.12,347.71,538.82,356.48Z"/><path class="cls-14" d="M499.07,444.27q-10.77-.42-21.56-1.69-1.26-10.79-1.68-21.56,11.32.44,22.68.57Q498.65,432.93,499.07,444.27Z"/><path class="cls-15" d="M498.51,421.59q-11.36-.13-22.68-.57-.43-10.77,0-21.55,11.32-.42,22.68-.57Q498.36,410.26,498.51,421.59Z"/><path class="cls-16" d="M543.88,421q-.43,10.78-1.7,21.56-10.77,1.28-21.56,1.69.42-11.34.57-22.68Q532.53,421.46,543.88,421Z"/><path class="cls-14" d="M521.19,421.59q-11.34.15-22.68,0-.15-11.34,0-22.69,11.34-.13,22.68,0Q521.32,410.26,521.19,421.59Z"/><path class="cls-15" d="M543.88,421q-11.36.44-22.69.57.13-11.34,0-22.69,11.34.15,22.69.57Q544.29,410.26,543.88,421Z"/><path class="cls-16" d="M521.19,398.9q-11.34-.13-22.68,0,.14-11.34.56-22.68,10.79-.42,21.55,0Q521,387.58,521.19,398.9Z"/><path class="cls-16" d="M542.18,377.91q-10.77-1.26-21.56-1.69-.4-11.3-1.11-22.6a135.33,135.33,0,0,1,19.31,2.86Q540.93,367.21,542.18,377.91Z"/><path class="cls-16" d="M500.19,353.62q-.7,11.31-1.12,22.6-10.77.42-21.56,1.69,1.26-10.71,3.36-21.43A135.47,135.47,0,0,1,500.19,353.62Z"/><path class="cls-15" d="M477.51,377.91q-1.26,10.79-1.68,21.56-11.31.42-22.6,1.11a134.1,134.1,0,0,1,2.85-19.31Q466.79,379.17,477.51,377.91Z"/><path class="cls-14" d="M480.87,356.48q-2.08,10.72-3.36,21.43-10.71,1.26-21.43,3.36a147.94,147.94,0,0,1,5.64-19.15A147.48,147.48,0,0,1,480.87,356.48Z"/><path class="cls-14" d="M456.08,381.27q-8.76,1.71-17.53,4a74.46,74.46,0,0,0-3.79,16.66q9.23-.75,18.47-1.32A134,134,0,0,1,456.08,381.27Z"/><path class="cls-4" d="M477.51,442.58q-10.71-1.26-21.43-3.36a133.69,133.69,0,0,1-2.85-19.31q11.29.69,22.6,1.11Q476.24,431.8,477.51,442.58Z"/><path class="cls-4" d="M566.47,400.58q-11.29-.69-22.59-1.11-.43-10.77-1.7-21.56,10.73,1.26,21.44,3.36A137,137,0,0,1,566.47,400.58Z"/><path class="cls-15" d="M563.62,381.27q-10.73-2.1-21.44-3.36-1.26-10.71-3.36-21.43A147.62,147.62,0,0,1,558,362.12,149.53,149.53,0,0,1,563.62,381.27Z"/><path class="cls-16" d="M566.47,419.91q-11.29.69-22.59,1.11.4-10.77,0-21.55,11.29.42,22.59,1.11A129.92,129.92,0,0,1,566.47,419.91Z"/><path class="cls-4" d="M520.62,376.22q-10.77-.42-21.55,0,.42-11.3,1.12-22.6a132.54,132.54,0,0,1,19.32,0Q520.2,364.93,520.62,376.22Z"/><path class="cls-16" d="M558,458.38q-2.7,7.35-6.24,14.71a75.43,75.43,0,0,1-16.89,8.46q2.26-8.78,4-17.53A150.82,150.82,0,0,0,558,458.38Z"/><path class="cls-16" d="M581.15,435.24a75.29,75.29,0,0,1-8.46,16.9q-7.35,3.54-14.71,6.24a149.2,149.2,0,0,0,5.64-19.16Q572.38,437.51,581.15,435.24Z"/><path class="cls-15" d="M519.51,466.87q-.57,9.24-1.33,18.47a75.31,75.31,0,0,0,16.66-3.79q2.28-8.78,4-17.53A136.53,136.53,0,0,1,519.51,466.87Z"/><path class="cls-16" d="M453.23,419.91q-9.24-.57-18.47-1.33a75.74,75.74,0,0,1,0-16.67q9.24-.75,18.47-1.33A129.92,129.92,0,0,0,453.23,419.91Z"/><path class="cls-16" d="M456.08,439.22q-8.76-1.71-17.53-4a75.29,75.29,0,0,0,8.46,16.9q7.35,3.53,14.71,6.24A147.62,147.62,0,0,1,456.08,439.22Z"/><path class="cls-15" d="M453.23,419.91q-9.24-.57-18.47-1.33a74.33,74.33,0,0,0,3.79,16.66q8.76,2.28,17.53,4A133.69,133.69,0,0,1,453.23,419.91Z"/><path class="cls-14" d="M447,452.14A76.07,76.07,0,0,0,468,473.09q-3.52-7.36-6.23-14.71Q454.37,455.67,447,452.14Z"/><path class="cls-14" d="M519.51,466.87q-.57,9.24-1.33,18.47a75.74,75.74,0,0,1-16.67,0q-.75-9.24-1.32-18.47A129.78,129.78,0,0,0,519.51,466.87Z"/><path class="cls-4" d="M501.51,485.34a75.57,75.57,0,0,1-16.66-3.79q-2.27-8.78-4-17.53a134,134,0,0,0,19.32,2.85Q500.76,476.11,501.51,485.34Z"/><path class="cls-16" d="M461.72,458.38q2.7,7.35,6.23,14.71a75.71,75.71,0,0,0,16.9,8.46q-2.27-8.78-4-17.53A151.16,151.16,0,0,1,461.72,458.38Z"/><path class="cls-15" d="M572.69,452.14a76.24,76.24,0,0,1-21,20.95q3.54-7.36,6.24-14.71Q565.33,455.67,572.69,452.14Z"/><path class="cls-14" d="M558,362.12a147.62,147.62,0,0,0-19.16-5.64q-1.71-8.76-4-17.53a75.39,75.39,0,0,1,16.89,8.45Q555.28,354.77,558,362.12Z"/><path class="cls-16" d="M581.15,385.25q-8.77-2.26-17.53-4A149.53,149.53,0,0,0,558,362.12q7.35,2.7,14.71,6.23A75.71,75.71,0,0,1,581.15,385.25Z"/><path class="cls-14" d="M543.88,399.47q-11.36-.42-22.69-.57-.13-11.34-.57-22.68,10.78.42,21.56,1.69Q543.45,388.7,543.88,399.47Z"/><path class="cls-15" d="M585.4,410.25a76.24,76.24,0,0,1-.46,8.33c-6.15.51-12.32.95-18.47,1.33a129.92,129.92,0,0,0,0-19.33c6.15.38,12.32.83,18.47,1.33A76.57,76.57,0,0,1,585.4,410.25Z"/><path class="cls-15" d="M566.47,419.91a136.53,136.53,0,0,1-2.85,19.31q-10.73,2.1-21.44,3.36,1.27-10.79,1.7-21.56Q555.17,420.6,566.47,419.91Z"/><path class="cls-16" d="M500.19,466.87A134,134,0,0,1,480.87,464q-2.08-10.72-3.36-21.44,10.78,1.28,21.56,1.69Q499.49,455.58,500.19,466.87Z"/><path class="cls-15" d="M520.62,444.27q-.4,11.31-1.11,22.6a129.78,129.78,0,0,1-19.32,0q-.7-11.3-1.12-22.6Q509.86,444.71,520.62,444.27Z"/><path class="cls-4" d="M521.19,421.59q-.13,11.34-.57,22.68-10.77.44-21.55,0-.42-11.34-.56-22.68Q509.85,421.74,521.19,421.59Z"/><path class="cls-14" d="M475.83,421q-11.31-.42-22.6-1.11a129.92,129.92,0,0,1,0-19.33q11.29-.69,22.6-1.11Q475.4,410.26,475.83,421Z"/><path class="cls-4" d="M499.07,376.22q-.42,11.36-.56,22.68-11.36.15-22.68.57.41-10.77,1.68-21.56Q488.29,376.65,499.07,376.22Z"/><path class="cls-14" d="M519.51,353.62a132.54,132.54,0,0,0-19.32,0q.57-9.22,1.32-18.46a74.14,74.14,0,0,1,16.67,0Q518.95,344.39,519.51,353.62Z"/><path class="cls-15" d="M484.85,339q-2.27,8.76-4,17.53a147.48,147.48,0,0,0-19.15,5.64q2.7-7.35,6.23-14.72A75.68,75.68,0,0,1,484.85,339Z"/><circle class="cls-24" cx="510.04" cy="410.41" r="76.74"/><g class="cls-25"><path class="cls-26" d="M565.16,355.29c-37.87-32.41-72.44-32.35-110.24,0M565.16,465.53c32.35-37.8,32.41-72.37,0-110.24M454.92,465.53c37.8,32.35,72.37,32.41,110.24,0M454.92,355.29c-32.41,37.87-32.36,72.44,0,110.24m123-15.75c-46.36,23.19-89.43,23.2-135.8,0M577.94,371c-46.36-23.19-89.43-23.2-135.8,0m144.32,15.75c-51.71-13.88-101.17-13.87-152.84,0m157.1,15.75a951.28,951.28,0,0,0-161.36,0m161.36,15.74a951.28,951.28,0,0,1-161.36,0M586.46,434c-51.71,13.88-101.17,13.87-152.84,0m131.54,31.5c32.35-37.8,32.41-72.37,0-110.24m-110.24,0c-32.41,37.87-32.36,72.44,0,110.24m15.75,12.78c-23.2-46.37-23.19-89.45,0-135.8m78.74,135.8c23.19-46.37,23.18-89.45,0-135.8M533.66,486.83c13.87-51.67,13.88-101.13,0-152.84m-15.75,157.1a951.28,951.28,0,0,0,0-161.36M502.16,491.09a951.28,951.28,0,0,1,0-161.36m-15.75,157.1c-13.87-51.67-13.88-101.14,0-152.84"/></g><rect class="cls-24" x="504.76" y="306.72" width="10.55" height="17.59" rx="5.23"/><path class="cls-27" d="M468.54,343.05a159.79,159.79,0,0,0-8.16,18.33,164.83,164.83,0,0,0-18.5,8.08,150.78,150.78,0,0,1,11.79-14.72A150.1,150.1,0,0,1,468.54,343.05Z"/><rect class="cls-24" x="504.76" y="281.83" width="10.55" height="17.59" rx="5.23"/><line class="cls-24" x1="510.04" y1="294.36" x2="510.04" y2="311.94"/><line class="cls-24" x1="510.04" y1="319.52" x2="510.04" y2="332.76"/><path class="cls-27" d="M479.23,355.35q-2.1,10.71-3.36,21.43-10.69,1.25-21.42,3.36c1.41-6.39,3.88-12.17,6.23-18.55C467.06,359.24,472.85,356.76,479.23,355.35Z"/><line class="cls-24" x1="510.04" y1="273.49" x2="510.04" y2="286.73"/><path class="cls-27" d="M468.21,477.78a148,148,0,0,1-14.41-11.33,145.75,145.75,0,0,1-11.43-14.27A159.13,159.13,0,0,0,460.3,460,153.51,153.51,0,0,0,468.21,477.78Z"/><path class="cls-27" d="M500.48,331.78q-1.05,10.43-1.79,20.86a149.79,149.79,0,0,0-19.31,2.48q2.19-9.76,5.31-19.54A70.44,70.44,0,0,1,500.48,331.78Z"/><path class="cls-27" d="M578.13,368.76a161.6,161.6,0,0,0-18.22-7.95,158.42,158.42,0,0,0-8-18,147,147,0,0,1,14.64,11.48A145.89,145.89,0,0,1,578.13,368.76Z"/><path class="cls-27" d="M584.43,435.76a92.42,92.42,0,0,1-7.75,15.94,140.33,140.33,0,0,1-17,8.52,171.79,171.79,0,0,0,5.49-19.49C571.78,439.27,577.84,437.84,584.43,435.76Z"/><path class="cls-28" d="M519.71,468.86q-.74,9.87-1.79,19.74a69.22,69.22,0,0,1-15.76,0q-1.05-9.87-1.8-19.74A160.16,160.16,0,0,0,519.71,468.86Z"/><path class="cls-27" d="M543.91,444.57q-1.26,10.71-3.35,21.43h0a133.79,133.79,0,0,1-19.3,2.86c.46-7.54.83-15.06,1.11-22.6Q533.15,445.86,543.91,444.57Z"/><path class="cls-27" d="M568.2,421.9a126.51,126.51,0,0,1-3,18.83c-7.15,1.4-14.14,3-21.28,3.84q1.27-10.79,1.69-21.55Q556.91,422.6,568.2,421.9Z"/><path class="cls-27" d="M545.6,421.2q-11.34.42-22.68.56.15-11.36,0-22.7,11.34.15,22.68.56Q546,410.41,545.6,421.2Z"/><path class="cls-27" d="M540.81,355.35h0a153.17,153.17,0,0,0-19.3-2.46q-.74-10.35-1.79-20.71A71,71,0,0,1,535.5,336Q538.62,345.65,540.81,355.35Z"/><path class="cls-27" d="M475.94,376.78q-1.28,10.77-1.69,21.55-11.29.42-22.59,1.12a135.13,135.13,0,0,1,2.86-19.31Q465.23,378,475.94,376.78Z"/><path class="cls-27" d="M588.72,410.41a70.14,70.14,0,0,1-.44,7.88q-9.85,1.05-19.71,1.79a160,160,0,0,0,0-19.34q9.85.74,19.71,1.79A70.27,70.27,0,0,1,588.72,410.41Z"/><path class="cls-27" d="M497.71,446.27q-10.77-.42-21.55-1.69h0q-1.28-10.79-1.69-21.55,11.34.42,22.68.56Q497.3,434.93,497.71,446.27Z"/><path class="cls-27" d="M451.65,418.79q-10.11-.74-20.22-1.79a67.72,67.72,0,0,1,0-15.76q10.11-1,20.23-1.79A158,158,0,0,0,451.65,418.79Z"/><path class="cls-27" d="M560.17,459.59a146.23,146.23,0,0,1-8.51,17.3,92.5,92.5,0,0,1-15.95,7.91q3.12-10.1,5.31-20.16A161.11,161.11,0,0,0,560.17,459.59Z"/><path class="cls-27" d="M479.38,465.5a147.94,147.94,0,0,1-19.15-5.64,145.73,145.73,0,0,1-5.63-19.14q10.71,2.08,21.42,3.35h0Q477.28,454.78,479.38,465.5Z"/><path class="cls-27" d="M565.59,380.14q-10.71-2.11-21.43-3.36-1.24-10.71-3.35-21.43A147.34,147.34,0,0,1,560,361,145.48,145.48,0,0,1,565.59,380.14Z"/><path class="cls-29" d="M520.83,374.2q.42,11.34.55,22.69-11.34-.15-22.69,0,.15-11.36.56-22.69"/><path class="cls-30" d="M499,374.2c7.2-.28,15-.28,22.16,0"/><path class="cls-31" d="M584.94,183.09a75.57,75.57,0,0,1-3.79,16.66q-8.77,2.26-17.53,4a136.88,136.88,0,0,0,2.85-19.32C572.62,184,578.79,183.59,584.94,183.09Z"/><path class="cls-32" d="M563.62,203.73A148.59,148.59,0,0,1,558,222.88a147.62,147.62,0,0,1-19.16,5.64q2.11-10.71,3.36-21.43Q552.91,205.83,563.62,203.73Z"/><path class="cls-32" d="M584.94,166.42c-6.15-.5-12.32-.95-18.47-1.33a137,137,0,0,0-2.85-19.31q8.76,1.71,17.53,4A75.44,75.44,0,0,1,584.94,166.42Z"/><path class="cls-31" d="M542.18,207.09q-1.26,10.72-3.36,21.43a135.33,135.33,0,0,1-19.31,2.86q.69-11.3,1.11-22.6Q531.41,208.36,542.18,207.09Z"/><path class="cls-31" d="M468,111.91q-3.52,7.36-6.23,14.72-7.35,2.7-14.71,6.23A76.07,76.07,0,0,1,468,111.91Z"/><path class="cls-33" d="M501.51,99.66q-.75,9.24-1.32,18.47A135.47,135.47,0,0,0,480.87,121q1.72-8.76,4-17.53A75,75,0,0,1,501.51,99.66Z"/><path class="cls-14" d="M461.72,126.63q-7.35,2.7-14.71,6.23a75.29,75.29,0,0,0-8.46,16.9q8.76-2.28,17.53-4A147,147,0,0,1,461.72,126.63Z"/><path class="cls-33" d="M480.87,228.52a147.48,147.48,0,0,1-19.15-5.64,147,147,0,0,1-5.64-19.15q10.71,2.1,21.43,3.36Q478.77,217.82,480.87,228.52Z"/><path class="cls-33" d="M572.69,132.86q-7.35-3.53-14.71-6.23-2.7-7.36-6.24-14.72A76.24,76.24,0,0,1,572.69,132.86Z"/><path class="cls-31" d="M538.82,121a135.33,135.33,0,0,0-19.31-2.86q-.57-9.22-1.33-18.47a75.24,75.24,0,0,1,16.67,3.8Q537.12,112.22,538.82,121Z"/><path class="cls-32" d="M499.07,208.78q-10.77-.42-21.56-1.69-1.26-10.78-1.68-21.56,11.32.42,22.68.57Q498.65,197.44,499.07,208.78Z"/><path class="cls-33" d="M498.51,186.1q-11.36-.15-22.68-.57-.43-10.77,0-21.55,11.32-.42,22.68-.57Q498.36,174.75,498.51,186.1Z"/><path class="cls-14" d="M543.88,185.53q-.43,10.78-1.7,21.56-10.77,1.28-21.56,1.69.42-11.34.57-22.68Q532.53,186,543.88,185.53Z"/><path class="cls-32" d="M521.19,186.1q-11.34.14-22.68,0-.15-11.34,0-22.69,11.34-.14,22.68,0Q521.32,174.75,521.19,186.1Z"/><path class="cls-33" d="M543.88,185.53q-11.36.42-22.69.57.13-11.34,0-22.69,11.34.15,22.69.57Q544.29,174.75,543.88,185.53Z"/><path class="cls-14" d="M521.19,163.41q-11.34-.14-22.68,0,.14-11.34.56-22.68,10.79-.43,21.55,0Q521,152.07,521.19,163.41Z"/><path class="cls-14" d="M542.18,142.42q-10.77-1.28-21.56-1.69-.4-11.29-1.11-22.6A135.33,135.33,0,0,1,538.82,121Q540.93,131.7,542.18,142.42Z"/><path class="cls-14" d="M500.19,118.13q-.7,11.3-1.12,22.6-10.77.42-21.56,1.69,1.26-10.72,3.36-21.43A135.47,135.47,0,0,1,500.19,118.13Z"/><path class="cls-33" d="M477.51,142.42q-1.26,10.77-1.68,21.56-11.31.42-22.6,1.11a134.1,134.1,0,0,1,2.85-19.31Q466.79,143.68,477.51,142.42Z"/><path class="cls-32" d="M480.87,121q-2.08,10.71-3.36,21.43-10.71,1.26-21.43,3.36a147,147,0,0,1,5.64-19.15A145.93,145.93,0,0,1,480.87,121Z"/><path class="cls-32" d="M456.08,145.78q-8.76,1.71-17.53,4a74.46,74.46,0,0,0-3.79,16.66q9.23-.75,18.47-1.33A134.1,134.1,0,0,1,456.08,145.78Z"/><path class="cls-31" d="M477.51,207.09q-10.71-1.26-21.43-3.36a134,134,0,0,1-2.85-19.32q11.29.71,22.6,1.12Q476.24,196.32,477.51,207.09Z"/><path class="cls-31" d="M566.47,165.09q-11.29-.69-22.59-1.11-.43-10.78-1.7-21.56,10.73,1.26,21.44,3.36A137,137,0,0,1,566.47,165.09Z"/><path class="cls-33" d="M563.62,145.78q-10.73-2.1-21.44-3.36-1.26-10.72-3.36-21.43A146.06,146.06,0,0,1,558,126.63,148.59,148.59,0,0,1,563.62,145.78Z"/><path class="cls-14" d="M566.47,184.41q-11.29.71-22.59,1.12.4-10.77,0-21.55,11.29.42,22.59,1.11A129.79,129.79,0,0,1,566.47,184.41Z"/><path class="cls-31" d="M520.62,140.73q-10.77-.43-21.55,0,.42-11.29,1.12-22.6a132.54,132.54,0,0,1,19.32,0Q520.2,129.43,520.62,140.73Z"/><path class="cls-14" d="M558,222.88q-2.7,7.37-6.24,14.72a75.39,75.39,0,0,1-16.89,8.45q2.26-8.76,4-17.53A147.62,147.62,0,0,0,558,222.88Z"/><path class="cls-14" d="M581.15,199.75a75.71,75.71,0,0,1-8.46,16.9q-7.35,3.53-14.71,6.23a148.59,148.59,0,0,0,5.64-19.15Q572.38,202,581.15,199.75Z"/><path class="cls-33" d="M519.51,231.38q-.57,9.23-1.33,18.47a74.77,74.77,0,0,0,16.66-3.8q2.28-8.76,4-17.53A135.13,135.13,0,0,1,519.51,231.38Z"/><path class="cls-14" d="M453.23,184.41q-9.24-.57-18.47-1.32a75.74,75.74,0,0,1,0-16.67q9.24-.75,18.47-1.33A129.78,129.78,0,0,0,453.23,184.41Z"/><path class="cls-14" d="M456.08,203.73q-8.76-1.71-17.53-4a75.5,75.5,0,0,0,8.46,16.9q7.35,3.53,14.71,6.23A147.48,147.48,0,0,1,456.08,203.73Z"/><path class="cls-33" d="M453.23,184.41q-9.24-.56-18.47-1.32a74.46,74.46,0,0,0,3.79,16.66q8.76,2.28,17.53,4A134,134,0,0,1,453.23,184.41Z"/><path class="cls-32" d="M447,216.65A76.07,76.07,0,0,0,468,237.6q-3.52-7.36-6.23-14.72Q454.37,220.18,447,216.65Z"/><path class="cls-32" d="M519.51,231.38q-.57,9.23-1.33,18.47a75.74,75.74,0,0,1-16.67,0q-.75-9.24-1.32-18.47A132.54,132.54,0,0,0,519.51,231.38Z"/><path class="cls-31" d="M501.51,249.85a75,75,0,0,1-16.66-3.8q-2.27-8.76-4-17.53a135.47,135.47,0,0,0,19.32,2.86Q500.76,240.61,501.51,249.85Z"/><path class="cls-14" d="M461.72,222.88q2.7,7.37,6.23,14.72a75.68,75.68,0,0,0,16.9,8.45q-2.27-8.76-4-17.53A147.94,147.94,0,0,1,461.72,222.88Z"/><path class="cls-33" d="M572.69,216.65a76.24,76.24,0,0,1-21,20.95q3.54-7.36,6.24-14.72Q565.33,220.18,572.69,216.65Z"/><path class="cls-32" d="M558,126.63A146.06,146.06,0,0,0,538.82,121q-1.71-8.76-4-17.53a75.39,75.39,0,0,1,16.89,8.45Q555.28,119.28,558,126.63Z"/><path class="cls-14" d="M581.15,149.76q-8.77-2.28-17.53-4A148.59,148.59,0,0,0,558,126.63q7.35,2.7,14.71,6.23A75.71,75.71,0,0,1,581.15,149.76Z"/><path class="cls-32" d="M543.88,164q-11.36-.42-22.69-.57-.13-11.34-.57-22.68,10.78.42,21.56,1.69Q543.45,153.19,543.88,164Z"/><path class="cls-33" d="M585.4,174.75a76.57,76.57,0,0,1-.46,8.34c-6.15.5-12.32.94-18.47,1.32a129.79,129.79,0,0,0,0-19.32c6.15.38,12.32.83,18.47,1.33A76.52,76.52,0,0,1,585.4,174.75Z"/><path class="cls-33" d="M566.47,184.41a136.88,136.88,0,0,1-2.85,19.32q-10.73,2.1-21.44,3.36,1.27-10.78,1.7-21.56Q555.17,185.11,566.47,184.41Z"/><path class="cls-14" d="M500.19,231.38a135.47,135.47,0,0,1-19.32-2.86q-2.08-10.71-3.36-21.43,10.78,1.28,21.56,1.69Q499.49,220.08,500.19,231.38Z"/><path class="cls-33" d="M520.62,208.78q-.4,11.29-1.11,22.6a132.54,132.54,0,0,1-19.32,0q-.7-11.3-1.12-22.6Q509.86,209.2,520.62,208.78Z"/><path class="cls-31" d="M521.19,186.1q-.13,11.34-.57,22.68-10.77.42-21.55,0-.42-11.34-.56-22.68Q509.85,186.24,521.19,186.1Z"/><path class="cls-32" d="M475.83,185.53q-11.31-.42-22.6-1.12a129.78,129.78,0,0,1,0-19.32q11.29-.69,22.6-1.11Q475.4,174.75,475.83,185.53Z"/><path class="cls-31" d="M499.07,140.73q-.42,11.34-.56,22.68-11.36.15-22.68.57.41-10.78,1.68-21.56Q488.29,141.14,499.07,140.73Z"/><path class="cls-32" d="M519.51,118.13a132.54,132.54,0,0,0-19.32,0q.57-9.22,1.32-18.47a75.74,75.74,0,0,1,16.67,0Q518.95,108.9,519.51,118.13Z"/><path class="cls-33" d="M484.85,103.46q-2.27,8.76-4,17.53a145.93,145.93,0,0,0-19.15,5.64q2.7-7.36,6.23-14.72A75.68,75.68,0,0,1,484.85,103.46Z"/><circle class="cls-24" cx="510.04" cy="174.92" r="76.74"/><g class="cls-34"><path class="cls-26" d="M565.16,119.8c-37.87-32.41-72.44-32.35-110.24,0M565.16,230c32.35-37.8,32.41-72.37,0-110.24M454.92,230c37.8,32.35,72.37,32.41,110.24,0M454.92,119.8c-32.41,37.87-32.36,72.44,0,110.24m123-15.75c-46.36,23.19-89.43,23.19-135.8,0m135.8-78.74c-46.36-23.19-89.43-23.2-135.8,0M586.46,151.3c-51.71-13.88-101.17-13.88-152.84,0M590.72,167a953.36,953.36,0,0,0-161.36,0m161.36,15.75a951.28,951.28,0,0,1-161.36,0m157.1,15.75c-51.71,13.88-101.17,13.87-152.84,0M565.16,230c32.35-37.8,32.41-72.37,0-110.24m-110.24,0c-32.41,37.87-32.36,72.44,0,110.24m15.75,12.78c-23.2-46.37-23.19-89.45,0-135.8m78.74,135.8c23.19-46.37,23.18-89.45,0-135.8M533.66,251.34c13.87-51.67,13.88-101.14,0-152.84M517.91,255.6a951.28,951.28,0,0,0,0-161.36M502.16,255.6a951.28,951.28,0,0,1,0-161.36m-15.75,157.1c-13.87-51.67-13.88-101.14,0-152.84"/></g><rect class="cls-24" x="504.76" y="71.23" width="10.55" height="17.59" rx="5.23"/><rect class="cls-24" x="504.76" y="46.34" width="10.55" height="17.59" rx="5.23"/><line class="cls-24" x1="510.04" y1="58.87" x2="510.04" y2="76.45"/><line class="cls-24" x1="510.04" y1="84.03" x2="510.04" y2="97.26"/><line class="cls-24" x1="510.04" y1="38" x2="510.04" y2="51.24"/><path class="cls-35" d="M468.54,107.56a159.79,159.79,0,0,0-8.16,18.33,164.83,164.83,0,0,0-18.5,8.08,150.78,150.78,0,0,1,11.79-14.72A150.1,150.1,0,0,1,468.54,107.56Z"/><path class="cls-35" d="M479.23,119.86q-2.1,10.71-3.36,21.43-10.69,1.25-21.42,3.35c1.41-6.38,3.88-12.16,6.23-18.54C467.06,123.75,472.85,121.27,479.23,119.86Z"/><path class="cls-35" d="M468.21,242.29A148,148,0,0,1,453.8,231a145.75,145.75,0,0,1-11.43-14.27,159.13,159.13,0,0,0,17.93,7.83A154.27,154.27,0,0,0,468.21,242.29Z"/><path class="cls-35" d="M500.48,96.29q-1.05,10.42-1.79,20.86a149.79,149.79,0,0,0-19.31,2.48q2.19-9.76,5.31-19.54A70.44,70.44,0,0,1,500.48,96.29Z"/><path class="cls-35" d="M578.13,133.26a163.34,163.34,0,0,0-18.22-7.94,158.42,158.42,0,0,0-8-18,147,147,0,0,1,14.64,11.48A146.94,146.94,0,0,1,578.13,133.26Z"/><path class="cls-35" d="M584.43,200.27a92.42,92.42,0,0,1-7.75,15.94,140.23,140.23,0,0,1-17,8.51,171,171,0,0,0,5.49-19.48C571.78,203.78,577.84,202.35,584.43,200.27Z"/><path class="cls-36" d="M519.71,233.37q-.74,9.87-1.79,19.74a69.22,69.22,0,0,1-15.76,0q-1.05-9.87-1.8-19.74A160.16,160.16,0,0,0,519.71,233.37Z"/><path class="cls-35" d="M543.91,209.08q-1.26,10.71-3.35,21.43h0a133.79,133.79,0,0,1-19.3,2.86c.46-7.54.83-15.06,1.11-22.6Q533.15,210.35,543.91,209.08Z"/><path class="cls-35" d="M568.2,186.41a126.51,126.51,0,0,1-3,18.83c-7.15,1.4-14.14,3-21.28,3.84q1.27-10.79,1.69-21.55Q556.91,187.11,568.2,186.41Z"/><path class="cls-35" d="M545.6,185.71q-11.34.42-22.68.56.15-11.36,0-22.7,11.34.13,22.68.56Q546,174.92,545.6,185.71Z"/><path class="cls-35" d="M540.81,119.86h0a153.17,153.17,0,0,0-19.3-2.46q-.74-10.35-1.79-20.71a71,71,0,0,1,15.79,3.78Q538.62,110.16,540.81,119.86Z"/><path class="cls-35" d="M475.94,141.29q-1.28,10.77-1.69,21.55-11.29.42-22.59,1.11a135.54,135.54,0,0,1,2.86-19.31Q465.23,142.54,475.94,141.29Z"/><path class="cls-35" d="M588.72,174.92a70.14,70.14,0,0,1-.44,7.88q-9.85,1-19.71,1.79a160,160,0,0,0,0-19.34q9.85.74,19.71,1.79A70.27,70.27,0,0,1,588.72,174.92Z"/><path class="cls-35" d="M497.71,210.78q-10.77-.42-21.55-1.69h0q-1.28-10.78-1.69-21.56,11.34.43,22.68.57Q497.3,199.44,497.71,210.78Z"/><path class="cls-35" d="M451.65,183.3q-10.11-.74-20.22-1.79a67.72,67.72,0,0,1,0-15.76q10.11-1,20.23-1.8A158.13,158.13,0,0,0,451.65,183.3Z"/><path class="cls-35" d="M560.17,224.09a145.59,145.59,0,0,1-8.51,17.31,92.5,92.5,0,0,1-15.95,7.91q3.12-10.09,5.31-20.16A159.28,159.28,0,0,0,560.17,224.09Z"/><path class="cls-35" d="M479.38,230a147.94,147.94,0,0,1-19.15-5.64,145.42,145.42,0,0,1-5.63-19.15q10.71,2.1,21.42,3.36h0Q477.28,219.29,479.38,230Z"/><path class="cls-35" d="M565.59,144.64q-10.71-2.1-21.43-3.35-1.24-10.71-3.35-21.43A147.34,147.34,0,0,1,560,125.5,145.8,145.8,0,0,1,565.59,144.64Z"/><path class="cls-37" d="M520.83,138.71q.42,11.34.55,22.69-11.34-.15-22.69,0,.15-11.35.56-22.69"/><path class="cls-30" d="M499,138.71c7.2-.28,15-.28,22.16,0"/><circle class="cls-15" cx="87.2" cy="448.05" r="40.38"/><circle class="cls-14" cx="87.2" cy="263.43" r="40.38"/><circle class="cls-38" cx="87.2" cy="78.82" r="40.38"/><circle class="cls-16" cx="87.2" cy="355.74" r="40.38"/><circle class="cls-4" cx="87.2" cy="171.12" r="40.38"/></g></g></svg>